<?xml version="1.0" encoding="UTF-8"?>
<svg version="1.1" xmlns="http://www.w3.org/2000/svg" width="272" height="272">
<path d="M0 0 C16.42209079 12.94069915 28.63216921 30.91127633 31.86328125 51.83203125 C33.62113805 74.99072748 30.17118862 96.10400396 15.55078125 114.70703125 C2.16348916 129.94478521 -15.90718424 142.64414589 -36.85302734 144.0090332 C-61.98749858 144.53432482 -83.33543033 140.73516895 -102.13671875 122.83203125 C-117.05004415 108.25986035 -126.22713851 89.47291443 -126.51757812 68.55810547 C-126.47467044 44.01848293 -119.80987552 25.02760692 -102.61328125 7.21875 C-74.90359627 -19.55644414 -31.37632427 -21.68600245 0 0 Z " fill="#45A8F6" transform="translate(183.13671875,71.16796875)"/>
<path d="M0 0 C10.80765384 6.01366319 17.38165398 13.81361105 20.84843445 25.59677124 C21.88182081 30.07534217 21.86295099 34.41202787 21.78515625 38.98828125 C21.78091141 39.95075775 21.77666656 40.91323425 21.77229309 41.90487671 C21.75567025 44.94079079 21.71805006 47.97600963 21.6796875 51.01171875 C21.66461943 53.08592783 21.65093477 55.16014744 21.63867188 57.234375 C21.60582069 62.28541895 21.55415426 67.3359515 21.4921875 72.38671875 C15.71218621 72.46147502 9.93247304 72.51560478 4.15209961 72.55151367 C2.1901356 72.56650034 0.22820452 72.58689668 -1.73364258 72.61303711 C-18.09127525 72.82536576 -31.11312769 72.24061497 -43.6953125 60.76171875 C-51.38012161 52.80461326 -53.79527674 43.19653667 -53.65234375 32.4765625 C-53.1496024 21.72876766 -49.04718217 13.37932713 -41.1328125 6.01171875 C-29.72576988 -3.52626452 -13.79700728 -5.97590741 0 0 Z " fill="#FDFEFE" transform="translate(148.5078125,99.61328125)"/>
</svg>
