<svg width="128" height="128" viewBox="0 0 128 128" fill="none" xmlns="http://www.w3.org/2000/svg">
    <path d="M79.8933 34.711C72.6761 34.711 66.6143 40.8732 66.6143 48.2077C66.6143 55.542 72.6761 61.3861 79.8933 61.3861C87.1105 61.3861 93.1722 55.4416 93.1722 48.2077C93.1722 40.9737 87.3281 34.711 79.8933 34.711Z" fill="#EF373C" />
    <path d="M79.8933 66.697C72.6761 66.697 66.6143 72.5411 66.6143 79.9759C66.6143 87.4108 72.6761 93.2549 79.8933 93.2549C87.1105 93.2549 93.1722 87.3103 93.1722 79.9759C93.1722 72.6414 87.3281 66.697 79.8933 66.697Z" fill="#EF373C" />
    <path d="M48.0239 34.711C40.5891 34.711 34.745 40.8732 34.745 48.2077C34.745 55.542 40.5891 61.3861 48.0239 61.3861C55.4589 61.3861 61.4034 55.4416 61.4034 48.2077C61.4034 40.9737 55.3417 34.711 48.0239 34.711Z" fill="#EF373C" />
    <path d="M48.0239 66.697C40.5891 66.697 34.745 72.5411 34.745 79.9759C34.745 87.4108 40.5891 93.2549 48.0239 93.2549C55.4589 93.2549 61.4034 87.3103 61.4034 79.9759C61.4034 72.6414 55.3417 66.697 48.0239 66.697Z" fill="#EF373C" />
    <path d="M64.0672 0.183594C28.6846 0.183594 0 28.6672 0 63.9326C0 99.1981 28.6846 128 64.0672 128C99.4498 128 128.034 99.3152 128.034 63.9326C128.034 28.55 99.3493 0.183594 64.0672 0.183594ZM64.0672 111.221C38.0283 111.221 16.7787 89.871 16.7787 63.9326C16.7787 37.9943 38.0283 16.8618 64.0672 16.8618C90.106 16.8618 111.138 37.8938 111.138 63.9326C111.138 89.9715 90.106 111.221 64.0672 111.221Z" fill="#EF373C" />
</svg>