<svg width="100" height="100" viewBox="0 0 100 100" xmlns="http://www.w3.org/2000/svg">
  <defs>
    <!-- Green gradient for the sheets logo -->
    <linearGradient id="sheetsGradient" x1="0%" y1="0%" x2="100%" y2="100%">
      <stop offset="0%" style="stop-color:#0F9D58;stop-opacity:1" />
      <stop offset="100%" style="stop-color:#0D7544;stop-opacity:1" />
    </linearGradient>
    
    <!-- Light green for folded corner -->
    <linearGradient id="cornerGradient" x1="0%" y1="0%" x2="100%" y2="100%">
      <stop offset="0%" style="stop-color:#C8E6C9;stop-opacity:1" />
      <stop offset="100%" style="stop-color:#A5D6A7;stop-opacity:1" />
    </linearGradient>
    
    <!-- Darker green for shadow -->
    <linearGradient id="shadowGradient" x1="0%" y1="0%" x2="100%" y2="100%">
      <stop offset="0%" style="stop-color:#388E3C;stop-opacity:1" />
      <stop offset="100%" style="stop-color:#2E7D32;stop-opacity:1" />
    </linearGradient>
  </defs>
  
  <!-- Sync arrows in background -->
  <g transform="translate(50,50)">
    <!-- Top-right curved arrow -->
    <path d="M 12,-35 A 36,36 0 0,1 35,-12 L 40,-12 L 30,-2 L 20,-12 L 25,-12 A 26,26 0 0,0 12,-25 Z" 
          fill="#7CB342" />
    
    <!-- Bottom-left curved arrow -->
    <path d="M -12,35 A 36,36 0 0,1 -35,12 L -40,12 L -30,2 L -20,12 L -25,12 A 26,26 0 0,0 -12,25 Z" 
          fill="#7CB342" />
  </g>
  
  <!-- Google Sheets document -->
  <g transform="translate(50,50)">
    <!-- Main document body -->
    <path d="M -18,-20 L -18,20 A 4,4 0 0,0 -14,24 L 14,24 A 4,4 0 0,0 18,20 L 18,-8 L 6,-20 Z" 
          fill="url(#sheetsGradient)"/>
    
    <!-- Folded corner -->
    <path d="M 6,-20 L 18,-8 L 6,-8 Z" 
          fill="url(#cornerGradient)"/>
    
    <!-- Shadow under folded corner -->
    <path d="M 6,-8 L 18,-8 L 15,-5 L 6,-5 Z" 
          fill="url(#shadowGradient)" opacity="0.3"/>
    
    <!-- Spreadsheet grid container -->
    <rect x="-12" y="-2" width="18" height="14" rx="1" ry="1" 
          fill="white" opacity="0.9"/>
    
    <!-- Grid cells (3x3 grid) -->
    <!-- Row 1 -->
    <rect x="-10" y="0" width="4" height="3" fill="#0F9D58"/>
    <rect x="-5" y="0" width="8" height="3" fill="#0F9D58"/>
    
    <!-- Row 2 -->
    <rect x="-10" y="4" width="4" height="3" fill="#0F9D58"/>
    <rect x="-5" y="4" width="8" height="3" fill="#0F9D58"/>
    
    <!-- Row 3 -->
    <rect x="-10" y="8" width="4" height="3" fill="#0F9D58"/>
    <rect x="-5" y="8" width="8" height="3" fill="#0F9D58"/>
  </g>
  
  <!-- Additional sync arrows for full circular effect -->
  <g transform="translate(50,50)">
    <!-- Bottom-right curved arrow -->
    <path d="M 35,12 A 36,36 0 0,1 12,35 L 12,40 L 2,30 L 12,20 L 12,25 A 26,26 0 0,0 25,12 Z" 
          fill="#7CB342" opacity="0.7"/>
    
    <!-- Top-left curved arrow -->
    <path d="M -35,-12 A 36,36 0 0,1 -12,-35 L -12,-40 L -2,-30 L -12,-20 L -12,-25 A 26,26 0 0,0 -25,-12 Z" 
          fill="#7CB342" opacity="0.7"/>
  </g>
</svg>