<svg role="img" viewBox="0 0 24 24" xmlns="http://www.w3.org/2000/svg" id="Mintlify--Streamline-Simple-Icons" height="24" width="24">
  <desc>
    Mintlify Streamline Icon: https://streamlinehq.com
  </desc>
  <title>Mintlify</title>
  <path d="M15.158 0.002a8.807 8.807 0 0 0 -6.249 2.59l-0.062 0.063h-0.003L2.655 8.844a0.605 0.605 0 0 0 -0.062 0.058 8.838 8.838 0 0 0 -0.83 11.55l6.251 -6.249 0.065 -0.063a8.778 8.778 0 0 1 -1.758 -5.385 8.784 8.784 0 0 1 0.283 -2.151 8.993 8.993 0 0 1 2.151 -0.286 8.802 8.802 0 0 1 5.386 1.76 8.81 8.81 0 0 1 3.032 4.11 8.879 8.879 0 0 1 0.225 5.21 8.784 8.784 0 0 0 -0.341 0.082 8.846 8.846 0 0 1 -4.868 -0.303 8.679 8.679 0 0 1 -2.323 -1.25l-0.064 0.065L3.55 22.24a8.85 8.85 0 0 0 11.548 -0.83l0.06 -0.062 6.19 -6.187a8.801 8.801 0 0 1 -0.367 0.337c0.125 -0.11 0.247 -0.224 0.366 -0.341l0.063 -0.058A8.817 8.817 0 0 0 24 8.844V0.002ZM8.38 3.17Zm-0.325 0.413Zm-0.328 0.475Zm-0.31 0.518Zm-0.235 0.455Zm-0.283 0.66zm-0.156 0.447Zm14.147 9.44zm-0.43 0.343zm-1.005 0.65zm-0.533 0.274zm-0.475 0.207z" fill="#000000" stroke-width="1"></path>
</svg>