<svg width="141" height="119" viewBox="0 0 141 119" fill="none" xmlns="http://www.w3.org/2000/svg">
<path d="M62.8487 2.13658L10.5954 23.8292C7.68963 25.0354 7.71975 29.1761 10.6441 30.3394L63.1154 51.2154C67.7258 53.0499 72.8601 53.0499 77.4704 51.2154L129.943 30.3389C132.866 29.1766 132.897 25.0359 129.99 23.8292L77.7377 2.13603C72.9707 0.15713 67.6157 0.15713 62.8487 2.13603" fill="#FFBF00"/>
<path d="M74.9485 62.6141V114.765C74.9485 117.246 77.4407 118.945 79.739 118.031L138.209 95.261C138.861 95.0017 139.42 94.5517 139.814 93.9696C140.208 93.3875 140.419 92.7 140.419 91.9963V39.8445C140.419 37.3639 137.926 35.6659 135.628 36.5797L77.1581 59.3488C76.5061 59.6084 75.9468 60.0584 75.5527 60.6406C75.1586 61.2228 74.948 61.9104 74.948 62.6141" fill="#26B5F8"/>
<path d="M61.2952 65.3054L43.943 73.7109L42.1809 74.5655L5.55065 92.174C3.22881 93.2977 0.265015 91.6003 0.265015 89.0125V40.0634C0.265015 39.127 0.743734 38.3186 1.38568 37.7098C1.64868 37.4472 1.94698 37.2229 2.27191 37.0432C3.14719 36.5162 4.39603 36.3755 5.45754 36.797L61.0033 58.877C63.8269 60.0008 64.0487 63.97 61.2952 65.3048" fill="#ED3049"/>
<path d="M61.2953 65.3063L43.9431 73.7119L1.38525 37.7112C1.64825 37.4487 1.94655 37.2243 2.27149 37.0447C3.14677 36.5177 4.3956 36.377 5.45711 36.7985L61.0029 58.8785C63.8264 60.0023 64.0483 63.9715 61.2948 65.3063" fill="black" fill-opacity="0.25"/>
</svg>
