<?xml version="1.0" encoding="UTF-8"?>
<svg xmlns="http://www.w3.org/2000/svg" xmlns:xlink="http://www.w3.org/1999/xlink" width="256px" height="256px" viewBox="0 0 256 256" version="1.1">
<defs>
<linearGradient id="linear0" gradientUnits="userSpaceOnUse" x1="0" y1="0" x2="1" y2="0" gradientTransform="matrix(134.566488,-233.075995,233.075995,134.566488,60.82202,244.452418)">
<stop offset="0" style="stop-color:rgb(3.137255%,27.058824%,74.901961%);stop-opacity:1;"/>
<stop offset="0.6" style="stop-color:rgb(4.313725%,36.078431%,100%);stop-opacity:1;"/>
<stop offset="1" style="stop-color:rgb(30.980392%,56.470588%,93.333333%);stop-opacity:1;"/>
</linearGradient>
</defs>
<g id="surface1">
<path style=" stroke:none;fill-rule:nonzero;fill:url(#linear0);" d="M 255.855469 127.914062 C 255.855469 141.578125 254.753906 154.972656 252.65625 168.035156 C 245.714844 211.273438 211.460938 245.523438 168.222656 252.46875 C 154.957031 254.597656 141.542969 255.667969 128.105469 255.664062 C 114.445312 255.664062 101.050781 254.566406 87.984375 252.46875 C 44.746094 245.523438 10.496094 211.273438 3.550781 168.035156 C 1.421875 154.765625 0.351562 141.351562 0.355469 127.914062 C 0.355469 114.253906 1.453125 100.859375 3.550781 87.796875 C 10.496094 44.558594 44.746094 10.304688 87.984375 3.363281 C 101.253906 1.230469 114.667969 0.164062 128.105469 0.164062 C 141.765625 0.164062 155.160156 1.265625 168.222656 3.363281 C 211.460938 10.304688 245.714844 44.558594 252.65625 87.796875 C 254.789062 101.0625 255.855469 114.480469 255.855469 127.914062 Z M 255.855469 127.914062 "/>
<path style=" stroke:none;fill-rule:nonzero;fill:rgb(100%,100%,100%);fill-opacity:1;" d="M 76.652344 147.480469 L 44.960938 147.480469 C 42.746094 147.484375 40.746094 146.144531 39.902344 144.097656 C 39.050781 142.050781 39.519531 139.691406 41.089844 138.128906 L 63.039062 116.179688 L 47.308594 116.179688 C 42.984375 116.179688 39.480469 112.675781 39.480469 108.351562 L 68.707031 108.351562 C 70.929688 108.351562 72.917969 109.679688 73.765625 111.730469 C 74.621094 113.777344 74.152344 116.136719 72.582031 117.703125 L 50.628906 139.652344 L 68.824219 139.652344 C 73.148438 139.652344 76.652344 143.15625 76.652344 147.480469 Z M 216.726562 123.023438 C 216.726562 114.613281 209.882812 107.765625 201.46875 107.765625 C 196.96875 107.765625 192.917969 109.722656 190.121094 112.832031 C 187.324219 109.722656 183.273438 107.765625 178.777344 107.765625 C 170.359375 107.765625 163.515625 114.609375 163.515625 123.023438 L 163.515625 147.480469 C 167.835938 147.480469 171.339844 143.976562 171.339844 139.652344 L 171.339844 123.023438 C 171.339844 118.925781 174.675781 115.589844 178.773438 115.589844 C 182.875 115.589844 186.207031 118.925781 186.207031 123.023438 L 186.207031 139.652344 C 186.207031 143.976562 189.710938 147.480469 194.035156 147.480469 L 194.035156 123.023438 C 194.035156 118.925781 197.367188 115.589844 201.46875 115.589844 C 205.566406 115.589844 208.902344 118.925781 208.902344 123.023438 L 208.902344 139.652344 C 208.902344 143.976562 212.40625 147.480469 216.726562 147.480469 Z M 159.601562 127.914062 C 159.601562 139.046875 150.582031 148.066406 139.453125 148.066406 C 128.320312 148.066406 119.300781 139.046875 119.300781 127.914062 C 119.300781 116.785156 128.320312 107.765625 139.453125 107.765625 C 150.582031 107.765625 159.601562 116.785156 159.601562 127.914062 Z M 151.777344 127.914062 C 151.777344 121.109375 146.257812 115.589844 139.453125 115.589844 C 132.644531 115.589844 127.125 121.109375 127.125 127.914062 C 127.125 134.722656 132.644531 140.242188 139.449219 140.242188 C 146.257812 140.242188 151.777344 134.722656 151.777344 127.914062 Z M 116.171875 127.914062 C 116.171875 139.046875 107.148438 148.066406 96.023438 148.066406 C 84.890625 148.066406 75.871094 139.046875 75.871094 127.914062 C 75.871094 116.785156 84.890625 107.765625 96.023438 107.765625 C 107.148438 107.765625 116.171875 116.785156 116.171875 127.914062 Z M 108.34375 127.914062 C 108.34375 121.109375 102.828125 115.589844 96.023438 115.589844 C 89.210938 115.589844 83.695312 121.109375 83.695312 127.914062 C 83.695312 134.722656 89.210938 140.242188 96.023438 140.242188 C 102.828125 140.242188 108.34375 134.722656 108.34375 127.914062 Z M 108.34375 127.914062 "/>
</g>
</svg>
