<svg width="241" height="241" viewBox="0 0 241 241" fill="none" xmlns="http://www.w3.org/2000/svg">
<rect width="241" height="241" rx="34" fill="#AAAAAA"/>
<path d="M102 112L130.5 95.5L127.5 86L98 103L102 112Z" fill="white"/>
<path d="M133 157.5L98.5 137.5L101 128.5L136 148.5L133 157.5Z" fill="white"/>
<path d="M172.014 179.812L155.014 189.672C152.532 191.112 149.468 191.112 146.986 189.672L129.986 179.812C127.519 178.381 126 175.744 126 172.892V152.608C126 149.756 127.519 147.119 129.986 145.688L146.986 135.828C149.468 134.388 152.532 134.388 155.014 135.828L172.014 145.688C174.481 147.119 176 149.756 176 152.608V172.892C176 175.744 174.481 178.381 172.014 179.812Z" fill="white"/>
<path d="M103 110.108V130.392C103 133.244 101.481 135.881 99.0137 137.312L98.5698 137.57L83.5 129L92 141.38L82.0137 147.172C79.5316 148.612 76.4684 148.612 73.9863 147.172L56.9863 137.312C54.5188 135.881 53 133.244 53 130.392V110.108C53 107.256 54.5188 104.619 56.9863 103.188L73.9863 93.328C76.4684 91.8883 79.5316 91.8883 82.0137 93.328L99.0137 103.188C101.481 104.619 103 107.256 103 110.108Z" fill="white"/>
<path d="M172.014 95.312L155.014 105.172C152.532 106.612 149.468 106.612 146.986 105.172L137.789 99.8376L147.5 85.5L130.425 95.5666L129.986 95.312C127.519 93.8809 126 91.2442 126 88.3918V68.1082C126 65.2558 127.519 62.6191 129.986 61.188L146.986 51.328C149.468 49.8883 152.532 49.8883 155.014 51.328L172.014 61.188C174.481 62.6191 176 65.2558 176 68.1082V88.3918C176 91.2442 174.481 93.8809 172.014 95.312Z" fill="white"/>
</svg>