<svg width="30" height="30" viewBox="0 0 30 30" fill="none" xmlns="http://www.w3.org/2000/svg">
<path fill-rule="evenodd" clip-rule="evenodd" d="M30 27.4219V28.8281C29.3528 28.8281 28.8281 29.3528 28.8281 30H27.4219C27.4219 29.3528 26.8972 28.8281 26.25 28.8281C25.6028 28.8281 25.0781 29.3528 25.0781 30H23.6719C23.6719 29.3528 23.1472 28.8281 22.5 28.8281C21.8528 28.8281 21.3281 29.3528 21.3281 30H19.9219C19.9219 29.3528 19.3972 28.8281 18.75 28.8281C18.1028 28.8281 17.5781 29.3528 17.5781 30H16.1719C16.1719 29.3528 15.6472 28.8281 15 28.8281C14.3528 28.8281 13.8281 29.3528 13.8281 30H12.4219C12.4219 29.3528 11.8972 28.8281 11.25 28.8281C10.6028 28.8281 10.0781 29.3528 10.0781 30H8.67188C8.67188 29.3528 8.14721 28.8281 7.5 28.8281C6.85279 28.8281 6.32812 29.3528 6.32812 30H4.92188C4.92188 29.5813 4.69852 29.1945 4.33594 28.9851C3.97336 28.7758 3.52664 28.7758 3.16406 28.9851C2.80148 29.1945 2.57812 29.5813 2.57812 30H1.17188C1.17188 29.3528 0.647209 28.8281 0 28.8281V27.4219C0.647209 27.4219 1.17188 26.8972 1.17188 26.25C1.17188 25.6028 0.647209 25.0781 0 25.0781V23.6719C0.647209 23.6719 1.17188 23.1472 1.17188 22.5C1.17188 21.8528 0.647209 21.3281 0 21.3281V19.9219C0.647209 19.9219 1.17188 19.3972 1.17188 18.75C1.17188 18.1028 0.647209 17.5781 0 17.5781V16.1719C0.647209 16.1719 1.17188 15.6472 1.17188 15C1.17188 14.3528 0.647209 13.8281 0 13.8281V12.4219C0.647209 12.4219 1.17188 11.8972 1.17188 11.25C1.17188 10.6028 0.647209 10.0781 0 10.0781V8.67188C0.647209 8.67188 1.17188 8.14721 1.17188 7.5C1.17188 6.85279 0.647209 6.32812 0 6.32812V4.92188C0.647209 4.92187 1.17188 4.39721 1.17188 3.75C1.17188 3.10279 0.647209 2.57813 0 2.57812V1.17188C0.647209 1.17188 1.17188 0.647209 1.17188 0H2.57812C2.57813 0.647209 3.10279 1.17188 3.75 1.17188C4.39721 1.17188 4.92187 0.647209 4.92188 0H6.32812C6.32812 0.647209 6.85279 1.17188 7.5 1.17188C8.14721 1.17188 8.67188 0.647209 8.67188 0H10.0781C10.0781 0.647209 10.6028 1.17188 11.25 1.17188C11.8972 1.17188 12.4219 0.647209 12.4219 0H13.8281C13.8281 0.647209 14.3528 1.17188 15 1.17188C15.6472 1.17188 16.1719 0.647209 16.1719 0H17.5781C17.5781 0.647209 18.1028 1.17188 18.75 1.17188C19.3972 1.17188 19.9219 0.647209 19.9219 0H21.3281C21.3281 0.647209 21.8528 1.17188 22.5 1.17188C23.1472 1.17188 23.6719 0.647209 23.6719 0H25.0781C25.0781 0.647209 25.6028 1.17188 26.25 1.17188C26.8972 1.17188 27.4219 0.647209 27.4219 0H28.8281C28.8281 0.647209 29.3528 1.17188 30 1.17188V2.57812C29.3528 2.57812 28.8281 3.10279 28.8281 3.75C28.8281 4.39721 29.3528 4.92188 30 4.92188V6.32812C29.3528 6.32812 28.8281 6.85279 28.8281 7.5C28.8281 8.14721 29.3528 8.67188 30 8.67188V10.0781C29.3528 10.0781 28.8281 10.6028 28.8281 11.25C28.8281 11.8972 29.3528 12.4219 30 12.4219V13.8281C29.5813 13.8281 29.1945 14.0515 28.9851 14.4141C28.7758 14.7766 28.7758 15.2234 28.9851 15.5859C29.1945 15.9485 29.5813 16.1719 30 16.1719V17.5781C29.3528 17.5781 28.8281 18.1028 28.8281 18.75C28.8281 19.3972 29.3528 19.9219 30 19.9219V21.3281C29.3528 21.3281 28.8281 21.8528 28.8281 22.5C28.8281 23.1472 29.3528 23.6719 30 23.6719V25.0781C29.3528 25.0781 28.8281 25.6028 28.8281 26.25C28.8281 26.8972 29.3528 27.4219 30 27.4219V27.4219Z" fill="#FFDE00"/>
<path d="M8.70312 21.3804H9.63846C10.1188 21.3804 10.4221 21.0705 10.4221 20.5798V9.62885C10.4221 9.13812 10.1188 8.82819 9.63846 8.82819H8.70312V6.40039H15.478C19.1182 6.40039 22 8.28581 22 11.8759C22 15.4917 19.1182 17.3772 15.478 17.3772H13.1523V20.5798C13.1523 21.0705 13.4556 21.3804 13.9612 21.3804H15.8571V23.8341H8.70312V21.3804ZM15.2757 14.846C17.6773 14.846 19.0676 13.8129 19.0676 11.9275C19.0676 9.99044 17.6773 9.00899 15.2757 9.00899H13.1523V14.8719H15.2757V14.846Z" fill="black"/>
</svg>
