<?xml version="1.0" encoding="utf-8"?>
<!-- Generator: Adobe Illustrator 16.0.0, SVG Export Plug-In . SVG Version: 6.00 Build 0)  -->
<!DOCTYPE svg PUBLIC "-//W3C//DTD SVG 1.1//EN" "http://www.w3.org/Graphics/SVG/1.1/DTD/svg11.dtd">
<svg version="1.1" id="Layer_1" xmlns="http://www.w3.org/2000/svg" xmlns:xlink="http://www.w3.org/1999/xlink" x="0px" y="0px"
	 width="612px" height="612.397px" viewBox="0 0 612 612.397" enable-background="new 0 0 612 612.397" xml:space="preserve">
<g>
	<g>
		<path fill="#ECB32D" d="M397.222,37.753c-9.55-28.649-40.21-44.23-68.859-35.184c-28.649,9.55-44.23,40.209-35.184,68.858
			l141.235,434.262c9.552,26.64,38.703,41.718,66.348,33.676c29.151-8.543,46.741-39.204,37.191-67.351
			C537.953,471.01,397.222,37.753,397.222,37.753z"/>
		<path fill="#63C1A0" d="M178.582,108.622c-9.55-28.649-40.209-44.23-68.858-35.184c-28.649,9.55-44.23,40.209-35.184,68.858
			l141.236,434.262c9.55,26.64,38.703,41.718,66.346,33.676c29.151-8.543,46.743-39.204,37.194-67.351
			C319.315,541.879,178.582,108.622,178.582,108.622z"/>
		<path fill="#E01A59" d="M575.147,397.125c28.648-9.55,44.231-40.209,35.185-68.858c-9.55-28.651-40.211-44.232-68.86-35.185
			L106.708,434.82c-26.638,9.55-41.717,38.701-33.675,66.346c8.544,29.151,39.204,46.744,67.35,37.194
			C141.389,538.36,575.147,397.125,575.147,397.125z"/>
		<path fill="#331433" d="M197.179,520.266c28.146-9.047,64.838-21.109,104.042-33.675c-9.046-28.147-21.11-64.839-33.675-104.042
			l-104.042,33.675L197.179,520.266z"/>
		<path fill="#D62027" d="M416.321,448.895c39.203-12.566,75.896-24.628,104.042-33.676c-9.048-28.146-21.111-64.838-33.676-104.042
			l-104.041,33.675L416.321,448.895z"/>
		<path fill="#89D3DF" d="M503.775,178.486c28.649-9.55,44.232-40.21,35.185-68.859c-9.55-28.649-40.21-44.229-68.859-35.184
			L35.838,215.679c-26.639,9.55-41.717,38.702-33.675,66.347c8.544,29.151,39.204,46.744,67.35,37.194
			C70.52,319.22,503.775,178.486,503.775,178.486z"/>
		<path fill="#258B74" d="M126.31,301.125c28.146-9.047,64.838-21.111,104.042-33.676c-12.565-39.204-24.628-75.896-33.675-104.042
			L92.634,197.082L126.31,301.125z"/>
		<path fill="#819C3C" d="M344.947,230.256c39.206-12.566,75.897-24.629,104.044-33.676c-12.565-39.204-24.63-75.896-33.677-104.042
			l-104.042,33.675L344.947,230.256z"/>
	</g>
</g>
</svg>
