<?xml version="1.0" standalone="yes"?>

<svg version="1.1" viewBox="0.0 0.0 960.0 720.0" fill="none" stroke="none" stroke-linecap="square" stroke-miterlimit="10" xmlns="http://www.w3.org/2000/svg" xmlns:xlink="http://www.w3.org/1999/xlink"><clipPath id="p.0"><path d="m0 0l960.0 0l0 720.0l-960.0 0l0 -720.0z" clip-rule="nonzero"></path></clipPath><g clip-path="url(#p.0)"><path fill="#000000" fill-opacity="0.0" d="m0 0l960.0 0l0 720.0l-960.0 0z" fill-rule="evenodd"></path><path fill="#ffffff" d="m148.0 129.0l121.00787 0l0 61.007874l-121.00787 0z" fill-rule="evenodd"></path><path stroke="#000000" stroke-width="1.0" stroke-linejoin="round" stroke-linecap="butt" d="m148.0 129.0l121.00787 0l0 61.007874l-121.00787 0z" fill-rule="evenodd"></path><path fill="#000000" d="m189.80911 153.92393q3.296875 0 4.765625 2.609375l-1.296875 1.046875q-0.5625 -1.234375 -1.34375 -1.734375q-0.765625 -0.515625 -2.109375 -0.515625q-1.40625 0 -2.21875 0.59375q-0.8125 0.578125 -0.8125 1.484375q0 0.609375 0.3125 1.0q0.3125 0.390625 1.046875 0.6875q0.75 0.28125 2.046875 0.5q2.453125 0.40625 3.46875 1.234375q1.015625 0.8125 1.015625 2.265625q0 1.046875 -0.59375 1.84375q-0.59375 0.796875 -1.671875 1.234375q-1.078125 0.4375 -2.5 0.4375q-1.859375 0 -3.1875 -0.71875q-1.3125 -0.734375 -2.0 -1.953125l1.296875 -1.046875q0.5 1.109375 1.46875 1.71875q0.984375 0.59375 2.46875 0.59375q1.453125 0 2.3125 -0.53125q0.859375 -0.53125 0.859375 -1.5q0 -0.8125 -0.75 -1.296875q-0.75 -0.484375 -2.65625 -0.828125q-2.453125 -0.421875 -3.484375 -1.21875q-1.03125 -0.8125 -1.03125 -2.25q0 -0.984375 0.5625 -1.828125q0.5625 -0.84375 1.609375 -1.328125q1.046875 -0.5 2.421875 -0.5zm9.146179 10.0q0 0.703125 0.203125 0.984375q0.21875 0.265625 0.796875 0.265625q0.390625 0 0.671875 -0.046875q0.296875 -0.0625 0.6875 -0.21875l-0.234375 1.4375q-0.609375 0.265625 -1.375 0.265625q-1.140625 0 -1.703125 -0.609375q-0.546875 -0.625 -0.546875 -1.890625l0 -11.3125l1.5 0l0 11.125zm11.943176 1.421875q0.359375 0 0.734375 -0.09375l-0.09375 1.171875q-0.515625 0.1875 -1.109375 0.1875q-0.734375 0 -1.15625 -0.3125q-0.421875 -0.328125 -0.53125 -1.0625q-0.421875 0.640625 -1.25 1.015625q-0.828125 0.359375 -1.75 0.359375q-1.375 0 -2.28125 -0.640625q-0.890625 -0.640625 -0.890625 -1.859375q0 -1.0625 0.921875 -1.828125q0.9375 -0.78125 2.71875 -1.078125l2.484375 -0.421875l0 -0.515625q0 -0.9375 -0.578125 -1.484375q-0.578125 -0.5625 -1.609375 -0.5625q-0.9375 0 -1.625 0.453125q-0.671875 0.4375 -1.046875 1.3125l-1.09375 -0.796875q0.375 -1.046875 1.390625 -1.65625q1.015625 -0.625 2.375 -0.625q1.65625 0 2.65625 0.8125q1.015625 0.796875 1.015625 2.359375l0 4.59375q0 0.328125 0.171875 0.5q0.171875 0.171875 0.546875 0.171875zm-5.078125 -0.046875q1.171875 0 2.015625 -0.546875q0.859375 -0.5625 0.859375 -1.46875l0 -1.28125l-2.09375 0.390625q-1.25 0.21875 -1.875 0.640625q-0.609375 0.421875 -0.609375 1.078125q0 0.578125 0.4375 0.890625q0.453125 0.296875 1.265625 0.296875zm11.918823 -8.390625q1.40625 0 2.359375 0.640625q0.96875 0.640625 1.5 1.84375l-1.421875 0.671875q-0.59375 -1.84375 -2.46875 -1.84375q-1.40625 0 -2.203125 0.9375q-0.78125 0.9375 -0.78125 2.59375q0 1.671875 0.78125 2.609375q0.796875 0.9375 2.203125 0.9375q1.078125 0 1.734375 -0.484375q0.671875 -0.5 0.875 -1.4375l1.375 0.484375q-0.484375 1.3125 -1.5 2.03125q-1.0 0.71875 -2.453125 0.71875q-2.109375 0 -3.3125 -1.28125q-1.203125 -1.296875 -1.203125 -3.578125q0 -2.265625 1.203125 -3.546875q1.203125 -1.296875 3.3125 -1.296875zm10.053375 4.90625l-1.96875 1.984375l0 2.625l-1.5 0l0 -13.625l1.5 0l0 9.125l4.828125 -4.828125l1.859375 0l-3.640625 3.640625l3.875 5.6875l-1.8125 0l-3.140625 -4.609375z" fill-rule="nonzero"></path><path fill="#ffffff" d="m182.0 177.0l121.00787 0l0 61.007874l-121.00787 0z" fill-rule="evenodd"></path><path stroke="#000000" stroke-width="1.0" stroke-linejoin="round" stroke-linecap="butt" d="m182.0 177.0l121.00787 0l0 61.007874l-121.00787 0z" fill-rule="evenodd"></path><path fill="#000000" d="m207.6677 214.42393l-1.421875 0l0 -7.75l0.171875 -3.234375l-0.015625 0l-4.0625 10.984375l-1.265625 0l-4.046875 -10.984375l-0.015625 0l0.171875 3.234375l0 7.75l-1.421875 0l0 -12.3125l2.296875 0l2.703125 7.484375l0.9375 3.078125l0.03125 0l0.953125 -3.0625l2.6875 -7.5l2.296875 0l0 12.3125zm11.744934 -5.15625q0 0.53125 -0.078125 1.046875l-7.03125 0q0.140625 1.421875 0.953125 2.203125q0.8125 0.78125 2.09375 0.78125q1.03125 0 1.703125 -0.34375q0.6875 -0.359375 0.921875 -1.03125l1.25 0.65625q-0.546875 0.984375 -1.484375 1.515625q-0.9375 0.515625 -2.390625 0.515625q-2.109375 0 -3.3125 -1.28125q-1.203125 -1.296875 -1.203125 -3.578125q0 -2.265625 1.140625 -3.546875q1.15625 -1.296875 3.265625 -1.296875q1.296875 0 2.25 0.578125q0.953125 0.578125 1.4375 1.578125q0.484375 0.984375 0.484375 2.203125zm-4.171875 -3.046875q-1.234375 0 -2.0 0.734375q-0.75 0.71875 -0.90625 2.046875l5.640625 0q-0.140625 -1.3125 -0.859375 -2.046875q-0.703125 -0.734375 -1.875 -0.734375zm10.183044 8.390625q-1.34375 0 -2.421875 -0.53125q-1.078125 -0.53125 -1.59375 -1.578125l1.21875 -0.84375q0.3125 0.828125 1.09375 1.234375q0.796875 0.40625 1.859375 0.40625q1.09375 0 1.671875 -0.390625q0.578125 -0.390625 0.578125 -0.984375q0 -0.546875 -0.546875 -0.859375q-0.53125 -0.328125 -1.890625 -0.578125q-1.34375 -0.234375 -2.140625 -0.578125q-0.78125 -0.359375 -1.140625 -0.890625q-0.34375 -0.53125 -0.34375 -1.3125q0 -0.765625 0.4375 -1.390625q0.453125 -0.640625 1.296875 -1.015625q0.84375 -0.390625 1.9375 -0.390625q1.5 0 2.40625 0.5625q0.90625 0.546875 1.296875 1.671875l-1.28125 0.75q-0.296875 -0.890625 -0.90625 -1.28125q-0.59375 -0.390625 -1.515625 -0.390625q-0.90625 0 -1.546875 0.40625q-0.625 0.40625 -0.625 0.953125q0 0.609375 0.546875 0.953125q0.546875 0.328125 1.96875 0.578125q1.9375 0.3125 2.734375 0.953125q0.8125 0.625 0.8125 1.78125q0 0.8125 -0.484375 1.4375q-0.46875 0.625 -1.359375 0.984375q-0.890625 0.34375 -2.0625 0.34375zm9.831848 0q-1.34375 0 -2.421875 -0.53125q-1.078125 -0.53125 -1.59375 -1.578125l1.21875 -0.84375q0.3125 0.828125 1.09375 1.234375q0.796875 0.40625 1.859375 0.40625q1.09375 0 1.671875 -0.390625q0.578125 -0.390625 0.578125 -0.984375q0 -0.546875 -0.546875 -0.859375q-0.53125 -0.328125 -1.890625 -0.578125q-1.34375 -0.234375 -2.140625 -0.578125q-0.78125 -0.359375 -1.140625 -0.890625q-0.34375 -0.53125 -0.34375 -1.3125q0 -0.765625 0.4375 -1.390625q0.453125 -0.640625 1.296875 -1.015625q0.84375 -0.390625 1.9375 -0.390625q1.5 0 2.40625 0.5625q0.90625 0.546875 1.296875 1.671875l-1.28125 0.75q-0.296875 -0.890625 -0.90625 -1.28125q-0.59375 -0.390625 -1.515625 -0.390625q-0.90625 0 -1.546875 0.40625q-0.625 0.40625 -0.625 0.953125q0 0.609375 0.546875 0.953125q0.546875 0.328125 1.96875 0.578125q1.9375 0.3125 2.734375 0.953125q0.8125 0.625 0.8125 1.78125q0 0.8125 -0.484375 1.4375q-0.46875 0.625 -1.359375 0.984375q-0.890625 0.34375 -2.0625 0.34375zm14.659973 -5.34375q0 0.53125 -0.078125 1.046875l-7.03125 0q0.140625 1.421875 0.953125 2.203125q0.8125 0.78125 2.09375 0.78125q1.03125 0 1.703125 -0.34375q0.6875 -0.359375 0.921875 -1.03125l1.25 0.65625q-0.546875 0.984375 -1.484375 1.515625q-0.9375 0.515625 -2.390625 0.515625q-2.109375 0 -3.3125 -1.28125q-1.203125 -1.296875 -1.203125 -3.578125q0 -2.265625 1.140625 -3.546875q1.15625 -1.296875 3.265625 -1.296875q1.296875 0 2.25 0.578125q0.953125 0.578125 1.4375 1.578125q0.484375 0.984375 0.484375 2.203125zm-4.171875 -3.046875q-1.234375 0 -2.0 0.734375q-0.75 0.71875 -0.90625 2.046875l5.640625 0q-0.140625 -1.3125 -0.859375 -2.046875q-0.703125 -0.734375 -1.875 -0.734375zm11.542389 -1.3125q1.59375 0 2.609375 0.921875q1.03125 0.90625 1.03125 2.625l0 5.96875l-1.5 0l0 -5.453125q0 -1.453125 -0.625 -2.09375q-0.625 -0.65625 -1.65625 -0.65625q-0.75 0 -1.40625 0.328125q-0.65625 0.3125 -1.078125 1.0625q-0.40625 0.734375 -0.40625 1.84375l0 4.96875l-1.5 0l0 -9.328125l1.3125 0l0.09375 1.453125q0.453125 -0.84375 1.28125 -1.234375q0.828125 -0.40625 1.84375 -0.40625zm12.220093 8.328125q1.328125 0 2.0625 0.59375q0.75 0.59375 0.75 1.625q0 0.890625 -0.609375 1.5625q-0.609375 0.6875 -1.671875 1.046875q-1.046875 0.375 -2.3125 0.375q-2.140625 0 -3.21875 -0.6875q-1.078125 -0.671875 -1.078125 -1.78125q0 -0.625 0.4375 -1.125q0.4375 -0.484375 1.203125 -0.6875q-0.578125 -0.28125 -0.921875 -0.703125q-0.34375 -0.4375 -0.34375 -1.015625q0 -0.6875 0.375 -1.140625q0.375 -0.453125 1.015625 -0.6875q-0.671875 -0.40625 -1.015625 -1.0625q-0.34375 -0.671875 -0.34375 -1.484375q0 -0.921875 0.484375 -1.640625q0.484375 -0.71875 1.359375 -1.109375q0.890625 -0.40625 1.984375 -0.40625q1.046875 0 1.90625 0.375q0.515625 -1.90625 2.625 -1.90625l0.34375 1.3125q-1.828125 0 -2.21875 1.015625q0.546875 0.4375 0.859375 1.03125q0.3125 0.59375 0.3125 1.328125q0 0.90625 -0.484375 1.625q-0.484375 0.71875 -1.375 1.125q-0.875 0.40625 -1.96875 0.40625q-0.828125 0 -1.4375 -0.171875q-0.5625 0.125 -0.8125 0.40625q-0.234375 0.28125 -0.234375 0.765625q0 0.484375 0.328125 0.75q0.34375 0.265625 0.90625 0.265625l3.09375 0zm-1.84375 -7.109375q-0.96875 0 -1.625 0.546875q-0.65625 0.53125 -0.65625 1.390625q0 0.859375 0.65625 1.40625q0.65625 0.53125 1.625 0.53125q0.96875 0 1.625 -0.53125q0.65625 -0.546875 0.65625 -1.40625q0 -0.859375 -0.65625 -1.390625q-0.65625 -0.546875 -1.625 -0.546875zm0.21875 11.0625q1.421875 0 2.234375 -0.46875q0.828125 -0.453125 0.828125 -1.109375q0 -0.53125 -0.421875 -0.8125q-0.421875 -0.28125 -1.421875 -0.28125l-2.5 0q-0.859375 0 -1.328125 0.296875q-0.46875 0.3125 -0.46875 0.859375q0 0.703125 0.78125 1.109375q0.796875 0.40625 2.296875 0.40625zm14.664154 -7.921875q0 0.53125 -0.078125 1.046875l-7.03125 0q0.140625 1.421875 0.953125 2.203125q0.8125 0.78125 2.09375 0.78125q1.03125 0 1.703125 -0.34375q0.6875 -0.359375 0.921875 -1.03125l1.25 0.65625q-0.546875 0.984375 -1.484375 1.515625q-0.9375 0.515625 -2.390625 0.515625q-2.109375 0 -3.3125 -1.28125q-1.203125 -1.296875 -1.203125 -3.578125q0 -2.265625 1.140625 -3.546875q1.15625 -1.296875 3.265625 -1.296875q1.296875 0 2.25 0.578125q0.953125 0.578125 1.4375 1.578125q0.484375 0.984375 0.484375 2.203125zm-4.171875 -3.046875q-1.234375 0 -2.0 0.734375q-0.75 0.71875 -0.90625 2.046875l5.640625 0q-0.140625 -1.3125 -0.859375 -2.046875q-0.703125 -0.734375 -1.875 -0.734375zm11.417419 -1.3125q0.671875 0 1.015625 0.1875l-0.296875 1.453125q-0.4375 -0.234375 -1.171875 -0.234375q-0.59375 0 -1.171875 0.34375q-0.5625 0.34375 -0.921875 1.046875q-0.359375 0.6875 -0.359375 1.6875l0 5.03125l-1.5 0l0 -9.328125l1.21875 0l0.203125 1.53125q0.78125 -1.71875 2.984375 -1.71875z" fill-rule="nonzero"></path><path fill="#ffffff" d="m219.0 222.0l121.00787 0l0 61.007874l-121.00787 0z" fill-rule="evenodd"></path><path stroke="#000000" stroke-width="1.0" stroke-linejoin="round" stroke-linecap="butt" d="m219.0 222.0l121.00787 0l0 61.007874l-121.00787 0z" fill-rule="evenodd"></path><path fill="#000000" d="m265.5478 246.92393q3.296875 0 4.765625 2.609375l-1.296875 1.046875q-0.5625 -1.234375 -1.34375 -1.734375q-0.765625 -0.515625 -2.109375 -0.515625q-1.40625 0 -2.21875 0.59375q-0.8125 0.578125 -0.8125 1.484375q0 0.609375 0.3125 1.0q0.3125 0.390625 1.046875 0.6875q0.75 0.28125 2.046875 0.5q2.453125 0.40625 3.46875 1.234375q1.015625 0.8125 1.015625 2.2656403q0 1.046875 -0.59375 1.84375q-0.59375 0.796875 -1.671875 1.234375q-1.078125 0.4375 -2.5 0.4375q-1.859375 0 -3.1875 -0.71875q-1.3125 -0.734375 -2.0 -1.953125l1.296875 -1.0468903q0.5 1.1093903 1.46875 1.7187653q0.984375 0.59375 2.46875 0.59375q1.453125 0 2.3125 -0.53125q0.859375 -0.53125 0.859375 -1.5q0 -0.81251526 -0.75 -1.2968903q-0.75 -0.484375 -2.65625 -0.828125q-2.453125 -0.421875 -3.484375 -1.21875q-1.03125 -0.8125 -1.03125 -2.25q0 -0.984375 0.5625 -1.828125q0.5625 -0.84375 1.609375 -1.328125q1.046875 -0.5 2.421875 -0.5zm19.911804 12.500015l-1.421875 0l0 -7.7500153l0.171875 -3.234375l-0.015625 0l-4.0625 10.98439l-1.265625 0l-4.046875 -10.98439l-0.015625 0l0.171875 3.234375l0 7.7500153l-1.421875 0l0 -12.312515l2.296875 0l2.703125 7.484375l0.9375 3.0781403l0.03125 0l0.953125 -3.0625153l2.6875 -7.5l2.296875 0l0 12.312515zm7.979309 -12.500015q3.296875 0 4.765625 2.609375l-1.296875 1.046875q-0.5625 -1.234375 -1.34375 -1.734375q-0.765625 -0.515625 -2.109375 -0.515625q-1.40625 0 -2.21875 0.59375q-0.8125 0.578125 -0.8125 1.484375q0 0.609375 0.3125 1.0q0.3125 0.390625 1.046875 0.6875q0.75 0.28125 2.046875 0.5q2.453125 0.40625 3.46875 1.234375q1.015625 0.8125 1.015625 2.2656403q0 1.046875 -0.59375 1.84375q-0.59375 0.796875 -1.671875 1.234375q-1.078125 0.4375 -2.5 0.4375q-1.859375 0 -3.1875 -0.71875q-1.3125 -0.734375 -2.0 -1.953125l1.296875 -1.0468903q0.5 1.1093903 1.46875 1.7187653q0.984375 0.59375 2.46875 0.59375q1.453125 0 2.3125 -0.53125q0.859375 -0.53125 0.859375 -1.5q0 -0.81251526 -0.75 -1.2968903q-0.75 -0.484375 -2.65625 -0.828125q-2.453125 -0.421875 -3.484375 -1.21875q-1.03125 -0.8125 -1.03125 -2.25q0 -0.984375 0.5625 -1.828125q0.5625 -0.84375 1.609375 -1.328125q1.046875 -0.5 2.421875 -0.5z" fill-rule="nonzero"></path><path fill="#ffffff" d="m552.49866 177.0l121.007935 0l0 61.007874l-121.007935 0z" fill-rule="evenodd"></path><path stroke="#000000" stroke-width="1.0" stroke-linejoin="round" stroke-linecap="butt" d="m552.49866 177.0l121.007935 0l0 61.007874l-121.007935 0z" fill-rule="evenodd"></path><path fill="#000000" d="m579.6596 191.11143q2.921875 0 4.5625 1.609375q1.640625 1.59375 1.640625 4.546875q0 2.953125 -1.640625 4.5625q-1.640625 1.59375 -4.5625 1.59375l-3.96875 0l0 -12.3125l3.96875 0zm0.15625 10.90625q2.109375 0 3.28125 -1.25q1.1875 -1.265625 1.1875 -3.5q0 -2.234375 -1.1875 -3.484375q-1.171875 -1.265625 -3.28125 -1.265625l-2.640625 0l0 9.5l2.640625 0zm9.794922 -9.71875q-0.5 0 -0.8125 -0.296875q-0.3125 -0.3125 -0.3125 -0.8125q0 -0.515625 0.3125 -0.8125q0.3125 -0.3125 0.8125 -0.3125q0.5 0 0.796875 0.3125q0.3125 0.296875 0.3125 0.8125q0 0.5 -0.3125 0.8125q-0.296875 0.296875 -0.796875 0.296875zm0.75 11.125l-1.5 0l0 -9.328125l1.5 0l0 9.328125zm11.118835 -1.078125q0.359375 0 0.734375 -0.09375l-0.09375 1.171875q-0.515625 0.1875 -1.109375 0.1875q-0.734375 0 -1.15625 -0.3125q-0.421875 -0.328125 -0.53125 -1.0625q-0.421875 0.640625 -1.25 1.015625q-0.828125 0.359375 -1.75 0.359375q-1.375 0 -2.28125 -0.640625q-0.890625 -0.640625 -0.890625 -1.859375q0 -1.0625 0.921875 -1.828125q0.9375 -0.78125 2.71875 -1.078125l2.484375 -0.421875l0 -0.515625q0 -0.9375 -0.578125 -1.484375q-0.578125 -0.5625 -1.609375 -0.5625q-0.9375 0 -1.625 0.453125q-0.671875 0.4375 -1.046875 1.3125l-1.09375 -0.796875q0.375 -1.046875 1.390625 -1.65625q1.015625 -0.625 2.375 -0.625q1.65625 0 2.65625 0.8125q1.015625 0.796875 1.015625 2.359375l0 4.59375q0 0.328125 0.171875 0.5q0.171875 0.171875 0.546875 0.171875zm-5.078125 -0.046875q1.171875 0 2.015625 -0.546875q0.859375 -0.5625 0.859375 -1.46875l0 -1.28125l-2.09375 0.390625q-1.25 0.21875 -1.875 0.640625q-0.609375 0.421875 -0.609375 1.078125q0 0.578125 0.4375 0.890625q0.453125 0.296875 1.265625 0.296875zm9.403137 -1.375q0 0.703125 0.203125 0.984375q0.21875 0.265625 0.796875 0.265625q0.390625 0 0.671875 -0.046875q0.296875 -0.0625 0.6875 -0.21875l-0.234375 1.4375q-0.609375 0.265625 -1.375 0.265625q-1.140625 0 -1.703125 -0.609375q-0.546875 -0.625 -0.546875 -1.890625l0 -11.3125l1.5 0l0 11.125zm8.224487 -7.015625q2.109375 0 3.3125 1.296875q1.203125 1.28125 1.203125 3.546875q0 2.28125 -1.203125 3.578125q-1.203125 1.28125 -3.3125 1.28125q-2.109375 0 -3.3125 -1.28125q-1.203125 -1.296875 -1.203125 -3.578125q0 -2.265625 1.203125 -3.546875q1.203125 -1.296875 3.3125 -1.296875zm0 1.28125q-1.421875 0 -2.21875 0.953125q-0.796875 0.953125 -0.796875 2.609375q0 1.671875 0.796875 2.625q0.796875 0.953125 2.21875 0.953125q1.421875 0 2.21875 -0.953125q0.796875 -0.953125 0.796875 -2.625q0 -1.65625 -0.796875 -2.609375q-0.796875 -0.953125 -2.21875 -0.953125zm12.608582 7.046875q1.328125 0 2.0625 0.59375q0.75 0.59375 0.75 1.625q0 0.890625 -0.609375 1.5625q-0.609375 0.6875 -1.671875 1.046875q-1.046875 0.375 -2.3125 0.375q-2.140625 0 -3.21875 -0.6875q-1.078125 -0.671875 -1.078125 -1.78125q0 -0.625 0.4375 -1.125q0.4375 -0.484375 1.203125 -0.6875q-0.578125 -0.28125 -0.921875 -0.703125q-0.34375 -0.4375 -0.34375 -1.015625q0 -0.6875 0.375 -1.140625q0.375 -0.453125 1.015625 -0.6875q-0.671875 -0.40625 -1.015625 -1.0625q-0.34375 -0.671875 -0.34375 -1.484375q0 -0.921875 0.484375 -1.640625q0.484375 -0.71875 1.359375 -1.109375q0.890625 -0.40625 1.984375 -0.40625q1.046875 0 1.90625 0.375q0.515625 -1.90625 2.625 -1.90625l0.34375 1.3125q-1.828125 0 -2.21875 1.015625q0.546875 0.4375 0.859375 1.03125q0.3125 0.59375 0.3125 1.328125q0 0.90625 -0.484375 1.625q-0.484375 0.71875 -1.375 1.125q-0.875 0.40625 -1.96875 0.40625q-0.828125 0 -1.4375 -0.171875q-0.5625 0.125 -0.8125 0.40625q-0.234375 0.28125 -0.234375 0.765625q0 0.484375 0.328125 0.75q0.34375 0.265625 0.90625 0.265625l3.09375 0zm-1.84375 -7.109375q-0.96875 0 -1.625 0.546875q-0.65625 0.53125 -0.65625 1.390625q0 0.859375 0.65625 1.40625q0.65625 0.53125 1.625 0.53125q0.96875 0 1.625 -0.53125q0.65625 -0.546875 0.65625 -1.40625q0 -0.859375 -0.65625 -1.390625q-0.65625 -0.546875 -1.625 -0.546875zm0.21875 11.0625q1.421875 0 2.234375 -0.46875q0.828125 -0.453125 0.828125 -1.109375q0 -0.53125 -0.421875 -0.8125q-0.421875 -0.28125 -1.421875 -0.28125l-2.5 0q-0.859375 0 -1.328125 0.296875q-0.46875 0.3125 -0.46875 0.859375q0 0.703125 0.78125 1.109375q0.796875 0.40625 2.296875 0.40625zm14.74231 -12.09375l0 9.328125l-1.3125 0l-0.09375 -1.421875q-0.921875 1.609375 -3.328125 1.609375q-1.515625 0 -2.484375 -0.84375q-0.953125 -0.84375 -0.953125 -2.578125l0 -6.09375l1.5 0l0 5.703125q0 1.375 0.546875 1.9375q0.5625 0.5625 1.640625 0.5625q1.296875 0 2.140625 -0.78125q0.859375 -0.78125 0.859375 -2.34375l0 -5.078125l1.484375 0zm11.470093 4.171875q0 0.53125 -0.078125 1.046875l-7.03125 0q0.140625 1.421875 0.953125 2.203125q0.8125 0.78125 2.09375 0.78125q1.03125 0 1.703125 -0.34375q0.6875 -0.359375 0.921875 -1.03125l1.25 0.65625q-0.546875 0.984375 -1.484375 1.515625q-0.9375 0.515625 -2.390625 0.515625q-2.109375 0 -3.3125 -1.28125q-1.203125 -1.296875 -1.203125 -3.578125q0 -2.265625 1.140625 -3.546875q1.15625 -1.296875 3.265625 -1.296875q1.296875 0 2.25 0.578125q0.953125 0.578125 1.4375 1.578125q0.484375 0.984375 0.484375 2.203125zm-4.171875 -3.046875q-1.234375 0 -2.0 0.734375q-0.75 0.71875 -0.90625 2.046875l5.640625 0q-0.140625 -1.3125 -0.859375 -2.046875q-0.703125 -0.734375 -1.875 -0.734375z" fill-rule="nonzero"></path><path fill="#000000" d="m588.2781 225.42393l-1.421875 0l0 -7.75l0.171875 -3.234375l-0.015625 0l-4.0625 10.984375l-1.265625 0l-4.046875 -10.984375l-0.015625 0l0.171875 3.234375l0 7.75l-1.421875 0l0 -12.3125l2.296875 0l2.703125 7.484375l0.9375 3.078125l0.03125 0l0.953125 -3.0625l2.6875 -7.5l2.296875 0l0 12.3125zm11.401184 -1.078125q0.359375 0 0.734375 -0.09375l-0.09375 1.171875q-0.515625 0.1875 -1.109375 0.1875q-0.734375 0 -1.15625 -0.3125q-0.421875 -0.328125 -0.53125 -1.0625q-0.421875 0.640625 -1.25 1.015625q-0.828125 0.359375 -1.75 0.359375q-1.375 0 -2.28125 -0.640625q-0.890625 -0.640625 -0.890625 -1.859375q0 -1.0625 0.921875 -1.828125q0.9375 -0.78125 2.71875 -1.078125l2.484375 -0.421875l0 -0.515625q0 -0.9375 -0.578125 -1.484375q-0.578125 -0.5625 -1.609375 -0.5625q-0.9375 0 -1.625 0.453125q-0.671875 0.4375 -1.046875 1.3125l-1.09375 -0.796875q0.375 -1.046875 1.390625 -1.65625q1.015625 -0.625 2.375 -0.625q1.65625 0 2.65625 0.8125q1.015625 0.796875 1.015625 2.359375l0 4.59375q0 0.328125 0.171875 0.5q0.171875 0.171875 0.546875 0.171875zm-5.078125 -0.046875q1.171875 0 2.015625 -0.546875q0.859375 -0.5625 0.859375 -1.46875l0 -1.28125l-2.09375 0.390625q-1.25 0.21875 -1.875 0.640625q-0.609375 0.421875 -0.609375 1.078125q0 0.578125 0.4375 0.890625q0.453125 0.296875 1.265625 0.296875zm12.512573 -8.390625q1.59375 0 2.609375 0.921875q1.03125 0.90625 1.03125 2.625l0 5.96875l-1.5 0l0 -5.453125q0 -1.453125 -0.625 -2.09375q-0.625 -0.65625 -1.65625 -0.65625q-0.75 0 -1.40625 0.328125q-0.65625 0.3125 -1.078125 1.0625q-0.40625 0.734375 -0.40625 1.84375l0 4.96875l-1.5 0l0 -9.328125l1.3125 0l0.09375 1.453125q0.453125 -0.84375 1.28125 -1.234375q0.828125 -0.40625 1.84375 -0.40625zm14.673218 8.4375q0.359375 0 0.734375 -0.09375l-0.09375 1.171875q-0.515625 0.1875 -1.109375 0.1875q-0.734375 0 -1.15625 -0.3125q-0.421875 -0.328125 -0.53125 -1.0625q-0.421875 0.640625 -1.25 1.015625q-0.828125 0.359375 -1.75 0.359375q-1.375 0 -2.28125 -0.640625q-0.890625 -0.640625 -0.890625 -1.859375q0 -1.0625 0.921875 -1.828125q0.9375 -0.78125 2.71875 -1.078125l2.484375 -0.421875l0 -0.515625q0 -0.9375 -0.578125 -1.484375q-0.578125 -0.5625 -1.609375 -0.5625q-0.9375 0 -1.625 0.453125q-0.671875 0.4375 -1.046875 1.3125l-1.09375 -0.796875q0.375 -1.046875 1.390625 -1.65625q1.015625 -0.625 2.375 -0.625q1.65625 0 2.65625 0.8125q1.015625 0.796875 1.015625 2.359375l0 4.59375q0 0.328125 0.171875 0.5q0.171875 0.171875 0.546875 0.171875zm-5.078125 -0.046875q1.171875 0 2.015625 -0.546875q0.859375 -0.5625 0.859375 -1.46875l0 -1.28125l-2.09375 0.390625q-1.25 0.21875 -1.875 0.640625q-0.609375 0.421875 -0.609375 1.078125q0 0.578125 0.4375 0.890625q0.453125 0.296875 1.265625 0.296875zm13.184448 -0.0625q1.328125 0 2.0625 0.59375q0.75 0.59375 0.75 1.625q0 0.890625 -0.609375 1.5625q-0.609375 0.6875 -1.671875 1.046875q-1.046875 0.375 -2.3125 0.375q-2.140625 0 -3.21875 -0.6875q-1.078125 -0.671875 -1.078125 -1.78125q0 -0.625 0.4375 -1.125q0.4375 -0.484375 1.203125 -0.6875q-0.578125 -0.28125 -0.921875 -0.703125q-0.34375 -0.4375 -0.34375 -1.015625q0 -0.6875 0.375 -1.140625q0.375 -0.453125 1.015625 -0.6875q-0.671875 -0.40625 -1.015625 -1.0625q-0.34375 -0.671875 -0.34375 -1.484375q0 -0.921875 0.484375 -1.640625q0.484375 -0.71875 1.359375 -1.109375q0.890625 -0.40625 1.984375 -0.40625q1.046875 0 1.90625 0.375q0.515625 -1.90625 2.625 -1.90625l0.34375 1.3125q-1.828125 0 -2.21875 1.015625q0.546875 0.4375 0.859375 1.03125q0.3125 0.59375 0.3125 1.328125q0 0.90625 -0.484375 1.625q-0.484375 0.71875 -1.375 1.125q-0.875 0.40625 -1.96875 0.40625q-0.828125 0 -1.4375 -0.171875q-0.5625 0.125 -0.8125 0.40625q-0.234375 0.28125 -0.234375 0.765625q0 0.484375 0.328125 0.75q0.34375 0.265625 0.90625 0.265625l3.09375 0zm-1.84375 -7.109375q-0.96875 0 -1.625 0.546875q-0.65625 0.53125 -0.65625 1.390625q0 0.859375 0.65625 1.40625q0.65625 0.53125 1.625 0.53125q0.96875 0 1.625 -0.53125q0.65625 -0.546875 0.65625 -1.40625q0 -0.859375 -0.65625 -1.390625q-0.65625 -0.546875 -1.625 -0.546875zm0.21875 11.0625q1.421875 0 2.234375 -0.46875q0.828125 -0.453125 0.828125 -1.109375q0 -0.53125 -0.421875 -0.8125q-0.421875 -0.28125 -1.421875 -0.28125l-2.5 0q-0.859375 0 -1.328125 0.296875q-0.46875 0.3125 -0.46875 0.859375q0 0.703125 0.78125 1.109375q0.796875 0.40625 2.296875 0.40625zm14.664124 -7.921875q0 0.53125 -0.078125 1.046875l-7.03125 0q0.140625 1.421875 0.953125 2.203125q0.8125 0.78125 2.09375 0.78125q1.03125 0 1.703125 -0.34375q0.6875 -0.359375 0.921875 -1.03125l1.25 0.65625q-0.546875 0.984375 -1.484375 1.515625q-0.9375 0.515625 -2.390625 0.515625q-2.109375 0 -3.3125 -1.28125q-1.203125 -1.296875 -1.203125 -3.578125q0 -2.265625 1.140625 -3.546875q1.15625 -1.296875 3.265625 -1.296875q1.296875 0 2.25 0.578125q0.953125 0.578125 1.4375 1.578125q0.484375 0.984375 0.484375 2.203125zm-4.171875 -3.046875q-1.234375 0 -2.0 0.734375q-0.75 0.71875 -0.90625 2.046875l5.640625 0q-0.140625 -1.3125 -0.859375 -2.046875q-0.703125 -0.734375 -1.875 -0.734375zm11.417419 -1.3125q0.671875 0 1.015625 0.1875l-0.296875 1.453125q-0.4375 -0.234375 -1.171875 -0.234375q-0.59375 0 -1.171875 0.34375q-0.5625 0.34375 -0.921875 1.046875q-0.359375 0.6875 -0.359375 1.6875l0 5.03125l-1.5 0l0 -9.328125l1.21875 0l0.203125 1.53125q0.78125 -1.71875 2.984375 -1.71875z" fill-rule="nonzero"></path><path fill="#ffffff" d="m397.74802 177.0l121.007904 0l0 61.007874l-121.007904 0z" fill-rule="evenodd"></path><path stroke="#000000" stroke-width="1.0" stroke-linejoin="round" stroke-linecap="butt" d="m397.74802 177.0l121.007904 0l0 61.007874l-121.007904 0z" fill-rule="evenodd"></path><path fill="#000000" d="m450.78253 214.42393l-1.84375 0l-5.140625 -8.25l-1.3125 -2.421875l-0.015625 0l0.078125 1.984375l0 8.6875l-1.421875 0l0 -12.3125l1.84375 0l5.140625 8.203125l1.3125 2.46875l0.015625 0l-0.0625 -1.984375l0 -8.6875l1.40625 0l0 12.3125zm12.58432 -1.40625l0 1.40625l-8.546875 0l0 -12.3125l1.484375 0l0 10.90625l7.0625 0zm12.140808 -3.1875q0 2.375 -1.25 3.578125q-1.234375 1.203125 -3.578125 1.203125q-2.359375 0 -3.59375 -1.203125q-1.234375 -1.21875 -1.234375 -3.578125l0 -7.71875l1.484375 0l0 7.34375q0 1.953125 0.8125 2.859375q0.8125 0.890625 2.53125 0.890625q1.71875 0 2.53125 -0.890625q0.8125 -0.90625 0.8125 -2.859375l0 -7.34375l1.484375 0l0 7.71875z" fill-rule="nonzero"></path><path fill="#ffffff" d="m707.2493 177.0l121.00787 0l0 61.007874l-121.00787 0z" fill-rule="evenodd"></path><path stroke="#000000" stroke-width="1.0" stroke-linejoin="round" stroke-linecap="butt" d="m707.2493 177.0l121.00787 0l0 61.007874l-121.00787 0z" fill-rule="evenodd"></path><path fill="#000000" d="m742.8353 200.26768q-0.578125 1.578125 -1.90625 2.46875q-1.3125 0.875 -3.046875 0.875q-1.734375 0 -3.03125 -0.765625q-1.28125 -0.78125 -1.984375 -2.203125q-0.703125 -1.4375 -0.703125 -3.375q0 -1.921875 0.703125 -3.359375q0.703125 -1.4375 1.984375 -2.203125q1.296875 -0.78125 2.984375 -0.78125q1.78125 0 2.984375 0.734375q1.203125 0.71875 1.796875 2.140625l-1.46875 0.6875q-0.421875 -1.078125 -1.203125 -1.609375q-0.78125 -0.546875 -2.0 -0.546875q-1.265625 0 -2.21875 0.59375q-0.953125 0.578125 -1.484375 1.703125q-0.515625 1.109375 -0.515625 2.640625q0 2.3125 1.109375 3.625q1.125 1.3125 3.046875 1.3125q1.25 0 2.15625 -0.625q0.921875 -0.640625 1.3125 -1.875l1.484375 0.5625zm6.532593 -6.359375q2.109375 0 3.3125 1.296875q1.203125 1.28125 1.203125 3.546875q0 2.28125 -1.203125 3.578125q-1.203125 1.28125 -3.3125 1.28125q-2.109375 0 -3.3125 -1.28125q-1.203125 -1.296875 -1.203125 -3.578125q0 -2.265625 1.203125 -3.546875q1.203125 -1.296875 3.3125 -1.296875zm0 1.28125q-1.421875 0 -2.21875 0.953125q-0.796875 0.953125 -0.796875 2.609375q0 1.671875 0.796875 2.625q0.796875 0.953125 2.21875 0.953125q1.421875 0 2.21875 -0.953125q0.796875 -0.953125 0.796875 -2.625q0 -1.65625 -0.796875 -2.609375q-0.796875 -0.953125 -2.21875 -0.953125zm11.936768 -1.28125q1.59375 0 2.609375 0.921875q1.03125 0.90625 1.03125 2.625l0 5.96875l-1.5 0l0 -5.453125q0 -1.453125 -0.625 -2.09375q-0.625 -0.65625 -1.65625 -0.65625q-0.75 0 -1.40625 0.328125q-0.65625 0.3125 -1.078125 1.0625q-0.40625 0.734375 -0.40625 1.84375l0 4.96875l-1.5 0l0 -9.328125l1.3125 0l0.09375 1.453125q0.453125 -0.84375 1.28125 -1.234375q0.828125 -0.40625 1.84375 -0.40625zm12.720093 8.859375q-0.921875 0.84375 -2.40625 0.84375q-1.125 0 -1.84375 -0.609375q-0.71875 -0.625 -0.75 -1.890625l0 -5.734375l-1.859375 0l0 -1.28125l1.859375 0l0 -2.234375l1.5 -0.421875l0 2.65625l3.453125 0l0 1.28125l-3.453125 0l0 5.46875q0 0.671875 0.375 1.015625q0.390625 0.34375 1.015625 0.34375q0.90625 0 1.59375 -0.6875l0.515625 1.25zm10.113831 -4.5q0 0.53125 -0.078125 1.046875l-7.03125 0q0.140625 1.421875 0.953125 2.203125q0.8125 0.78125 2.09375 0.78125q1.03125 0 1.703125 -0.34375q0.6875 -0.359375 0.921875 -1.03125l1.25 0.65625q-0.546875 0.984375 -1.484375 1.515625q-0.9375 0.515625 -2.390625 0.515625q-2.109375 0 -3.3125 -1.28125q-1.203125 -1.296875 -1.203125 -3.578125q0 -2.265625 1.140625 -3.546875q1.15625 -1.296875 3.265625 -1.296875q1.296875 0 2.25 0.578125q0.953125 0.578125 1.4375 1.578125q0.484375 0.984375 0.484375 2.203125zm-4.171875 -3.046875q-1.234375 0 -2.0 0.734375q-0.75 0.71875 -0.90625 2.046875l5.640625 0q-0.140625 -1.3125 -0.859375 -2.046875q-0.703125 -0.734375 -1.875 -0.734375zm11.542419 -1.3125q1.59375 0 2.609375 0.921875q1.03125 0.90625 1.03125 2.625l0 5.96875l-1.5 0l0 -5.453125q0 -1.453125 -0.625 -2.09375q-0.625 -0.65625 -1.65625 -0.65625q-0.75 0 -1.40625 0.328125q-0.65625 0.3125 -1.078125 1.0625q-0.40625 0.734375 -0.40625 1.84375l0 4.96875l-1.5 0l0 -9.328125l1.3125 0l0.09375 1.453125q0.453125 -0.84375 1.28125 -1.234375q0.828125 -0.40625 1.84375 -0.40625zm12.720093 8.859375q-0.921875 0.84375 -2.40625 0.84375q-1.125 0 -1.84375 -0.609375q-0.71875 -0.625 -0.75 -1.890625l0 -5.734375l-1.859375 0l0 -1.28125l1.859375 0l0 -2.234375l1.5 -0.421875l0 2.65625l3.453125 0l0 1.28125l-3.453125 0l0 5.46875q0 0.671875 0.375 1.015625q0.390625 0.34375 1.015625 0.34375q0.90625 0 1.59375 -0.6875l0.515625 1.25z" fill-rule="nonzero"></path><path fill="#000000" d="m732.4817 220.31456l-2.953125 0l0 5.109375l-1.484375 0l0 -12.3125l4.65625 0q1.890625 0 3.03125 0.96875q1.140625 0.96875 1.140625 2.625q0 1.3125 -0.734375 2.21875q-0.71875 0.890625 -2.0 1.21875l3.46875 5.28125l-1.765625 0l-3.359375 -5.109375zm-2.953125 -1.40625l3.15625 0q2.609375 0 2.609375 -2.203125q0 -2.1875 -2.609375 -2.1875l-3.15625 0l0 4.390625zm18.640808 1.359375q0 0.53125 -0.078125 1.046875l-7.03125 0q0.140625 1.421875 0.953125 2.203125q0.8125 0.78125 2.09375 0.78125q1.03125 0 1.703125 -0.34375q0.6875 -0.359375 0.921875 -1.03125l1.25 0.65625q-0.546875 0.984375 -1.484375 1.515625q-0.9375 0.515625 -2.390625 0.515625q-2.109375 0 -3.3125 -1.28125q-1.203125 -1.296875 -1.203125 -3.578125q0 -2.265625 1.140625 -3.546875q1.15625 -1.296875 3.265625 -1.296875q1.296875 0 2.25 0.578125q0.953125 0.578125 1.4375 1.578125q0.484375 0.984375 0.484375 2.203125zm-4.171875 -3.046875q-1.234375 0 -2.0 0.734375q-0.75 0.71875 -0.90625 2.046875l5.640625 0q-0.140625 -1.3125 -0.859375 -2.046875q-0.703125 -0.734375 -1.875 -0.734375zm11.542358 -1.3125q1.59375 0 2.609375 0.921875q1.03125 0.90625 1.03125 2.625l0 5.96875l-1.5 0l0 -5.453125q0 -1.453125 -0.625 -2.09375q-0.625 -0.65625 -1.65625 -0.65625q-0.75 0 -1.40625 0.328125q-0.65625 0.3125 -1.078125 1.0625q-0.40625 0.734375 -0.40625 1.84375l0 4.96875l-1.5 0l0 -9.328125l1.3125 0l0.09375 1.453125q0.453125 -0.84375 1.28125 -1.234375q0.828125 -0.40625 1.84375 -0.40625zm15.298218 -4.109375l0 13.625l-1.296875 0l-0.09375 -1.625q-0.421875 0.828125 -1.265625 1.328125q-0.84375 0.484375 -1.9375 0.484375q-1.953125 0 -3.109375 -1.296875q-1.140625 -1.296875 -1.140625 -3.5625q0 -2.25 1.140625 -3.546875q1.15625 -1.296875 3.109375 -1.296875q1.03125 0 1.84375 0.453125q0.8125 0.4375 1.265625 1.1875l0 -5.75l1.484375 0zm-4.421875 12.5q1.34375 0 2.140625 -0.921875q0.796875 -0.9375 0.796875 -2.5l0 -0.234375q0 -1.5625 -0.796875 -2.484375q-0.796875 -0.9375 -2.140625 -0.9375q-1.359375 0 -2.140625 0.96875q-0.78125 0.953125 -0.78125 2.5625q0 1.625 0.78125 2.59375q0.78125 0.953125 2.140625 0.953125zm15.894104 -4.03125q0 0.53125 -0.078125 1.046875l-7.03125 0q0.140625 1.421875 0.953125 2.203125q0.8125 0.78125 2.09375 0.78125q1.03125 0 1.703125 -0.34375q0.6875 -0.359375 0.921875 -1.03125l1.25 0.65625q-0.546875 0.984375 -1.484375 1.515625q-0.9375 0.515625 -2.390625 0.515625q-2.109375 0 -3.3125 -1.28125q-1.203125 -1.296875 -1.203125 -3.578125q0 -2.265625 1.140625 -3.546875q1.15625 -1.296875 3.265625 -1.296875q1.296875 0 2.25 0.578125q0.953125 0.578125 1.4375 1.578125q0.484375 0.984375 0.484375 2.203125zm-4.171875 -3.046875q-1.234375 0 -2.0 0.734375q-0.75 0.71875 -0.90625 2.046875l5.640625 0q-0.140625 -1.3125 -0.859375 -2.046875q-0.703125 -0.734375 -1.875 -0.734375zm11.417358 -1.3125q0.671875 0 1.015625 0.1875l-0.296875 1.453125q-0.4375 -0.234375 -1.171875 -0.234375q-0.59375 0 -1.171875 0.34375q-0.5625 0.34375 -0.921875 1.046875q-0.359375 0.6875 -0.359375 1.6875l0 5.03125l-1.5 0l0 -9.328125l1.21875 0l0.203125 1.53125q0.78125 -1.71875 2.984375 -1.71875zm11.205505 4.359375q0 0.53125 -0.078125 1.046875l-7.03125 0q0.140625 1.421875 0.953125 2.203125q0.8125 0.78125 2.09375 0.78125q1.03125 0 1.703125 -0.34375q0.6875 -0.359375 0.921875 -1.03125l1.25 0.65625q-0.546875 0.984375 -1.484375 1.515625q-0.9375 0.515625 -2.390625 0.515625q-2.109375 0 -3.3125 -1.28125q-1.203125 -1.296875 -1.203125 -3.578125q0 -2.265625 1.140625 -3.546875q1.15625 -1.296875 3.265625 -1.296875q1.296875 0 2.25 0.578125q0.953125 0.578125 1.4375 1.578125q0.484375 0.984375 0.484375 2.203125zm-4.171875 -3.046875q-1.234375 0 -2.0 0.734375q-0.75 0.71875 -0.90625 2.046875l5.640625 0q-0.140625 -1.3125 -0.859375 -2.046875q-0.703125 -0.734375 -1.875 -0.734375zm11.417419 -1.3125q0.671875 0 1.015625 0.1875l-0.296875 1.453125q-0.4375 -0.234375 -1.171875 -0.234375q-0.59375 0 -1.171875 0.34375q-0.5625 0.34375 -0.921875 1.046875q-0.359375 0.6875 -0.359375 1.6875l0 5.03125l-1.5 0l0 -9.328125l1.21875 0l0.203125 1.53125q0.78125 -1.71875 2.984375 -1.71875z" fill-rule="nonzero"></path><path fill="#000000" fill-opacity="0.0" d="m767.7533 177.0l0 -72.99984l-559.24414 0l0 24.99984" fill-rule="evenodd"></path><path stroke="#000000" stroke-width="1.0" stroke-linejoin="round" stroke-linecap="butt" d="m767.7533 177.0l0 -72.99983l-559.24414 0l0 18.999832" fill-rule="evenodd"></path><path stroke="#000000" stroke-width="1.0" stroke-linecap="butt" d="m206.85745 123.0l1.6517334 4.538101l1.6517334 -4.538101z" fill-rule="evenodd"></path><path fill="#000000" fill-opacity="0.0" d="m303.00787 207.50394l94.74014 0" fill-rule="evenodd"></path><path stroke="#000000" stroke-width="1.0" stroke-linejoin="round" stroke-linecap="butt" d="m303.00787 207.50394l88.74014 0" fill-rule="evenodd"></path><path stroke="#000000" stroke-width="1.0" stroke-linecap="butt" d="m391.74805 209.15567l4.538086 -1.6517334l-4.538086 -1.6517334z" fill-rule="evenodd"></path><path fill="#000000" fill-opacity="0.0" d="m518.7559 207.50394l33.73224 0" fill-rule="evenodd"></path><path stroke="#000000" stroke-width="1.0" stroke-linejoin="round" stroke-linecap="butt" d="m518.7559 207.50394l27.732239 0" fill-rule="evenodd"></path><path stroke="#000000" stroke-width="1.0" stroke-linecap="butt" d="m546.48816 209.15567l4.538147 -1.6517334l-4.538147 -1.6517334z" fill-rule="evenodd"></path><path fill="#000000" fill-opacity="0.0" d="m673.5066 207.50394l33.73224 0" fill-rule="evenodd"></path><path stroke="#000000" stroke-width="1.0" stroke-linejoin="round" stroke-linecap="butt" d="m673.5066 207.50394l27.732239 0" fill-rule="evenodd"></path><path stroke="#000000" stroke-width="1.0" stroke-linecap="butt" d="m701.23883 209.15567l4.538086 -1.6517334l-4.538086 -1.6517334z" fill-rule="evenodd"></path></g></svg>

