<?xml version="1.0" encoding="UTF-8"?>
<!DOCTYPE svg PUBLIC "-//W3C//DTD SVG 1.1//EN" "http://www.w3.org/Graphics/SVG/1.1/DTD/svg11.dtd">
<svg xmlns="http://www.w3.org/2000/svg" version="1.1" width="1024px" height="1024px" style="shape-rendering:geometricPrecision; text-rendering:geometricPrecision; image-rendering:optimizeQuality; fill-rule:evenodd; clip-rule:evenodd" xmlns:xlink="http://www.w3.org/1999/xlink">
<g><path style="opacity:1" fill="#47696f" d="M 70.5,350.5 C 134.331,349.501 198.331,349.168 262.5,349.5C 262.5,353.833 262.5,358.167 262.5,362.5C 261.517,358.702 261.183,354.702 261.5,350.5C 197.833,350.5 134.167,350.5 70.5,350.5 Z"/></g>
<g><path style="opacity:1" fill="#46686e" d="M 292.5,350.5 C 292.5,350.167 292.5,349.833 292.5,349.5C 356.501,349.333 420.501,349.5 484.5,350C 483.956,350.717 483.289,351.217 482.5,351.5C 419.336,350.501 356.002,350.168 292.5,350.5 Z"/></g>
<g><path style="opacity:1" fill="#0a373e" d="M 70.5,350.5 C 134.167,350.5 197.833,350.5 261.5,350.5C 261.183,354.702 261.517,358.702 262.5,362.5C 254.198,405.626 229.531,434.793 188.5,450C 162.536,456.572 138.869,452.072 117.5,436.5C 117.027,435.094 116.027,434.427 114.5,434.5C 93.7661,419.084 79.9328,398.751 73,373.5C 71.0224,365.958 70.1891,358.291 70.5,350.5 Z"/></g>
<g><path style="opacity:1" fill="#839a9e" d="M 292.5,349.5 C 292.5,349.833 292.5,350.167 292.5,350.5C 292.167,426.668 292.501,502.668 293.5,578.5C 293.217,579.289 292.717,579.956 292,580.5C 291.168,503.332 291.334,426.332 292.5,349.5 Z"/></g>
<g><path style="opacity:1" fill="#09373e" d="M 292.5,350.5 C 356.002,350.168 419.336,350.501 482.5,351.5C 419.87,427.464 356.87,503.131 293.5,578.5C 292.501,502.668 292.167,426.668 292.5,350.5 Z"/></g>
<g><path style="opacity:1" fill="#eec83e" d="M 570.5,562.5 C 571.434,561.432 571.768,560.099 571.5,558.5C 576.574,515.531 594.241,478.864 624.5,448.5C 628.833,446.167 632.167,442.833 634.5,438.5C 674.501,403.887 721.168,388.054 774.5,391C 848.899,398.599 902.732,435.766 936,502.5C 958.587,554.632 959.087,606.965 937.5,659.5C 820.501,660.667 703.501,660.833 586.5,660C 572.684,628.939 567.351,596.439 570.5,562.5 Z"/></g>
<g><path style="opacity:1" fill="#8ca1a5" d="M 114.5,434.5 C 116.027,434.427 117.027,435.094 117.5,436.5C 115.973,436.573 114.973,435.906 114.5,434.5 Z"/></g>
<g><path style="opacity:1" fill="#f1d9be" d="M 452.5,442.5 C 473.994,441.503 495.66,441.169 517.5,441.5C 517.5,459.5 517.5,477.5 517.5,495.5C 516.503,478.008 516.17,460.341 516.5,442.5C 495.167,442.5 473.833,442.5 452.5,442.5 Z"/></g>
<g><path style="opacity:1" fill="#c86c01" d="M 452.5,442.5 C 473.833,442.5 495.167,442.5 516.5,442.5C 516.17,460.341 516.503,478.008 517.5,495.5C 534.833,495.5 552.167,495.5 569.5,495.5C 569.5,516.833 569.5,538.167 569.5,559.5C 552.167,559.5 534.833,559.5 517.5,559.5C 516.503,576.992 516.17,594.659 516.5,612.5C 499.167,612.5 481.833,612.5 464.5,612.5C 460.5,612.5 456.5,612.5 452.5,612.5C 452.5,607.5 452.5,602.5 452.5,597.5C 452.5,584.833 452.5,572.167 452.5,559.5C 434.5,559.5 416.5,559.5 398.5,559.5C 398.5,538.167 398.5,516.833 398.5,495.5C 416.5,495.5 434.5,495.5 452.5,495.5C 452.5,477.833 452.5,460.167 452.5,442.5 Z"/></g>
<g><path style="opacity:1" fill="#08363d" d="M 262.5,672.5 C 198.664,672.832 134.998,672.499 71.5,671.5C 92.4199,644.91 114.087,618.91 136.5,593.5C 137.906,593.027 138.573,592.027 138.5,590.5C 139.167,589.167 140.167,588.167 141.5,587.5C 142.906,587.027 143.573,586.027 143.5,584.5C 144.167,583.167 145.167,582.167 146.5,581.5C 147.906,581.027 148.573,580.027 148.5,578.5C 149.167,577.167 150.167,576.167 151.5,575.5C 152.906,575.027 153.573,574.027 153.5,572.5C 180.487,539.516 207.82,506.849 235.5,474.5C 236.906,474.027 237.573,473.027 237.5,471.5C 238.167,470.167 239.167,469.167 240.5,468.5C 241.906,468.027 242.573,467.027 242.5,465.5C 243.167,464.167 244.167,463.167 245.5,462.5C 246.906,462.027 247.573,461.027 247.5,459.5C 252.085,453.348 256.918,447.348 262,441.5C 262.5,518.499 262.667,595.499 262.5,672.5 Z"/></g>
<g><path style="opacity:1" fill="#f5d87c" d="M 634.5,438.5 C 632.167,442.833 628.833,446.167 624.5,448.5C 627.5,444.833 630.833,441.5 634.5,438.5 Z"/></g>
<g><path style="opacity:1" fill="#839a9e" d="M 247.5,459.5 C 247.573,461.027 246.906,462.027 245.5,462.5C 245.427,460.973 246.094,459.973 247.5,459.5 Z"/></g>
<g><path style="opacity:1" fill="#839a9e" d="M 242.5,465.5 C 242.573,467.027 241.906,468.027 240.5,468.5C 240.427,466.973 241.094,465.973 242.5,465.5 Z"/></g>
<g><path style="opacity:1" fill="#899fa2" d="M 237.5,471.5 C 237.573,473.027 236.906,474.027 235.5,474.5C 235.427,472.973 236.094,471.973 237.5,471.5 Z"/></g>
<g><path style="opacity:1" fill="#e3b47a" d="M 569.5,495.5 C 570.167,516.5 570.833,537.5 571.5,558.5C 571.768,560.099 571.434,561.432 570.5,562.5C 570.737,561.209 570.404,560.209 569.5,559.5C 569.5,538.167 569.5,516.833 569.5,495.5 Z"/></g>
<g><path style="opacity:1" fill="#09373e" d="M 452.5,597.5 C 452.5,602.5 452.5,607.5 452.5,612.5C 456.5,612.5 460.5,612.5 464.5,612.5C 464.328,613.492 464.662,614.158 465.5,614.5C 476.146,629.427 482.48,646.094 484.5,664.5C 483.527,666.948 483.194,669.615 483.5,672.5C 419.833,672.5 356.167,672.5 292.5,672.5C 292.5,669.5 292.5,666.5 292.5,663.5C 295.086,637.999 305.42,616.332 323.5,598.5C 327.1,596.57 330.1,593.903 332.5,590.5C 357.035,569.96 384.701,564.46 415.5,574C 429.521,579.334 441.854,587.168 452.5,597.5 Z"/></g>
<g><path style="opacity:1" fill="#839a9e" d="M 153.5,572.5 C 153.573,574.027 152.906,575.027 151.5,575.5C 151.427,573.973 152.094,572.973 153.5,572.5 Z"/></g>
<g><path style="opacity:1" fill="#839a9e" d="M 148.5,578.5 C 148.573,580.027 147.906,581.027 146.5,581.5C 146.427,579.973 147.094,578.973 148.5,578.5 Z"/></g>
<g><path style="opacity:1" fill="#839a9e" d="M 143.5,584.5 C 143.573,586.027 142.906,587.027 141.5,587.5C 141.427,585.973 142.094,584.973 143.5,584.5 Z"/></g>
<g><path style="opacity:1" fill="#899fa2" d="M 138.5,590.5 C 138.573,592.027 137.906,593.027 136.5,593.5C 136.427,591.973 137.094,590.973 138.5,590.5 Z"/></g>
<g><path style="opacity:1" fill="#5b777b" d="M 332.5,590.5 C 330.1,593.903 327.1,596.57 323.5,598.5C 325.9,595.097 328.9,592.43 332.5,590.5 Z"/></g>
<g><path style="opacity:1" fill="#f0d9be" d="M 517.5,559.5 C 517.5,577.5 517.5,595.5 517.5,613.5C 499.992,613.17 482.659,613.503 465.5,614.5C 464.662,614.158 464.328,613.492 464.5,612.5C 481.833,612.5 499.167,612.5 516.5,612.5C 516.17,594.659 516.503,576.992 517.5,559.5 Z"/></g>
<g><path style="opacity:1" fill="#c0cccd" d="M 71.5,671.5 C 134.998,672.499 198.664,672.832 262.5,672.5C 198.665,673.832 134.665,673.832 70.5,672.5C 70.6236,671.893 70.9569,671.56 71.5,671.5 Z"/></g>
<g><path style="opacity:1" fill="#c0cccd" d="M 292.5,663.5 C 292.5,666.5 292.5,669.5 292.5,672.5C 356.167,672.5 419.833,672.5 483.5,672.5C 483.194,669.615 483.527,666.948 484.5,664.5C 484.5,667.5 484.5,670.5 484.5,673.5C 420.167,673.5 355.833,673.5 291.5,673.5C 291.187,669.958 291.521,666.625 292.5,663.5 Z"/></g>
</svg>
