<svg width="74" height="100" viewBox="0 0 74 100" fill="none" xmlns="http://www.w3.org/2000/svg">
<mask id="mask0_1:52" style="mask-type:alpha" maskUnits="userSpaceOnUse" x="1" y="1" width="71" height="98">
<path d="M45.398 1.43036H7.86688C4.22415 1.43036 1.24374 4.41077 1.24374 8.0535V91.9465C1.24374 95.5893 4.22415 98.5697 7.86688 98.5697H65.2674C68.9101 98.5697 71.8905 95.5893 71.8905 91.9465V27.9229L45.398 1.43036Z" fill="white"/>
</mask>
<g mask="url(#mask0_1:52)">
<path d="M45.398 1.43036H7.86688C4.22415 1.43036 1.24374 4.41077 1.24374 8.0535V91.9465C1.24374 95.5893 4.22415 98.5697 7.86688 98.5697H65.2674C68.9101 98.5697 71.8905 95.5893 71.8905 91.9465V27.9229L56.4365 16.8843L45.398 1.43036Z" fill="#0F9D58"/>
</g>
<mask id="mask1_1:52" style="mask-type:alpha" maskUnits="userSpaceOnUse" x="1" y="1" width="71" height="98">
<path d="M45.398 1.43036H7.86688C4.22415 1.43036 1.24374 4.41077 1.24374 8.0535V91.9465C1.24374 95.5893 4.22415 98.5697 7.86688 98.5697H65.2674C68.9101 98.5697 71.8905 95.5893 71.8905 91.9465V27.9229L45.398 1.43036Z" fill="white"/>
</mask>
<g mask="url(#mask1_1:52)">
<path d="M18.9054 48.8962V80.908H54.2288V48.8962H18.9054ZM34.3594 76.4926H23.3209V70.9733H34.3594V76.4926ZM34.3594 67.6617H23.3209V62.1424H34.3594V67.6617ZM34.3594 58.8309H23.3209V53.3116H34.3594V58.8309ZM49.8134 76.4926H38.7748V70.9733H49.8134V76.4926ZM49.8134 67.6617H38.7748V62.1424H49.8134V67.6617ZM49.8134 58.8309H38.7748V53.3116H49.8134V58.8309Z" fill="#F1F1F1"/>
</g>
<mask id="mask2_1:52" style="mask-type:alpha" maskUnits="userSpaceOnUse" x="1" y="1" width="71" height="98">
<path d="M45.398 1.43036H7.86688C4.22415 1.43036 1.24374 4.41077 1.24374 8.0535V91.9465C1.24374 95.5893 4.22415 98.5697 7.86688 98.5697H65.2674C68.9101 98.5697 71.8905 95.5893 71.8905 91.9465V27.9229L45.398 1.43036Z" fill="white"/>
</mask>
<g mask="url(#mask2_1:52)">
<path d="M47.3352 25.9856L71.8905 50.5354V27.9229L47.3352 25.9856Z" fill="url(#paint0_linear_1:52)"/>
</g>
<mask id="mask3_1:52" style="mask-type:alpha" maskUnits="userSpaceOnUse" x="1" y="1" width="71" height="98">
<path d="M45.398 1.43036H7.86688C4.22415 1.43036 1.24374 4.41077 1.24374 8.0535V91.9465C1.24374 95.5893 4.22415 98.5697 7.86688 98.5697H65.2674C68.9101 98.5697 71.8905 95.5893 71.8905 91.9465V27.9229L45.398 1.43036Z" fill="white"/>
</mask>
<g mask="url(#mask3_1:52)">
<path d="M45.398 1.43036V21.2998C45.398 24.959 48.3618 27.9229 52.0211 27.9229H71.8905L45.398 1.43036Z" fill="#87CEAC"/>
</g>
<mask id="mask4_1:52" style="mask-type:alpha" maskUnits="userSpaceOnUse" x="1" y="1" width="71" height="98">
<path d="M45.398 1.43036H7.86688C4.22415 1.43036 1.24374 4.41077 1.24374 8.0535V91.9465C1.24374 95.5893 4.22415 98.5697 7.86688 98.5697H65.2674C68.9101 98.5697 71.8905 95.5893 71.8905 91.9465V27.9229L45.398 1.43036Z" fill="white"/>
</mask>
<g mask="url(#mask4_1:52)">
<path d="M7.86688 1.43036C4.22415 1.43036 1.24374 4.41077 1.24374 8.0535V8.60542C1.24374 4.9627 4.22415 1.98229 7.86688 1.98229H45.398V1.43036H7.86688Z" fill="white" fill-opacity="0.2"/>
</g>
<mask id="mask5_1:52" style="mask-type:alpha" maskUnits="userSpaceOnUse" x="1" y="1" width="71" height="98">
<path d="M45.398 1.43036H7.86688C4.22415 1.43036 1.24374 4.41077 1.24374 8.0535V91.9465C1.24374 95.5893 4.22415 98.5697 7.86688 98.5697H65.2674C68.9101 98.5697 71.8905 95.5893 71.8905 91.9465V27.9229L45.398 1.43036Z" fill="white"/>
</mask>
<g mask="url(#mask5_1:52)">
<path d="M65.2674 98.0177H7.86688C4.22415 98.0177 1.24374 95.0373 1.24374 91.3946V91.9465C1.24374 95.5893 4.22415 98.5697 7.86688 98.5697H65.2674C68.9101 98.5697 71.8905 95.5893 71.8905 91.9465V91.3946C71.8905 95.0373 68.9101 98.0177 65.2674 98.0177Z" fill="#263238" fill-opacity="0.2"/>
</g>
<mask id="mask6_1:52" style="mask-type:alpha" maskUnits="userSpaceOnUse" x="1" y="1" width="71" height="98">
<path d="M45.398 1.43036H7.86688C4.22415 1.43036 1.24374 4.41077 1.24374 8.0535V91.9465C1.24374 95.5893 4.22415 98.5697 7.86688 98.5697H65.2674C68.9101 98.5697 71.8905 95.5893 71.8905 91.9465V27.9229L45.398 1.43036Z" fill="white"/>
</mask>
<g mask="url(#mask6_1:52)">
<path d="M52.0211 27.9229C48.3618 27.9229 45.398 24.959 45.398 21.2998V21.8517C45.398 25.511 48.3618 28.4748 52.0211 28.4748H71.8905V27.9229H52.0211Z" fill="#263238" fill-opacity="0.1"/>
</g>
<path d="M45.398 1.43036H7.86688C4.22415 1.43036 1.24374 4.41077 1.24374 8.0535V91.9465C1.24374 95.5893 4.22415 98.5697 7.86688 98.5697H65.2674C68.9101 98.5697 71.8905 95.5893 71.8905 91.9465V27.9229L45.398 1.43036Z" fill="url(#paint1_radial_1:52)"/>
<defs>
<linearGradient id="paint0_linear_1:52" x1="59.6142" y1="28.0935" x2="59.6142" y2="50.5388" gradientUnits="userSpaceOnUse">
<stop stop-color="#263238" stop-opacity="0.2"/>
<stop offset="1" stop-color="#263238" stop-opacity="0.02"/>
</linearGradient>
<radialGradient id="paint1_radial_1:52" cx="0" cy="0" r="1" gradientUnits="userSpaceOnUse" gradientTransform="translate(3.48187 3.36121) scale(113.917)">
<stop stop-color="white" stop-opacity="0.1"/>
<stop offset="1" stop-color="white" stop-opacity="0"/>
</radialGradient>
</defs>
</svg>
