<svg width="224" height="224" viewBox="0 0 224 224" fill="none" xmlns="http://www.w3.org/2000/svg">
<g clip-path="url(#clip0_356_36653)">
<path fill-rule="evenodd" clip-rule="evenodd" d="M197.408 0H26.6277C11.9358 0 0.0202348 11.9073 0.000214633 26.6085V197.247C-0.0281939 204.333 2.76452 211.138 7.7612 216.158C12.7579 221.178 19.547 224 26.6277 224H197.408C204.483 223.99 211.263 221.164 216.251 216.145C221.24 211.127 224.028 204.327 224 197.247V26.6085C223.979 11.9212 212.085 0.0197841 197.408 0ZM96.6047 161.339C96.5959 163.707 95.6442 165.974 93.9603 167.638C92.2764 169.302 89.9998 170.227 87.6334 170.209H50.3123C45.431 170.189 41.4844 166.223 41.4844 161.339V50.2007C41.4844 45.3162 45.431 41.3509 50.3123 41.3312H87.6334C92.5207 41.3509 96.4777 45.3104 96.4972 50.2007L96.6047 161.339ZM182.731 110.312C182.731 112.683 181.782 114.956 180.097 116.622C178.411 118.289 176.129 119.211 173.759 119.182H136.438C131.551 119.162 127.594 115.202 127.574 110.312V50.2007C127.594 45.3104 131.551 41.3509 136.438 41.3312H173.759C178.64 41.3509 182.587 45.3162 182.587 50.2007L182.731 110.312Z" fill="url(#paint0_linear_356_36653)"/>
</g>
<defs>
<linearGradient id="paint0_linear_356_36653" x1="112.107" y1="224" x2="112.107" y2="0" gradientUnits="userSpaceOnUse">
<stop stop-color="#0052CC"/>
<stop offset="1" stop-color="#2684FF"/>
</linearGradient>
<clipPath id="clip0_356_36653">
<rect width="224" height="224" fill="white"/>
</clipPath>
</defs>
</svg>
