<svg xmlns="http://www.w3.org/2000/svg" xmlns:xlink="http://www.w3.org/1999/xlink" width="1040" height="667.88"><rect width="1040" height="667.88" rx="5" ry="5" class="a"/><svg y="0%" x="0%"><circle cx="20" cy="20" r="6" fill="#ff5f58"/><circle cx="40" cy="20" r="6" fill="#ffbd2e"/><circle cx="60" cy="20" r="6" fill="#18c132"/></svg><svg height="607.88" viewBox="0 0 100 60.788" width="1000" x="15" xmlns="http://www.w3.org/2000/svg" xmlns:xlink="http://www.w3.org/1999/xlink" y="50"><style>@keyframes k{0%{transform:translateX(0)}8.8%{transform:translateX(-100px)}39.2%{transform:translateX(-200px)}to{transform:translateX(-300px)}}.a{fill:#282d35}.f{fill:#b9c0cb;white-space:pre}</style><g font-family="Monaco,Consolas,Menlo,'Bitstream Vera Sans Mono','Powerline Symbols',monospace" font-size="1.67"><defs><symbol id="1"><text y="1.67" class="f">Launching</text><text x="10.02" y="1.67" class="f">14_worker_snapshot</text></symbol><symbol id="2"><text y="1.67" class="f">Resumed:</text><text x="9.018" y="1.67" class="f">{</text><text x="11.022" y="1.67" class="f">reference:</text><text x="22.044" y="1.67" style="white-space:pre" fill="#a8cc8c">&apos;order-42&apos;</text><text x="32.064" y="1.67" class="f">,</text><text x="34.068" y="1.67" class="f">paid:</text><text x="40.08" y="1.67" style="white-space:pre" fill="#dbab79">true</text><text x="45.09" y="1.67" class="f">}</text></symbol><symbol id="a"><path fill="transparent" d="M0 0h100v28H0z"/></symbol><symbol id="b"><path fill="#6f7683" d="M0 0h1.102v2.171H0z"/></symbol></defs><path class="a" d="M0 0h100v60.788H0z"/><g style="animation-duration:6.575577s;animation-iteration-count:infinite;animation-name:k;animation-timing-function:steps(1,end)"><svg width="400"><svg><use xlink:href="#a"/><use xlink:href="#b" x="-.004"/></svg><svg x="100"><use xlink:href="#a"/><use xlink:href="#b" x="-.004" y="2.146"/><use xlink:href="#1"/></svg><svg x="200"><use xlink:href="#a"/><use xlink:href="#b" x="-.004" y="4.317"/><use xlink:href="#1"/><use xlink:href="#2" y="2.171"/></svg><svg x="300"><use xlink:href="#a"/><use xlink:href="#b" x="-.004" y="4.317"/><use xlink:href="#1"/><use xlink:href="#2" y="2.171"/></svg></svg></g></g></svg></svg>