<svg version="1.2" baseProfile="tiny-ps" xmlns="http://www.w3.org/2000/svg" viewBox="0 0 1373 1557" width="1373" height="1557">
	<title>Shopify_logo_2018-svg</title>
	<style>
		tspan { white-space:pre }
		.shp0 { fill: #95bf47 } 
		.shp1 { fill: #5e8e3e } 
		.shp2 { fill: #ffffff } 
	</style>
	<path id="Layer" fill-rule="evenodd" class="shp0" d="M1373.4 1453.55L958.13 1556.82L0 1391.05C0 1391.05 114.33 506.66 118.56 475.52C124.26 434.32 125.64 432.98 169.34 419.24C170.68 418.81 231.21 400.07 317.78 373.24C327.02 307.03 359.62 221.51 402.45 153.44C463.33 56.69 538.41 2.23 613.8 0.07C652.87 -1.1 685.47 12.16 710.9 39.37C712.71 41.36 714.44 43.39 716.17 45.46C720.22 45.12 724.24 44.73 728.3 44.73C728.38 44.73 728.43 44.73 728.51 44.73C786.89 44.82 835.21 78.12 868.19 141.09C878.42 160.61 885.59 180.05 890.47 195.86C919.61 186.83 936.93 181.47 937.01 181.43C943.97 179.36 961.84 176.59 970.99 185.75C980.15 194.91 1072.8 284.92 1072.8 284.92C1072.8 284.92 1183.6 286.6 1189.25 287.08C1194.95 287.55 1201.81 291.91 1202.89 299.78C1203.97 307.64 1373.4 1453.55 1373.4 1453.55ZM745.27 96.52C763.06 142.43 767.59 195.56 768.15 233.74C795.35 225.31 820.44 217.54 842.5 210.72C830.63 172.1 802.48 107.36 745.27 96.52ZM693.15 102.43C670.96 111.59 652.22 127.62 638.84 142C602.83 180.65 573.51 239.61 558.06 298.83C613.02 281.81 667.81 264.83 718.02 249.29C718.54 207.61 714.01 145.97 693.15 102.43ZM371.49 356.57C412.59 343.88 457.24 330.01 502.87 315.89C517.51 238.92 554.21 159.14 602.1 107.75C620.57 87.92 640.26 72.72 660.64 62.14C647.9 53.76 633.01 49.87 615.31 50.26C498.95 53.63 397.44 235.42 371.49 356.57Z" />
	<path id="Layer" class="shp1" d="M1189.29 287.12C1183.64 286.65 1072.85 284.96 1072.85 284.96C1072.85 284.96 980.19 194.95 971.04 185.79C967.63 182.38 963.01 180.61 958.17 179.88L958.21 1556.78L1373.44 1453.55C1373.44 1453.55 1204.02 307.68 1202.94 299.82C1201.86 291.96 1194.95 287.6 1189.29 287.12Z" />
	<path id="Layer" class="shp2" d="M728 500.7L679.77 681.2C679.77 681.2 625.97 656.71 562.2 660.73C468.68 666.65 467.68 725.64 468.64 740.46C473.73 821.18 686.03 838.81 697.95 1027.9C707.32 1176.65 619.06 1278.41 491.91 1286.44C339.28 1296.07 255.26 1206.02 255.26 1206.02L287.6 1068.41C287.6 1068.41 372.18 1132.25 439.88 1127.97C484.09 1125.16 499.89 1089.19 498.3 1063.75C491.65 958.45 318.77 964.66 307.85 791.64C298.65 646.04 394.24 498.5 605.16 485.2C686.42 479.97 728 500.7 728 500.7Z" />
</svg>