<svg xmlns="http://www.w3.org/2000/svg" version="1.1" width="250px" height="250px" viewBox="240 240 370 370" style="shape-rendering:geometricPrecision; text-rendering:geometricPrecision; image-rendering:optimizeQuality; fill-rule:evenodd; clip-rule:evenodd" xmlns:xlink="http://www.w3.org/1999/xlink">
<g><path style="opacity:0.982" fill="#fe5722" d="M 386.5,260.5 C 393.36,259.855 398.527,262.522 402,268.5C 407.367,278.261 411.367,288.594 414,299.5C 414.615,301.116 415.615,302.449 417,303.5C 419.667,302.167 421.667,300.167 423,297.5C 426.198,288.77 430.198,280.437 435,272.5C 439.529,265.293 445.362,263.793 452.5,268C 456.866,272.561 460.366,277.728 463,283.5C 471.782,305.731 481.115,327.731 491,349.5C 505.315,370.823 524.148,386.657 547.5,397C 560.102,398.83 572.769,400.163 585.5,401C 608.59,407.577 614.09,421.41 602,442.5C 595.917,451.918 588.417,460.085 579.5,467C 571.505,471.164 563.171,474.497 554.5,477C 535.06,482.359 515.726,488.026 496.5,494C 466.233,504.604 443.733,524.104 429,552.5C 423.945,565.388 420.778,578.721 419.5,592.5C 379.35,583.422 342.35,567.255 308.5,544C 295.149,533.987 285.649,521.154 280,505.5C 277.828,496.739 278.161,488.073 281,479.5C 289.115,462.824 295.448,445.49 300,427.5C 303.958,408.451 296.791,401.618 278.5,407C 266.621,412.434 255.288,418.601 244.5,425.5C 245.671,404.819 252.838,386.485 266,370.5C 272.901,362.928 280.401,356.095 288.5,350C 308.169,337.497 328.169,325.497 348.5,314C 358.914,304.919 366.081,293.752 370,280.5C 373.945,272.403 379.445,265.737 386.5,260.5 Z M 420.5,366.5 C 428.124,365.449 435.124,366.949 441.5,371C 449.789,378.078 457.289,385.912 464,394.5C 465.009,396.025 465.509,397.692 465.5,399.5C 451.221,401.632 436.888,401.132 422.5,398C 416.513,396.434 411.68,393.267 408,388.5C 407.217,378.403 411.384,371.07 420.5,366.5 Z"/></g>
</svg>