<?xml version="1.0" encoding="UTF-8"?>
<svg version="1.1" xmlns="http://www.w3.org/2000/svg" width="512" height="513">
<path d="M0 0 C1.01790619 0.00215515 2.03581238 0.0043103 3.08456421 0.00653076 C17.69363523 0.05620146 32.02575853 0.30709809 46.375 3.3125 C47.34985352 3.51117676 48.32470703 3.70985352 49.32910156 3.91455078 C97.7109774 14.03517194 141.69928269 35.9516877 177.375 70.3125 C178.3640332 71.26068604 178.3640332 71.26068604 179.37304688 72.22802734 C188.86130305 81.37247479 197.6012044 90.66984009 205.375 101.3125 C206.23306152 102.46355017 207.09113451 103.61459177 207.94921875 104.765625 C213.98736829 112.95680614 219.34595521 121.47054105 224.375 130.3125 C224.73948242 130.94430176 225.10396484 131.57610352 225.47949219 132.22705078 C247.00981855 169.84336237 256.83759735 212.56515288 256.75 255.625 C256.74918427 257.13927582 256.74918427 257.13927582 256.74835205 258.68414307 C256.70758601 275.19373539 255.80029309 291.11032001 252.375 307.3125 C252.15537598 308.35438477 251.93575195 309.39626953 251.70947266 310.46972656 C242.71140931 351.72199434 223.99081216 390.29861405 196.375 422.3125 C195.74078125 423.05757813 195.1065625 423.80265625 194.453125 424.5703125 C182.64198485 438.07529833 169.89139772 450.74668743 155.375 461.3125 C154.22505169 462.16899066 153.07531411 463.02576433 151.92578125 463.8828125 C143.73410474 469.9234414 135.21854922 475.28255071 126.375 480.3125 C125.74319824 480.67698242 125.11139648 481.04146484 124.46044922 481.41699219 C98.37535999 496.34723018 69.03914886 505.82635054 39.375 510.3125 C38.25254883 510.48910156 37.13009766 510.66570312 35.97363281 510.84765625 C24.36052257 512.5045586 12.84320055 512.71123513 1.125 512.6875 C-0.39302216 512.68668427 -0.39302216 512.68668427 -1.94171143 512.68585205 C-18.47617395 512.6451051 -34.39564864 511.72136907 -50.625 508.3125 C-52.14794678 507.99901611 -52.14794678 507.99901611 -53.70166016 507.67919922 C-95.15990747 498.87022896 -133.44452772 479.81128029 -165.625 452.3125 C-166.37394531 451.67570312 -167.12289062 451.03890625 -167.89453125 450.3828125 C-181.39020621 438.56547532 -194.06058025 425.82698412 -204.625 411.3125 C-205.48149066 410.16255169 -206.33826433 409.01281411 -207.1953125 407.86328125 C-213.23534209 399.67315742 -218.61867614 391.16870382 -223.625 382.3125 C-224.0271875 381.60528809 -224.429375 380.89807617 -224.84375 380.16943359 C-239.59720851 353.96475553 -249.12670334 325.02703614 -253.625 295.3125 C-253.80232666 294.19367432 -253.97965332 293.07484863 -254.16235352 291.92211914 C-255.84376341 280.20014053 -255.98234341 268.57751024 -255.9375 256.75 C-255.93426727 255.21939438 -255.93426727 255.21939438 -255.93096924 253.65786743 C-255.88133352 239.03039476 -255.63419712 224.67986162 -252.625 210.3125 C-252.42632324 209.33764648 -252.22764648 208.36279297 -252.02294922 207.35839844 C-241.90232806 158.9765226 -219.9858123 114.98821731 -185.625 79.3125 C-184.99287598 78.65314453 -184.36075195 77.99378906 -183.70947266 77.31445312 C-174.56502521 67.82619695 -165.26765991 59.0862956 -154.625 51.3125 C-153.47394983 50.45443848 -152.32290823 49.59636549 -151.171875 48.73828125 C-142.98224019 42.70072604 -134.47961724 37.31792698 -125.625 32.3125 C-124.91778809 31.9103125 -124.21057617 31.508125 -123.48193359 31.09375 C-100.34654164 18.0683259 -75.17537591 9.31948539 -49.1875 4 C-48.46860596 3.85264404 -47.74971191 3.70528809 -47.0090332 3.5534668 C-31.36274391 0.57960912 -15.88931954 -0.06050362 0 0 Z " fill="#0866FF" transform="translate(255.625,-0.3125)"/>
<path d="M0 0 C1.24811966 -0.00117828 1.24811966 -0.00117828 2.52145386 -0.00238037 C20.38301315 0.01761685 39.20309128 0.69269709 56.25 6.375 C56.25 29.805 56.25 53.235 56.25 77.375 C36.75 77.1875 36.75 77.1875 30.70507812 77.10473633 C13.75533747 76.97071565 -4.12560737 78.03136981 -17.71484375 89.34375 C-35.48508585 107.07988415 -31.22660791 140.43931657 -31.75 161.375 C-4.03 161.375 23.69 161.375 52.25 161.375 C45.83827124 197.28068105 45.83827124 197.28068105 43.08251953 212.36743164 C42.68541297 214.54552618 42.28997397 216.72392525 41.89599609 218.90258789 C41.3146006 222.1167399 40.72820108 225.32994166 40.140625 228.54296875 C39.87659882 230.01119331 39.87659882 230.01119331 39.60723877 231.50907898 C39.44326599 232.39964493 39.27929321 233.29021088 39.11035156 234.20776367 C38.96776917 234.99156906 38.82518677 235.77537445 38.67828369 236.58293152 C38.25 238.375 38.25 238.375 37.25 239.375 C14.48 239.375 -8.29 239.375 -31.75 239.375 C-31.75 297.785 -31.75 356.195 -31.75 416.375 C-40.76117548 417.50139694 -40.76117548 417.50139694 -44.43652344 417.55200195 C-45.2674501 417.56466095 -46.09837677 417.57731995 -46.95448303 417.59036255 C-48.26865456 417.60170731 -48.26865456 417.60170731 -49.609375 417.61328125 C-50.54410141 417.62293915 -51.47882782 417.63259705 -52.44187927 417.64254761 C-55.46129342 417.66732187 -58.48049522 417.67993846 -61.5 417.6875 C-62.52767487 417.69045074 -63.55534973 417.69340149 -64.61416626 417.69644165 C-85.40890966 417.71002914 -104.6066688 415.86863578 -124.75 410.375 C-124.75 353.945 -124.75 297.515 -124.75 239.375 C-142.24 239.375 -159.73 239.375 -177.75 239.375 C-177.75 213.635 -177.75 187.895 -177.75 161.375 C-160.26 161.375 -142.77 161.375 -124.75 161.375 C-124.90663029 145.10347201 -124.90663029 145.10347201 -125.11035156 128.83251953 C-125.39667533 94.11650763 -119.57925277 57.91426578 -95.02734375 31.68359375 C-81.13941181 17.60508984 -65.20813646 9.74976845 -46.3125 4.5625 C-45.62349609 4.36769043 -44.93449219 4.17288086 -44.22460938 3.97216797 C-29.86383661 0.28450347 -14.74428078 -0.02994438 0 0 Z " fill="#FEFEFF" transform="translate(318.75,94.625)"/>
</svg>
