<svg id="svg" version="1.1" xmlns="http://www.w3.org/2000/svg" xmlns:xlink="http://www.w3.org/1999/xlink" width="400" height="400" viewBox="0, 0, 400,400"><g id="svgg"><path id="path0" d="M0.000 200.000 L 0.000 400.000 200.000 400.000 L 400.000 400.000 400.000 200.000 L 400.000 0.000 200.000 0.000 L 0.000 0.000 0.000 200.000 M210.733 70.834 C 211.100 70.853,210.875 71.026,210.234 71.217 C 209.593 71.409,208.915 71.471,208.728 71.355 C 208.173 71.013,208.828 70.325,209.473 70.573 C 209.799 70.698,210.366 70.815,210.733 70.834 M214.326 75.843 C 215.573 76.021,215.992 76.243,215.838 76.644 C 215.673 77.074,216.097 77.201,217.713 77.206 C 219.027 77.210,219.600 77.339,219.259 77.555 C 218.550 78.004,220.927 78.385,221.709 77.947 C 222.480 77.516,224.000 77.980,224.000 78.647 C 224.000 78.951,224.046 79.200,224.103 79.200 C 224.159 79.200,224.793 79.368,225.510 79.574 C 226.321 79.807,226.728 79.807,226.584 79.574 C 226.275 79.074,226.982 79.103,228.870 79.668 C 229.893 79.975,230.363 80.320,230.229 80.668 C 230.039 81.164,230.503 81.390,231.370 81.224 C 232.372 81.033,235.165 82.224,235.347 82.920 C 235.461 83.356,235.738 83.562,235.996 83.403 C 236.751 82.936,240.008 84.091,239.898 84.787 C 239.844 85.124,240.025 85.355,240.300 85.300 C 240.575 85.245,240.800 85.369,240.800 85.576 C 240.800 85.783,241.294 85.696,241.897 85.383 C 243.025 84.798,244.126 85.792,243.088 86.459 C 242.867 86.601,243.476 87.206,244.443 87.802 C 245.409 88.399,247.293 89.587,248.628 90.443 C 249.963 91.300,251.467 92.000,251.971 92.000 C 252.620 92.000,252.819 92.174,252.655 92.600 C 252.492 93.026,252.691 93.200,253.341 93.200 C 253.844 93.200,254.861 93.740,255.600 94.400 C 256.339 95.060,257.112 95.600,257.318 95.600 C 257.835 95.600,260.342 98.387,260.624 99.275 C 260.750 99.674,261.112 100.000,261.427 100.000 C 261.742 100.000,262.000 100.227,262.000 100.505 C 262.000 100.783,262.405 101.188,262.900 101.405 C 263.395 101.622,263.808 102.160,263.819 102.600 C 263.829 103.040,264.054 103.355,264.319 103.300 C 264.583 103.245,264.755 103.417,264.700 103.682 C 264.645 103.947,264.825 104.172,265.100 104.182 C 265.375 104.192,265.613 104.380,265.629 104.600 C 265.672 105.205,266.865 106.407,267.210 106.194 C 267.604 105.950,268.800 107.780,268.800 108.629 C 268.800 109.033,269.019 109.201,269.371 109.067 C 270.091 108.790,270.962 109.800,270.667 110.570 C 270.520 110.952,270.744 111.193,271.322 111.275 C 271.989 111.370,272.312 111.832,272.668 113.200 C 272.925 114.190,273.150 114.775,273.168 114.500 C 273.242 113.342,274.000 114.116,274.000 115.351 C 274.000 116.631,274.803 117.864,275.307 117.359 C 275.650 117.016,276.799 119.408,276.806 120.480 C 276.811 121.163,276.903 121.257,277.163 120.846 C 277.614 120.133,278.324 121.355,278.574 123.275 C 278.668 124.004,278.761 124.690,278.779 124.800 C 278.797 124.910,278.970 124.751,279.162 124.447 C 279.744 123.529,280.853 125.652,280.745 127.478 C 280.646 129.157,281.028 130.154,281.628 129.783 C 281.832 129.656,282.000 129.844,282.000 130.200 C 282.000 130.556,281.832 130.743,281.627 130.617 C 281.422 130.490,281.692 131.503,282.227 132.869 C 282.762 134.234,283.203 135.633,283.206 135.976 C 283.211 136.513,283.264 136.518,283.582 136.016 C 283.852 135.589,283.942 135.761,283.916 136.658 C 283.897 137.333,283.990 138.061,284.123 138.276 C 284.256 138.491,284.473 139.277,284.604 140.022 C 284.876 141.568,285.200 142.092,285.200 140.987 C 285.200 138.721,286.038 141.508,286.175 144.228 C 286.263 145.973,286.456 149.489,286.604 152.043 C 286.839 156.082,286.791 156.718,286.237 156.930 C 285.873 157.070,285.589 156.966,285.575 156.687 C 285.536 155.941,284.707 158.077,284.636 159.109 C 284.566 160.109,282.689 162.072,281.899 161.970 C 280.864 161.836,280.362 162.014,280.617 162.427 C 280.762 162.661,280.637 162.820,280.340 162.779 C 279.114 162.611,278.565 162.790,279.158 163.166 C 279.589 163.439,279.434 163.665,278.478 164.160 C 276.239 165.318,268.564 164.724,267.122 163.282 C 266.857 163.017,266.451 162.793,266.220 162.784 C 265.258 162.747,263.100 160.431,263.100 159.436 C 263.100 158.874,262.952 158.506,262.770 158.618 C 262.589 158.731,262.245 158.457,262.006 158.011 C 261.714 157.465,261.707 157.200,261.986 157.200 C 262.214 157.200,262.400 157.410,262.400 157.667 C 262.400 157.923,262.508 158.025,262.641 157.893 C 262.773 157.760,262.612 157.267,262.283 156.798 C 261.841 156.166,261.621 156.081,261.439 156.472 C 261.303 156.762,261.264 156.460,261.352 155.800 C 261.440 155.140,261.364 154.240,261.184 153.800 C 261.004 153.360,260.831 153.180,260.800 153.400 C 260.666 154.350,260.054 152.047,260.028 150.500 C 260.013 149.565,259.806 148.800,259.569 148.800 C 259.332 148.800,259.171 148.215,259.210 147.500 C 259.329 145.324,259.223 144.800,258.663 144.800 C 258.062 144.800,257.203 142.318,257.194 140.554 C 257.189 139.689,257.095 139.547,256.817 139.986 C 256.370 140.693,255.648 139.110,255.303 136.668 C 255.162 135.672,254.974 135.319,254.765 135.657 C 254.523 136.049,254.373 135.983,254.158 135.389 C 254.002 134.955,253.259 133.748,252.507 132.706 C 251.564 131.399,251.181 130.470,251.271 129.706 C 251.372 128.837,251.250 128.625,250.700 128.718 C 250.315 128.782,250.000 128.592,250.000 128.294 C 250.000 127.996,249.100 126.819,248.000 125.678 C 246.900 124.536,246.000 123.422,246.000 123.201 C 246.000 122.981,245.820 122.800,245.600 122.800 C 245.380 122.800,245.200 122.350,245.200 121.800 C 245.200 121.062,244.988 120.800,244.387 120.800 C 243.941 120.800,243.479 120.550,243.362 120.245 C 243.245 119.940,242.635 119.587,242.007 119.461 C 241.366 119.333,240.757 118.895,240.620 118.464 C 240.266 117.347,239.001 116.000,238.307 116.000 C 237.242 116.000,235.519 114.354,235.732 113.540 C 235.858 113.058,235.637 112.634,235.116 112.355 C 234.527 112.040,234.378 112.041,234.575 112.360 C 234.725 112.602,234.657 112.800,234.424 112.800 C 234.191 112.800,234.000 112.620,234.000 112.400 C 234.000 112.180,233.662 112.000,233.249 112.000 C 232.836 112.000,232.274 111.730,232.000 111.400 C 231.726 111.070,231.294 110.800,231.040 110.800 C 230.070 110.800,228.684 109.519,229.259 109.155 C 229.634 108.917,229.456 108.810,228.676 108.806 C 228.030 108.803,227.658 108.630,227.800 108.400 C 228.034 108.022,227.537 107.843,226.564 107.955 C 226.325 107.983,225.820 107.664,225.442 107.246 C 225.006 106.764,224.448 106.567,223.915 106.706 C 223.377 106.847,223.170 106.772,223.339 106.498 C 223.515 106.214,222.964 106.092,221.702 106.135 C 220.114 106.189,219.809 106.084,219.856 105.500 C 219.886 105.115,219.796 104.786,219.656 104.769 C 219.515 104.752,218.860 104.677,218.200 104.603 C 214.948 104.235,213.235 103.867,213.415 103.577 C 213.524 103.400,213.437 103.147,213.223 103.014 C 212.633 102.650,207.619 102.107,207.818 102.429 C 207.913 102.583,204.569 102.697,200.388 102.683 C 196.206 102.669,193.013 102.510,193.292 102.331 C 193.887 101.949,190.633 102.273,187.900 102.867 C 186.855 103.094,186.000 103.442,186.000 103.640 C 186.000 103.838,185.280 104.000,184.400 104.000 C 183.497 104.000,182.800 104.193,182.800 104.443 C 182.800 104.686,182.530 104.782,182.200 104.655 C 181.449 104.367,180.333 104.768,180.615 105.224 C 180.999 105.846,178.792 106.986,178.061 106.544 C 177.233 106.043,175.400 106.461,175.400 107.150 C 175.400 107.776,174.069 108.800,173.255 108.800 C 172.929 108.800,172.371 109.064,172.014 109.387 C 171.657 109.710,170.800 110.018,170.110 110.070 C 169.420 110.123,168.944 110.309,169.051 110.483 C 169.159 110.657,168.882 110.800,168.436 110.800 C 167.880 110.800,167.697 110.988,167.855 111.400 C 168.001 111.780,167.850 112.000,167.443 112.000 C 167.089 112.000,166.800 112.180,166.800 112.400 C 166.800 112.620,166.215 112.803,165.500 112.806 C 164.531 112.811,164.352 112.908,164.795 113.189 C 165.832 113.844,162.988 116.452,161.750 115.981 C 161.016 115.702,160.800 115.754,160.800 116.210 C 160.800 116.534,160.519 116.800,160.176 116.800 C 159.833 116.800,159.671 116.991,159.816 117.225 C 160.108 117.699,159.022 119.053,157.844 119.684 C 157.209 120.023,157.122 119.979,157.335 119.426 C 157.485 119.033,157.428 118.859,157.195 119.003 C 156.978 119.137,156.800 119.597,156.800 120.024 C 156.800 120.451,156.632 120.800,156.427 120.800 C 156.222 120.800,155.939 121.163,155.798 121.606 C 155.657 122.049,155.375 122.308,155.171 122.182 C 154.967 122.056,154.800 122.143,154.800 122.376 C 154.800 122.609,154.536 122.800,154.213 122.800 C 153.828 122.800,153.714 123.031,153.882 123.469 C 154.077 123.977,153.977 124.077,153.469 123.882 C 152.969 123.690,152.797 123.849,152.787 124.513 C 152.773 125.534,151.925 126.800,151.256 126.800 C 151.005 126.800,150.800 127.070,150.800 127.400 C 150.800 127.730,150.519 128.000,150.176 128.000 C 149.833 128.000,149.652 128.161,149.774 128.358 C 149.896 128.555,149.726 128.819,149.398 128.946 C 149.069 129.072,148.800 129.532,148.800 129.969 C 148.800 131.272,147.918 132.813,147.235 132.703 C 146.870 132.644,146.651 132.837,146.719 133.156 C 146.891 133.965,145.621 136.460,145.177 136.186 C 144.970 136.058,144.800 136.424,144.800 137.000 C 144.800 137.596,144.628 137.941,144.400 137.800 C 143.979 137.540,143.864 138.011,143.984 139.500 C 144.029 140.057,143.834 140.400,143.471 140.400 C 142.720 140.400,142.400 141.259,142.400 143.276 C 142.400 144.542,142.272 144.837,141.800 144.655 C 141.377 144.493,141.202 144.687,141.206 145.313 C 141.211 146.032,141.286 146.087,141.600 145.600 C 142.079 144.859,142.170 146.293,141.718 147.467 C 141.471 148.110,141.404 148.077,141.173 147.200 C 140.999 146.543,140.900 147.003,140.883 148.543 C 140.847 151.819,139.976 156.400,139.390 156.400 C 139.121 156.400,138.797 157.217,138.654 158.256 C 138.289 160.921,138.409 241.406,138.782 243.800 C 138.953 244.900,139.117 245.359,139.147 244.820 C 139.244 243.033,139.881 244.529,140.376 247.706 C 140.643 249.415,140.829 251.485,140.791 252.306 C 140.666 255.024,140.769 255.587,141.351 255.363 C 141.929 255.142,142.241 256.137,142.679 259.600 C 142.856 260.995,142.976 261.220,143.213 260.600 C 143.628 259.512,144.800 262.152,144.800 264.175 C 144.800 265.159,144.954 265.516,145.320 265.375 C 145.621 265.260,146.133 265.730,146.533 266.488 C 146.914 267.210,147.535 268.318,147.913 268.952 C 148.409 269.783,148.467 270.152,148.122 270.278 C 147.860 270.373,147.744 270.709,147.864 271.024 C 147.985 271.338,148.245 271.496,148.442 271.374 C 148.639 271.252,148.814 271.568,148.832 272.076 C 148.849 272.584,148.954 272.775,149.065 272.500 C 149.411 271.641,149.796 271.936,151.017 273.992 C 151.668 275.088,152.335 275.988,152.500 275.992 C 152.665 275.996,152.800 276.251,152.800 276.557 C 152.800 276.864,153.073 277.219,153.406 277.347 C 153.739 277.475,154.185 278.034,154.396 278.590 C 154.607 279.145,155.055 279.600,155.390 279.600 C 155.940 279.600,156.178 280.071,156.047 280.900 C 156.021 281.065,156.180 281.200,156.400 281.200 C 156.620 281.200,156.755 281.425,156.700 281.700 C 156.642 281.992,156.914 282.146,157.354 282.070 C 157.877 281.980,158.040 282.118,157.886 282.521 C 157.567 283.351,158.371 284.000,159.718 284.000 C 161.046 284.000,163.200 285.378,163.200 286.227 C 163.200 286.542,163.352 286.800,163.538 286.800 C 164.194 286.800,166.227 288.798,165.600 288.827 C 165.270 288.842,165.888 289.092,166.974 289.384 C 168.059 289.675,169.159 290.203,169.418 290.557 C 169.677 290.911,170.093 291.200,170.344 291.200 C 170.595 291.200,170.800 291.359,170.800 291.553 C 170.800 291.748,171.205 292.003,171.700 292.121 C 174.581 292.806,176.529 293.887,176.240 294.640 C 176.122 294.948,176.154 295.207,176.313 295.216 C 180.978 295.474,183.130 296.092,181.954 296.837 C 181.578 297.075,181.876 297.190,182.880 297.194 C 185.017 297.203,188.467 298.009,189.107 298.650 C 189.410 298.952,189.914 299.207,190.229 299.215 C 190.543 299.224,195.030 299.231,200.200 299.231 C 205.370 299.231,209.960 299.224,210.400 299.215 C 210.840 299.207,211.200 298.947,211.200 298.637 C 211.200 298.253,211.867 298.003,213.300 297.850 C 218.393 297.307,219.422 297.101,218.600 296.787 C 217.393 296.327,220.253 295.200,222.630 295.200 C 224.179 295.200,224.444 295.093,224.236 294.549 C 223.693 293.134,226.007 292.451,226.894 293.765 C 227.092 294.058,227.190 294.031,227.194 293.682 C 227.197 293.398,227.511 293.218,227.891 293.282 C 228.288 293.350,228.586 293.145,228.591 292.800 C 228.597 292.418,229.072 292.154,229.900 292.075 C 230.615 292.006,231.200 291.781,231.200 291.575 C 231.200 291.369,231.481 291.200,231.824 291.200 C 232.167 291.200,232.329 291.008,232.184 290.773 C 231.797 290.148,233.215 289.228,234.600 289.207 C 235.406 289.194,235.626 289.077,235.270 288.852 C 234.505 288.366,235.836 287.120,236.950 287.279 C 237.779 287.397,239.200 286.533,239.200 285.911 C 239.200 285.740,238.885 285.589,238.500 285.575 C 237.933 285.554,237.961 285.484,238.644 285.208 C 239.109 285.020,239.591 284.602,239.715 284.277 C 239.985 283.573,242.352 282.323,242.842 282.626 C 243.032 282.744,243.521 282.291,243.929 281.621 C 244.336 280.951,244.789 280.522,244.935 280.668 C 245.081 280.814,245.200 280.543,245.200 280.067 C 245.200 279.563,245.451 279.200,245.800 279.200 C 246.130 279.200,246.400 278.919,246.400 278.576 C 246.400 278.233,246.565 278.055,246.767 278.180 C 246.970 278.305,247.254 277.864,247.400 277.200 C 247.546 276.536,247.990 275.820,248.387 275.607 C 248.783 275.395,249.219 274.780,249.354 274.241 C 249.489 273.703,250.140 272.722,250.800 272.062 C 251.460 271.402,252.000 270.638,252.000 270.366 C 252.000 269.340,254.505 265.923,254.853 266.472 C 255.072 266.817,255.201 266.515,255.225 265.600 C 255.273 263.774,256.093 261.125,256.589 261.195 C 256.802 261.225,257.274 260.203,257.637 258.925 C 258.000 257.646,258.500 256.645,258.749 256.700 C 259.031 256.763,259.200 256.134,259.200 255.020 C 259.200 252.719,259.969 249.134,260.405 249.403 C 260.917 249.720,261.335 248.018,261.247 245.977 C 261.186 244.583,261.360 243.980,261.984 243.415 C 262.485 242.961,262.800 242.863,262.800 243.162 C 262.800 243.429,262.972 243.541,263.183 243.411 C 263.393 243.281,263.483 242.955,263.382 242.687 C 263.114 241.977,264.652 239.647,265.700 239.175 C 266.195 238.952,267.320 238.329,268.200 237.791 C 269.863 236.774,274.244 236.711,275.481 237.687 C 275.746 237.896,276.826 238.066,277.881 238.065 C 280.476 238.063,283.776 240.142,283.808 241.800 C 283.812 242.020,283.960 242.233,284.137 242.273 C 285.165 242.507,286.462 244.589,286.248 245.661 C 286.122 246.288,286.156 246.800,286.322 246.800 C 286.670 246.800,286.564 257.127,286.196 259.133 C 286.032 260.025,285.773 260.399,285.415 260.261 C 284.707 259.989,284.421 261.189,284.699 263.265 C 284.892 264.702,284.832 264.898,284.262 264.679 C 283.898 264.539,283.600 264.495,283.600 264.580 C 283.600 264.665,283.493 265.064,283.362 265.467 C 283.165 266.077,283.197 266.099,283.556 265.600 C 283.913 265.104,283.989 265.164,283.994 265.943 C 283.998 266.574,283.821 266.817,283.457 266.677 C 283.102 266.541,282.767 266.944,282.494 267.834 C 282.256 268.609,282.232 269.200,282.437 269.200 C 282.935 269.200,282.894 270.677,282.369 271.657 C 282.125 272.114,281.692 272.368,281.369 272.244 C 280.935 272.077,280.800 272.407,280.800 273.639 C 280.800 275.585,280.153 276.944,279.369 276.644 C 278.970 276.490,278.800 276.725,278.800 277.432 C 278.800 278.696,277.689 280.902,277.203 280.602 C 276.729 280.309,276.000 281.691,276.000 282.881 C 276.000 283.394,275.550 284.477,275.000 285.286 C 274.450 286.095,274.000 286.947,274.000 287.179 C 274.000 287.765,273.310 287.707,273.065 287.100 C 272.954 286.825,272.849 286.978,272.832 287.440 C 272.777 288.898,271.944 290.800,271.361 290.800 C 271.052 290.800,270.800 291.160,270.800 291.600 C 270.800 292.359,270.619 292.468,269.201 292.561 C 268.871 292.583,268.601 292.955,268.601 293.387 C 268.600 293.825,268.157 294.396,267.600 294.676 C 266.914 295.021,266.641 295.445,266.731 296.026 C 266.837 296.709,266.710 296.825,266.079 296.625 C 265.302 296.378,264.548 297.285,264.770 298.200 C 264.823 298.420,264.731 298.465,264.566 298.299 C 264.138 297.871,262.800 299.186,262.800 300.034 C 262.800 300.465,262.448 300.795,261.904 300.872 C 261.411 300.942,260.944 301.336,260.866 301.746 C 260.629 302.987,258.742 304.835,257.963 304.588 C 257.581 304.467,257.120 304.600,256.940 304.884 C 256.618 305.391,256.550 305.602,256.450 306.400 C 256.423 306.620,255.956 306.800,255.413 306.800 C 254.722 306.800,254.491 306.971,254.644 307.370 C 254.796 307.767,254.518 307.980,253.731 308.070 C 253.022 308.152,252.453 308.534,252.207 309.096 C 251.991 309.589,251.631 309.973,251.407 309.949 C 250.486 309.850,249.966 310.021,250.172 310.355 C 250.292 310.550,250.015 310.807,249.555 310.928 C 249.096 311.048,248.826 311.318,248.955 311.528 C 249.327 312.129,248.122 312.893,247.244 312.614 C 246.687 312.437,246.319 312.603,246.018 313.166 C 245.765 313.639,245.345 313.877,244.997 313.744 C 244.663 313.615,244.300 313.796,244.161 314.158 C 244.025 314.511,243.529 314.805,243.057 314.812 C 242.283 314.823,242.268 314.864,242.900 315.232 C 244.437 316.127,243.750 317.119,241.748 316.893 C 240.297 316.729,239.817 316.827,239.528 317.342 C 239.282 317.782,238.629 318.000,237.557 318.000 C 236.589 318.000,236.051 318.159,236.200 318.400 C 236.340 318.626,236.008 318.800,235.436 318.800 C 234.742 318.800,234.491 318.973,234.637 319.351 C 234.780 319.725,234.423 319.987,233.524 320.167 C 229.943 320.884,229.041 321.104,229.500 321.150 C 231.745 321.375,227.707 322.788,224.706 322.828 C 223.207 322.848,222.831 322.951,223.400 323.184 C 224.902 323.800,222.082 324.510,217.664 324.630 C 214.566 324.714,213.351 324.901,212.825 325.377 C 211.219 326.831,186.131 327.006,187.026 325.558 C 187.371 325.000,183.929 324.320,182.128 324.590 C 179.033 325.054,175.051 324.092,176.400 323.206 C 176.832 322.923,176.375 322.811,174.771 322.806 C 172.448 322.800,168.658 321.754,168.992 321.212 C 169.099 321.040,168.446 320.782,167.543 320.637 C 165.292 320.277,164.108 319.630,164.846 319.163 C 165.250 318.907,165.130 318.809,164.400 318.800 C 163.327 318.787,161.147 318.082,159.726 317.288 C 159.246 317.020,158.320 316.800,157.669 316.800 C 156.385 316.800,155.602 315.699,156.486 315.138 C 156.806 314.936,156.447 314.810,155.539 314.806 C 154.266 314.801,154.022 314.640,153.644 313.555 C 153.336 312.671,153.029 312.380,152.584 312.551 C 152.224 312.689,152.062 312.623,152.203 312.395 C 152.344 312.167,151.922 312.000,151.206 312.000 C 150.256 312.000,149.992 311.840,150.082 311.316 C 150.166 310.827,149.919 310.628,149.214 310.616 C 148.591 310.606,148.055 310.256,147.760 309.666 C 147.503 309.153,147.065 308.523,146.788 308.266 C 146.400 307.908,146.348 307.916,146.565 308.300 C 146.720 308.575,146.734 308.800,146.595 308.800 C 146.184 308.800,145.200 307.692,145.200 307.229 C 145.200 306.993,144.731 306.800,144.157 306.800 C 143.418 306.800,143.178 306.634,143.333 306.229 C 143.611 305.505,142.624 304.671,141.427 304.619 C 140.329 304.570,135.397 299.852,135.786 299.222 C 135.930 298.990,135.827 298.800,135.557 298.800 C 135.287 298.800,135.172 298.695,135.300 298.567 C 135.585 298.282,134.158 296.800,133.600 296.800 C 133.380 296.800,133.200 296.620,133.200 296.400 C 133.200 296.180,132.926 296.000,132.591 296.000 C 132.257 296.000,131.765 295.505,131.498 294.900 C 131.232 294.295,130.268 293.080,129.357 292.200 C 128.401 291.277,127.580 290.049,127.417 289.297 C 127.262 288.580,126.982 288.088,126.795 288.203 C 126.304 288.507,125.200 286.782,125.200 285.711 C 125.200 285.210,124.990 284.845,124.734 284.900 C 124.477 284.955,124.146 284.444,123.998 283.765 C 123.623 282.050,123.180 281.385,122.812 281.981 C 122.364 282.706,121.128 280.532,121.275 279.277 C 121.358 278.560,121.212 278.203,120.833 278.202 C 120.522 278.201,120.192 277.975,120.100 277.700 C 120.008 277.425,120.130 277.200,120.370 277.200 C 120.670 277.200,120.655 276.957,120.323 276.426 C 120.057 276.000,119.710 275.732,119.552 275.830 C 118.690 276.363,117.056 272.745,117.220 270.667 C 117.336 269.199,117.220 268.796,116.709 268.900 C 116.440 268.955,116.152 268.550,116.071 268.000 C 115.990 267.450,115.740 266.777,115.517 266.505 C 115.293 266.233,115.220 265.724,115.355 265.373 C 115.689 264.503,115.189 262.571,114.795 263.209 C 114.288 264.029,113.105 259.754,113.300 257.805 C 113.396 256.837,113.326 255.810,113.144 255.523 C 112.871 255.093,112.811 255.093,112.806 255.524 C 112.789 257.028,112.067 255.282,111.826 253.153 C 111.469 249.992,111.476 151.529,111.834 148.830 C 112.009 147.508,112.294 146.800,112.652 146.800 C 113.031 146.800,113.200 146.269,113.200 145.073 C 113.200 141.740,114.219 137.461,114.793 138.388 C 114.954 138.649,115.182 137.723,115.301 136.331 C 115.578 133.077,116.332 131.020,116.816 132.200 C 117.045 132.758,117.152 132.312,117.172 130.724 C 117.200 128.466,117.554 127.833,118.800 127.811 C 119.270 127.802,119.369 127.375,119.259 125.843 C 119.128 124.017,119.175 123.900,119.964 124.107 C 120.798 124.325,121.867 123.201,121.334 122.667 C 121.203 122.536,121.404 121.778,121.782 120.982 C 122.159 120.186,122.570 119.637,122.695 119.761 C 123.101 120.167,123.974 118.627,123.987 117.482 C 123.997 116.644,124.175 116.394,124.700 116.482 C 125.177 116.563,125.363 116.377,125.282 115.900 C 125.218 115.515,125.398 115.197,125.682 115.194 C 126.060 115.189,126.074 115.107,125.734 114.891 C 125.126 114.504,126.076 113.119,126.836 113.285 C 127.126 113.348,127.389 113.130,127.420 112.800 C 127.452 112.470,127.506 111.975,127.539 111.700 C 127.573 111.425,127.930 111.200,128.333 111.200 C 129.361 111.200,129.674 110.772,129.129 110.114 C 128.762 109.672,128.889 109.329,129.732 108.486 C 130.475 107.744,130.807 107.598,130.823 108.009 C 130.835 108.334,131.065 107.970,131.333 107.200 C 131.645 106.304,132.062 105.819,132.490 105.852 C 133.393 105.923,135.860 103.177,135.682 102.299 C 135.601 101.894,135.849 101.484,136.270 101.328 C 136.672 101.180,137.108 100.898,137.240 100.703 C 137.372 100.507,137.732 100.309,138.040 100.262 C 138.995 100.118,139.634 99.562,140.024 98.537 C 140.230 97.995,140.560 97.651,140.757 97.773 C 140.954 97.895,141.230 97.534,141.371 96.972 C 141.535 96.320,142.055 95.800,142.802 95.539 C 143.448 95.314,143.937 94.933,143.888 94.692 C 143.840 94.451,144.295 94.007,144.900 93.705 C 145.505 93.403,146.000 93.008,146.000 92.827 C 146.000 92.645,146.585 92.252,147.300 91.953 C 148.579 91.418,148.803 91.350,149.600 91.250 C 149.820 91.223,149.955 90.975,149.900 90.700 C 149.845 90.425,150.070 90.185,150.400 90.167 C 151.451 90.110,153.200 89.091,153.200 88.536 C 153.200 88.046,153.708 87.823,154.516 87.958 C 155.243 88.079,156.353 87.138,156.472 86.301 C 156.575 85.576,156.894 85.376,158.108 85.275 C 158.938 85.207,159.517 84.989,159.395 84.792 C 159.045 84.226,161.409 83.201,163.080 83.194 C 164.170 83.189,164.434 83.083,164.014 82.817 C 163.245 82.331,165.351 81.467,166.453 81.817 C 166.882 81.953,167.200 81.861,167.200 81.602 C 167.200 81.353,167.515 81.182,167.900 81.221 C 169.103 81.343,169.422 81.202,168.814 80.817 C 167.929 80.257,170.094 79.500,172.936 79.376 C 174.746 79.297,175.457 79.075,176.095 78.391 C 176.795 77.639,177.192 77.544,178.759 77.751 C 180.026 77.919,180.413 77.873,180.000 77.603 C 179.568 77.322,180.015 77.203,181.600 77.178 C 183.040 77.156,183.533 77.039,183.027 76.841 C 179.674 75.528,206.189 74.683,214.326 75.843 M207.400 123.755 C 208.940 124.043,210.515 124.415,210.900 124.582 C 211.328 124.768,211.600 124.713,211.600 124.443 C 211.600 124.199,212.061 124.000,212.625 124.000 C 214.140 124.000,217.629 125.230,217.358 125.668 C 217.094 126.095,214.857 125.714,214.113 125.116 C 213.846 124.901,213.410 124.797,213.145 124.885 C 212.879 124.974,213.278 125.280,214.031 125.566 C 231.341 132.144,242.422 149.687,234.885 158.578 C 234.282 159.289,234.280 159.325,234.864 158.874 C 235.866 158.101,236.120 158.968,235.211 160.058 C 234.523 160.884,234.425 160.910,234.413 160.266 C 234.402 159.628,234.204 159.684,232.900 160.694 C 227.874 164.584,221.401 164.513,216.520 160.513 C 215.574 159.738,214.800 159.316,214.800 159.575 C 214.800 159.835,214.601 159.924,214.357 159.774 C 214.038 159.576,214.044 159.420,214.380 159.213 C 214.704 159.012,214.457 158.301,213.563 156.863 C 212.313 154.853,211.557 154.024,212.386 155.574 C 213.276 157.237,212.465 157.295,211.486 155.638 C 210.619 154.170,210.622 153.854,211.500 154.154 C 211.885 154.286,211.214 153.505,210.010 152.418 C 207.808 150.431,204.857 149.011,201.977 148.550 C 200.000 148.234,194.551 148.808,196.000 149.180 C 196.908 149.413,196.929 149.464,196.233 149.732 C 195.811 149.894,195.305 149.865,195.109 149.669 C 194.045 148.605,188.781 152.297,186.482 155.721 C 184.275 159.007,184.281 158.953,184.031 182.000 C 183.824 201.161,183.727 203.567,183.102 205.000 C 182.585 206.184,182.559 206.398,183.002 205.824 C 183.574 205.081,183.600 205.096,183.600 206.192 C 183.600 207.449,182.610 208.800,181.689 208.800 C 181.188 208.800,181.182 208.698,181.651 208.100 C 181.953 207.715,181.389 208.051,180.397 208.847 C 173.634 214.276,164.981 212.835,161.353 205.676 L 160.200 203.400 160.075 181.200 C 159.987 165.582,160.085 158.372,160.408 156.881 C 160.728 155.400,160.740 154.609,160.447 154.257 C 160.180 153.935,160.156 153.326,160.380 152.576 L 160.731 151.400 160.794 152.600 C 160.850 153.687,160.923 153.612,161.575 151.800 C 161.970 150.700,162.577 149.040,162.925 148.110 C 163.302 147.103,163.404 146.326,163.179 146.187 C 162.535 145.789,162.756 144.894,163.787 143.722 C 164.398 143.029,164.780 142.818,164.787 143.171 C 164.794 143.485,165.714 142.405,166.831 140.771 C 171.534 133.891,182.670 125.466,187.474 125.153 C 187.873 125.127,187.660 124.976,187.000 124.818 L 185.800 124.530 186.943 124.211 C 187.737 123.989,188.184 124.050,188.406 124.410 C 188.657 124.816,188.970 124.829,189.863 124.466 C 192.921 123.226,202.492 122.838,207.400 123.755 M222.700 163.881 C 223.415 163.995,224.000 164.248,224.000 164.444 C 224.000 165.006,222.279 164.835,221.424 164.187 C 220.996 163.864,220.041 163.600,219.300 163.600 C 218.559 163.600,218.052 163.439,218.174 163.242 C 218.303 163.033,219.022 163.048,219.898 163.279 C 220.724 163.496,221.985 163.767,222.700 163.881 M179.931 211.197 C 178.998 211.975,177.600 212.271,177.600 211.691 C 177.600 211.521,178.230 211.043,179.000 210.628 C 179.770 210.213,180.421 209.677,180.446 209.437 C 180.472 209.197,180.576 209.320,180.678 209.710 C 180.788 210.132,180.484 210.736,179.931 211.197 M166.486 211.905 C 165.734 212.155,164.709 211.671,164.999 211.202 C 165.163 210.935,165.547 210.957,166.123 211.266 C 166.689 211.569,166.817 211.794,166.486 211.905 M169.505 212.675 C 169.122 212.775,168.402 212.779,167.905 212.683 C 167.407 212.587,167.720 212.505,168.600 212.501 C 169.480 212.496,169.887 212.575,169.505 212.675 " stroke="none" fill="#535cfb" fill-rule="evenodd"></path><path id="path1" d="M191.800 77.016 C 186.179 77.532,182.776 78.047,179.800 78.832 C 175.269 80.027,171.062 81.253,170.200 81.629 C 169.760 81.821,168.410 82.356,167.200 82.818 C 149.055 89.751,131.572 105.438,122.439 122.982 C 119.979 127.708,117.042 134.831,115.999 138.600 C 114.782 143.001,114.434 144.468,113.868 147.600 C 112.462 155.368,112.399 157.652,112.407 200.600 C 112.417 250.943,112.374 250.189,116.011 263.000 C 117.483 268.187,121.547 277.603,124.117 281.786 C 128.862 289.508,135.545 297.597,141.876 303.282 C 143.951 305.146,151.997 311.220,152.800 311.530 C 153.130 311.657,153.945 312.131,154.611 312.582 C 157.902 314.814,168.553 319.679,172.600 320.800 C 180.909 323.101,182.890 323.578,186.148 324.064 C 195.427 325.447,210.332 325.034,218.000 323.180 C 227.248 320.944,230.537 319.800,238.400 316.082 C 241.354 314.686,248.735 310.300,250.915 308.646 C 258.722 302.724,265.215 296.223,270.624 288.914 C 272.141 286.865,276.637 279.423,277.582 277.400 C 280.905 270.280,282.379 266.266,283.983 259.960 C 284.454 258.112,285.010 255.949,285.219 255.154 C 288.221 243.753,278.361 235.115,268.060 240.122 C 264.723 241.743,262.894 244.706,261.591 250.600 C 256.918 271.750,241.839 289.833,223.400 296.402 C 222.080 296.872,220.640 297.416,220.200 297.610 C 213.413 300.602,195.242 301.685,187.400 299.565 C 186.520 299.327,185.080 298.946,184.200 298.719 C 162.051 292.995,144.191 274.532,139.395 252.400 C 139.037 250.750,138.542 248.770,138.295 248.000 C 137.667 246.045,137.385 163.634,137.987 157.898 C 139.940 139.282,148.523 123.878,162.812 113.344 C 170.202 107.896,175.591 105.349,186.000 102.385 C 193.106 100.362,207.116 100.380,214.600 102.423 C 221.247 104.237,229.211 107.446,232.392 109.592 C 232.946 109.966,234.366 110.920,235.547 111.712 C 243.984 117.372,251.522 126.111,256.325 135.800 C 257.557 138.286,260.000 144.436,260.000 145.051 C 260.000 145.303,260.256 146.384,260.568 147.454 C 260.881 148.524,261.426 150.710,261.781 152.311 C 263.327 159.291,267.279 162.789,273.625 162.796 C 282.386 162.806,287.388 155.741,285.234 146.400 C 284.160 141.739,282.938 137.157,282.407 135.800 C 282.235 135.360,281.596 133.650,280.986 132.000 C 276.925 121.009,271.005 111.926,261.800 102.563 C 257.309 97.995,249.055 91.164,247.200 90.480 C 246.870 90.358,246.060 89.857,245.400 89.365 C 244.135 88.424,236.702 84.578,234.371 83.660 C 233.617 83.363,232.460 82.885,231.800 82.599 C 229.924 81.786,224.049 79.945,219.600 78.775 C 212.205 76.831,201.321 76.142,191.800 77.016 " stroke="none" fill="#f8f9fb" fill-rule="evenodd"></path><path id="path2" d="M194.400 76.237 C 193.630 76.328,191.200 76.587,189.000 76.813 C 184.881 77.236,182.329 77.718,179.200 78.662 C 177.108 79.294,178.154 79.162,184.000 78.060 C 193.133 76.338,205.637 76.144,212.920 77.613 C 215.353 78.104,216.855 78.118,216.000 77.642 C 214.517 76.817,198.370 75.767,194.400 76.237 M218.200 78.465 C 221.191 79.162,222.277 79.233,220.400 78.610 C 219.410 78.281,218.150 78.030,217.600 78.052 C 216.885 78.081,217.056 78.198,218.200 78.465 M173.400 80.180 C 170.254 81.236,170.514 81.546,173.725 80.567 C 176.453 79.735,177.568 79.256,176.800 79.247 C 176.470 79.243,174.940 79.663,173.400 80.180 M223.000 79.603 C 223.440 79.794,225.330 80.427,227.200 81.009 C 229.070 81.591,231.140 82.304,231.800 82.593 C 232.460 82.883,233.617 83.363,234.371 83.660 C 236.702 84.578,244.135 88.424,245.400 89.365 C 246.060 89.857,246.870 90.358,247.200 90.480 C 250.384 91.654,264.574 104.521,268.118 109.447 C 268.928 110.573,269.903 111.743,270.285 112.047 C 273.208 114.372,263.523 103.161,259.505 99.567 C 257.687 97.941,256.110 96.493,256.000 96.350 C 253.259 92.765,236.663 83.652,227.249 80.562 C 223.408 79.302,221.125 78.786,223.000 79.603 M167.400 82.256 C 136.671 94.889,116.354 121.394,112.407 154.000 C 111.797 159.042,112.083 247.723,112.718 250.400 L 113.145 252.200 112.936 250.000 C 112.469 245.087,112.332 159.016,112.784 155.000 C 113.293 150.488,114.221 145.176,115.020 142.200 C 116.598 136.320,116.653 136.156,118.922 130.600 C 127.740 109.007,146.997 90.091,167.800 82.589 C 168.900 82.192,169.971 81.718,170.180 81.534 C 170.808 80.982,169.969 81.200,167.400 82.256 M191.000 101.434 C 189.020 101.732,186.770 102.158,186.000 102.380 C 180.689 103.911,178.869 104.515,176.124 105.657 C 155.438 114.269,139.953 134.915,138.216 156.200 C 138.093 157.704,138.304 156.958,138.782 154.200 C 143.703 125.821,164.567 105.433,192.400 101.806 C 223.473 97.756,251.756 116.977,260.375 148.001 C 260.833 149.650,261.131 150.370,261.037 149.600 C 259.504 137.089,248.093 120.128,235.547 111.712 C 234.366 110.920,232.946 109.966,232.392 109.592 C 229.211 107.446,221.247 104.237,214.600 102.423 C 208.838 100.850,197.907 100.392,191.000 101.434 M272.233 115.100 C 273.035 116.365,273.941 117.684,274.246 118.031 C 274.551 118.379,274.800 118.774,274.800 118.909 C 274.800 119.351,276.495 122.038,276.666 121.867 C 277.000 121.533,271.495 112.800,270.950 112.800 C 270.854 112.800,271.432 113.835,272.233 115.100 M276.867 122.600 C 276.950 122.820,277.658 124.350,278.441 126.000 C 279.687 128.623,281.453 133.044,282.181 135.357 C 282.312 135.774,282.522 136.011,282.649 135.884 C 283.083 135.450,278.741 124.936,277.352 123.059 C 277.003 122.587,276.785 122.380,276.867 122.600 M195.600 124.284 C 194.830 124.365,193.930 124.535,193.600 124.662 C 193.270 124.789,192.307 124.963,191.459 125.049 C 189.885 125.209,184.106 127.348,183.420 128.025 C 183.211 128.231,182.626 128.400,182.120 128.400 C 181.614 128.400,181.200 128.538,181.200 128.707 C 181.200 128.875,180.178 129.625,178.928 130.372 C 173.726 133.483,165.200 142.865,165.200 145.478 C 165.200 145.765,165.020 146.000,164.800 146.000 C 164.580 146.000,164.400 146.198,164.400 146.440 C 164.400 146.681,164.109 147.492,163.754 148.241 C 163.398 148.990,163.190 150.036,163.291 150.565 C 163.406 151.167,163.309 151.463,163.030 151.356 C 162.509 151.156,161.710 153.887,161.203 157.600 C 161.007 159.030,160.829 169.617,160.806 181.126 L 160.765 202.052 161.723 204.144 C 165.067 211.449,173.531 213.436,179.537 208.326 C 180.232 207.735,180.800 207.146,180.800 207.017 C 180.800 206.888,181.295 206.035,181.900 205.121 L 183.000 203.459 183.129 183.429 C 183.257 163.461,183.443 159.316,184.273 157.800 C 184.514 157.360,185.046 156.302,185.456 155.449 C 190.542 144.852,208.106 145.200,214.082 156.016 C 214.709 157.152,215.622 158.422,216.111 158.839 C 218.883 161.206,219.518 161.622,220.704 161.845 C 221.422 161.980,222.107 162.250,222.228 162.445 C 222.878 163.497,228.071 162.514,230.853 160.813 C 231.594 160.360,232.470 159.888,232.800 159.765 C 234.566 159.107,237.060 152.253,236.532 149.510 C 236.149 147.522,234.557 144.114,232.997 141.943 C 232.229 140.873,231.600 139.922,231.600 139.830 C 231.600 139.737,231.105 139.132,230.500 138.485 C 229.895 137.838,228.676 136.519,227.790 135.554 C 225.593 133.161,223.239 131.200,222.561 131.200 C 222.253 131.200,222.000 131.047,222.000 130.861 C 222.000 130.674,221.280 130.197,220.400 129.800 C 219.520 129.403,218.800 128.926,218.800 128.739 C 218.800 128.553,218.476 128.400,218.080 128.400 C 217.684 128.400,217.154 128.194,216.902 127.942 C 216.485 127.525,214.611 126.749,211.400 125.663 C 207.875 124.470,200.202 123.800,195.600 124.284 M282.836 136.800 C 282.823 137.130,283.071 138.120,283.388 139.000 C 283.705 139.880,283.959 140.240,283.952 139.800 C 283.936 138.823,282.871 135.958,282.836 136.800 M284.034 141.400 C 284.022 141.840,284.187 142.470,284.400 142.800 C 284.914 143.595,284.914 142.596,284.400 141.400 L 284.056 140.600 284.034 141.400 M285.024 145.200 C 285.155 146.190,285.405 147.720,285.581 148.600 L 285.900 150.200 285.932 148.800 C 285.950 148.030,285.700 146.500,285.376 145.400 L 284.787 143.400 285.024 145.200 M205.400 146.400 C 206.067 146.686,205.979 146.748,204.876 146.772 C 204.090 146.789,203.653 146.638,203.800 146.400 C 204.088 145.934,204.315 145.934,205.400 146.400 M285.852 151.300 C 285.719 151.795,285.608 152.616,285.605 153.125 C 285.602 153.634,285.116 155.039,284.524 156.247 C 279.432 166.646,264.420 164.534,261.929 153.068 C 261.681 151.931,261.402 151.221,261.309 151.492 C 260.592 153.563,263.898 159.393,266.930 161.406 C 274.520 166.446,285.136 161.522,286.131 152.500 C 286.374 150.291,286.257 149.788,285.852 151.300 M137.793 200.800 C 137.793 223.570,137.841 232.885,137.900 221.500 C 137.959 210.115,137.959 191.485,137.900 180.100 C 137.841 168.715,137.793 178.030,137.793 200.800 M224.400 161.000 C 224.126 161.330,223.632 161.600,223.302 161.600 C 222.814 161.600,222.795 161.488,223.200 161.000 C 223.474 160.670,223.968 160.400,224.298 160.400 C 224.786 160.400,224.805 160.512,224.400 161.000 M271.094 238.435 C 265.192 239.826,262.872 243.078,260.418 253.400 C 255.852 272.611,242.169 288.197,222.800 296.251 C 219.837 297.483,220.799 297.454,223.958 296.216 C 242.702 288.871,256.952 271.599,261.591 250.600 C 262.894 244.706,264.723 241.743,268.060 240.122 C 278.361 235.115,288.221 243.753,285.219 255.154 C 285.010 255.949,284.454 258.112,283.983 259.960 C 282.379 266.266,280.905 270.280,277.582 277.400 C 276.637 279.423,272.141 286.865,270.624 288.914 C 265.215 296.223,258.722 302.724,250.915 308.646 C 246.318 312.134,237.575 316.779,230.286 319.607 C 227.138 320.828,227.607 321.016,230.859 319.837 C 250.355 312.765,269.584 295.447,277.978 277.400 C 280.691 271.567,281.220 270.323,282.315 267.200 C 283.395 264.119,284.295 260.865,285.554 255.494 C 288.036 244.897,280.650 236.184,271.094 238.435 M138.028 244.633 C 138.044 245.935,138.219 247.360,138.418 247.800 C 138.649 248.311,138.692 247.518,138.538 245.600 C 138.241 241.923,137.990 241.446,138.028 244.633 M138.854 249.554 C 138.825 250.078,138.978 251.158,139.195 251.954 C 139.413 252.749,139.784 254.183,140.021 255.140 C 140.259 256.098,140.538 256.796,140.642 256.691 C 140.746 256.587,140.479 255.174,140.049 253.551 C 139.618 251.928,139.186 250.150,139.088 249.600 L 138.909 248.600 138.854 249.554 M113.268 253.400 C 113.262 254.060,113.411 254.960,113.600 255.400 C 114.070 256.494,114.070 254.667,113.600 253.200 C 113.288 252.225,113.279 252.230,113.268 253.400 M114.028 257.081 C 114.013 257.566,114.162 258.376,114.361 258.881 C 114.560 259.387,115.116 261.240,115.597 263.000 C 116.708 267.059,118.885 272.745,119.091 272.126 C 119.178 271.866,118.991 271.147,118.676 270.527 C 118.033 269.259,116.793 265.695,115.849 262.400 C 114.262 256.862,114.054 256.254,114.028 257.081 M140.836 257.400 C 140.831 257.620,141.152 258.700,141.551 259.800 C 146.985 274.795,158.360 287.478,172.519 294.328 C 177.640 296.806,185.369 299.477,186.411 299.130 C 186.688 299.037,185.764 298.671,184.358 298.317 C 165.318 293.516,149.611 279.297,142.024 259.995 C 141.376 258.348,140.842 257.180,140.836 257.400 M119.200 273.053 C 119.200 273.502,122.773 280.342,124.373 282.956 C 132.930 296.936,145.691 308.824,159.661 315.831 C 162.094 317.051,164.150 317.983,164.230 317.903 C 164.311 317.823,162.455 316.777,160.106 315.579 C 157.758 314.380,155.288 313.031,154.618 312.581 C 153.948 312.130,153.130 311.657,152.800 311.530 C 151.997 311.220,143.951 305.146,141.876 303.282 C 136.704 298.638,130.268 291.190,126.582 285.586 C 123.760 281.295,123.827 281.411,121.591 276.900 C 119.755 273.195,119.200 272.302,119.200 273.053 M217.358 298.002 C 216.235 298.390,213.985 298.942,212.358 299.228 C 210.731 299.514,209.701 299.815,210.068 299.897 C 211.130 300.134,219.462 298.196,220.180 297.545 C 220.751 297.027,219.674 297.201,217.358 298.002 M187.800 299.600 C 188.240 299.789,189.140 299.938,189.800 299.932 C 190.970 299.921,190.975 299.912,190.000 299.600 C 188.533 299.130,186.706 299.130,187.800 299.600 M193.600 300.453 C 195.030 300.593,198.000 300.706,200.200 300.706 C 202.400 300.706,205.370 300.593,206.800 300.453 C 208.230 300.314,205.260 300.200,200.200 300.200 C 195.140 300.200,192.170 300.314,193.600 300.453 M165.000 318.281 C 165.554 318.833,171.261 320.872,171.521 320.612 C 171.638 320.495,171.658 320.400,171.565 320.400 C 171.423 320.400,168.543 319.364,165.400 318.183 C 164.868 317.983,164.734 318.016,165.000 318.281 M174.600 321.770 C 177.859 322.901,182.467 324.013,183.725 323.971 C 184.206 323.955,183.520 323.677,182.200 323.352 C 180.880 323.027,178.450 322.394,176.800 321.944 C 172.380 320.740,171.415 320.664,174.600 321.770 M225.924 321.010 C 225.664 321.269,221.028 322.512,217.800 323.188 C 214.571 323.864,214.400 323.932,215.840 323.968 C 216.522 323.986,217.602 323.843,218.240 323.651 C 218.878 323.459,220.750 322.978,222.400 322.582 C 225.961 321.729,228.258 320.840,226.967 320.816 C 226.508 320.807,226.039 320.894,225.924 321.010 M186.000 324.400 C 187.452 324.865,189.682 324.865,188.600 324.400 C 188.160 324.211,187.170 324.062,186.400 324.068 C 185.127 324.079,185.091 324.109,186.000 324.400 M211.000 324.400 C 209.918 324.865,212.148 324.865,213.600 324.400 C 214.509 324.109,214.473 324.079,213.200 324.068 C 212.430 324.062,211.440 324.211,211.000 324.400 M194.765 325.304 C 197.583 325.499,201.907 325.495,204.765 325.295 C 209.434 324.967,209.072 324.942,199.800 324.951 C 190.589 324.959,190.192 324.987,194.765 325.304 " stroke="none" fill="#acacfb" fill-rule="evenodd"></path><path id="path3" d="M191.494 75.969 C 189.565 76.140,187.856 76.411,187.696 76.571 C 187.535 76.731,189.203 76.714,191.402 76.531 C 196.296 76.126,202.870 76.106,208.200 76.482 C 210.911 76.673,211.813 76.641,211.000 76.384 C 209.376 75.871,195.847 75.583,191.494 75.969 M181.072 77.612 C 179.572 78.002,178.222 78.456,178.072 78.620 C 177.923 78.784,178.250 78.797,178.800 78.650 C 180.471 78.201,183.697 77.515,185.600 77.202 L 187.400 76.907 185.600 76.904 C 184.610 76.903,182.573 77.221,181.072 77.612 M214.000 77.241 C 218.041 77.992,219.200 78.061,217.000 77.419 C 215.900 77.098,214.370 76.851,213.600 76.871 C 212.273 76.905,212.294 76.924,214.000 77.241 M219.800 78.400 C 220.996 78.914,221.995 78.914,221.200 78.400 C 220.870 78.187,220.240 78.022,219.800 78.034 L 219.000 78.056 219.800 78.400 M173.475 79.673 C 170.149 80.832,170.834 80.903,174.601 79.789 C 176.360 79.269,177.350 78.847,176.800 78.853 C 176.250 78.859,174.754 79.228,173.475 79.673 M222.200 78.998 C 225.053 79.960,228.130 80.803,228.271 80.663 C 228.515 80.419,223.405 78.792,222.516 78.832 C 222.122 78.849,221.980 78.924,222.200 78.998 M168.800 81.181 C 168.470 81.364,167.682 81.721,167.048 81.972 C 166.415 82.224,165.980 82.513,166.081 82.615 C 166.183 82.716,167.331 82.357,168.633 81.817 C 169.935 81.276,170.640 80.837,170.200 80.840 C 169.760 80.844,169.130 80.997,168.800 81.181 M233.600 82.922 C 241.105 86.084,254.632 94.275,256.094 96.544 C 256.283 96.838,256.390 96.848,256.394 96.574 C 256.422 94.631,240.406 84.981,231.600 81.636 C 227.407 80.043,228.624 80.825,233.600 82.922 M161.401 84.433 C 159.641 85.316,158.021 86.224,157.801 86.451 C 157.580 86.678,158.660 86.249,160.200 85.498 C 161.740 84.747,163.630 83.837,164.400 83.475 C 165.170 83.114,165.530 82.820,165.200 82.823 C 164.870 82.825,163.160 83.550,161.401 84.433 M154.196 88.338 C 150.604 90.522,145.600 94.100,145.600 94.485 C 145.600 94.670,146.744 93.962,148.143 92.911 C 149.541 91.860,152.196 90.060,154.043 88.911 C 155.889 87.762,157.220 86.834,157.000 86.849 C 156.780 86.864,155.518 87.534,154.196 88.338 M143.531 95.882 C 137.677 100.642,128.970 110.526,124.908 117.021 C 122.243 121.282,116.782 132.547,116.813 133.719 C 116.820 133.983,117.388 132.850,118.076 131.200 C 123.817 117.432,133.214 104.738,144.400 95.640 C 144.950 95.193,145.279 94.821,145.131 94.813 C 144.983 94.806,144.263 95.287,143.531 95.882 M259.573 99.484 C 261.018 100.851,263.340 103.191,264.734 104.684 C 266.127 106.178,266.905 106.860,266.463 106.200 C 265.653 104.992,261.022 100.408,258.373 98.193 C 257.587 97.537,258.127 98.118,259.573 99.484 M191.800 101.838 C 189.600 102.132,187.260 102.559,186.600 102.785 L 185.400 103.197 186.600 102.989 C 195.406 101.461,205.087 101.460,213.800 102.987 L 215.000 103.197 213.800 102.786 C 209.630 101.359,198.847 100.895,191.800 101.838 M179.600 104.762 C 166.118 109.558,154.130 119.363,146.932 131.478 C 143.758 136.821,139.634 147.102,140.101 148.504 C 140.184 148.753,140.485 148.066,140.769 146.978 C 142.174 141.597,146.541 131.938,148.641 129.569 C 148.948 129.221,149.200 128.741,149.200 128.502 C 149.200 128.262,149.346 128.007,149.525 127.933 C 149.704 127.860,150.640 126.720,151.606 125.400 C 156.759 118.355,169.801 108.378,176.600 106.279 C 180.111 105.196,185.246 103.260,184.600 103.263 C 184.160 103.266,181.910 103.940,179.600 104.762 M215.600 103.350 C 215.600 103.615,221.218 105.316,221.421 105.113 C 221.529 105.005,220.393 104.530,218.897 104.058 C 216.160 103.195,215.600 103.074,215.600 103.350 M222.181 105.569 C 222.306 105.772,222.945 106.056,223.600 106.200 C 224.255 106.344,224.894 106.628,225.019 106.831 C 225.145 107.034,225.552 107.185,225.924 107.167 C 226.296 107.148,225.700 106.709,224.600 106.191 C 222.402 105.156,221.835 105.010,222.181 105.569 M227.000 107.502 C 227.220 107.723,228.390 108.428,229.600 109.068 C 231.837 110.251,236.436 113.131,236.800 113.576 C 236.910 113.711,237.810 114.431,238.800 115.177 C 241.911 117.521,247.767 123.666,250.164 127.100 C 252.618 130.618,253.507 131.516,251.747 128.700 C 247.333 121.637,237.478 112.673,229.600 108.555 C 226.895 107.141,226.469 106.968,227.000 107.502 M269.843 111.100 C 273.889 116.568,274.163 116.899,273.177 115.132 C 272.727 114.324,272.098 113.447,271.779 113.183 C 271.461 112.918,271.200 112.542,271.200 112.347 C 271.200 111.906,267.902 107.670,267.527 107.630 C 267.377 107.613,268.419 109.175,269.843 111.100 M277.053 122.303 C 278.123 124.340,279.060 125.819,279.137 125.590 C 279.213 125.361,279.102 124.954,278.891 124.687 C 278.679 124.419,277.920 123.120,277.204 121.800 C 276.488 120.480,275.724 119.220,275.505 119.000 C 275.287 118.780,275.983 120.266,277.053 122.303 M192.800 123.794 C 177.335 126.869,165.586 137.681,161.279 152.800 C 160.054 157.100,159.959 159.346,160.079 181.200 L 160.200 203.400 161.353 205.676 C 165.719 214.291,178.551 214.250,182.732 205.607 L 183.800 203.400 184.031 182.000 C 184.281 158.953,184.275 159.007,186.482 155.721 C 193.229 145.674,206.828 146.077,213.335 156.517 C 219.342 166.154,231.794 165.921,236.305 156.088 C 241.053 145.736,228.274 129.895,210.800 124.470 C 206.574 123.159,197.675 122.824,192.800 123.794 M208.086 124.788 C 209.249 125.046,210.740 125.439,211.400 125.663 C 214.611 126.749,216.485 127.525,216.902 127.942 C 217.154 128.194,217.684 128.400,218.080 128.400 C 218.476 128.400,218.800 128.553,218.800 128.739 C 218.800 128.926,219.520 129.403,220.400 129.800 C 221.280 130.197,222.000 130.674,222.000 130.861 C 222.000 131.047,222.253 131.200,222.561 131.200 C 223.239 131.200,225.593 133.161,227.790 135.554 C 228.676 136.519,229.895 137.838,230.500 138.485 C 231.105 139.132,231.600 139.737,231.600 139.830 C 231.600 139.922,232.229 140.873,232.997 141.943 C 234.557 144.114,236.149 147.522,236.532 149.510 C 237.060 152.253,234.566 159.107,232.800 159.765 C 232.470 159.888,231.594 160.360,230.853 160.813 C 228.071 162.514,222.878 163.497,222.228 162.445 C 222.107 162.250,221.422 161.980,220.704 161.845 C 219.518 161.622,218.883 161.206,216.111 158.839 C 215.622 158.422,214.709 157.152,214.082 156.016 C 208.106 145.200,190.542 144.852,185.456 155.449 C 185.046 156.302,184.514 157.360,184.273 157.800 C 183.443 159.316,183.257 163.461,183.129 183.429 L 183.000 203.459 181.900 205.121 C 181.295 206.035,180.800 206.888,180.800 207.017 C 180.800 207.146,180.232 207.735,179.537 208.326 C 173.531 213.436,165.067 211.449,161.723 204.144 L 160.765 202.052 160.806 181.126 C 160.829 169.617,161.007 159.030,161.203 157.600 C 161.710 153.887,162.509 151.156,163.030 151.356 C 163.309 151.463,163.406 151.167,163.291 150.565 C 163.190 150.036,163.398 148.990,163.754 148.241 C 164.109 147.492,164.400 146.681,164.400 146.440 C 164.400 146.198,164.580 146.000,164.800 146.000 C 165.020 146.000,165.200 145.765,165.200 145.478 C 165.200 142.865,173.726 133.483,178.928 130.372 C 180.178 129.625,181.200 128.875,181.200 128.707 C 181.200 128.538,181.614 128.400,182.120 128.400 C 182.626 128.400,183.211 128.231,183.420 128.025 C 184.106 127.348,189.885 125.209,191.459 125.049 C 192.307 124.963,193.270 124.789,193.600 124.662 C 195.372 123.980,204.815 124.062,208.086 124.788 M279.200 126.640 C 279.200 126.860,279.354 127.211,279.542 127.420 C 279.982 127.909,282.550 134.740,283.370 137.600 C 283.716 138.810,284.257 140.700,284.572 141.800 C 285.331 144.453,285.364 143.069,284.610 140.176 C 283.168 134.639,279.200 124.711,279.200 126.640 M254.069 133.100 C 255.142 135.478,256.523 138.011,256.667 137.866 C 256.888 137.646,254.490 132.800,254.161 132.800 C 254.036 132.800,253.994 132.935,254.069 133.100 M115.644 136.855 C 115.180 138.230,114.808 139.635,114.818 139.978 C 114.827 140.320,115.288 139.276,115.841 137.657 C 116.395 136.039,116.767 134.634,116.668 134.535 C 116.569 134.436,116.109 135.480,115.644 136.855 M256.816 138.705 C 256.807 138.983,256.990 139.523,257.222 139.905 C 257.454 140.287,258.161 142.130,258.794 144.000 C 259.427 145.870,259.957 147.198,259.972 146.951 C 260.013 146.296,258.077 140.491,257.406 139.256 C 257.090 138.675,256.825 138.427,256.816 138.705 M114.267 141.467 C 114.120 141.613,114.011 142.108,114.025 142.567 C 114.049 143.333,114.082 143.323,114.434 142.442 C 114.826 141.463,114.744 140.989,114.267 141.467 M113.300 145.659 C 113.025 146.850,112.814 148.268,112.832 148.812 C 112.849 149.355,113.121 148.630,113.434 147.200 C 113.748 145.770,113.959 144.351,113.903 144.048 C 113.846 143.744,113.575 144.469,113.300 145.659 M285.399 145.000 C 286.316 150.082,286.315 153.476,285.398 155.800 C 285.161 156.400,285.199 156.493,285.551 156.171 C 286.776 155.047,286.818 147.577,285.615 144.798 C 285.198 143.835,285.191 143.842,285.399 145.000 M203.800 146.400 C 203.653 146.638,204.090 146.789,204.876 146.772 C 205.979 146.748,206.067 146.686,205.400 146.400 C 204.315 145.934,204.088 145.934,203.800 146.400 M260.056 148.200 C 260.056 148.640,260.211 149.360,260.400 149.800 L 260.744 150.600 260.744 149.800 C 260.744 149.360,260.589 148.640,260.400 148.200 L 260.056 147.400 260.056 148.200 M139.429 150.229 C 139.281 150.815,139.251 151.384,139.361 151.494 C 139.471 151.604,139.681 151.215,139.829 150.629 C 139.976 150.042,140.006 149.473,139.896 149.363 C 139.786 149.253,139.576 149.642,139.429 150.229 M112.126 151.459 C 111.567 154.102,111.738 249.196,112.304 250.600 C 112.777 251.775,112.783 251.766,112.544 250.200 C 112.050 246.960,111.923 157.993,112.407 154.066 C 112.877 150.245,112.710 148.696,112.126 151.459 M260.827 151.600 C 260.749 155.779,264.370 160.930,268.776 162.907 C 270.784 163.809,274.931 164.252,276.334 163.715 C 277.011 163.456,276.347 163.347,273.922 163.321 C 267.333 163.249,263.290 159.948,261.526 153.200 C 261.152 151.770,260.838 151.050,260.827 151.600 M138.414 157.081 C 137.784 162.208,138.063 244.447,138.719 247.200 L 139.148 249.000 138.933 247.000 C 138.423 242.265,138.332 161.421,138.832 157.498 C 139.106 155.352,139.232 153.499,139.112 153.379 C 138.993 153.260,138.679 154.925,138.414 157.081 M284.357 157.681 C 283.687 158.933,281.027 161.247,279.069 162.282 C 278.151 162.767,277.632 163.172,277.916 163.182 C 279.474 163.237,285.200 158.481,285.200 157.132 C 285.200 156.543,284.840 156.777,284.357 157.681 M223.200 161.000 C 222.795 161.488,222.814 161.600,223.302 161.600 C 223.632 161.600,224.126 161.330,224.400 161.000 C 224.805 160.512,224.786 160.400,224.298 160.400 C 223.968 160.400,223.474 160.670,223.200 161.000 M274.200 237.870 C 284.190 240.025,286.958 244.637,285.442 256.600 C 285.258 258.050,285.290 258.012,285.781 256.200 C 288.283 246.967,283.540 238.600,275.394 237.875 C 274.297 237.778,273.760 237.775,274.200 237.870 M268.750 238.757 C 264.238 241.013,260.716 246.196,260.838 250.400 C 260.854 250.952,261.109 250.414,261.406 249.200 C 262.865 243.255,266.155 239.599,271.094 238.435 C 272.507 238.102,272.526 238.079,271.400 238.056 C 270.740 238.043,269.548 238.358,268.750 238.757 M139.256 250.200 C 139.256 250.640,139.411 251.360,139.600 251.800 L 139.944 252.600 139.944 251.800 C 139.944 251.360,139.789 250.640,139.600 250.200 L 139.256 249.400 139.256 250.200 M259.856 254.000 C 258.739 258.075,258.715 258.895,259.810 255.600 C 260.357 253.950,260.753 252.330,260.687 252.000 C 260.622 251.670,260.248 252.570,259.856 254.000 M112.850 253.172 C 112.801 254.515,112.895 254.933,114.165 259.000 C 114.808 261.058,114.696 259.980,113.936 256.800 C 113.700 255.810,113.370 254.280,113.203 253.400 L 112.900 251.800 112.850 253.172 M140.042 253.277 C 139.982 254.251,142.270 260.916,143.792 264.200 C 149.106 275.669,159.057 286.554,169.400 292.213 C 170.500 292.815,171.580 293.428,171.800 293.575 C 172.020 293.723,172.740 294.073,173.400 294.352 C 175.407 295.203,173.980 294.197,170.768 292.496 C 156.608 284.997,145.471 270.975,140.670 254.600 C 140.347 253.500,140.065 252.905,140.042 253.277 M284.389 260.478 C 283.698 263.400,281.359 270.103,280.019 273.000 C 279.408 274.320,278.490 276.300,277.978 277.400 C 274.791 284.251,267.884 293.791,261.542 300.100 C 260.270 301.365,259.367 302.400,259.536 302.400 C 260.123 302.400,266.292 295.773,269.036 292.195 C 274.515 285.049,276.945 280.918,280.938 271.962 C 282.627 268.172,285.491 258.958,285.101 258.568 C 284.985 258.452,284.665 259.312,284.389 260.478 M258.150 259.443 C 258.003 259.859,257.638 260.807,257.341 261.549 C 257.043 262.291,256.808 263.101,256.817 263.349 C 256.826 263.597,257.276 262.735,257.817 261.433 C 258.357 260.131,258.714 258.980,258.609 258.876 C 258.504 258.771,258.298 259.026,258.150 259.443 M114.837 261.600 C 114.801 262.354,115.829 265.774,116.370 266.703 C 116.593 267.086,116.778 267.310,116.780 267.200 C 116.793 266.651,114.861 261.085,114.837 261.600 M255.608 265.584 C 254.700 267.365,254.529 268.190,255.318 266.989 C 255.994 265.960,256.834 264.000,256.600 264.000 C 256.499 264.000,256.053 264.713,255.608 265.584 M116.815 267.874 C 116.768 269.331,121.887 279.862,124.751 284.200 C 125.768 285.740,126.672 287.172,126.760 287.382 C 126.849 287.592,127.075 287.952,127.263 288.182 C 127.450 288.412,128.420 289.680,129.418 291.000 C 141.794 307.378,161.114 319.841,180.200 323.760 C 181.960 324.121,184.269 324.593,185.331 324.808 C 186.392 325.024,187.922 325.179,188.731 325.154 C 190.366 325.102,190.255 325.071,186.000 324.399 C 155.969 319.657,130.374 299.556,118.515 271.400 C 117.589 269.200,116.824 267.613,116.815 267.874 M253.927 269.000 C 253.677 269.550,253.320 270.000,253.136 270.000 C 252.951 270.000,252.800 270.196,252.800 270.436 C 252.800 270.836,249.939 275.207,249.000 276.241 C 248.780 276.483,247.790 277.630,246.800 278.790 C 244.418 281.581,242.199 283.788,240.000 285.554 C 239.010 286.349,238.110 287.111,238.000 287.247 C 237.480 287.891,229.983 292.567,228.065 293.445 C 226.875 293.989,225.985 294.519,226.089 294.622 C 226.309 294.842,230.623 292.656,233.200 291.018 C 239.625 286.933,246.259 280.754,250.356 275.038 C 252.895 271.497,255.018 268.000,254.629 268.000 C 254.494 268.000,254.178 268.450,253.927 269.000 M174.883 295.016 C 175.213 295.347,179.329 296.804,179.487 296.646 C 179.563 296.570,179.035 296.288,178.313 296.020 C 177.591 295.753,176.687 295.368,176.305 295.167 C 175.556 294.771,174.529 294.662,174.883 295.016 M224.000 295.224 C 223.670 295.431,222.880 295.785,222.245 296.011 C 221.609 296.237,221.181 296.514,221.293 296.626 C 221.405 296.738,222.465 296.388,223.648 295.848 C 224.832 295.308,225.530 294.861,225.200 294.856 C 224.870 294.851,224.330 295.017,224.000 295.224 M180.800 297.228 C 183.458 298.410,191.161 300.018,193.800 299.941 C 195.690 299.886,195.645 299.865,193.000 299.559 C 189.844 299.193,187.690 298.765,184.200 297.810 C 182.880 297.449,181.350 297.070,180.800 296.968 L 179.800 296.783 180.800 297.228 M218.800 297.166 C 218.470 297.354,217.210 297.725,216.000 297.990 C 209.575 299.401,208.454 299.606,206.800 299.670 L 205.000 299.740 206.650 299.890 C 207.558 299.973,210.078 299.681,212.250 299.242 C 216.472 298.387,221.525 296.859,220.200 296.837 C 219.760 296.830,219.130 296.978,218.800 297.166 M198.115 300.296 C 199.388 300.376,201.368 300.375,202.515 300.294 C 203.662 300.214,202.620 300.149,200.200 300.150 C 197.780 300.151,196.842 300.216,198.115 300.296 M257.762 303.651 C 256.470 305.095,247.710 311.483,244.581 313.263 C 242.950 314.191,241.695 315.028,241.790 315.124 C 241.982 315.316,248.164 311.771,248.923 311.034 C 249.185 310.779,250.030 310.179,250.800 309.701 C 251.570 309.223,252.723 308.374,253.362 307.816 C 254.001 307.257,254.631 306.795,254.762 306.789 C 255.186 306.770,259.320 302.800,258.915 302.800 C 258.700 302.800,258.181 303.183,257.762 303.651 M239.200 316.200 C 238.210 316.730,237.615 317.172,237.877 317.182 C 238.368 317.201,241.200 315.648,241.200 315.360 C 241.200 315.131,241.183 315.138,239.200 316.200 M234.800 318.219 C 233.810 318.733,233.232 319.163,233.516 319.176 C 234.088 319.203,237.200 317.695,237.200 317.392 C 237.200 317.066,236.669 317.249,234.800 318.219 M229.858 320.131 C 228.570 320.593,227.714 321.038,227.957 321.119 C 228.441 321.280,231.970 320.070,232.580 319.534 C 233.142 319.040,232.511 319.178,229.858 320.131 M226.000 321.561 C 225.670 321.746,224.410 322.130,223.200 322.414 C 221.990 322.698,221.209 323.001,221.464 323.087 C 221.999 323.267,225.906 322.178,226.800 321.600 C 227.534 321.126,226.837 321.092,226.000 321.561 M218.709 323.424 C 218.586 323.548,217.341 323.827,215.942 324.044 C 209.662 325.021,209.309 325.097,210.776 325.150 C 212.286 325.205,215.988 324.576,218.800 323.788 C 219.790 323.510,220.225 323.265,219.767 323.242 C 219.308 323.219,218.832 323.301,218.709 323.424 M193.412 325.672 C 195.466 326.037,204.134 326.037,206.188 325.672 C 207.061 325.517,204.186 325.390,199.800 325.390 C 195.414 325.390,192.539 325.517,193.412 325.672 " stroke="none" fill="#9ba3f8" fill-rule="evenodd"></path><path id="path4" d="M208.634 70.745 C 208.241 71.381,208.969 71.596,210.234 71.217 C 210.875 71.026,211.100 70.853,210.733 70.834 C 210.366 70.815,209.799 70.698,209.473 70.573 C 209.147 70.448,208.770 70.525,208.634 70.745 M186.057 75.593 C 184.439 75.776,182.909 76.136,182.657 76.394 C 182.155 76.908,183.086 76.873,193.736 75.974 C 199.480 75.489,203.323 75.621,213.900 76.666 C 216.434 76.917,216.783 76.196,214.300 75.840 C 211.456 75.433,189.199 75.238,186.057 75.593 M180.305 77.483 C 180.802 77.579,181.522 77.575,181.905 77.475 C 182.287 77.375,181.880 77.296,181.000 77.301 C 180.120 77.305,179.807 77.387,180.305 77.483 M217.505 77.483 C 218.002 77.579,218.722 77.575,219.105 77.475 C 219.487 77.375,219.080 77.296,218.200 77.301 C 217.320 77.305,217.007 77.387,217.505 77.483 M176.500 77.865 C 176.225 77.976,176.000 78.232,176.000 78.433 C 176.000 79.010,177.766 78.862,178.624 78.213 C 179.436 77.598,177.818 77.333,176.500 77.865 M221.698 77.866 C 221.421 77.977,221.297 78.233,221.421 78.434 C 221.728 78.931,224.000 78.901,224.000 78.400 C 224.000 78.180,223.835 78.000,223.633 78.000 C 223.431 78.000,223.026 77.924,222.733 77.832 C 222.440 77.739,221.974 77.754,221.698 77.866 M170.129 79.730 C 168.316 80.400,168.075 80.800,169.484 80.800 C 170.657 80.800,173.600 79.795,173.600 79.395 C 173.600 79.042,171.423 79.252,170.129 79.730 M226.400 79.390 C 226.400 79.752,228.764 80.800,229.580 80.800 C 230.922 80.800,230.513 80.161,228.854 79.663 C 227.209 79.171,226.400 79.080,226.400 79.390 M232.744 82.009 C 234.618 82.859,235.200 82.975,235.200 82.497 C 235.200 82.179,232.375 81.194,231.506 81.209 C 231.228 81.214,231.785 81.574,232.744 82.009 M164.400 82.095 L 163.400 82.539 164.329 82.701 C 165.446 82.896,166.400 82.579,166.400 82.013 C 166.400 81.494,165.688 81.523,164.400 82.095 M160.288 83.835 C 159.677 84.167,159.282 84.609,159.412 84.819 C 159.544 85.033,159.019 85.200,158.211 85.200 C 157.286 85.200,156.691 85.420,156.538 85.817 C 156.178 86.755,156.733 87.035,157.718 86.414 C 158.203 86.109,159.770 85.264,161.200 84.537 C 163.464 83.386,163.645 83.216,162.600 83.223 C 161.940 83.228,160.900 83.503,160.288 83.835 M236.671 83.478 C 237.150 83.572,237.757 83.907,238.020 84.224 C 238.517 84.822,240.000 85.027,240.000 84.497 C 240.000 84.154,237.079 83.171,236.306 83.254 C 236.028 83.284,236.192 83.385,236.671 83.478 M242.028 85.264 C 241.144 85.595,241.113 85.684,241.686 86.257 C 242.459 87.031,243.611 86.509,243.247 85.550 C 243.055 85.044,242.784 84.981,242.028 85.264 M153.600 88.000 C 153.283 88.196,153.156 88.489,153.318 88.652 C 153.481 88.814,153.823 88.737,154.080 88.480 C 154.684 87.876,154.347 87.538,153.600 88.000 M147.400 91.893 C 146.740 92.236,146.089 92.686,145.954 92.894 C 145.819 93.102,145.279 93.496,144.754 93.769 C 144.229 94.042,143.844 94.473,143.898 94.726 C 143.951 94.979,143.542 95.300,142.987 95.439 C 141.966 95.695,140.923 97.056,141.389 97.523 C 141.529 97.662,141.769 97.599,141.922 97.382 C 142.186 97.007,143.280 96.098,145.853 94.116 C 148.652 91.960,148.989 91.658,148.800 91.470 C 148.690 91.360,148.060 91.551,147.400 91.893 M251.400 92.400 C 251.536 92.620,251.907 92.800,252.224 92.800 C 252.541 92.800,252.800 92.620,252.800 92.400 C 252.800 92.180,252.429 92.000,251.976 92.000 C 251.523 92.000,251.264 92.180,251.400 92.400 M253.400 93.824 C 254.437 94.599,258.817 98.458,261.504 100.962 C 262.662 102.041,263.723 102.811,263.861 102.672 C 264.215 102.319,263.219 101.200,262.551 101.200 C 262.248 101.200,262.000 100.930,262.000 100.600 C 262.000 100.270,261.742 100.000,261.427 100.000 C 261.112 100.000,260.750 99.674,260.624 99.275 C 260.342 98.387,257.835 95.600,257.318 95.600 C 257.112 95.600,256.339 95.060,255.600 94.400 C 254.861 93.740,253.883 93.206,253.428 93.213 C 252.603 93.225,252.603 93.228,253.400 93.824 M137.548 100.503 C 137.246 100.801,136.685 101.164,136.300 101.310 C 135.602 101.574,135.301 102.800,135.934 102.800 C 136.380 102.800,138.517 100.384,138.281 100.147 C 138.179 100.045,137.849 100.206,137.548 100.503 M195.117 101.942 C 191.588 102.488,192.804 102.657,200.439 102.683 C 204.778 102.698,207.919 102.559,207.721 102.361 C 207.256 101.896,197.504 101.572,195.117 101.942 M184.600 103.600 C 183.891 103.905,183.925 103.947,184.900 103.972 C 185.505 103.987,186.000 103.820,186.000 103.600 C 186.000 103.131,185.693 103.131,184.600 103.600 M213.400 103.600 C 213.257 103.832,213.643 104.000,214.317 104.000 C 214.957 104.000,216.044 104.196,216.732 104.436 C 217.420 104.676,218.204 104.799,218.473 104.709 C 218.996 104.535,215.260 103.200,214.248 103.200 C 213.918 103.200,213.536 103.380,213.400 103.600 M178.292 105.637 C 177.530 106.080,177.708 106.800,178.579 106.800 C 178.872 106.800,179.536 106.446,180.056 106.013 L 181.000 105.227 180.000 105.225 C 179.450 105.225,178.681 105.410,178.292 105.637 M219.688 105.671 C 219.783 105.962,220.452 106.258,221.174 106.329 C 222.121 106.421,222.437 106.310,222.312 105.929 C 222.217 105.638,221.548 105.342,220.826 105.271 C 219.879 105.179,219.563 105.290,219.688 105.671 M131.614 106.374 C 130.920 107.671,131.146 108.209,132.000 107.292 C 132.440 106.820,132.800 106.246,132.800 106.017 C 132.800 105.324,132.056 105.548,131.614 106.374 M266.878 106.727 C 268.259 108.480,268.800 108.947,268.787 108.375 C 268.769 107.559,267.713 106.264,266.978 106.156 C 266.453 106.079,266.438 106.169,266.878 106.727 M171.800 108.603 C 170.480 109.362,169.040 110.155,168.600 110.366 C 167.939 110.682,167.918 110.754,168.476 110.775 C 168.848 110.789,169.264 110.620,169.400 110.400 C 169.536 110.180,170.065 110.000,170.575 110.000 C 171.085 110.000,171.726 109.730,172.000 109.400 C 172.274 109.070,172.816 108.800,173.205 108.800 C 173.593 108.800,174.336 108.446,174.856 108.013 C 176.495 106.648,174.548 107.024,171.800 108.603 M129.617 108.582 C 128.918 109.326,128.771 109.731,129.088 110.048 C 129.405 110.365,129.712 110.201,130.200 109.456 C 131.169 107.978,130.760 107.365,129.617 108.582 M269.401 109.198 C 269.114 109.662,269.859 110.800,270.449 110.800 C 271.002 110.800,270.859 109.747,270.236 109.230 C 269.832 108.895,269.594 108.886,269.401 109.198 M229.544 110.013 C 230.064 110.446,230.717 110.800,230.995 110.800 C 231.274 110.800,231.726 111.070,232.000 111.400 C 232.274 111.730,232.836 112.000,233.249 112.000 C 233.662 112.000,234.000 112.180,234.000 112.400 C 234.000 112.620,234.225 112.793,234.500 112.784 C 235.130 112.763,232.590 110.561,231.039 109.783 C 229.277 108.899,228.374 109.038,229.544 110.013 M127.443 111.833 C 126.957 113.099,127.549 113.214,128.307 112.000 C 128.718 111.343,128.707 111.200,128.246 111.200 C 127.938 111.200,127.576 111.485,127.443 111.833 M166.000 112.000 L 165.000 112.782 165.900 112.791 C 166.395 112.796,166.800 112.620,166.800 112.400 C 166.800 112.180,167.070 112.000,167.400 112.000 C 167.730 112.000,168.000 111.820,168.000 111.600 C 168.000 110.966,167.088 111.149,166.000 112.000 M271.077 111.974 C 271.310 112.863,272.800 114.345,272.800 113.688 C 272.800 113.448,272.624 112.790,272.410 112.226 C 271.949 111.015,270.768 110.791,271.077 111.974 M125.672 114.034 C 125.212 114.770,125.236 114.852,125.871 114.729 C 126.267 114.653,126.651 114.278,126.725 113.895 C 126.908 112.941,126.304 113.021,125.672 114.034 M162.710 114.315 C 161.008 115.555,160.895 115.827,161.966 116.107 C 162.475 116.240,163.148 115.879,163.966 115.035 C 166.019 112.917,165.241 112.471,162.710 114.315 M235.600 113.771 C 235.600 114.460,237.470 116.000,238.307 116.000 C 239.001 116.000,240.266 117.347,240.620 118.464 C 240.757 118.895,241.366 119.333,242.007 119.461 C 242.635 119.587,243.245 119.940,243.362 120.245 C 243.479 120.550,243.890 120.800,244.276 120.800 C 245.051 120.800,241.935 117.609,238.800 115.193 C 237.810 114.430,236.940 113.670,236.867 113.503 C 236.630 112.964,235.600 113.182,235.600 113.771 M273.200 114.776 C 273.200 115.203,273.380 115.664,273.600 115.800 C 273.827 115.940,274.000 115.604,274.000 115.024 C 274.000 114.461,273.820 114.000,273.600 114.000 C 273.380 114.000,273.200 114.349,273.200 114.776 M124.000 117.224 C 124.000 117.677,124.180 117.936,124.400 117.800 C 124.620 117.664,124.800 117.293,124.800 116.976 C 124.800 116.659,124.620 116.400,124.400 116.400 C 124.180 116.400,124.000 116.771,124.000 117.224 M158.258 118.181 C 157.180 119.180,156.793 120.278,157.700 119.764 C 158.556 119.280,160.000 117.877,160.000 117.530 C 160.000 116.935,159.335 117.183,158.258 118.181 M275.200 117.790 C 275.200 118.115,275.559 118.970,275.999 119.690 C 276.967 121.279,277.126 120.191,276.190 118.380 C 275.517 117.079,275.200 116.890,275.200 117.790 M121.829 120.914 C 121.426 121.747,121.184 122.518,121.293 122.627 C 121.640 122.974,122.855 120.780,122.706 120.076 C 122.607 119.608,122.337 119.866,121.829 120.914 M155.280 121.032 C 154.561 121.843,154.094 122.618,154.242 122.753 C 154.389 122.889,154.590 122.774,154.689 122.498 C 154.788 122.221,155.033 122.097,155.234 122.221 C 155.435 122.345,155.600 122.269,155.600 122.052 C 155.600 121.835,155.884 121.373,156.232 121.025 C 156.580 120.677,156.802 120.205,156.725 119.975 C 156.648 119.745,155.998 120.220,155.280 121.032 M277.222 121.200 C 277.220 121.750,277.591 122.650,278.046 123.200 C 278.638 123.914,278.807 123.991,278.637 123.467 C 278.507 123.064,278.400 122.514,278.400 122.244 C 278.400 121.974,278.136 121.404,277.813 120.976 C 277.246 120.227,277.225 120.235,277.222 121.200 M245.202 121.900 C 245.201 122.395,245.380 122.800,245.600 122.800 C 245.820 122.800,246.000 122.981,246.000 123.201 C 246.000 123.422,246.900 124.536,248.000 125.678 C 249.100 126.819,250.000 127.988,250.000 128.276 C 250.000 128.564,250.180 128.800,250.400 128.800 C 251.429 128.800,249.384 125.492,246.320 122.200 C 245.251 121.051,245.204 121.038,245.202 121.900 M119.200 125.400 C 119.200 126.170,119.285 126.800,119.390 126.800 C 119.750 126.800,120.767 124.501,120.517 124.251 C 119.820 123.553,119.200 124.094,119.200 125.400 M151.293 125.790 C 149.886 127.785,149.799 128.000,150.400 128.000 C 150.620 128.000,150.800 127.730,150.800 127.400 C 150.800 127.070,151.040 126.800,151.332 126.800 C 151.954 126.800,152.964 125.091,152.739 124.417 C 152.654 124.163,152.004 124.781,151.293 125.790 M186.400 124.400 C 185.945 124.694,186.114 124.789,187.100 124.794 C 187.815 124.797,188.400 124.620,188.400 124.400 C 188.400 123.892,187.186 123.892,186.400 124.400 M211.600 124.400 C 211.600 124.620,212.104 124.800,212.720 124.800 C 213.336 124.800,214.011 124.961,214.220 125.158 C 214.815 125.718,217.098 126.089,217.358 125.668 C 217.629 125.230,214.140 124.000,212.625 124.000 C 212.061 124.000,211.600 124.180,211.600 124.400 M279.213 124.890 C 279.206 125.490,279.559 126.570,279.999 127.290 L 280.797 128.600 280.799 127.144 C 280.799 126.282,280.479 125.304,280.013 124.744 L 279.227 123.800 279.213 124.890 M117.680 128.080 C 117.416 128.344,117.214 129.379,117.232 130.380 C 117.249 131.381,117.361 131.930,117.480 131.600 C 117.600 131.270,117.971 130.404,118.305 129.677 C 118.960 128.252,118.551 127.209,117.680 128.080 M251.200 129.997 C 251.200 130.490,251.802 131.727,252.537 132.746 C 253.272 133.766,254.024 134.960,254.207 135.400 C 254.535 136.185,254.544 136.184,254.691 135.352 C 254.774 134.886,254.475 133.896,254.026 133.152 C 253.577 132.408,253.046 131.433,252.847 130.984 C 252.205 129.541,251.200 128.940,251.200 129.997 M147.882 130.531 C 147.148 131.651,146.981 132.800,147.551 132.800 C 148.010 132.800,148.927 130.580,148.722 129.966 C 148.632 129.697,148.268 129.942,147.882 130.531 M116.052 132.600 C 115.771 133.260,115.457 134.700,115.354 135.800 L 115.166 137.800 115.992 135.800 C 116.447 134.700,116.761 133.260,116.691 132.600 L 116.563 131.400 116.052 132.600 M145.873 134.250 C 145.473 134.785,145.211 135.532,145.291 135.911 C 145.394 136.398,145.652 136.156,146.171 135.086 C 147.039 133.294,146.894 132.886,145.873 134.250 M255.344 136.800 C 255.648 139.089,256.515 140.888,256.693 139.600 C 256.769 139.050,256.455 137.880,255.994 137.000 L 255.157 135.400 255.344 136.800 M114.326 138.220 C 113.872 138.915,113.120 143.843,113.312 144.857 C 113.448 145.571,113.504 145.474,113.546 144.460 C 113.575 143.724,113.883 142.525,114.228 141.797 C 114.822 140.546,114.910 137.325,114.326 138.220 M143.412 139.317 C 143.241 139.712,143.213 140.147,143.351 140.284 C 143.757 140.690,144.084 140.120,143.897 139.331 C 143.732 138.633,143.710 138.632,143.412 139.317 M257.219 140.754 C 257.194 142.037,258.044 144.800,258.463 144.800 C 258.989 144.800,258.865 143.969,258.018 141.800 C 257.469 140.392,257.232 140.082,257.219 140.754 M285.205 141.820 C 285.212 143.770,285.574 145.200,286.060 145.200 C 286.503 145.200,286.054 141.166,285.550 140.620 C 285.345 140.397,285.202 140.894,285.205 141.820 M141.876 143.347 C 141.703 143.978,141.660 144.593,141.781 144.714 C 142.198 145.131,142.460 144.469,142.325 143.337 L 142.190 142.200 141.876 143.347 M163.679 143.791 C 162.757 144.963,162.566 145.808,163.143 146.165 C 163.592 146.442,164.963 143.889,164.734 143.203 C 164.616 142.847,164.269 143.040,163.679 143.791 M141.496 145.733 C 141.003 146.951,141.119 148.381,141.638 147.488 C 141.866 147.097,141.994 146.377,141.923 145.888 C 141.806 145.089,141.763 145.073,141.496 145.733 M259.206 147.500 C 259.203 148.215,259.380 148.800,259.600 148.800 C 260.108 148.800,260.108 147.586,259.600 146.800 C 259.306 146.345,259.211 146.514,259.206 147.500 M111.667 149.900 C 111.138 153.373,111.047 156.686,111.493 156.240 C 111.654 156.079,111.913 154.834,112.068 153.474 C 112.223 152.113,112.474 150.055,112.626 148.900 C 113.070 145.521,112.194 146.434,111.667 149.900 M139.989 149.472 C 139.341 152.029,139.034 156.400,139.502 156.400 C 140.147 156.400,141.285 148.351,140.719 147.786 C 140.586 147.653,140.257 148.411,139.989 149.472 M195.081 149.641 C 195.398 149.958,195.732 149.961,196.261 149.654 C 196.909 149.277,196.854 149.223,195.820 149.212 C 194.959 149.203,194.760 149.320,195.081 149.641 M260.056 150.600 C 260.056 151.480,260.211 152.560,260.400 153.000 C 260.668 153.623,260.744 153.446,260.744 152.200 C 260.744 151.320,260.589 150.240,260.400 149.800 C 260.132 149.177,260.056 149.354,260.056 150.600 M160.277 152.700 C 160.159 153.305,160.228 153.971,160.431 154.180 C 160.658 154.414,160.800 153.992,160.800 153.080 C 160.800 151.328,160.578 151.167,160.277 152.700 M286.103 154.812 C 285.559 157.141,285.578 157.308,286.336 156.840 C 286.669 156.634,286.805 155.850,286.724 154.604 L 286.600 152.685 286.103 154.812 M210.800 154.238 C 210.800 154.706,212.178 156.800,212.486 156.800 C 212.933 156.800,212.881 156.517,212.190 155.180 C 211.655 154.145,210.800 153.566,210.800 154.238 M262.018 158.034 C 262.264 158.493,262.544 158.789,262.642 158.692 C 262.922 158.412,262.354 157.200,261.943 157.200 C 261.739 157.200,261.773 157.575,262.018 158.034 M234.864 158.896 C 234.299 159.461,234.241 160.946,234.798 160.601 C 235.440 160.204,236.032 158.867,235.665 158.640 C 235.480 158.526,235.119 158.641,234.864 158.896 M283.046 159.888 C 281.544 161.435,281.279 162.000,282.057 162.000 C 282.712 162.000,284.800 159.720,284.800 159.004 C 284.800 158.151,284.668 158.218,283.046 159.888 M263.079 159.091 C 262.640 159.848,265.187 162.800,266.278 162.800 C 266.477 162.800,266.857 163.017,267.122 163.282 C 268.583 164.743,276.244 165.317,278.520 164.136 C 280.246 163.240,279.263 162.961,276.617 163.596 C 272.479 164.589,268.586 163.521,265.129 160.447 C 264.100 159.532,263.177 158.922,263.079 159.091 M218.174 163.242 C 218.052 163.439,218.559 163.600,219.300 163.600 C 220.041 163.600,220.996 163.864,221.424 164.187 C 222.279 164.835,224.000 165.006,224.000 164.444 C 224.000 164.248,223.415 163.995,222.700 163.881 C 221.985 163.767,220.724 163.496,219.898 163.279 C 219.022 163.048,218.303 163.033,218.174 163.242 M182.700 206.093 C 182.315 206.482,182.000 207.034,182.000 207.320 C 182.000 207.606,181.784 208.056,181.520 208.320 C 181.147 208.693,181.177 208.800,181.658 208.800 C 182.603 208.800,183.676 207.384,183.530 206.328 C 183.406 205.427,183.369 205.417,182.700 206.093 M180.446 209.437 C 180.421 209.677,179.770 210.213,179.000 210.628 C 177.480 211.446,177.191 212.008,178.300 211.987 C 179.380 211.966,180.889 210.522,180.678 209.710 C 180.576 209.320,180.472 209.197,180.446 209.437 M164.999 211.202 C 164.709 211.671,165.734 212.155,166.486 211.905 C 166.817 211.794,166.689 211.569,166.123 211.266 C 165.547 210.957,165.163 210.935,164.999 211.202 M167.905 212.683 C 168.402 212.779,169.122 212.775,169.505 212.675 C 169.887 212.575,169.480 212.496,168.600 212.501 C 167.720 212.505,167.407 212.587,167.905 212.683 M268.200 237.791 C 267.320 238.329,266.195 238.952,265.700 239.175 C 264.860 239.553,263.205 241.781,263.201 242.537 C 263.200 242.801,266.661 240.179,267.600 239.203 C 268.024 238.763,270.702 238.060,272.934 237.803 C 275.788 237.474,275.719 237.378,272.400 237.061 C 270.095 236.840,269.619 236.923,268.200 237.791 M278.098 238.231 C 278.476 238.609,281.743 240.414,282.500 240.663 C 282.885 240.790,283.200 241.142,283.200 241.447 C 283.200 241.751,283.380 242.000,283.600 242.000 C 284.681 242.000,283.244 240.174,281.153 238.889 C 279.896 238.117,277.459 237.592,278.098 238.231 M284.400 242.607 C 284.400 243.247,285.761 246.000,286.077 246.000 C 286.765 246.000,286.352 244.389,285.400 243.362 C 284.850 242.769,284.400 242.429,284.400 242.607 M261.900 243.487 C 261.480 243.953,261.204 244.889,261.209 245.831 L 261.218 247.400 262.023 245.624 C 263.007 243.455,262.942 242.332,261.900 243.487 M139.200 246.300 C 139.200 248.510,140.066 252.999,140.594 253.527 C 141.276 254.209,140.235 244.985,139.544 244.220 C 139.348 244.004,139.200 244.901,139.200 246.300 M111.197 246.833 C 111.194 249.658,112.018 255.288,112.510 255.800 C 112.757 256.057,112.804 255.196,112.643 253.400 C 111.976 245.965,111.203 242.452,111.197 246.833 M259.634 251.217 C 259.395 252.329,259.212 253.906,259.227 254.720 L 259.254 256.200 259.830 254.200 C 260.742 251.036,260.921 249.722,260.478 249.448 C 260.235 249.298,259.891 250.020,259.634 251.217 M285.843 256.049 C 285.106 259.316,285.040 260.400,285.582 260.400 C 285.984 260.400,286.214 259.276,286.582 255.500 C 286.884 252.408,286.622 252.603,285.843 256.049 M141.317 256.300 C 141.431 256.905,141.817 258.120,142.174 259.000 L 142.823 260.600 142.630 259.200 C 142.252 256.444,141.903 255.200,141.509 255.200 C 141.289 255.200,141.203 255.695,141.317 256.300 M258.351 256.600 C 258.215 256.820,257.869 257.935,257.582 259.077 C 257.295 260.219,256.881 261.119,256.661 261.077 C 256.210 260.990,255.277 263.683,255.232 265.200 C 255.204 266.155,255.239 266.141,256.001 264.890 C 256.441 264.170,256.800 263.313,256.800 262.985 C 256.800 262.657,256.971 262.077,257.181 261.695 C 258.500 259.286,259.570 254.630,258.351 256.600 M113.229 258.429 C 113.187 260.470,114.552 264.304,114.714 262.600 C 114.777 261.940,114.475 260.410,114.043 259.200 C 113.277 257.051,113.258 257.033,113.229 258.429 M143.200 260.956 C 143.200 261.482,143.556 262.697,143.991 263.656 L 144.782 265.400 144.791 264.087 C 144.800 262.805,143.859 260.000,143.420 260.000 C 143.299 260.000,143.200 260.430,143.200 260.956 M284.230 263.319 C 284.051 263.934,284.016 264.549,284.152 264.685 C 284.600 265.133,284.863 264.494,284.708 263.337 L 284.555 262.200 284.230 263.319 M115.200 265.776 C 115.200 266.093,115.380 266.464,115.600 266.600 C 115.820 266.736,116.000 267.276,116.000 267.800 C 116.000 268.324,116.180 268.864,116.400 269.000 C 117.010 269.377,116.876 267.708,116.190 266.380 C 115.520 265.085,115.200 264.890,115.200 265.776 M145.200 265.794 C 145.200 266.567,147.559 270.400,148.034 270.400 C 148.699 270.400,148.401 269.424,147.193 267.640 C 146.537 266.672,146.000 265.727,146.000 265.540 C 146.000 265.353,145.820 265.200,145.600 265.200 C 145.380 265.200,145.200 265.467,145.200 265.794 M283.479 265.757 C 283.315 266.174,283.275 266.609,283.391 266.724 C 283.755 267.089,284.076 266.491,283.924 265.731 C 283.783 265.035,283.762 265.036,283.479 265.757 M253.300 267.840 C 252.585 268.956,252.000 270.093,252.000 270.366 C 252.000 270.638,251.471 271.390,250.825 272.036 C 250.179 272.683,249.530 273.614,249.383 274.106 C 249.235 274.598,248.785 275.270,248.382 275.600 C 247.978 275.930,247.523 276.740,247.369 277.400 L 247.089 278.600 248.031 277.400 C 248.549 276.740,249.077 276.110,249.204 276.000 C 249.331 275.890,250.192 274.630,251.116 273.200 C 252.040 271.770,252.934 270.420,253.101 270.200 C 254.249 268.695,254.832 267.431,254.725 266.681 C 254.620 265.952,254.387 266.141,253.300 267.840 M281.664 270.219 C 281.099 271.459,281.066 272.400,281.586 272.400 C 282.107 272.400,282.800 271.045,282.800 270.026 C 282.800 268.892,282.224 268.989,281.664 270.219 M117.227 270.800 C 117.193 272.310,117.947 274.690,118.697 275.440 C 119.519 276.262,119.886 275.548,119.305 274.261 C 117.408 270.059,117.250 269.796,117.227 270.800 M149.200 272.547 C 149.200 273.148,152.737 277.874,154.531 279.668 C 155.764 280.902,156.508 281.147,156.145 280.200 C 156.018 279.870,155.659 279.600,155.347 279.600 C 155.035 279.600,154.607 279.145,154.396 278.590 C 154.185 278.034,153.739 277.475,153.406 277.347 C 153.073 277.219,152.800 276.864,152.800 276.557 C 152.800 276.251,152.665 275.996,152.500 275.992 C 152.335 275.988,151.668 275.088,151.017 273.992 C 149.841 272.011,149.200 271.501,149.200 272.547 M280.455 273.000 C 280.411 273.440,280.110 274.149,279.787 274.576 C 279.124 275.454,279.002 276.800,279.586 276.800 C 280.281 276.800,280.849 275.196,280.690 273.683 C 280.605 272.867,280.498 272.560,280.455 273.000 M277.835 278.722 C 277.417 279.649,277.180 280.513,277.308 280.641 C 277.654 280.987,278.869 278.452,278.722 277.691 C 278.644 277.288,278.303 277.685,277.835 278.722 M121.209 279.700 C 121.220 280.842,122.777 282.988,122.791 281.880 C 122.800 281.145,121.733 278.800,121.390 278.800 C 121.285 278.800,121.204 279.205,121.209 279.700 M245.200 279.849 C 245.200 280.380,245.309 280.408,245.800 280.000 C 246.130 279.726,246.400 279.434,246.400 279.351 C 246.400 279.268,246.130 279.200,245.800 279.200 C 245.470 279.200,245.200 279.492,245.200 279.849 M241.074 283.077 C 240.455 283.402,239.845 283.938,239.719 284.268 C 239.592 284.597,239.122 285.003,238.674 285.168 C 237.871 285.465,237.872 285.473,238.731 285.698 C 239.676 285.945,242.741 283.827,242.779 282.900 C 242.805 282.287,242.520 282.317,241.074 283.077 M275.045 283.682 C 274.650 284.496,274.073 285.374,273.763 285.631 C 273.119 286.165,273.000 287.600,273.600 287.600 C 273.820 287.600,274.000 287.416,274.000 287.191 C 274.000 286.967,274.466 286.079,275.035 285.219 C 275.604 284.359,276.000 283.328,275.916 282.928 C 275.801 282.378,275.587 282.563,275.045 283.682 M124.000 284.153 C 124.000 284.483,124.180 284.864,124.400 285.000 C 124.620 285.136,124.800 284.977,124.800 284.647 C 124.800 284.317,124.620 283.936,124.400 283.800 C 124.180 283.664,124.000 283.823,124.000 284.153 M160.412 285.324 C 162.602 287.412,164.609 288.800,165.438 288.800 C 166.081 288.799,166.018 288.643,165.038 287.800 C 164.399 287.250,163.724 286.800,163.538 286.800 C 163.352 286.800,163.200 286.542,163.200 286.227 C 163.200 285.447,161.089 284.000,159.950 284.000 C 159.074 284.000,159.099 284.073,160.412 285.324 M125.200 285.902 C 125.200 287.003,126.767 288.940,126.787 287.863 C 126.794 287.458,126.440 286.669,126.000 286.109 C 125.265 285.175,125.200 285.158,125.200 285.902 M235.429 287.829 C 234.184 289.073,235.395 289.230,236.856 288.013 C 237.800 287.227,237.800 287.227,236.929 287.213 C 236.449 287.206,235.774 287.483,235.429 287.829 M272.432 287.448 C 272.414 287.694,271.680 288.800,270.800 289.905 C 269.124 292.010,268.754 293.057,269.833 292.643 C 270.181 292.509,270.541 292.400,270.633 292.400 C 270.725 292.400,270.800 292.040,270.800 291.600 C 270.800 291.160,271.056 290.800,271.369 290.800 C 271.996 290.800,272.982 288.285,272.664 287.497 C 272.539 287.187,272.451 287.169,272.432 287.448 M127.433 289.200 C 127.603 290.095,128.298 291.177,129.357 292.200 C 130.268 293.080,131.232 294.295,131.498 294.900 C 131.765 295.505,132.242 296.000,132.558 296.000 C 132.874 296.000,133.214 296.225,133.312 296.500 C 133.410 296.775,133.600 296.900,133.735 296.777 C 133.869 296.655,133.488 296.011,132.889 295.347 C 131.541 293.852,128.298 289.679,127.648 288.600 C 127.232 287.910,127.202 287.993,127.433 289.200 M167.029 290.389 C 167.893 291.043,168.741 291.583,168.912 291.589 C 169.084 291.595,170.495 292.320,172.048 293.200 C 174.779 294.747,176.400 295.203,176.400 294.424 C 176.400 293.817,174.104 292.693,171.700 292.121 C 171.205 292.003,170.800 291.748,170.800 291.553 C 170.800 291.359,170.530 291.200,170.200 291.200 C 169.870 291.200,169.600 291.011,169.600 290.780 C 169.600 290.304,167.183 289.200,166.142 289.200 C 165.695 289.200,166.003 289.613,167.029 290.389 M232.700 289.757 C 232.315 290.049,232.000 290.403,232.000 290.544 C 232.000 291.046,233.016 290.770,234.000 290.000 C 234.914 289.285,234.931 289.218,234.200 289.222 C 233.760 289.224,233.085 289.465,232.700 289.757 M228.600 292.400 C 228.464 292.620,228.713 292.800,229.153 292.800 C 229.593 292.800,230.064 292.620,230.200 292.400 C 230.336 292.180,230.087 292.000,229.647 292.000 C 229.207 292.000,228.736 292.180,228.600 292.400 M224.368 293.438 C 223.822 294.096,224.223 294.800,225.144 294.800 C 225.839 294.800,226.800 294.084,226.800 293.567 C 226.800 293.027,224.797 292.921,224.368 293.438 M267.693 294.000 C 267.418 294.440,267.339 294.800,267.517 294.800 C 267.933 294.800,268.800 293.936,268.800 293.520 C 268.800 292.931,268.198 293.192,267.693 294.000 M178.527 296.004 C 179.427 296.501,180.576 296.796,181.327 296.723 C 183.145 296.547,181.583 295.673,178.916 295.375 L 177.000 295.160 178.527 296.004 M219.200 295.895 L 217.800 296.559 219.137 296.708 C 219.872 296.789,221.042 296.595,221.737 296.277 C 222.432 295.958,223.270 295.600,223.600 295.480 C 223.930 295.361,223.390 295.256,222.400 295.247 C 221.410 295.238,219.970 295.530,219.200 295.895 M184.400 297.877 C 187.786 298.781,188.800 298.925,188.800 298.501 C 188.800 298.067,184.848 297.175,183.233 297.244 C 182.559 297.273,182.964 297.493,184.400 297.877 M215.600 297.600 C 214.842 298.090,216.070 298.090,217.600 297.600 C 218.580 297.286,218.576 297.279,217.400 297.246 C 216.740 297.227,215.930 297.387,215.600 297.600 M211.200 298.400 C 211.200 298.880,213.082 298.880,214.200 298.400 C 214.802 298.141,214.530 298.049,213.100 298.028 C 212.055 298.013,211.200 298.180,211.200 298.400 M135.600 299.474 C 135.600 300.069,140.846 304.800,141.501 304.797 C 141.956 304.794,141.178 303.816,139.274 301.997 C 136.590 299.430,135.600 298.751,135.600 299.474 M194.000 299.617 C 196.870 300.014,204.057 300.014,206.600 299.618 C 207.896 299.416,205.645 299.308,200.200 299.310 C 194.692 299.312,192.557 299.417,194.000 299.617 M262.000 300.200 C 261.592 300.691,261.620 300.800,262.151 300.800 C 262.508 300.800,262.800 300.530,262.800 300.200 C 262.800 299.870,262.732 299.600,262.649 299.600 C 262.566 299.600,262.274 299.870,262.000 300.200 M259.290 302.774 C 258.040 303.969,257.648 304.800,258.334 304.800 C 258.859 304.800,260.865 302.396,260.715 301.946 C 260.641 301.723,260.000 302.096,259.290 302.774 M255.600 306.200 C 255.195 306.688,255.215 306.800,255.708 306.800 C 256.042 306.800,256.418 306.530,256.545 306.200 C 256.671 305.870,256.623 305.600,256.436 305.600 C 256.250 305.600,255.874 305.870,255.600 306.200 M145.200 307.367 C 145.200 307.788,146.405 308.928,146.621 308.712 C 146.722 308.611,146.444 308.202,146.002 307.802 C 145.561 307.403,145.200 307.207,145.200 307.367 M253.600 307.600 C 253.600 307.820,253.870 308.000,254.200 308.000 C 254.530 308.000,254.800 307.820,254.800 307.600 C 254.800 307.380,254.530 307.200,254.200 307.200 C 253.870 307.200,253.600 307.380,253.600 307.600 M147.690 309.671 C 147.914 310.342,149.107 311.026,149.452 310.682 C 149.611 310.522,149.395 310.129,148.971 309.809 C 148.030 309.097,147.479 309.038,147.690 309.671 M150.000 311.600 C 150.000 311.820,150.405 311.997,150.900 311.994 C 151.628 311.989,151.685 311.914,151.200 311.600 C 150.424 311.099,150.000 311.099,150.000 311.600 M247.896 311.780 C 247.513 312.059,247.200 312.403,247.200 312.544 C 247.200 313.020,248.299 312.804,248.770 312.236 C 249.401 311.476,248.765 311.144,247.896 311.780 M153.757 313.833 C 153.891 314.181,154.000 314.541,154.000 314.633 C 154.000 314.725,154.585 314.799,155.300 314.799 L 156.600 314.797 155.290 313.999 C 153.709 313.034,153.440 313.005,153.757 313.833 M156.157 315.833 C 156.291 316.181,156.400 316.541,156.400 316.633 C 156.400 316.725,156.990 316.800,157.711 316.800 C 158.432 316.800,159.377 317.036,159.811 317.324 C 160.935 318.071,163.954 318.979,164.269 318.665 C 164.414 318.519,164.158 318.400,163.700 318.400 C 163.242 318.400,162.807 318.257,162.733 318.082 C 162.180 316.762,155.658 314.531,156.157 315.833 M240.000 316.190 C 239.230 316.720,238.296 317.164,237.924 317.177 C 236.682 317.219,236.713 318.000,237.957 318.000 C 238.658 318.000,239.314 317.725,239.528 317.342 C 239.818 316.825,240.297 316.729,241.770 316.895 C 243.508 317.091,243.635 317.045,243.522 316.253 C 243.349 315.040,241.713 315.011,240.000 316.190 M164.954 319.760 C 165.369 320.094,166.492 320.485,167.450 320.628 C 168.408 320.772,169.104 321.032,168.996 321.207 C 168.697 321.691,172.331 322.801,174.171 322.789 C 175.600 322.779,175.236 322.579,171.200 321.156 C 165.811 319.258,163.759 318.799,164.954 319.760 M232.638 319.500 C 232.476 319.665,231.771 320.025,231.071 320.301 L 229.800 320.801 231.100 320.601 C 233.781 320.187,234.800 319.899,234.800 319.555 C 234.800 319.124,233.052 319.080,232.638 319.500 M227.096 321.437 C 226.966 321.567,226.171 321.919,225.330 322.219 L 223.800 322.765 225.306 322.782 C 226.973 322.802,230.000 321.977,230.000 321.503 C 230.000 321.147,227.444 321.090,227.096 321.437 M176.000 323.557 C 176.000 324.080,177.038 324.395,179.667 324.670 C 182.709 324.988,182.715 324.308,179.676 323.680 C 176.903 323.107,176.000 323.077,176.000 323.557 M218.200 324.015 L 215.800 324.736 217.680 324.768 C 219.876 324.805,223.492 324.098,223.820 323.568 C 224.191 322.967,220.787 323.238,218.200 324.015 M187.072 325.484 C 186.231 326.844,211.306 326.914,212.575 325.555 C 212.892 325.215,212.037 325.182,209.200 325.428 C 204.265 325.854,195.122 325.853,190.758 325.426 C 188.555 325.211,187.228 325.231,187.072 325.484 " stroke="none" fill="#585ecd" fill-rule="evenodd"></path></g></svg>