<svg width="110" height="102" viewBox="0 0 110 102" fill="none" xmlns="http://www.w3.org/2000/svg">
<g clip-path="url(#clip0_370_36560)">
<path fill-rule="evenodd" clip-rule="evenodd" d="M86.0769 53.9995C72.8649 53.9995 62.1537 64.7445 62.1537 78.0002C62.1537 91.255 72.8649 102 86.0769 102C99.2893 102 110 91.255 110 78.0002C110 64.7445 99.2893 53.9995 86.0769 53.9995ZM23.923 54.0018C10.7108 54.0018 0 64.7445 0 78.0002C0 91.255 10.7108 102 23.923 102C37.1358 102 47.8472 91.255 47.8472 78.0002C47.8472 64.7445 37.1358 54.0018 23.923 54.0018ZM78.9227 23.9992C78.9227 37.2548 68.2125 48.001 55 48.001C41.7873 48.001 31.0771 37.2548 31.0771 23.9992C31.0771 10.7462 41.7873 0 55 0C68.2125 0 78.9227 10.7462 78.9227 23.9992Z" fill="#F06A6A"/>
</g>
<defs>
<clipPath id="clip0_370_36560">
<rect width="110" height="102" fill="white"/>
</clipPath>
</defs>
</svg>
