<?xml version="1.0" encoding="UTF-8"?>
<!DOCTYPE svg PUBLIC "-//W3C//DTD SVG 1.1//EN" "http://www.w3.org/Graphics/SVG/1.1/DTD/svg11.dtd">
<svg xmlns="http://www.w3.org/2000/svg" version="1.1" width="300px" height="299px"
  style="shape-rendering:geometricPrecision; text-rendering:geometricPrecision; image-rendering:optimizeQuality; fill-rule:evenodd; clip-rule:evenodd"
  xmlns:xlink="http://www.w3.org/1999/xlink">
  <circle cx="147" cy="130" r="120" fill="#f9ded3" />
  <g>
    <path style="opacity:1" fill="#1b1e2f"
      d="M 73.5,67.5 C 75.2959,68.7927 76.9625,70.2927 78.5,72C 76.981,73.3513 75.6477,74.8513 74.5,76.5C 69.6341,73.9265 69.3008,70.9265 73.5,67.5 Z" />
  </g>
  <g>
    <path style="opacity:1" fill="#f9f8f7"
      d="M 185.5,78.5 C 185.5,80.8333 185.5,83.1667 185.5,85.5C 179.752,95.5759 171.085,102.076 159.5,105C 157.93,106.397 156.596,107.897 155.5,109.5C 149.704,104.583 143.537,104.25 137,108.5C 132.819,115.197 134.319,120.364 141.5,124C 146.949,125.393 151.616,124.226 155.5,120.5C 167.929,121.369 177.763,116.702 185,106.5C 185.464,107.094 185.631,107.761 185.5,108.5C 183.957,117.88 178.624,124.047 169.5,127C 166.238,128.469 162.905,129.636 159.5,130.5C 140.327,135.165 123.494,130.832 109,117.5C 106.004,112.23 104.838,106.563 105.5,100.5C 108.073,94.5924 110.239,88.2591 112,81.5C 112.75,80.8742 113.584,80.3742 114.5,80C 135.266,79.7939 154.599,74.6273 172.5,64.5C 176.12,69.7885 180.454,74.4552 185.5,78.5 Z" />
  </g>
  <g>
    <path style="opacity:1" fill="#23232f"
      d="M 221.5,82.5 C 222.833,82.5 224.167,82.5 225.5,82.5C 225.778,84.3464 225.111,85.6798 223.5,86.5C 221.889,85.6798 221.222,84.3464 221.5,82.5 Z" />
  </g>
  <g>
    <path style="opacity:1" fill="#262124"
      d="M 62.5,91.5 C 64.288,91.2148 65.9547,91.5481 67.5,92.5C 66.6667,92.8333 65.8333,93.1667 65,93.5C 63.6244,93.3158 62.7911,92.6491 62.5,91.5 Z" />
  </g>
  <g>
    <path style="opacity:1" fill="#e9c9b7"
      d="M 185.5,85.5 C 185.408,92.4499 182.742,98.2832 177.5,103C 171.407,108.219 164.407,110.886 156.5,111C 155.944,110.617 155.611,110.117 155.5,109.5C 156.596,107.897 157.93,106.397 159.5,105C 171.085,102.076 179.752,95.5759 185.5,85.5 Z" />
  </g>
  <g>
    <path style="opacity:1" fill="#21212f"
      d="M 212.5,102.5 C 216.555,102.176 220.555,102.509 224.5,103.5C 222.5,103.833 220.5,104.167 218.5,104.5C 216.048,104.461 214.048,103.794 212.5,102.5 Z" />
  </g>
  <g>
    <path style="opacity:1" fill="#1d1b25"
      d="M 73.5,107.5 C 76.5,107.167 77.8333,108.5 77.5,111.5C 73.56,112.234 72.2266,110.901 73.5,107.5 Z" />
  </g>
  <g>
    <path style="opacity:1" fill="#f08d77"
      d="M 108.5,109.5 C 107.167,106.833 107.167,104.167 108.5,101.5C 110.681,101.716 112.347,100.883 113.5,99C 119.011,97.7514 122.011,99.918 122.5,105.5C 120.794,111.02 117.127,112.853 111.5,111C 110.756,109.961 109.756,109.461 108.5,109.5 Z" />
  </g>
  <g>
    <path style="opacity:1" fill="#e09785"
      d="M 108.5,109.5 C 109.756,109.461 110.756,109.961 111.5,111C 117.127,112.853 120.794,111.02 122.5,105.5C 122.011,99.918 119.011,97.7514 113.5,99C 112.347,100.883 110.681,101.716 108.5,101.5C 110.359,97.0744 113.692,95.5744 118.5,97C 126.644,103.002 126.311,108.668 117.5,114C 113.305,114.987 110.305,113.487 108.5,109.5 Z" />
  </g>
  <g>
    <path style="opacity:1" fill="#1e1822"
      d="M 237.5,110.5 C 238.777,111.694 239.444,113.36 239.5,115.5C 239.167,117.167 238.833,118.833 238.5,120.5C 237.513,117.232 237.18,113.898 237.5,110.5 Z" />
  </g>
  <g>
    <path style="opacity:1" fill="#2c2426"
      d="M 221.5,116.5 C 223.346,116.222 224.68,116.889 225.5,118.5C 224.68,120.111 223.346,120.778 221.5,120.5C 221.5,119.167 221.5,117.833 221.5,116.5 Z" />
  </g>
  <g>
    <path style="opacity:1" fill="#12111b"
      d="M 75.5,127.5 C 79.226,127.177 82.8927,127.511 86.5,128.5C 84.6667,128.833 82.8333,129.167 81,129.5C 78.7047,129.453 76.8714,128.787 75.5,127.5 Z" />
  </g>
  <g>
    <path style="opacity:1" fill="#181b2a"
      d="M 57.5,122.5 C 63.3753,125.167 63.7086,128.167 58.5,131.5C 53.6341,128.927 53.3008,125.927 57.5,122.5 Z" />
  </g>
  <g>
    <path style="opacity:1" fill="#403b43"
      d="M 54.5,103.5 C 55.7647,104.514 56.4313,106.014 56.5,108C 56.1667,109.5 55.8333,111 55.5,112.5C 54.5159,109.572 54.1826,106.572 54.5,103.5 Z" />
  </g>
  <g>
    <path style="opacity:1" fill="#0f1528"
      d="M 235.5,130.5 C 241.532,132.544 241.865,135.21 236.5,138.5C 235.059,137.135 233.726,135.635 232.5,134C 233.71,132.961 234.71,131.794 235.5,130.5 Z" />
  </g>
  <g>
    <path style="opacity:1" fill="#20172b"
      d="M 209.5,132.5 C 213.226,132.177 216.893,132.511 220.5,133.5C 218.667,133.833 216.833,134.167 215,134.5C 212.705,134.453 210.871,133.787 209.5,132.5 Z" />
  </g>
  <g>
    <path style="opacity:1" fill="#4f474a"
      d="M 68.5,141.5 C 69.5,141.5 70.5,141.5 71.5,141.5C 71.5,144.5 71.5,147.5 71.5,150.5C 70.5,150.5 69.5,150.5 68.5,150.5C 68.5,147.5 68.5,144.5 68.5,141.5 Z" />
  </g>
  <g>
    <path style="opacity:1" fill="#7db6c0"
      d="M 166.5,134.5 C 168.943,135.499 170.609,137.332 171.5,140C 170.586,141.406 169.92,142.906 169.5,144.5C 167.108,147.598 164.942,150.931 163,154.5C 160.021,152.356 157.188,150.022 154.5,147.5C 159.932,144.405 163.932,140.072 166.5,134.5 Z" />
  </g>
  <g>
    <path style="opacity:1" fill="#1d1a20"
      d="M 219.5,142.5 C 220.748,143.334 221.415,144.667 221.5,146.5C 221.167,147.833 220.833,149.167 220.5,150.5C 219.52,147.914 219.187,145.247 219.5,142.5 Z" />
  </g>
  <g>
    <path style="opacity:1" fill="#c9d2d7"
      d="M 175.5,143.5 C 182.468,146.314 189.468,149.147 196.5,152C 199.898,153.357 202.898,155.19 205.5,157.5C 194.806,154.758 184.139,151.758 173.5,148.5C 174.441,146.95 175.107,145.284 175.5,143.5 Z" />
  </g>
  <g>
    <path style="opacity:1" fill="#f9f8f6"
      d="M 173.5,148.5 C 184.139,151.758 194.806,154.758 205.5,157.5C 207.47,159.647 209.303,161.98 211,164.5C 216.667,181.5 222.333,198.5 228,215.5C 228.943,221.222 228.11,226.556 225.5,231.5C 222.173,233.396 218.84,234.396 215.5,234.5C 205.233,235.22 201.566,230.553 204.5,220.5C 209.989,220.496 211.822,217.829 210,212.5C 206.115,203.411 202.282,194.411 198.5,185.5C 196.099,183.938 194.099,184.271 192.5,186.5C 191.816,192.901 191.15,199.401 190.5,206C 181.011,213.001 170.345,215.501 158.5,213.5C 156.745,200.02 155.412,186.353 154.5,172.5C 154.02,168.694 155.02,165.361 157.5,162.5C 161.31,165.338 164.81,165.005 168,161.5C 168.847,159.146 169.68,156.812 170.5,154.5C 171.471,152.517 172.471,150.517 173.5,148.5 Z" />
  </g>
  <g>
    <path style="opacity:1" fill="#bcc6cb"
      d="M 170.5,154.5 C 169.68,156.812 168.847,159.146 168,161.5C 164.81,165.005 161.31,165.338 157.5,162.5C 155.02,165.361 154.02,168.694 154.5,172.5C 153.08,166.901 153.247,161.235 155,155.5C 157.719,157.729 160.553,159.729 163.5,161.5C 164.167,161.333 164.833,161.167 165.5,161C 167.066,158.674 168.732,156.508 170.5,154.5 Z" />
  </g>
  <g>
    <path style="opacity:1" fill="#cdd5db"
      d="M 198.5,185.5 C 202.282,194.411 206.115,203.411 210,212.5C 211.822,217.829 209.989,220.496 204.5,220.5C 204.5,220.167 204.5,219.833 204.5,219.5C 203.205,215.577 201.372,211.91 199,208.5C 198.5,200.841 198.334,193.174 198.5,185.5 Z" />
  </g>
  <g>
    <path style="opacity:1" fill="#09162c"
      d="M 189.5,37.5 C 196.262,47.5131 198.262,58.5131 195.5,70.5C 196.552,70.3505 197.552,70.5172 198.5,71C 204.167,76.3189 206.001,82.8189 204,90.5C 203.313,97.6842 199.48,101.684 192.5,102.5C 192.168,116.154 185.835,125.821 173.5,131.5C 174.803,133.937 176.47,136.104 178.5,138C 186.868,141.675 195.201,145.341 203.5,149C 207.241,150.738 210.408,153.238 213,156.5C 220.401,174.538 226.901,192.872 232.5,211.5C 233.638,214.719 234.471,218.053 235,221.5C 237.292,222.79 239.292,224.457 241,226.5C 244.015,234.118 241.848,239.452 234.5,242.5C 231.15,242.335 227.817,242.502 224.5,243C 212.545,251.953 200.878,261.287 189.5,271C 186.833,271.667 184.167,271.667 181.5,271C 180.619,270.292 179.953,269.458 179.5,268.5C 176.294,266.936 174.96,264.269 175.5,260.5C 174.5,260.5 173.5,260.5 172.5,260.5C 172.5,258.833 172.5,257.167 172.5,255.5C 173.5,255.5 174.5,255.5 175.5,255.5C 176.488,256.795 177.488,258.128 178.5,259.5C 179.794,261.907 181.461,264.074 183.5,266C 185.074,266.699 186.407,266.365 187.5,265C 185.267,262.004 182.934,259.171 180.5,256.5C 178.86,253.851 177.193,251.184 175.5,248.5C 175.034,246.799 175.034,245.299 175.5,244C 174.181,242.372 172.848,242.539 171.5,244.5C 171.167,243.667 170.833,242.833 170.5,242C 171.378,240.2 172.045,238.367 172.5,236.5C 175.681,234.408 178.681,232.075 181.5,229.5C 183.741,228.7 184.741,227.034 184.5,224.5C 186.92,224.708 189.253,224.374 191.5,223.5C 192.308,223.808 192.975,224.308 193.5,225C 190.833,227.526 187.833,229.359 184.5,230.5C 182.5,233.5 180.5,236.5 178.5,239.5C 178.082,240.222 177.416,240.722 176.5,241C 180.066,245.991 183.732,250.825 187.5,255.5C 188.748,257.649 190.248,259.649 192,261.5C 201.833,253.667 211.667,245.833 221.5,238C 223.734,236.362 225.067,234.195 225.5,231.5C 228.11,226.556 228.943,221.222 228,215.5C 222.333,198.5 216.667,181.5 211,164.5C 209.303,161.98 207.47,159.647 205.5,157.5C 202.898,155.19 199.898,153.357 196.5,152C 189.468,149.147 182.468,146.314 175.5,143.5C 173.379,143.325 171.379,143.659 169.5,144.5C 169.92,142.906 170.586,141.406 171.5,140C 170.609,137.332 168.943,135.499 166.5,134.5C 165.85,134.196 165.183,133.863 164.5,133.5C 162.038,136.429 159.038,137.096 155.5,135.5C 154.479,134.998 154.312,134.332 155,133.5C 156.409,132.219 157.909,131.219 159.5,130.5C 162.905,129.636 166.238,128.469 169.5,127C 178.624,124.047 183.957,117.88 185.5,108.5C 186.793,106.636 186.793,104.636 185.5,102.5C 177.79,111.192 168.124,116.525 156.5,118.5C 156.137,119.183 155.804,119.85 155.5,120.5C 151.616,124.226 146.949,125.393 141.5,124C 134.319,120.364 132.819,115.197 137,108.5C 143.537,104.25 149.704,104.583 155.5,109.5C 155.611,110.117 155.944,110.617 156.5,111C 164.407,110.886 171.407,108.219 177.5,103C 182.742,98.2832 185.408,92.4499 185.5,85.5C 185.5,83.1667 185.5,80.8333 185.5,78.5C 185.657,77.1266 185.49,75.7932 185,74.5C 179.365,69.8898 175.198,64.2231 172.5,57.5C 160.885,65.836 147.885,71.0026 133.5,73C 124.22,74.4935 114.887,75.3268 105.5,75.5C 104.67,84.9913 104.17,94.658 104,104.5C 101.479,101.648 98.3127,100.148 94.5,100C 93.8333,99.3333 93.1667,98.6667 92.5,98C 93.9504,97.8829 95.4504,98.0495 97,98.5C 98.7106,98.5607 100.044,97.8941 101,96.5C 100.17,88.8391 100.336,81.1724 101.5,73.5C 99.4471,73.4021 97.7804,74.0687 96.5,75.5C 92.0395,78.5808 90.3728,82.9141 91.5,88.5C 91.5386,89.7562 91.0386,90.7562 90,91.5C 87.2372,87.1058 86.9038,82.4392 89,77.5C 89.3333,76.5 89.6667,75.5 90,74.5C 92.3743,73.3685 94.2076,71.7019 95.5,69.5C 94.4886,60.5936 96.1552,52.2602 100.5,44.5C 107.719,32.0492 118.386,24.2159 132.5,21C 148.078,18.4761 161.745,22.3094 173.5,32.5C 179.411,32.6076 184.744,34.2742 189.5,37.5 Z" />
  </g>
  <g>
    <path style="opacity:1" fill="#d2b0aa"
      d="M 142.5,110.5 C 145.32,110.248 147.986,110.748 150.5,112C 152.129,118.694 149.463,121.027 142.5,119C 139.899,116.17 139.899,113.337 142.5,110.5 Z" />
  </g>
  <g>
    <path style="opacity:1" fill="#eda386"
      d="M 143.5,112.5 C 146.38,112.033 148.713,112.866 150.5,115C 150.095,115.945 149.428,116.612 148.5,117C 146.527,117.495 144.527,117.662 142.5,117.5C 142.366,115.708 142.699,114.042 143.5,112.5 Z" />
  </g>
  <g>
    <path style="opacity:1" fill="#e1c2b4"
      d="M 185.5,108.5 C 185.631,107.761 185.464,107.094 185,106.5C 177.763,116.702 167.929,121.369 155.5,120.5C 155.804,119.85 156.137,119.183 156.5,118.5C 168.124,116.525 177.79,111.192 185.5,102.5C 186.793,104.636 186.793,106.636 185.5,108.5 Z" />
  </g>
  <g>
    <path style="opacity:1" fill="#111b2f"
      d="M 159.5,85.5 C 163.949,85.2556 165.615,87.4223 164.5,92C 165.745,97.2539 163.745,99.4206 158.5,98.5C 158.231,94.0685 158.564,89.7352 159.5,85.5 Z" />
  </g>
  <g>
    <path style="opacity:1" fill="#121d32"
      d="M 126.5,85.5 C 130.949,85.2556 132.615,87.4223 131.5,92C 132.745,97.2539 130.745,99.4206 125.5,98.5C 125.231,94.0685 125.564,89.7352 126.5,85.5 Z" />
  </g>
  <g>
    <path style="opacity:1" fill="#becbd1"
      d="M 195.5,76.5 C 196.79,77.0577 197.623,78.0577 198,79.5C 199.223,85.3792 198.389,90.8792 195.5,96C 194.552,96.4828 193.552,96.6495 192.5,96.5C 192.5,89.8333 192.5,83.1667 192.5,76.5C 193.5,76.5 194.5,76.5 195.5,76.5 Z" />
  </g>
  <g>
    <path style="opacity:1" fill="#47596c"
      d="M 195.5,76.5 C 194.5,76.5 193.5,76.5 192.5,76.5C 192.5,83.1667 192.5,89.8333 192.5,96.5C 191.509,89.6866 191.175,82.6866 191.5,75.5C 193.099,75.2322 194.432,75.5655 195.5,76.5 Z" />
  </g>
  <g>
    <path style="opacity:1" fill="#e8cdc0"
      d="M 185.5,78.5 C 180.454,74.4552 176.12,69.7885 172.5,64.5C 154.599,74.6273 135.266,79.7939 114.5,80C 113.584,80.3742 112.75,80.8742 112,81.5C 110.239,88.2591 108.073,94.5924 105.5,100.5C 105.5,92.1667 105.5,83.8333 105.5,75.5C 114.887,75.3268 124.22,74.4935 133.5,73C 147.885,71.0026 160.885,65.836 172.5,57.5C 175.198,64.2231 179.365,69.8898 185,74.5C 185.49,75.7932 185.657,77.1266 185.5,78.5 Z" />
  </g>
  <g>
    <path style="opacity:1" fill="#beccd1"
      d="M 189.5,51.5 C 190.917,57.4549 190.584,63.4549 188.5,69.5C 183.183,64.8744 179.35,59.2078 177,52.5C 175.961,51.2899 174.794,50.2899 173.5,49.5C 175.182,45.5507 177.848,44.7174 181.5,47C 184.629,50.7522 187.129,54.9188 189,59.5C 189.497,56.854 189.664,54.1873 189.5,51.5 Z" />
  </g>
  <g>
    <path style="opacity:1" fill="#c5d0d6"
      d="M 160.5,30.5 C 142.375,28.0346 127.875,34.0346 117,48.5C 114.258,53.8909 112.425,59.5575 111.5,65.5C 130.647,66.0079 147.147,59.6746 161,46.5C 161.667,47.5 161.667,48.5 161,49.5C 157.317,55.4126 152.483,60.0793 146.5,63.5C 131.982,68.0564 116.982,70.0564 101.5,69.5C 100.822,48.3753 110.489,34.2087 130.5,27C 141.05,24.4311 151.05,25.5978 160.5,30.5 Z" />
  </g>
  <g>
    <path style="opacity:1" fill="#f8f9fa"
      d="M 160.5,30.5 C 164.861,32.3524 168.528,35.1858 171.5,39C 181.959,36.6136 187.959,40.7803 189.5,51.5C 189.664,54.1873 189.497,56.854 189,59.5C 187.129,54.9188 184.629,50.7522 181.5,47C 177.848,44.7174 175.182,45.5507 173.5,49.5C 170.062,51.7589 166.729,54.2589 163.5,57C 158.227,60.2566 152.561,62.4232 146.5,63.5C 152.483,60.0793 157.317,55.4126 161,49.5C 161.667,48.5 161.667,47.5 161,46.5C 147.147,59.6746 130.647,66.0079 111.5,65.5C 112.425,59.5575 114.258,53.8909 117,48.5C 127.875,34.0346 142.375,28.0346 160.5,30.5 Z" />
  </g>
  <g>
    <path style="opacity:1" fill="#7d7c7b"
      d="M 204.5,219.5 C 204.5,219.833 204.5,220.167 204.5,220.5C 201.566,230.553 205.233,235.22 215.5,234.5C 215.586,235.496 215.252,236.329 214.5,237C 206.5,241.667 198.5,246.333 190.5,251C 189.117,252.271 188.117,253.771 187.5,255.5C 183.732,250.825 180.066,245.991 176.5,241C 177.416,240.722 178.082,240.222 178.5,239.5C 186.507,233.483 194.174,226.983 201.5,220C 202.448,219.517 203.448,219.351 204.5,219.5 Z" />
  </g>
  <g>
    <path style="opacity:1" fill="#c8d3dc"
      d="M 232.5,227.5 C 236.146,228.462 237.313,230.795 236,234.5C 234.556,236.155 232.722,236.822 230.5,236.5C 231.461,233.574 232.127,230.574 232.5,227.5 Z" />
  </g>
  <g>
    <path style="opacity:1" fill="#94a0a9"
      d="M 60.5,242.5 C 94.1667,242.5 127.833,242.5 161.5,242.5C 161.5,244.167 161.5,245.833 161.5,247.5C 159.585,247.784 157.919,247.451 156.5,246.5C 157.833,246.5 159.167,246.5 160.5,246.5C 160.5,245.5 160.5,244.5 160.5,243.5C 127.662,243.168 94.9957,243.502 62.5,244.5C 61.5,244.167 60.8333,243.5 60.5,242.5 Z" />
  </g>
  <g>
    <path style="opacity:1" fill="#cdd7dd"
      d="M 62.5,244.5 C 94.9957,243.502 127.662,243.168 160.5,243.5C 160.5,244.5 160.5,245.5 160.5,246.5C 159.167,246.5 157.833,246.5 156.5,246.5C 153.813,246.336 151.146,246.503 148.5,247C 146.297,249.372 143.963,251.539 141.5,253.5C 126.468,253.257 111.468,252.424 96.5,251C 84.8773,250.08 73.5439,247.913 62.5,244.5 Z" />
  </g>
  <g>
    <path style="opacity:1" fill="#5f6567"
      d="M 161.5,242.5 C 166.451,241.601 167.451,242.935 164.5,246.5C 163.675,247.386 162.675,247.719 161.5,247.5C 161.5,245.833 161.5,244.167 161.5,242.5 Z" />
  </g>
  <g>
    <path style="opacity:1" fill="#08162a"
      d="M 95.5,69.5 C 94.2076,71.7019 92.3743,73.3685 90,74.5C 89.6667,75.5 89.3333,76.5 89,77.5C 86.9038,82.4392 87.2372,87.1058 90,91.5C 91.0386,90.7562 91.5386,89.7562 91.5,88.5C 92.322,90.3885 93.1553,92.3885 94,94.5C 95.4443,96.1554 97.2776,96.822 99.5,96.5C 99.5,89.5 99.5,82.5 99.5,75.5C 98.5,75.5 97.5,75.5 96.5,75.5C 97.7804,74.0687 99.4471,73.4021 101.5,73.5C 100.336,81.1724 100.17,88.8391 101,96.5C 100.044,97.8941 98.7106,98.5607 97,98.5C 95.4504,98.0495 93.9504,97.8829 92.5,98C 93.1667,98.6667 93.8333,99.3333 94.5,100C 98.3127,100.148 101.479,101.648 104,104.5C 104.17,94.658 104.67,84.9913 105.5,75.5C 105.5,83.8333 105.5,92.1667 105.5,100.5C 104.838,106.563 106.004,112.23 109,117.5C 123.494,130.832 140.327,135.165 159.5,130.5C 157.909,131.219 156.409,132.219 155,133.5C 154.312,134.332 154.479,134.998 155.5,135.5C 159.038,137.096 162.038,136.429 164.5,133.5C 165.183,133.863 165.85,134.196 166.5,134.5C 163.932,140.072 159.932,144.405 154.5,147.5C 157.188,150.022 160.021,152.356 163,154.5C 164.942,150.931 167.108,147.598 169.5,144.5C 171.379,143.659 173.379,143.325 175.5,143.5C 175.107,145.284 174.441,146.95 173.5,148.5C 172.471,150.517 171.471,152.517 170.5,154.5C 168.732,156.508 167.066,158.674 165.5,161C 164.833,161.167 164.167,161.333 163.5,161.5C 160.553,159.729 157.719,157.729 155,155.5C 153.247,161.235 153.08,166.901 154.5,172.5C 155.412,186.353 156.745,200.02 158.5,213.5C 158.5,216.167 158.5,218.833 158.5,221.5C 169.833,221.5 181.167,221.5 192.5,221.5C 192.5,209.833 192.5,198.167 192.5,186.5C 194.099,184.271 196.099,183.938 198.5,185.5C 198.334,193.174 198.5,200.841 199,208.5C 201.372,211.91 203.205,215.577 204.5,219.5C 203.448,219.351 202.448,219.517 201.5,220C 194.174,226.983 186.507,233.483 178.5,239.5C 180.5,236.5 182.5,233.5 184.5,230.5C 187.833,229.359 190.833,227.526 193.5,225C 192.975,224.308 192.308,223.808 191.5,223.5C 189.253,224.374 186.92,224.708 184.5,224.5C 184.741,227.034 183.741,228.7 181.5,229.5C 181.611,228.883 181.944,228.383 182.5,228C 141.5,227.333 100.5,227.333 59.5,228C 55.5,230.667 55.5,233.333 59.5,236C 97.1652,236.5 134.832,236.667 172.5,236.5C 172.045,238.367 171.378,240.2 170.5,242C 170.833,242.833 171.167,243.667 171.5,244.5C 172.848,242.539 174.181,242.372 175.5,244C 175.034,245.299 175.034,246.799 175.5,248.5C 174.288,247.77 173.288,246.77 172.5,245.5C 171.5,245.833 170.833,246.5 170.5,247.5C 172.178,250.195 173.844,252.861 175.5,255.5C 174.5,255.5 173.5,255.5 172.5,255.5C 172.5,257.167 172.5,258.833 172.5,260.5C 173.5,260.5 174.5,260.5 175.5,260.5C 174.96,264.269 176.294,266.936 179.5,268.5C 172.728,273.428 166.061,278.594 159.5,284C 154.716,284.614 150.383,283.447 146.5,280.5C 144.402,279.065 142.069,277.898 139.5,277C 138.874,276.25 138.374,275.416 138,274.5C 137.265,269.162 136.932,263.828 137,258.5C 138.193,256.503 139.693,254.836 141.5,253.5C 143.963,251.539 146.297,249.372 148.5,247C 151.146,246.503 153.813,246.336 156.5,246.5C 157.919,247.451 159.585,247.784 161.5,247.5C 162.675,247.719 163.675,247.386 164.5,246.5C 167.451,242.935 166.451,241.601 161.5,242.5C 127.833,242.5 94.1667,242.5 60.5,242.5C 57.383,242.358 54.883,241.024 53,238.5C 49.5064,230.75 51.5064,225.083 59,221.5C 59.498,218.518 59.6646,215.518 59.5,212.5C 65.2988,196.656 70.7988,180.656 76,164.5C 77.8137,159.036 80.9804,154.536 85.5,151C 95.1667,146.5 104.833,142 114.5,137.5C 115.48,136.019 116.647,134.685 118,133.5C 118.749,132.365 118.583,131.365 117.5,130.5C 110.226,127.221 104.56,122.221 100.5,115.5C 99.8005,111.202 99.4672,106.869 99.5,102.5C 96.1066,102.938 93.1066,102.105 90.5,100C 86.3098,92.2015 85.4764,84.0349 88,75.5C 89.4802,72.1828 91.9802,70.1828 95.5,69.5 Z" />
  </g>
  <g>
    <path style="opacity:1" fill="#7c7b79"
      d="M 181.5,229.5 C 178.681,232.075 175.681,234.408 172.5,236.5C 134.832,236.667 97.1652,236.5 59.5,236C 55.5,233.333 55.5,230.667 59.5,228C 100.5,227.333 141.5,227.333 182.5,228C 181.944,228.383 181.611,228.883 181.5,229.5 Z" />
  </g>
  <g>
    <path style="opacity:1" fill="#cbd7dd"
      d="M 95.5,188.5 C 97.0722,199.912 95.0722,210.578 89.5,220.5C 82.1968,221.497 74.8635,221.831 67.5,221.5C 73.0162,217.483 78.8495,213.816 85,210.5C 88.2246,202.97 91.7246,195.636 95.5,188.5 Z" />
  </g>
  <g>
    <path style="opacity:1" fill="#cdd7db"
      d="M 192.5,186.5 C 192.5,198.167 192.5,209.833 192.5,221.5C 181.167,221.5 169.833,221.5 158.5,221.5C 158.5,218.833 158.5,216.167 158.5,213.5C 170.345,215.501 181.011,213.001 190.5,206C 191.15,199.401 191.816,192.901 192.5,186.5 Z" />
  </g>
  <g>
    <path style="opacity:1" fill="#cbd7dc"
      d="M 101.5,205.5 C 105.217,209.047 109.55,211.547 114.5,213C 121.158,213.5 127.825,213.666 134.5,213.5C 134.5,216.167 134.5,218.833 134.5,221.5C 123.5,221.5 112.5,221.5 101.5,221.5C 101.5,216.167 101.5,210.833 101.5,205.5 Z" />
  </g>
  <g>
    <path style="opacity:1" fill="#131e30"
      d="M 165.5,188.5 C 171.176,188.334 176.843,188.501 182.5,189C 183.833,190.667 183.833,192.333 182.5,194C 176.833,194.667 171.167,194.667 165.5,194C 164.248,192.172 164.248,190.339 165.5,188.5 Z" />
  </g>
  <g>
    <path style="opacity:1" fill="#7db5bd"
      d="M 144.5,164.5 C 145.5,164.5 146.5,164.5 147.5,164.5C 149.637,183.46 151.304,202.46 152.5,221.5C 148.5,221.5 144.5,221.5 140.5,221.5C 141.37,202.468 142.703,183.468 144.5,164.5 Z" />
  </g>
  <g>
    <path style="opacity:1" fill="#bfc8ce"
      d="M 136.5,190.5 C 136.314,183.972 136.648,177.472 137.5,171C 137.238,168.453 136.738,165.953 136,163.5C 134.129,162.332 132.629,162.832 131.5,165C 127.477,164.815 125.144,162.649 124.5,158.5C 125.626,159.714 126.959,160.714 128.5,161.5C 131.557,159.882 134.39,157.882 137,155.5C 137.667,156.833 138.333,158.167 139,159.5C 139.287,170.052 138.453,180.385 136.5,190.5 Z" />
  </g>
  <g>
    <path style="opacity:1" fill="#f6f5f2"
      d="M 119.5,149.5 C 121.432,152.366 123.099,155.366 124.5,158.5C 125.144,162.649 127.477,164.815 131.5,165C 132.629,162.832 134.129,162.332 136,163.5C 136.738,165.953 137.238,168.453 137.5,171C 136.648,177.472 136.314,183.972 136.5,190.5C 136.295,198.217 135.628,205.884 134.5,213.5C 127.825,213.666 121.158,213.5 114.5,213C 109.55,211.547 105.217,209.047 101.5,205.5C 101.666,198.825 101.5,192.158 101,185.5C 97.5341,183.65 95.7007,184.65 95.5,188.5C 91.7246,195.636 88.2246,202.97 85,210.5C 78.8495,213.816 73.0162,217.483 67.5,221.5C 66.2353,220.486 65.5687,218.986 65.5,217C 70.7833,199.481 76.2833,181.981 82,164.5C 83.2775,162.253 84.7775,160.253 86.5,158.5C 93.6173,157.627 100.284,155.461 106.5,152C 111.014,150.737 115.347,149.904 119.5,149.5 Z" />
  </g>
  <g>
    <path style="opacity:1" fill="#76acb4"
      d="M 145.5,148.5 C 150.229,151.321 150.395,154.654 146,158.5C 142.102,155.107 141.935,151.774 145.5,148.5 Z" />
  </g>
  <g>
    <path style="opacity:1" fill="#cad1d7"
      d="M 119.5,149.5 C 115.347,149.904 111.014,150.737 106.5,152C 100.284,155.461 93.6173,157.627 86.5,158.5C 86.9528,157.542 87.6195,156.708 88.5,156C 97.5,151.833 106.5,147.667 115.5,143.5C 117.326,145.147 118.66,147.147 119.5,149.5 Z" />
  </g>
  <g>
    <path style="opacity:1" fill="#7eb3bd"
      d="M 123.5,134.5 C 127.419,139.412 132.086,143.745 137.5,147.5C 134.859,149.804 132.192,152.138 129.5,154.5C 126.368,149.734 123.368,144.901 120.5,140C 121.741,138.269 122.741,136.436 123.5,134.5 Z" />
  </g>
  <g>
    <path style="opacity:1" fill="#d5c3bb"
      d="M 135.5,138.5 C 142.337,138.632 149.337,138.466 156.5,138C 153.278,140.888 149.778,143.388 146,145.5C 142.346,143.337 138.846,141.004 135.5,138.5 Z" />
  </g>
  <g>
    <path style="opacity:1" fill="#bdc4cc"
      d="M 96.5,75.5 C 97.5,75.5 98.5,75.5 99.5,75.5C 99.5,82.5 99.5,89.5 99.5,96.5C 97.2776,96.822 95.4443,96.1554 94,94.5C 93.1553,92.3885 92.322,90.3885 91.5,88.5C 90.3728,82.9141 92.0395,78.5808 96.5,75.5 Z" />
  </g>
  <g>
    <path style="opacity:1" fill="#c6d2d6"
      d="M 225.5,231.5 C 225.067,234.195 223.734,236.362 221.5,238C 211.667,245.833 201.833,253.667 192,261.5C 190.248,259.649 188.748,257.649 187.5,255.5C 188.117,253.771 189.117,252.271 190.5,251C 198.5,246.333 206.5,241.667 214.5,237C 215.252,236.329 215.586,235.496 215.5,234.5C 218.84,234.396 222.173,233.396 225.5,231.5 Z" />
  </g>
  <g>
    <path style="opacity:1" fill="#7aacb6"
      d="M 175.5,248.5 C 177.193,251.184 178.86,253.851 180.5,256.5C 180.715,258.179 180.048,259.179 178.5,259.5C 177.488,258.128 176.488,256.795 175.5,255.5C 173.844,252.861 172.178,250.195 170.5,247.5C 170.833,246.5 171.5,245.833 172.5,245.5C 173.288,246.77 174.288,247.77 175.5,248.5 Z" />
  </g>
  <g>
    <path style="opacity:1" fill="#438a9a"
      d="M 180.5,256.5 C 182.934,259.171 185.267,262.004 187.5,265C 186.407,266.365 185.074,266.699 183.5,266C 181.461,264.074 179.794,261.907 178.5,259.5C 180.048,259.179 180.715,258.179 180.5,256.5 Z" />
  </g>
  <g>
    <path style="opacity:1" fill="#081328"
      d="M 97.5,256.5 C 100.271,256.421 102.937,256.921 105.5,258C 109.203,259.851 112.87,261.685 116.5,263.5C 120.213,261.96 123.547,259.793 126.5,257C 130.367,256.692 131.367,258.359 129.5,262C 125.419,265.578 120.752,268.078 115.5,269.5C 110.653,266.494 105.487,264.161 100,262.5C 96.0078,263.413 92.5078,265.246 89.5,268C 86.594,269.318 83.594,269.652 80.5,269C 76.7216,266.888 73.2216,264.388 70,261.5C 69.51,260.207 69.3433,258.873 69.5,257.5C 71.1992,257.34 72.8659,257.506 74.5,258C 77.1879,260.694 80.3545,262.527 84,263.5C 88.7686,261.534 93.2686,259.2 97.5,256.5 Z" />
  </g>
  <g>
    <path style="opacity:1" fill="#e6c3a9"
      d="M 172.5,260.5 C 173.028,261.721 173.695,262.887 174.5,264C 169.167,268.667 163.833,273.333 158.5,278C 155.076,277.639 151.742,276.639 148.5,275C 146.508,274.426 145.008,273.259 144,271.5C 142.723,267.903 142.39,264.236 143,260.5C 145.5,258 148,255.5 150.5,253C 156.519,253.134 162.519,253.8 168.5,255C 169.697,257.015 171.03,258.849 172.5,260.5 Z" />
  </g>
  <g>
    <path style="opacity:1" fill="#ffffff"
      d="M 151.5,255.5 C 155.555,255.176 159.555,255.509 163.5,256.5C 165.652,265.868 161.819,270.868 152,271.5C 150.395,270.899 149.062,269.899 148,268.5C 147.713,266.109 147.213,263.776 146.5,261.5C 148.19,259.481 149.856,257.481 151.5,255.5 Z" />
  </g>
  <g>
    <path style="opacity:1" fill="#ccd8de"
      d="M 234.5,242.5 C 231.206,259.878 221.206,271.711 204.5,278C 196.745,280.083 189.078,282.417 181.5,285C 177.443,288.355 173.11,291.188 168.5,293.5C 159.472,295.867 151.972,293.533 146,286.5C 145.211,284.288 145.378,282.288 146.5,280.5C 150.383,283.447 154.716,284.614 159.5,284C 166.061,278.594 172.728,273.428 179.5,268.5C 179.953,269.458 180.619,270.292 181.5,271C 184.167,271.667 186.833,271.667 189.5,271C 200.878,261.287 212.545,251.953 224.5,243C 227.817,242.502 231.15,242.335 234.5,242.5 Z" />
  </g>
</svg>
