<svg xmlns="http://www.w3.org/2000/svg" class="slack {{include.class}}" height="20.001" viewBox="0 0 20.031 489.756" width="20.031"><path d="M41.265.005c-1.195.037-2.352.392-3.54.526-1.443.144-2.834.385-4.256.67-1.915.407-3.746.97-5.595 1.625-.034.012-.062.036-.096.048-1.91.66-3.74 1.374-5.548 2.296-.012.006-.035-.006-.047 0-1.219.633-2.333 1.406-3.492 2.152-.018.012-.029.036-.048.048-2.05 1.313-4.058 2.629-5.882 4.304-1.02.931-1.839 2.074-2.774 3.109-1.545 1.728-3.166 3.33-4.448 5.356-.113.176-.272.302-.382.479-.007.01.007.037 0 .048A44.111 44.111 0 0 0 .374 31.187c-.004.015.004.034 0 .048-.859 2.834-1.466 5.397-1.722 8.035-.504 5.206.327 10.854 2.822 19.8.047.169.047.258.096.43.016.059.03.085.047.144 1.078 3.811 2.638 8.682 4.352 13.917.229.697.334 1.09.574 1.817l.048.144c.118.357.166.544.287.909.477 1.434.408 1.48.861 2.87 3.576 11.041 6.587 21.222 6.17 21.616-1.605 1.516-89.184 29.689-90.248 29.03-.586-.361-4.453-11.003-8.56-23.625-8.027-24.654-10.313-29.206-18.414-36.73-17.312-16.082-44.294-15.488-61.121 1.339-9.252 9.252-13.77 21.37-12.674 33.908.363 4.165 3.299 14.913 8.083 29.556 5.794 17.734 7.244 23.256 6.313 24.105-.664.606-11.801 4.514-24.726 8.704-16.701 5.42-25.01 8.626-28.648 11.096-18.495 12.53-24.542 36.647-14.252 56.817 2.969 5.81 11.965 14.944 17.887 18.174 6.555 3.568 17.994 5.945 24.487 5.07 2.759-.373 15.83-4.246 29.03-8.562 18.509-6.053 24.224-7.535 25.06-6.6 1.14 1.272 29.492 87.295 29.461 89.387-.01.687-9.619 4.293-22.287 8.37-12.237 3.937-24.46 8.294-27.165 9.66-1.196.605-2.123 1.695-3.252 2.44-.416.265-1.246.588-1.626.86-.479.343-.784.792-1.243 1.148-1.155.844-2.427 1.782-3.396 2.726a42.184 42.184 0 0 0-1.913 2.057c-.42.482-.875.911-1.291 1.434-1.752 2.074-3.064 4.352-4.352 6.648-.434.773-.95 1.452-1.34 2.248-.307.637-.73 1.216-1.004 1.865l-.048.048c-.674 1.55-.956 3.329-1.434 4.974-.213.731-.641 1.83-.766 2.63-.04.182-.104.343-.143.526a42.147 42.147 0 0 0-.813 4.4c-.29 2.62-.292 5.214-.096 7.796.078 1.048-.218 2.127-.048 3.157.115.692.478 1.279.622 1.96.129.651.368 1.27.526 1.913.063.375.253.89.335 1.244.602 2.175 1.325 4.304 2.248 6.36a44.826 44.826 0 0 0 1.626 3.253c.534.974 1.069 1.937 1.674 2.87.363.566.804 1.074 1.195 1.626 1.005 1.408 2.042 2.776 3.205 4.065.706.775 1.441 1.476 2.2 2.2.114.11.22.226.335.335.44.413.83.845 1.29 1.243 2.308 2.014 4.794 3.84 7.51 5.357.412.229.87.357 1.29.573l.192.096c.212.108.36.277.574.383.688.339.997.347 1.578.621 1.01.45 1.96 1.013 3.013 1.387.455.162.902.152 1.34.287.71.199 1.935.51 2.725.622.05.009.095.039.144.048.898.23 1.663.73 2.583.909 4.68.904 9.66.315 16.93-1.435.686-.135 1.949-.337 2.726-.526 3.348-.815 9.656-2.853 15.974-4.879 1.394-.444 1.571-.412 3.109-.908 12.784-4.126 23.874-7.243 24.678-6.935.87.335 4.31 9.346 8.513 22.335 3.878 11.989 8.347 24.09 9.947 26.878 5.77 10.049 15.923 17.816 27.213 20.852 23.425 6.299 48.384-8.566 54.474-32.426 2.528-9.902 1.48-15.97-7.126-41.991-4.179-12.634-7.313-23.426-6.983-23.96.296-.48 17.504-6.172 32.092-11.049 23.754-7.666 44.467-14.498 51.365-16.308 1.052-.274 6.888-2.252 6.982-2.2h.048c.545.378 3.945 9.913 7.605 21.282 5.807 18.045 8.47 25.162 12.243 30.56 1.257 1.8 2.594 3.408 4.256 5.166h.048c9.883 10.45 22.886 14.358 35.296 13.152a46.294 46.294 0 0 0 12.1-2.87c15.482-5.968 27.72-20.184 27.835-39.264.044-7.335-.608-9.953-7.653-31.47-3.026-9.244-4.858-15.166-5.834-18.891-.78-2.976-.67-3.805-.479-4.543.048-.187-.242-1.06-.143-1.148.686-.614 11.143-4.353 23.243-8.274 10.098-3.272 17.68-6.283 22.144-8.322.023-.01.696-.23.717-.239.032-.015 1.072-.369 1.1-.383.04-.02.056-.075.096-.095.322-.162 1.842-.637 2.057-.766.044-.026.39-.118.43-.143 7.192-4.57 12.305-10.757 15.783-17.6.2-.383.692-.828.86-1.196.342-.746.416-1.657.718-2.439a43.883 43.883 0 0 0 2.487-8.752c.172-.978.367-1.845.478-2.822a43.88 43.88 0 0 0-.143-10.713c-.042-.265.048-.6 0-.86-.012-.067-.035-.125-.048-.192-1.354-8.46-5.38-16.42-11.766-23.052-.174-.181-.348-.347-.526-.526-1.442-1.448-2.708-3.019-4.4-4.304-5.196-3.948-10.143-5.828-15.734-6.935-.886-.23-1.626-.73-2.535-.909-3.674-.722-6.973-.797-10.857-.382-.222.02-.603-.075-.813-.048-.064.008-.64.18-.717.191-.744.11-1.716.32-2.535.479-4.783.502-9.836 1.71-24.534 6.647-11.973 4.021-22.536 7.158-23.435 6.983-.758-.151-3.992-8.773-10.14-26.735-.87-2.565-1.658-4.884-2.677-7.939-1.885-5.576-6.274-19.03-8.705-26.352-4.949-15.598-9.03-29.161-8.417-29.652.612-.491 10.964-4.08 23.004-7.987 13.237-4.294 23.837-8.345 26.783-10.235 6.616-4.245 12.477-11.085 16.213-18.89 2.923-6.11 3.156-7.222 3.156-18.031 0-10.792-.202-11.883-3.109-17.983-6.283-13.187-18.442-22.45-32.808-25.06-8.431-1.533-13.489-.568-37.4 7.173-11.716 3.794-22.061 6.887-23.004 6.887-1.35 0-3.383-5.06-9.565-23.77-.281-.849-.354-.916-.622-1.72-.016-.048-.032-.05-.048-.097-.08-.235-.111-.29-.191-.526-3.573-10.698-6.304-18.391-8.705-23.243-.007-.014.007-.034 0-.048-.317-.639-.687-.999-1.004-1.578l-.048-.096c-.175-.32-.671-1.946-.813-2.152-.419-.608-.997-.951-1.435-1.53a42.645 42.645 0 0 0-5.835-6.696c-.009-.009.01-.04 0-.048-.313-.293-.685-.436-1.004-.717-1.02-.867-2.132-1.492-3.204-2.248-2.408-1.756-4.851-3.327-7.461-4.496-.758-.334-1.525-.572-2.296-.86-2.978-1.128-5.993-1.967-9.087-2.392C47.623.556 46.82.507 46 .435c-1.586-.125-3.15-.48-4.735-.43zm0 184.895c.252-.003 4.567 12.864 7.03 19.752 6.29 18.228 11.58 34.065 16.93 50.934 1.874 6.284 5.977 19.055 5.883 19.465-.06.137-.193.244-.287.383-.436.609-6.007 2.652-11.19 4.543-17.394 6.097-73.225 24.09-77.574 24.822-.9-.097-2.004-1.07-2.487-2.343-4.187-11.014-28.09-85.887-27.835-87.187.245-1.248 11.412-5.297 44.335-16.022 24.2-7.883 44.525-14.34 45.195-14.347z"/></svg>