<svg width="32" height="32" viewBox="0 0 32 32" fill="none" xmlns="http://www.w3.org/2000/svg">
<path d="M15.8003 31.6007C24.5266 31.6007 31.6007 24.5266 31.6007 15.8003C31.6007 7.07405 24.5266 0 15.8003 0C7.07405 0 0 7.07405 0 15.8003C0 24.5266 7.07405 31.6007 15.8003 31.6007Z" fill="black"/>
<path fill-rule="evenodd" clip-rule="evenodd" d="M20.2458 17.7818L21.4347 18.471L22.6236 19.1602C22.8993 19.3153 23.0888 19.6254 23.0716 19.9528V22.6924C23.0716 23.0198 22.8993 23.3127 22.6236 23.485L21.4347 24.1743L20.2458 24.8635C19.9701 25.0358 19.6255 25.0358 19.3325 24.8635L18.1436 24.1743L16.9547 23.485C16.6791 23.33 16.4895 23.0198 16.5068 22.6924V20.1079L10.9585 16.903L12.0441 18.5227L10.6829 19.3153C10.4072 19.4876 10.0626 19.4876 9.76964 19.3153L8.58074 18.6261L7.39184 17.9368C7.11615 17.7818 6.94385 17.4888 6.94385 17.1615V14.4046C6.94385 14.0772 7.11615 13.7843 7.39184 13.612L8.58074 12.9228L9.76964 12.2336C10.0453 12.0612 10.3899 12.0612 10.6829 12.2336L11.8718 12.9228L12.9228 13.5258L16.5068 11.4582V8.89084C16.5068 8.56346 16.6791 8.27055 16.9547 8.09824L18.1436 7.40902L19.3325 6.7198C19.6082 6.5475 19.9528 6.5475 20.2458 6.7198L21.4347 7.40902L22.6236 8.09824C22.8993 8.25332 23.0888 8.56346 23.0716 8.89084V11.6305C23.0716 11.9579 22.8993 12.2508 22.6236 12.4231L21.4347 13.1123L20.2458 13.8015C19.9701 13.9738 19.6255 13.9738 19.3325 13.8015L18.1436 13.1123L18.0747 13.0778L19.3325 11.2342L17.1098 12.5265L13.5259 14.5941V17.0236L17.1098 19.0913L18.1609 18.4882L19.3498 17.799C19.6082 17.6095 19.9701 17.6267 20.2458 17.7818Z" fill="white"/>
</svg>
