<svg xmlns="http://www.w3.org/2000/svg" width="1642.666846805142" height="1847" clip-rule="evenodd" fill-rule="evenodd" image-rendering="optimizeQuality" shape-rendering="geometricPrecision" text-rendering="geometricPrecision" style=""><rect id="backgroundrect" width="100%" height="100%" x="0" y="0" fill="none" stroke="none" class="selected" style=""/><defs id="defs9"><style id="style2"><![CDATA[
    .fil0 {fill:#444548}
    .fil1 {fill:#FEFEFE}
    .fil2 {fill:url(#id0)}
   ]]></style><linearGradient id="id0" gradientUnits="userSpaceOnUse" x1="1933.5" y1="3405.56005859375" x2="311.2130126953125" y2="3405.56005859375"><stop offset="0" id="stop4" stop-color="#4BBBC4"/><stop offset="1" id="stop6" stop-color="#67C4AB"/></linearGradient><linearGradient id="id0-3" x1="1.0003086419753087" y1="0.4997618720399188" x2="-0.0011030785831404322" y2="0.4997618720399188"><stop offset="0" id="stop4-6" stop-color="#4BBBC4"/><stop offset="1" id="stop6-7" stop-color="#67C4AB"/></linearGradient></defs><g class="currentLayer" style=""><title>Layer 1</title><path id="path30-7" d="M1336 1124.75l119 69 119 69c29 17 46 46 46 79v276c0 34-17 62-46 79l-119 69-119 69c-29 17-62 17-91 0l-119-69-119-69c-29-17-46-46-46-79v-259c-178-103-379-219-558-322l109 162-137 79c-29 17-62 17-91 0l-119-69-119-69c-29-17-46-46-46-79v-276c0-34 17-62 46-79l119-69 119-69c29-17 62-17 91 0l119 69 105 61 362-209v-259c0-34 17-62 46-79l119-69 119-69c29-17 62-17 91 0l119 69 119 69c29 17 46 46 46 79v276c0 34-17 62-46 79l-119 69-119 69c-29 17-62 17-91 0l-119-69-7-4 126-186-224 129-362 209v244l362 209 105-61 119-69c29-17 62-17 91 0z" class="fil2" fill="url(#id0-3)"/></g></svg>