<svg xmlns="http://www.w3.org/2000/svg" width="592.857" height="177.348" viewBox="0 0 6176.0002 1847.5001" id="svg34" clip-rule="evenodd" fill-rule="evenodd" image-rendering="optimizeQuality" shape-rendering="geometricPrecision" text-rendering="geometricPrecision"><defs id="defs9"><style id="style2"><![CDATA[
    .fil0 {fill:#444548}
    .fil1 {fill:#FEFEFE}
    .fil2 {fill:url(#id0)}
   ]]></style><linearGradient id="id0" gradientUnits="userSpaceOnUse" x1="1933.5" y1="3405.56" x2="311.213" y2="3405.56"><stop offset="0" id="stop4" stop-color="#4BBBC4"/><stop offset="1" id="stop6" stop-color="#67C4AB"/></linearGradient><linearGradient gradientTransform="translate(-313 -2482.25)" id="id0-3" gradientUnits="userSpaceOnUse" x1="1933.5" y1="3405.56" x2="311.213" y2="3405.56"><stop offset="0" id="stop4-6" stop-color="#4BBBC4"/><stop offset="1" id="stop6-7" stop-color="#67C4AB"/></linearGradient></defs><path id="path14-5" d="M2710 964.75v-80c0-162-81-261-249-261-25 0-61 2-100 7v-184c0-11-9-21-21-21h-96c-11 0-21 9-21 21v724c0 16 4 22 28 28 64 17 142 27 209 27 167 0 249-99 249-261zm-137 0c0 85-22 149-111 149-37 0-80-3-100-7v-363c29-4 75-7 100-7 89 0 111 63 111 149v80z" class="fil1" fill="#fefefe"/><path id="path16-3" d="M3304 966.75v-84c0-149-85-259-249-259-163 0-249 110-249 259v84c0 149 85 259 249 259 163 0 249-110 249-259zm-137 0c0 85-38 140-111 140s-111-55-111-140v-84c0-85 38-140 111-140s111 55 111 140z" class="fil1" fill="#fefefe"/><path id="path18-5" d="M3749 1199.75v-66c0-10-8-16-22-16h-55c-37 0-41-6-41-58v-327h94c11 0 21-9 21-21v-61c0-11-9-21-21-21h-94v-107c0-10-7-16-17-16h-4l-97 17c-11 2-21 9-21 21v85h-98c-11 0-21 9-21 21v47c0 11 9 19 21 21l98 15v327c0 139 48 165 165 165 23 0 46-3 71-7 14-2 20-8 20-19z" class="fil1" fill="#fefefe"/><path id="path20-6" d="M4285 969.75v-75c0-156-72-257-227-257-63 0-136 10-191 24-19 4-22 10-22 24v715c0 11 8 20 19 20h53c11 0 20-9 20-20v-188c41 7 89 11 122 11 152 0 227-92 227-255zm-92 0c0 111-33 178-135 178-33 0-87-4-122-10v-412c29-5 78-10 122-10 103 0 135 71 135 180v75z" class="fil1" fill="#fefefe"/><path id="path22-2" d="M4665 698.75v-43c0-12-7-19-22-19-47 0-95 14-147 50v-22c0-11-8-21-20-21h-49c-11 0-20 9-20 21v530c0 11 9 21 20 21h51c11 0 21-10 21-21v-436c52-31 96-44 144-44 15 0 22-6 22-18z" class="fil1" fill="#fefefe"/><path id="path24-9" d="M5205 937.75v-56c0-148-77-243-229-243-149 0-231 95-231 243v94c0 193 116 250 236 250 70 0 127-6 186-18 17-3 21-10 21-24v-35c0-10-8-15-17-15h-5c-48 7-125 11-185 11-96 0-145-46-145-169v-15h348c12 0 20-9 20-23zm-93-47h-276v-9c0-112 50-163 139-163 92 0 136 46 136 163v9z" class="fil1" fill="#fefefe"/><path id="path26-1" d="M5691 1073.75c0-61-28-106-114-157l-103-61c-48-28-72-48-72-79 0-53 38-60 97-60 58 0 125 5 161 8h3c10 0 18-5 18-18v-34c0-11-6-19-20-21-49-8-104-14-162-14-107 0-188 30-188 138 0 66 43 110 106 149l105 62c59 35 78 55 78 86 0 56-35 74-103 74-37 0-113-5-163-11h-4c-10 0-19 6-19 16v36c0 11 8 18 22 21 51 12 126 16 164 16 116 0 194-45 194-151z" class="fil1" fill="#fefefe"/><path id="path28-2" d="M6176 1073.75c0-61-28-106-114-157l-103-61c-48-28-72-48-72-79 0-53 38-60 97-60 58 0 125 5 161 8h3c10 0 18-5 18-18v-34c0-11-6-19-20-21-49-8-104-14-162-14-107 0-188 30-188 138 0 66 43 110 106 149l105 62c59 35 78 55 78 86 0 56-35 74-103 74-37 0-113-5-163-11h-4c-10 0-19 6-19 16v36c0 11 8 18 22 21 51 12 126 16 164 16 116 0 194-45 194-151z" class="fil1" fill="#fefefe"/><path id="path30-7" d="M1336 1124.75l119 69 119 69c29 17 46 46 46 79v276c0 34-17 62-46 79l-119 69-119 69c-29 17-62 17-91 0l-119-69-119-69c-29-17-46-46-46-79v-259c-178-103-379-219-558-322l109 162-137 79c-29 17-62 17-91 0l-119-69-119-69c-29-17-46-46-46-79v-276c0-34 17-62 46-79l119-69 119-69c29-17 62-17 91 0l119 69 105 61 362-209v-259c0-34 17-62 46-79l119-69 119-69c29-17 62-17 91 0l119 69 119 69c29 17 46 46 46 79v276c0 34-17 62-46 79l-119 69-119 69c-29 17-62 17-91 0l-119-69-7-4 126-186-224 129-362 209v244l362 209 105-61 119-69c29-17 62-17 91 0z" class="fil2" fill="url(#id0-3)"/></svg>