<svg id="Layer_1" data-name="Layer 1" xmlns="http://www.w3.org/2000/svg" viewBox="0 0 447.69 132.98"><title>botpress</title><path d="M160.86,87.67V34.73H169v17a27.15,27.15,0,0,1,9.29-2.25c10.18,0,14.52,5,14.52,19,0,15.57-4.87,20.06-18.27,20.06C171.72,88.56,165.05,88,160.86,87.67ZM184.52,68.5c0-8.46-2.17-11.68-7.19-11.68A31.94,31.94,0,0,0,169,58.24V80.93c1.8.15,4.42.3,5.54.3C182.87,81.23,184.52,77.56,184.52,68.5Z"/><path d="M200.69,68.8c0-12.13,4.19-19.32,16.7-19.32s16.69,7.19,16.69,19.32c0,12.43-3.81,19.76-16.69,19.76S200.69,81.23,200.69,68.8Zm25.08,0c0-8.61-1.79-12.36-8.38-12.36S209,60.19,209,68.8s1.5,12.8,8.39,12.8S225.77,77.48,225.77,68.8Z"/><path d="M245.24,74.64V57.27h-4.8v-7h4.8V39.45h8.16V50.3h10.26v7H253.4V73.74c0,5.62.15,7.56,4,7.56,1.5,0,4.34-.15,6.14-.3l.38,6.59a47.54,47.54,0,0,1-7.64,1C247.86,88.56,245.24,85.42,245.24,74.64Z"/><path d="M278.25,50.3h5.62V53A23.88,23.88,0,0,1,295,49.56c9.44,0,13.56,5.76,13.56,19,0,14.75-4.72,19.92-16.33,19.92a51.46,51.46,0,0,1-8.38-.82v16.69h-5.62Zm24.56,18.27c0-10.25-3.14-14-8.61-14a23.88,23.88,0,0,0-10.33,3V82.8a61.69,61.69,0,0,0,8.08.75C300.12,83.55,302.81,79.36,302.81,68.57Z"/><path d="M319.2,50.3h5.62v5.1a40.65,40.65,0,0,1,13.63-5.92v5.69a55.23,55.23,0,0,0-13.63,5.09V87.74H319.2Z"/><path d="M344.21,69.25c0-14.23,6.14-19.69,15.65-19.69,10,0,15.12,5.24,15.12,17.52l-.37,4.26H349.9c.08,8,2.47,12.13,9.88,12.13,4.05,0,10.19-.37,13.71-.67l.15,4.49a121.44,121.44,0,0,1-14.6,1.2C347.88,88.49,344.21,82,344.21,69.25Zm25.08-2.4c0-9.28-2.84-12.58-9.43-12.58-6.36,0-10,3.52-10,12.58Z"/><path d="M383.67,87.07,384,82.2a120.69,120.69,0,0,0,12.36,1.27c6.14,0,9.36-1.42,9.36-6.44,0-3.89-1.95-4.86-10-6.06-8.46-1.35-12.5-3-12.5-10.48,0-8.24,6.66-10.93,13.48-10.93A92.7,92.7,0,0,1,410.17,51L410,55.84a112.84,112.84,0,0,0-13.1-1.19c-4.64,0-8.09,1.19-8.09,5.69,0,3.44,1.72,4.41,9.66,5.76,9.36,1.57,12.88,3.45,12.88,10.71,0,8.76-5.54,11.68-14.53,11.68A99.4,99.4,0,0,1,383.67,87.07Z"/><path d="M420,87.07l.3-4.87a120.52,120.52,0,0,0,12.35,1.27c6.14,0,9.36-1.42,9.36-6.44,0-3.89-1.95-4.86-10-6.06-8.46-1.35-12.51-3-12.51-10.48,0-8.24,6.67-10.93,13.48-10.93A92.7,92.7,0,0,1,446.48,51l-.15,4.86a112.84,112.84,0,0,0-13.1-1.19c-4.64,0-8.09,1.19-8.09,5.69,0,3.44,1.73,4.41,9.66,5.76,9.36,1.57,12.88,3.45,12.88,10.71,0,8.76-5.54,11.68-14.53,11.68A99.58,99.58,0,0,1,420,87.07Z"/><path d="M96.32,81l8.6,5,8.6,5a6.42,6.42,0,0,1,3.28,5.7v19.85a6.42,6.42,0,0,1-3.28,5.7l-8.6,5-8.6,5a6.42,6.42,0,0,1-6.58,0l-8.59-5-8.6-5a6.43,6.43,0,0,1-3.29-5.7V97.78L29.1,74.6l7.83,11.7L27.06,92a6.42,6.42,0,0,1-6.58,0l-8.59-5-8.6-5A6.43,6.43,0,0,1,0,76.37V56.52a6.43,6.43,0,0,1,3.29-5.7l8.6-5,8.59-5a6.46,6.46,0,0,1,6.58,0l8.6,5,7.57,4.37,26-15V16.53a6.43,6.43,0,0,1,3.29-5.7l8.6-5,8.59-5a6.42,6.42,0,0,1,6.58,0l8.6,5,8.6,5a6.42,6.42,0,0,1,3.28,5.7V36.38a6.42,6.42,0,0,1-3.28,5.7l-8.6,5-8.6,5a6.46,6.46,0,0,1-6.58,0l-8.59-5-.52-.3L89.7,33.36,73.58,42.67l-26,15V75.28l26,15,7.57-4.37,8.59-5A6.42,6.42,0,0,1,96.32,81Z" style="fill-rule:evenodd"/></svg>