<svg id="Calque_1" data-name="Calque 1" xmlns="http://www.w3.org/2000/svg" viewBox="0 0 183.34 183.34"><path d="M91.67,0a91.67,91.67,0,1,0,91.67,91.67A91.67,91.67,0,0,0,91.67,0Zm42.2,131.72a5.16,5.16,0,0,1-2.62,4.57l-6.89,4-6.89,4a5.14,5.14,0,0,1-5.27,0l-6.88-4-6.89-4a5.14,5.14,0,0,1-2.63-4.57v-15L63.63,98.13l6.28,9.37L62,112.06a5.14,5.14,0,0,1-5.27,0l-6.88-4-6.89-4a5.14,5.14,0,0,1-2.63-4.51V83.65A5.14,5.14,0,0,1,43,79.08l6.89-4,6.88-4a5.18,5.18,0,0,1,5.27,0l6.89,4L75,78.58l20.82-12V51.62a5.18,5.18,0,0,1,2.64-4.57l6.89-4,6.88-4a5.14,5.14,0,0,1,5.27,0l6.88,4,6.89,4a5.15,5.15,0,0,1,2.63,4.57v15.9a5.14,5.14,0,0,1-2.63,4.56l-6.89,4-6.88,4a5.18,5.18,0,0,1-5.27,0l-6.88-4-.42-.24,7.29-10.74L99.26,72.55l-20.82,12v14.1l20.82,12,6.06-3.5,6.88-4a5.14,5.14,0,0,1,5.27.07l6.89,4,6.89,4a5.15,5.15,0,0,1,2.62,4.57Z"/></svg>