<svg width="2500" height="2500" viewBox="0 0 2500 2500" fill="none" xmlns="http://www.w3.org/2000/svg">
<g clip-path="url(#clip0_353_7)">
<path d="M1542 904.429C1542 549.443 1254.22 261.665 899.232 261.665C544.247 261.665 256.469 549.443 256.469 904.429C256.469 1205.86 464.004 1458.8 743.967 1528.27V1100.86H611.429V904.429H743.967V819.79C743.967 601.019 842.978 499.616 1057.76 499.616C1098.49 499.616 1168.76 507.612 1197.5 515.582V693.628C1182.33 692.034 1155.98 691.237 1123.25 691.237C1017.86 691.237 977.135 731.165 977.135 834.959V904.429H1187.09L1151.02 1100.86H977.135V1542.49C1295.41 1504.05 1542.02 1233.06 1542.02 904.429H1542Z" fill="url(#paint0_linear_353_7)"/>
<path d="M1150.99 1100.86L1187.06 904.429H977.11V834.959C977.11 731.165 1017.84 691.237 1123.22 691.237C1155.95 691.237 1182.31 692.034 1197.47 693.628V515.582C1168.73 507.586 1098.46 499.616 1057.74 499.616C842.952 499.616 743.941 601.019 743.941 819.79V904.429H611.403V1100.86H743.941V1528.27C793.665 1540.61 845.677 1547.19 899.207 1547.19C925.56 1547.19 951.553 1545.57 977.084 1542.49V1100.86H1150.96H1150.99Z" fill="white"/>
</g>
<g opacity="0.6" filter="url(#filter0_f_353_7)">
<path d="M2194.82 1556.37C2194.82 1914.62 1914.13 2179.85 1552.05 2179.85C1487.03 2179.85 1424.63 2171.26 1365.99 2155.14C1354.6 2151.98 1342.49 2152.88 1331.66 2157.63L1204.09 2213.97C1170.71 2228.7 1133.05 2204.97 1131.94 2168.51L1128.45 2054.15C1128.01 2040.06 1121.68 2026.9 1111.17 2017.51C986.086 1905.67 909.289 1743.77 909.289 1556.37C909.289 1198.12 1189.97 932.887 1552.05 932.887C1914.13 932.887 2194.82 1198.12 2194.82 1556.37Z" fill="url(#paint1_linear_353_7)"/>
</g>
<path d="M2243.53 1576.25C2243.53 1934.5 1962.85 2199.73 1600.77 2199.73C1535.75 2199.73 1473.35 2191.15 1414.7 2175.03C1403.31 2171.86 1391.2 2172.76 1380.38 2177.52L1252.8 2233.85C1219.43 2248.58 1181.76 2224.85 1180.66 2188.4L1177.16 2074.03C1176.72 2059.95 1170.4 2046.78 1159.88 2037.4C1034.8 1925.56 958.004 1763.66 958.004 1576.25C958.004 1218 1238.69 952.772 1600.77 952.772C1962.85 952.772 2243.53 1218 2243.53 1576.25Z" fill="url(#paint2_linear_353_7)"/>
<path d="M1775.28 1755.73L1999.07 1409.88C2021.56 1375.12 1979.89 1334.65 1945.79 1358.18L1712.19 1519.3C1704.32 1524.73 1693.94 1524.88 1685.91 1519.69L1478.56 1385.53C1461 1374.17 1437.58 1379.21 1426.24 1396.74L1202.43 1742.6C1179.94 1777.36 1221.61 1817.82 1255.7 1794.3L1489.36 1633.15C1497.23 1627.72 1507.61 1627.57 1515.64 1632.76L1722.94 1766.89C1740.5 1778.26 1763.92 1773.22 1775.28 1755.68V1755.73Z" fill="white"/>
<defs>
<filter id="filter0_f_353_7" x="829.289" y="852.887" width="1445.53" height="1445.56" filterUnits="userSpaceOnUse" color-interpolation-filters="sRGB">
<feFlood flood-opacity="0" result="BackgroundImageFix"/>
<feBlend mode="normal" in="SourceGraphic" in2="BackgroundImageFix" result="shape"/>
<feGaussianBlur stdDeviation="40" result="effect1_foregroundBlur_353_7"/>
</filter>
<linearGradient id="paint0_linear_353_7" x1="341.185" y1="261.665" x2="1905.9" y2="1956.69" gradientUnits="userSpaceOnUse">
<stop offset="0.272963" stop-color="#0866FF"/>
<stop offset="0.662809" stop-color="#003995"/>
<stop offset="0.95798" stop-color="#003995"/>
</linearGradient>
<linearGradient id="paint1_linear_353_7" x1="1552.05" y1="932.887" x2="2084.58" y2="2679.58" gradientUnits="userSpaceOnUse">
<stop offset="0.15693" stop-color="#00307F"/>
<stop offset="1" stop-color="#004CC8"/>
</linearGradient>
<linearGradient id="paint2_linear_353_7" x1="1600.77" y1="952.772" x2="2133.29" y2="2699.47" gradientUnits="userSpaceOnUse">
<stop offset="0.15693" stop-color="#307FFF"/>
<stop offset="1" stop-color="#004CC8"/>
</linearGradient>
<clipPath id="clip0_353_7">
<rect width="1285.53" height="1285.53" fill="white" transform="translate(256.469 261.665)"/>
</clipPath>
</defs>
</svg>
