<svg width="100" height="100" viewBox="0 0 100 100" fill="none" xmlns="http://www.w3.org/2000/svg">
<g clip-path="url(#clip0_353_7)">
<path d="M62.0798 35.7038C62.0798 21.0181 50.1745 9.1128 35.4889 9.1128C20.8032 9.1128 8.89789 21.0181 8.89789 35.7038C8.89789 48.1739 17.4836 58.638 29.0656 61.5119V43.83H23.5825V35.7038H29.0656V32.2023C29.0656 23.1518 33.1616 18.9568 42.0473 18.9568C43.7321 18.9568 46.639 19.2876 47.8281 19.6173V26.983C47.2006 26.9171 46.1104 26.8841 44.7564 26.8841C40.3965 26.8841 38.7117 28.5359 38.7117 32.8298V35.7038H47.3974L45.9051 43.83H38.7117V62.1001C51.8785 60.51 62.0809 49.2992 62.0809 35.7038H62.0798Z" fill="url(#paint0_linear_353_7)"/>
<path d="M45.904 43.83L47.3963 35.7038H38.7106V32.8298C38.7106 28.5359 40.3954 26.8841 44.7553 26.8841C46.1093 26.8841 47.1995 26.9171 47.8271 26.983V19.6173C46.6379 19.2865 43.731 18.9568 42.0462 18.9568C33.1606 18.9568 29.0645 23.1518 29.0645 32.2023V35.7038H23.5814V43.83H29.0645V61.5119C31.1216 62.0225 33.2733 62.2948 35.4878 62.2948C36.578 62.2948 37.6534 62.2278 38.7096 62.1001V43.83H45.903H45.904Z" fill="white"/>
</g>
<g opacity="0.6" filter="url(#filter0_f_353_7)">
<path d="M89.2523 63.419C89.2523 78.2398 77.6405 89.2123 62.6613 89.2123C59.9713 89.2123 57.3899 88.857 54.9637 88.1901C54.4925 88.0593 53.9916 88.0965 53.5438 88.2933L48.266 90.6237C46.8854 91.2332 45.3271 90.2515 45.2814 88.7432L45.1368 84.0121C45.1187 83.4293 44.857 82.8847 44.422 82.4965C39.2474 77.8696 36.0703 71.1719 36.0703 63.419C36.0703 48.5983 47.682 37.6258 62.6613 37.6258C77.6405 37.6258 89.2523 48.5983 89.2523 63.419Z" fill="url(#paint1_linear_353_7)"/>
<path d="M69.881 70.8441L79.1388 56.5362C80.0694 55.0982 78.3453 53.424 76.9349 54.3972L67.2708 61.063C66.9453 61.2874 66.5156 61.2938 66.1838 61.0789L57.6056 55.5289C56.8792 55.0588 55.9102 55.2673 55.4412 55.9927L46.1823 70.3006C45.2516 71.7386 46.9758 73.4128 48.3861 72.4395L58.0524 65.7727C58.3778 65.5483 58.8075 65.5419 59.1394 65.7568L67.7154 71.3057C68.4419 71.7758 69.4108 71.5674 69.881 70.842V70.8441Z" fill="white"/>
</g>
<path d="M91.1021 63.497C91.1021 78.3178 79.4904 89.2903 64.5111 89.2903C61.8212 89.2903 59.2398 88.935 56.8136 88.2681C56.3424 88.1373 55.8414 88.1745 55.3936 88.3713L50.1159 90.7017C48.7352 91.3112 47.177 90.3295 47.1313 88.8212L46.9866 84.0901C46.9685 83.5073 46.7069 82.9627 46.2719 82.5745C41.0973 77.9476 37.9202 71.2499 37.9202 63.497C37.9202 48.6763 49.5319 37.7038 64.5111 37.7038C79.4904 37.7038 91.1021 48.6763 91.1021 63.497Z" fill="url(#paint2_linear_353_7)"/>
<path d="M71.7308 70.9221L80.9886 56.6142C81.9193 55.1762 80.1952 53.502 78.7848 54.4752L69.1207 61.141C68.7952 61.3654 68.3655 61.3718 68.0337 61.1569L59.4555 55.6069C58.729 55.1368 57.7601 55.3453 57.291 56.0707L48.0322 70.3786C47.1015 71.8166 48.8256 73.4908 50.236 72.5175L59.9022 65.8507C60.2277 65.6263 60.6574 65.6199 60.9893 65.8348L69.5653 71.3837C70.2917 71.8538 71.2607 71.6454 71.7308 70.92V70.9221Z" fill="white"/>
<defs>
<filter id="filter0_f_353_7" x="32.0703" y="33.6258" width="61.182" height="61.1834" filterUnits="userSpaceOnUse" color-interpolation-filters="sRGB">
<feFlood flood-opacity="0" result="BackgroundImageFix"/>
<feBlend mode="normal" in="SourceGraphic" in2="BackgroundImageFix" result="shape"/>
<feGaussianBlur stdDeviation="2" result="effect1_foregroundBlur_353_7"/>
</filter>
<linearGradient id="paint0_linear_353_7" x1="12.4026" y1="9.1128" x2="77.1346" y2="79.2355" gradientUnits="userSpaceOnUse">
<stop offset="0.272963" stop-color="#0866FF"/>
<stop offset="0.662809" stop-color="#003995"/>
<stop offset="0.95798" stop-color="#003995"/>
</linearGradient>
<linearGradient id="paint1_linear_353_7" x1="62.6613" y1="37.6258" x2="84.6917" y2="109.886" gradientUnits="userSpaceOnUse">
<stop offset="0.15693" stop-color="#00307F"/>
<stop offset="1" stop-color="#004CC8"/>
</linearGradient>
<linearGradient id="paint2_linear_353_7" x1="64.5111" y1="37.7038" x2="86.5416" y2="109.964" gradientUnits="userSpaceOnUse">
<stop offset="0.15693" stop-color="#307FFF"/>
<stop offset="1" stop-color="#004CC8"/>
</linearGradient>
<clipPath id="clip0_353_7">
<rect width="53.182" height="53.182" fill="white" transform="translate(8.89789 9.1128)"/>
</clipPath>
</defs>
</svg>
