<?xml version="1.0" encoding="UTF-8"?>
<svg version="1.1" xmlns="http://www.w3.org/2000/svg" width="512" height="512">
<path d="M0 0 C168.96 0 337.92 0 512 0 C512 168.96 512 337.92 512 512 C343.04 512 174.08 512 0 512 C0 343.04 0 174.08 0 0 Z " fill="#017737" transform="translate(0,0)"/>
<path d="M0 0 C21.72807829 18.96457071 32.879152 47.04163124 37 75 C37.18433594 76.02480469 37.36867188 77.04960937 37.55859375 78.10546875 C39.33060289 93.73992106 38.83293806 110.52528053 36 126 C35.8870459 126.68078613 35.7740918 127.36157227 35.65771484 128.06298828 C30.42119741 159.06849912 13.21406034 186.05706134 -12.0625 204.625 C-31.51744906 217.69520954 -53.83149153 223.43714577 -77.0625 223.375 C-77.79133392 223.37478851 -78.52016785 223.37457703 -79.27108765 223.37435913 C-102.5710834 223.3068915 -124.6134998 217.68374964 -142.37890625 201.67578125 C-144 200 -144 200 -147 196 C-147.33 235.93 -147.66 275.86 -148 317 C-171.1 317 -194.2 317 -218 317 C-218.33 224.93 -218.66 132.86 -219 38 C-232.86 37.505 -232.86 37.505 -247 37 C-247 17.53 -247 -1.94 -247 -22 C-231.21941179 -22.16043524 -231.21941179 -22.16043524 -224.43164062 -22.1953125 C-219.82118035 -22.21911548 -215.21104136 -22.24710587 -210.60083008 -22.30175781 C-206.87901123 -22.34559623 -203.15753746 -22.369216 -199.43548012 -22.37950897 C-198.02385345 -22.38683294 -196.61224313 -22.40113267 -195.20076561 -22.42292023 C-183.92052921 -22.5899299 -173.83676943 -21.20276119 -164.84375 -13.88671875 C-158.59679578 -7.49417873 -154.91195119 0.66205281 -152 9 C-151.43152344 8.35933594 -150.86304688 7.71867187 -150.27734375 7.05859375 C-147.86679676 4.35829821 -145.43467814 1.67853928 -143 -1 C-142.43925781 -1.64066406 -141.87851563 -2.28132813 -141.30078125 -2.94140625 C-131.48948165 -13.59296829 -116.70005904 -19.96609373 -103 -24 C-102.34515625 -24.19464844 -101.6903125 -24.38929687 -101.015625 -24.58984375 C-66.13494179 -34.14715095 -26.97821996 -22.94409361 0 0 Z " fill="#FDFEFE" transform="translate(356,111)"/>
<path d="M0 0 C14.31347847 10.37377511 24.10985266 24.75413623 27 42.4140625 C29.2795926 63.60920796 28.11197651 84.91075688 15.3984375 102.73828125 C14.93824219 103.39828125 14.47804688 104.05828125 14.00390625 104.73828125 C5.73713186 115.41123493 -8.60626433 123.10466714 -21.828125 125.265625 C-37.98422275 127.2893184 -51.56389112 124.73051183 -64.6015625 114.73828125 C-77.97460199 103.82240186 -85.03676203 87.40360999 -87.28515625 70.55078125 C-89.04563932 49.33804701 -87.39058438 28.03723597 -73.6015625 10.73828125 C-68.06250675 4.34706307 -62.20570011 -0.53331149 -54.6015625 -4.26171875 C-53.76753906 -4.67550781 -52.93351562 -5.08929688 -52.07421875 -5.515625 C-35.65070551 -12.2782481 -14.67342675 -9.56859382 0 0 Z " fill="#017737" transform="translate(294.6015625,151.26171875)"/>
</svg>
