<svg xmlns="http://www.w3.org/2000/svg" xmlns:xlink="http://www.w3.org/1999/xlink" width="1040" height="667.88"><rect width="1040" height="667.88" rx="5" ry="5" class="a"/><svg y="0%" x="0%"><circle cx="20" cy="20" r="6" fill="#ff5f58"/><circle cx="40" cy="20" r="6" fill="#ffbd2e"/><circle cx="60" cy="20" r="6" fill="#18c132"/></svg><svg height="607.88" viewBox="0 0 100 60.788" width="1000" x="15" xmlns="http://www.w3.org/2000/svg" xmlns:xlink="http://www.w3.org/1999/xlink" y="50"><style>@keyframes q{0%{transform:translateX(0)}8.9%{transform:translateX(-100px)}39.3%{transform:translateX(-500px)}to{transform:translateX(-600px)}}.a{fill:#282d35}.f,.g,.h{fill:#b9c0cb;white-space:pre}.g,.h{fill:#b9bfca;font-weight:700}.h{fill:#dbab79}.i{fill:#b9bfca}.i,.m,.n{white-space:pre}.m{fill:#66c2cd;font-weight:700}.n{fill:#6f7783}</style><g font-family="Monaco,Consolas,Menlo,'Bitstream Vera Sans Mono','Powerline Symbols',monospace" font-size="1.67"><defs><symbol id="1"><text y="1.67" class="f">Launching</text><text x="10.02" y="1.67" class="f">10_chat_components</text></symbol><symbol id="2"><text y="1.67" class="f">╔═══════════════════════════════════════════════════════════╗</text></symbol><symbol id="3"><text y="1.67" class="f">║</text><text x="14.028" y="1.67" class="g">✈️</text><text x="18.036" y="1.67" class="g">FLIGHT</text><text x="25.05" y="1.67" class="g">TICKET</text><text x="60.12" y="1.67" class="f">║</text></symbol><symbol id="4"><text y="1.67" class="f">╠═══════════════════════════════════════════════════════════╣</text></symbol><symbol id="5"><text y="1.67" class="f">║</text><text x="1.002" y="1.67" class="h">Ticket</text><text x="8.016" y="1.67" class="h">Number:</text><text x="16.032" y="1.67" class="i">TICKET-345633</text><text x="60.12" y="1.67" class="f">║</text></symbol><symbol id="6"><text y="1.67" class="f">║</text><text x="60.12" y="1.67" class="f">║</text></symbol><symbol id="7"><text y="1.67" class="f">║</text><text x="1.002" y="1.67" style="white-space:pre" fill="#a8cc8c" font-weight="700">From:</text><text x="7.014" y="1.67" class="i">New</text><text x="11.022" y="1.67" class="i">York</text><text x="60.12" y="1.67" class="f">║</text></symbol><symbol id="8"><text y="1.67" class="f">║</text><text x="1.002" y="1.67" style="white-space:pre" fill="#e88388" font-weight="700">To:</text><text x="5.01" y="1.67" class="i">Los</text><text x="9.018" y="1.67" class="i">Angeles</text><text x="60.12" y="1.67" class="f">║</text></symbol><symbol id="9"><text y="1.67" class="f">║</text><text x="1.002" y="1.67" style="white-space:pre" fill="#d290e4" font-weight="700">Date:</text><text x="7.014" y="1.67" class="i">2031-10-01</text><text x="60.12" y="1.67" class="f">║</text></symbol><symbol id="10"><text y="1.67" class="f">║</text><text x="1.002" y="1.67" class="m">Price:</text><text x="8.016" y="1.67" class="i">$299.99</text><text x="60.12" y="1.67" class="f">║</text></symbol><symbol id="11"><text y="1.67" class="f">║</text><text x="10.02" y="1.67" class="n">Have</text><text x="15.03" y="1.67" class="n">a</text><text x="17.034" y="1.67" class="n">safe</text><text x="22.044" y="1.67" class="n">flight!</text><text x="30.06" y="1.67" class="n">🛫</text><text x="60.12" y="1.67" class="f">║</text></symbol><symbol id="12"><text y="1.67" class="f">╚═══════════════════════════════════════════════════════════╝</text></symbol><symbol id="13"><text y="1.67" class="f">Here&apos;s</text><text x="7.014" y="1.67" class="f">the</text><text x="11.022" y="1.67" class="f">code</text><text x="16.032" y="1.67" class="f">generated</text><text x="26.052" y="1.67" class="f">by</text><text x="29.058" y="1.67" class="f">the</text><text x="33.066" y="1.67" class="f">LLMz</text><text x="38.076" y="1.67" class="f">to</text><text x="41.082" y="1.67" class="f">print</text><text x="47.094" y="1.67" class="f">the</text><text x="51.102" y="1.67" class="f">ticket:</text></symbol><symbol id="14"><text y="1.67" class="f">chat.planeTicket({</text><text x="19.038" y="1.67" class="f">ticketNumber:</text><text x="33.066" y="1.67" class="f">purchase.ticketNumber,</text><text x="56.112" y="1.67" class="f">from:</text><text x="62.124" y="1.67" class="f">&quot;New</text><text x="67.134" y="1.67" class="f">York&quot;,</text><text x="74.148" y="1.67" class="f">to:</text><text x="78.156" y="1.67" class="f">&quot;Los</text><text x="83.166" y="1.67" class="f">Angeles&quot;,</text><text x="93.186" y="1.67" class="f">date:</text><text x="99.198" y="1.67" class="f">&quot;</text></symbol><symbol id="15"><text y="1.67" class="f">2031-10-01&quot;,</text><text x="13.026" y="1.67" class="f">price:</text><text x="20.04" y="1.67" class="f">purchase.price</text><text x="35.07" y="1.67" class="f">});</text><text x="39.078" y="1.67" class="f">return</text><text x="46.092" y="1.67" class="f">exit(&quot;listen&quot;);</text></symbol><symbol id="a"><path fill="transparent" d="M0 0h100v28H0z"/></symbol><symbol id="b"><path fill="#6f7683" d="M0 0h1.102v2.171H0z"/></symbol></defs><path class="a" d="M0 0h100v60.788H0z"/><g style="animation-duration:6.588502999999999s;animation-iteration-count:infinite;animation-name:q;animation-timing-function:steps(1,end)"><svg width="700"><svg><use xlink:href="#a"/><use xlink:href="#b" x="-.004"/></svg><svg x="100"><use xlink:href="#a"/><use xlink:href="#b" x="-.004" y="2.146"/><use xlink:href="#1"/></svg><svg x="200"><use xlink:href="#a"/><use xlink:href="#b" x="14.996" y="21.685"/><use xlink:href="#1"/><use xlink:href="#2" y="2.171"/><use xlink:href="#3" y="4.342"/><use xlink:href="#4" y="6.513"/><use xlink:href="#5" y="8.684"/><use xlink:href="#6" y="10.855"/><use xlink:href="#7" y="13.026"/><use xlink:href="#8" y="15.197"/><use xlink:href="#6" y="17.368"/><use xlink:href="#9" y="19.539"/><text y="23.38" class="f">║</text><text x="1.002" y="23.38" class="m">Price:</text><text x="8.016" y="23.38" class="i">$299.99</text></svg><svg x="300"><use xlink:href="#a"/><use xlink:href="#b" x="-.004" y="30.369"/><use xlink:href="#1"/><use xlink:href="#2" y="2.171"/><use xlink:href="#3" y="4.342"/><use xlink:href="#4" y="6.513"/><use xlink:href="#5" y="8.684"/><use xlink:href="#6" y="10.855"/><use xlink:href="#7" y="13.026"/><use xlink:href="#8" y="15.197"/><use xlink:href="#6" y="17.368"/><use xlink:href="#9" y="19.539"/><use xlink:href="#10" y="21.71"/><use xlink:href="#6" y="23.881"/><use xlink:href="#11" y="26.052"/><use xlink:href="#12" y="28.223"/></svg><svg x="400"><use xlink:href="#a"/><use xlink:href="#b" x="-.004" y="32.54"/><use xlink:href="#1"/><use xlink:href="#2" y="2.171"/><use xlink:href="#3" y="4.342"/><use xlink:href="#4" y="6.513"/><use xlink:href="#5" y="8.684"/><use xlink:href="#6" y="10.855"/><use xlink:href="#7" y="13.026"/><use xlink:href="#8" y="15.197"/><use xlink:href="#6" y="17.368"/><use xlink:href="#9" y="19.539"/><use xlink:href="#10" y="21.71"/><use xlink:href="#6" y="23.881"/><use xlink:href="#11" y="26.052"/><use xlink:href="#12" y="28.223"/><use xlink:href="#13" y="30.394"/></svg><svg x="500"><use xlink:href="#a"/><use xlink:href="#b" x="-.004" y="36.882"/><use xlink:href="#1"/><use xlink:href="#2" y="2.171"/><use xlink:href="#3" y="4.342"/><use xlink:href="#4" y="6.513"/><use xlink:href="#5" y="8.684"/><use xlink:href="#6" y="10.855"/><use xlink:href="#7" y="13.026"/><use xlink:href="#8" y="15.197"/><use xlink:href="#6" y="17.368"/><use xlink:href="#9" y="19.539"/><use xlink:href="#10" y="21.71"/><use xlink:href="#6" y="23.881"/><use xlink:href="#11" y="26.052"/><use xlink:href="#12" y="28.223"/><use xlink:href="#13" y="30.394"/><use xlink:href="#14" y="32.565"/><use xlink:href="#15" y="34.736"/></svg><svg x="600"><use xlink:href="#a"/><use xlink:href="#b" x="-.004" y="36.882"/><use xlink:href="#1"/><use xlink:href="#2" y="2.171"/><use xlink:href="#3" y="4.342"/><use xlink:href="#4" y="6.513"/><use xlink:href="#5" y="8.684"/><use xlink:href="#6" y="10.855"/><use xlink:href="#7" y="13.026"/><use xlink:href="#8" y="15.197"/><use xlink:href="#6" y="17.368"/><use xlink:href="#9" y="19.539"/><use xlink:href="#10" y="21.71"/><use xlink:href="#6" y="23.881"/><use xlink:href="#11" y="26.052"/><use xlink:href="#12" y="28.223"/><use xlink:href="#13" y="30.394"/><use xlink:href="#14" y="32.565"/><use xlink:href="#15" y="34.736"/></svg></svg></g></g></svg></svg>