<svg width="112" height="112" viewBox="0 0 112 112" fill="none" xmlns="http://www.w3.org/2000/svg">
<g clip-path="url(#clip0_1_2899)">
<path d="M15.5582 65.817C9.82115 65.817 5.5 61.2763 5.5 55.6704C5.5 50.0459 9.6005 45.4678 15.5582 45.4678C18.7209 45.4678 20.909 46.4395 22.6191 48.6631L19.8609 50.9615C18.7025 49.7282 17.305 49.1116 15.5582 49.1116C11.6783 49.1116 9.54533 52.0827 9.54533 55.6704C9.54533 59.2582 11.8806 62.1732 15.5582 62.1732C17.2866 62.1732 18.7577 61.5566 19.9161 60.3233L22.6375 62.7151C21.001 64.8453 18.7577 65.817 15.5582 65.817Z" fill="#292929"/>
<path d="M34.5161 50.886H38.2304V65.4612H34.5161V63.331C33.7438 64.8446 32.4566 65.8536 29.9927 65.8536C26.0577 65.8536 22.9133 62.4341 22.9133 58.2297C22.9133 54.0253 26.0577 50.6057 29.9927 50.6057C32.4383 50.6057 33.7438 51.6148 34.5161 53.1283V50.886ZM34.6264 58.2297C34.6264 55.95 33.0634 54.0627 30.5995 54.0627C28.2274 54.0627 26.6828 55.9686 26.6828 58.2297C26.6828 60.4346 28.2274 62.3967 30.5995 62.3967C33.0451 62.3967 34.6264 60.4907 34.6264 58.2297Z" fill="#292929"/>
<path d="M40.8599 45H44.5742V65.4427H40.8599V45Z" fill="#292929"/>
<path d="M46.2291 63.5182C46.2291 62.3223 47.1853 61.3132 48.4908 61.3132C49.7964 61.3132 50.7158 62.3223 50.7158 63.5182C50.7158 64.7515 49.778 65.7605 48.4908 65.7605C47.2037 65.7605 46.2291 64.7515 46.2291 63.5182Z" fill="#292929"/>
<path d="M64.9296 63.1068C63.5505 64.7885 61.4543 65.8536 58.9719 65.8536C54.5404 65.8536 51.2858 62.4341 51.2858 58.2297C51.2858 54.0253 54.5404 50.6057 58.9719 50.6057C61.3623 50.6057 63.4402 51.6148 64.8193 53.2031L61.9508 55.6136C61.2336 54.7167 60.2958 54.044 58.9719 54.044C56.5999 54.044 55.0553 55.95 55.0553 58.211C55.0553 60.472 56.5999 62.378 58.9719 62.378C60.4062 62.378 61.3991 61.6306 62.1346 60.6215L64.9296 63.1068Z" fill="#292929"/>
<path d="M65.2422 58.2297C65.2422 54.0253 68.4968 50.6057 72.9283 50.6057C77.3598 50.6057 80.6144 54.0253 80.6144 58.2297C80.6144 62.4341 77.3598 65.8536 72.9283 65.8536C68.4968 65.8349 65.2422 62.4341 65.2422 58.2297ZM76.8449 58.2297C76.8449 55.95 75.3003 54.0627 72.9283 54.0627C70.5563 54.044 69.0117 55.95 69.0117 58.2297C69.0117 60.4907 70.5563 62.3967 72.9283 62.3967C75.3003 62.3967 76.8449 60.4907 76.8449 58.2297Z" fill="#292929"/>
<path d="M105.732 56.5482V65.4428H102.018V57.4638C102.018 54.9412 100.841 53.8574 99.076 53.8574C97.421 53.8574 96.2442 54.6796 96.2442 57.4638V65.4428H92.5299V57.4638C92.5299 54.9412 91.3346 53.8574 89.5878 53.8574C87.9329 53.8574 86.4802 54.6796 86.4802 57.4638V65.4428H82.7659V50.8676H86.4802V52.8857C87.2525 51.3161 88.65 50.5312 90.8014 50.5312C92.8425 50.5312 94.5525 51.5403 95.4903 53.2407C96.4281 51.5029 97.8072 50.5312 100.308 50.5312C103.36 50.5499 105.732 52.867 105.732 56.5482Z" fill="#292929"/>
</g>
<defs>
<clipPath id="clip0_1_2899">
<rect width="101" height="22" fill="white" transform="translate(5.5 45)"/>
</clipPath>
</defs>
</svg>

