<svg version="1.1" id="Layer_1" xmlns="http://www.w3.org/2000/svg" xmlns:xlink="http://www.w3.org/1999/xlink" x="0px" y="0px"
	 width="100%" viewBox="0 0 697 696" enable-background="new 0 0 697 696" xml:space="preserve">
<path fill="#FFFFFF" opacity="1.000000" stroke="none" 
	d="
M0.999994,686.000000 
	C1.000000,457.736389 1.000000,229.472809 1.000000,1.000000 
	C230.026810,1.000000 459.053680,1.000000 688.461914,1.328607 
	C602.528809,88.475990 516.214355,175.294754 430.012817,262.000000 
	C442.323700,262.000000 455.405487,262.136108 468.483307,261.966248 
	C485.620880,261.743683 502.313080,264.193787 518.381287,270.154816 
	C534.152283,276.005554 548.052612,285.109833 558.454651,298.252594 
	C572.096680,315.488922 578.950867,335.104126 576.132080,357.681946 
	C574.146484,373.585754 567.780029,387.171814 557.408264,399.039124 
	C548.910706,408.761993 538.837341,416.479858 527.147095,422.143005 
	C525.595093,422.894897 524.241333,425.676666 524.246033,427.514679 
	C524.249817,429.015106 526.112305,431.226471 527.676392,431.897797 
	C545.410767,439.509125 558.828491,451.913757 567.878723,468.755402 
	C577.798340,487.214966 580.396545,506.988251 577.059143,527.697144 
	C573.678711,548.673035 564.665955,566.318665 548.345215,580.243469 
	C530.616943,595.369324 509.608246,602.494934 487.008057,602.749512 
	C423.366821,603.466675 359.712311,603.000793 296.063019,602.999023 
	C289.336884,602.998779 289.001251,602.662964 289.001068,595.934814 
	C288.999298,533.118652 289.000000,470.302460 289.000000,407.486298 
	C289.000000,405.735626 289.000000,403.984985 289.000000,401.094727 
	C287.080750,402.723328 285.955139,403.555847 284.971069,404.531219 
	C245.487656,443.665863 205.934189,482.730377 166.564911,521.979614 
	C112.875587,575.505249 59.333279,629.178406 5.688192,682.748474 
	C4.363798,684.070984 2.573167,684.926575 0.999994,686.000000 
M472.254639,327.792725 
	C467.370056,326.861816 462.492065,325.167206 457.599854,325.125275 
	C428.181763,324.872986 398.760437,324.995483 369.340179,325.003998 
	C363.804779,325.005585 362.007294,326.798157 362.004181,332.316742 
	C361.993347,351.597809 362.147034,370.880981 361.872040,390.158112 
	C361.819031,393.873535 363.002106,395.808624 366.085907,397.536774 
	C366.384857,397.635651 366.683807,397.734497 367.911652,397.982452 
	C393.060852,397.988312 418.210449,398.080261 443.359100,397.963806 
	C455.998627,397.905273 469.108215,399.964844 480.103973,391.026215 
	C483.063660,388.620270 486.629578,386.697968 488.912689,383.770325 
	C496.205475,374.418762 497.793091,363.462372 494.821198,352.323212 
	C491.988281,341.704956 485.889679,333.105682 474.805054,328.306824 
	C474.203491,328.260101 473.601959,328.213379 472.254639,327.792725 
M404.500000,540.000000 
	C424.487793,540.000000 444.484344,540.353088 464.459930,539.859314 
	C475.355957,539.589966 485.535645,536.338440 493.489655,528.058228 
	C499.364685,521.942322 501.977051,514.763306 503.261536,506.359528 
	C504.781708,496.413483 502.813751,487.602325 497.795563,479.426300 
	C489.784180,466.373566 476.713409,461.487640 462.461487,461.197571 
	C431.160278,460.560547 399.837189,461.010559 368.523010,460.988434 
	C363.992310,460.985229 361.974121,463.182678 361.982208,467.660980 
	C362.021637,489.480896 361.985809,511.300964 362.009796,533.120911 
	C362.015900,538.696289 363.344604,539.979858 369.021149,539.992432 
	C380.514038,540.017822 392.007050,540.000000 404.500000,540.000000 
z"/>
<path fill="#34313F" opacity="1.000000" stroke="none" 
	d="
M0.999994,686.482971 
	C2.573167,684.926575 4.363798,684.070984 5.688192,682.748474 
	C59.333279,629.178406 112.875587,575.505249 166.564911,521.979614 
	C205.934189,482.730377 245.487656,443.665863 284.971069,404.531219 
	C285.955139,403.555847 287.080750,402.723328 289.000000,401.094727 
	C289.000000,403.984985 289.000000,405.735626 289.000000,407.486298 
	C289.000000,470.302460 288.999298,533.118652 289.001068,595.934814 
	C289.001251,602.662964 289.336884,602.998779 296.063019,602.999023 
	C359.712311,603.000793 423.366821,603.466675 487.008057,602.749512 
	C509.608246,602.494934 530.616943,595.369324 548.345215,580.243469 
	C564.665955,566.318665 573.678711,548.673035 577.059143,527.697144 
	C580.396545,506.988251 577.798340,487.214966 567.878723,468.755402 
	C558.828491,451.913757 545.410767,439.509125 527.676392,431.897797 
	C526.112305,431.226471 524.249817,429.015106 524.246033,427.514679 
	C524.241333,425.676666 525.595093,422.894897 527.147095,422.143005 
	C538.837341,416.479858 548.910706,408.761993 557.408264,399.039124 
	C567.780029,387.171814 574.146484,373.585754 576.132080,357.681946 
	C578.950867,335.104126 572.096680,315.488922 558.454651,298.252594 
	C548.052612,285.109833 534.152283,276.005554 518.381287,270.154816 
	C502.313080,264.193787 485.620880,261.743683 468.483307,261.966248 
	C455.405487,262.136108 442.323700,262.000000 430.012817,262.000000 
	C516.214355,175.294754 602.528809,88.475990 688.921631,1.328607 
	C691.999023,1.000000 694.997986,1.000000 697.997803,1.000000 
	C697.998535,232.922501 697.998535,464.845001 697.998535,696.883789 
	C465.666718,696.883789 233.333359,696.883789 1.000000,696.883789 
	C1.000000,693.630310 1.000000,690.298157 0.999994,686.482971 
z"/>
<path fill="#34313F" opacity="1.000000" stroke="none" 
	d="
M404.000000,540.000000 
	C392.007050,540.000000 380.514038,540.017822 369.021149,539.992432 
	C363.344604,539.979858 362.015900,538.696289 362.009796,533.120911 
	C361.985809,511.300964 362.021637,489.480896 361.982208,467.660980 
	C361.974121,463.182678 363.992310,460.985229 368.523010,460.988434 
	C399.837189,461.010559 431.160278,460.560547 462.461487,461.197571 
	C476.713409,461.487640 489.784180,466.373566 497.795563,479.426300 
	C502.813751,487.602325 504.781708,496.413483 503.261536,506.359528 
	C501.977051,514.763306 499.364685,521.942322 493.489655,528.058228 
	C485.535645,536.338440 475.355957,539.589966 464.459930,539.859314 
	C444.484344,540.353088 424.487793,540.000000 404.000000,540.000000 
z"/>
<path fill="#34313F" opacity="1.000000" stroke="none" 
	d="
M366.166626,397.013763 
	C363.002106,395.808624 361.819031,393.873535 361.872040,390.158112 
	C362.147034,370.880981 361.993347,351.597809 362.004181,332.316742 
	C362.007294,326.798157 363.804779,325.005585 369.340179,325.003998 
	C398.760437,324.995483 428.181763,324.872986 457.599854,325.125275 
	C462.492065,325.167206 467.370056,326.861816 472.669617,328.266235 
	C473.737732,328.788971 474.390900,328.838165 475.044037,328.887390 
	C485.889679,333.105682 491.988281,341.704956 494.821198,352.323212 
	C497.793091,363.462372 496.205475,374.418762 488.912689,383.770325 
	C486.629578,386.697968 483.063660,388.620270 480.103973,391.026215 
	C469.108215,399.964844 455.998627,397.905273 443.359100,397.963806 
	C418.210449,398.080261 393.060852,397.988312 367.355316,397.731567 
	C366.635345,397.261200 366.424561,397.105560 366.166626,397.013763 
z"/>
<path fill="#34313F" opacity="1.000000" stroke="none" 
	d="
M474.924561,328.597107 
	C474.390900,328.838165 473.737732,328.788971 473.042480,328.453186 
	C473.601959,328.213379 474.203491,328.260101 474.924561,328.597107 
z"/>
<path fill="#34313F" opacity="1.000000" stroke="none" 
	d="
M366.126282,397.275269 
	C366.424561,397.105560 366.635345,397.261200 366.890869,397.657043 
	C366.683807,397.734497 366.384857,397.635651 366.126282,397.275269 
z"/>
</svg>