<svg xmlns="http://www.w3.org/2000/svg" width="70" height="65" viewBox="0 0 70 65">
    <path fill="#3276EA" fill-rule="evenodd" d="M44.322.26c.39.003.753.21.967.553l4.312 6.804h7.539c1.93 0 3.495 1.647 3.495 3.678v1.226h3.939c1.554.014 3.026.74 4.032 1.986 1.056 1.253 1.548 2.924 1.351 4.586L65.39 58.694c-.386 3.043-2.85 5.317-5.768 5.321H10.437c-2.933.029-5.428-2.24-5.827-5.296L.043 23.96c-.197-1.662.295-3.332 1.351-4.585 1.016-1.235 2.491-1.947 4.044-1.95h1.596V16.2c0-.677.522-1.226 1.165-1.226.644 0 1.166.55 1.166 1.226v1.226h4.66v-6.13c0-2.031 1.566-3.678 3.496-3.678h29.283l-3.1-4.904H10.53c-.644 0-1.165.549-1.165 1.226v2.452c0 .677-.522 1.226-1.166 1.226-.643 0-1.165-.549-1.165-1.226V3.94C7.034 1.908 8.6.261 10.53.261h33.792zm20.24 14.713h-9.275l-4.311 4.549c-.22.23-.518.357-.828.356H5.45c-.894-.02-1.75.386-2.33 1.103-.605.725-.878 1.693-.746 2.648l4.521 34.759c.24 1.832 1.738 3.192 3.496 3.175h49.197c1.758.017 3.255-1.343 3.495-3.175l4.545-39.602c.148-.973-.121-1.964-.734-2.71-.58-.716-1.436-1.121-2.33-1.103zm-3.927 14.713c.644 0 1.166.549 1.166 1.226 0 .677-.522 1.226-1.166 1.226h-9.322c-.643 0-1.165-.549-1.165-1.226 0-.677.522-1.226 1.165-1.226h9.322zm0-4.904c.644 0 1.166.549 1.166 1.226 0 .677-.522 1.226-1.166 1.226H41.991c-.643 0-1.165-.55-1.165-1.226 0-.677.522-1.226 1.165-1.226h18.644zM57.14 10.069H17.52c-.643 0-1.165.55-1.165 1.226v6.13H49.67l4.312-4.536c.218-.234.516-.366.827-.368h3.496v-1.226c0-.677-.522-1.226-1.165-1.226zm-48.94 0c.643 0 1.165.55 1.165 1.226 0 .677-.522 1.226-1.166 1.226-.643 0-1.165-.549-1.165-1.226 0-.677.522-1.226 1.165-1.226z"/>
</svg>
