<?xml version="1.0" encoding="utf-8"?>
<!-- Generator: Adobe Illustrator 16.0.0, SVG Export Plug-In . SVG Version: 6.00 Build 0)  -->
<!DOCTYPE svg PUBLIC "-//W3C//DTD SVG 1.1//EN" "http://www.w3.org/Graphics/SVG/1.1/DTD/svg11.dtd">
<svg version="1.1" id="Layer_1" xmlns="http://www.w3.org/2000/svg" xmlns:xlink="http://www.w3.org/1999/xlink" x="0px" y="0px"
	 width="161.751px" height="48.528px" viewBox="0 0 161.751 48.528" enable-background="new 0 0 161.751 48.528"
	 xml:space="preserve">
<path fill="#0078CF" d="M32.959,19.047c0.578,0.333,1.523,0.333,2.101,0l6.741-3.793C42.379,14.922,43,14.104,43,13.438v-7.58
	c0-0.667-0.621-1.484-1.199-1.816l-6.667-3.793c-0.578-0.332-1.56-0.332-2.138,0l-6.77,3.793C25.649,4.375,25,5.192,25,5.858v6.938
	l-9.356,5.517l-5.948-3.476c-0.578-0.333-1.476-0.333-2.054,0L1.049,18.63C0.471,18.962,0,19.78,0,20.446v7.58
	c0,0.667,0.495,1.484,1.073,1.816l6.605,3.793c0.578,0.332,1.529,0.332,2.106,0l3.753-2.158l-3.008-4.257L25,35.689v6.981
	c0,0.667,0.627,1.483,1.206,1.816l6.671,3.793c0.578,0.332,1.562,0.332,2.139,0l6.764-3.793C42.357,44.153,43,43.336,43,42.67v-7.58
	c0-0.666-0.624-1.484-1.201-1.816l-6.669-3.793c-0.578-0.332-1.561-0.332-2.139,0L26.79,32.93L17,27.38v-6.263l15.552-8.911
	l-3.18,4.831L32.959,19.047z"/>
<g>
	<path fill="#FFFFFF" d="M71.733,25.235c0,2.17-0.542,3.866-1.627,5.088c-1.085,1.223-2.74,1.834-4.964,1.834
		c-0.883,0-1.812-0.064-2.786-0.193c-0.975-0.128-1.894-0.303-2.758-0.524c-0.312-0.091-0.515-0.188-0.606-0.289
		c-0.092-0.101-0.138-0.253-0.138-0.456V11.501c0-0.147,0.055-0.276,0.166-0.386s0.239-0.166,0.386-0.166h2.538
		c0.146,0,0.275,0.055,0.386,0.166s0.166,0.239,0.166,0.386v4.881c0.515-0.073,1.002-0.124,1.462-0.152
		c0.459-0.027,0.855-0.041,1.186-0.041c2.224,0,3.879,0.611,4.964,1.834s1.627,2.919,1.627,5.088V25.235z M68.092,23.118
		c0-0.566-0.042-1.087-0.124-1.563c-0.083-0.475-0.234-0.887-0.455-1.234c-0.221-0.348-0.524-0.622-0.91-0.823
		c-0.386-0.201-0.874-0.302-1.461-0.302c-0.331,0-0.759,0.019-1.283,0.055c-0.524,0.037-0.979,0.083-1.365,0.138v9.571
		c0.257,0.055,0.639,0.1,1.145,0.137c0.505,0.037,1.007,0.055,1.503,0.055c0.588,0,1.075-0.101,1.461-0.302
		c0.386-0.201,0.689-0.476,0.91-0.823s0.373-0.759,0.455-1.234s0.124-0.997,0.124-1.563V23.118z"/>
	<path fill="#FFFFFF" d="M86.929,25.291c0,0.993-0.143,1.908-0.427,2.744c-0.285,0.837-0.704,1.558-1.255,2.165
		c-0.552,0.607-1.237,1.085-2.055,1.434c-0.818,0.349-1.77,0.524-2.854,0.524s-2.037-0.175-2.854-0.524
		c-0.818-0.349-1.503-0.827-2.055-1.434c-0.551-0.607-0.97-1.328-1.255-2.165c-0.285-0.836-0.427-1.751-0.427-2.744v-2.234
		c0-0.993,0.142-1.907,0.427-2.744c0.285-0.836,0.704-1.558,1.255-2.165c0.552-0.607,1.236-1.084,2.055-1.434
		c0.818-0.349,1.77-0.524,2.854-0.524s2.036,0.175,2.854,0.524c0.818,0.35,1.503,0.827,2.055,1.434
		c0.551,0.607,0.97,1.329,1.255,2.165c0.285,0.837,0.427,1.751,0.427,2.744V25.291z M83.289,23.057c0-1.14-0.248-2.045-0.745-2.717
		c-0.497-0.671-1.232-1.006-2.207-1.006s-1.71,0.335-2.207,1.006c-0.496,0.671-0.745,1.577-0.745,2.717v2.234
		c0,1.14,0.249,2.045,0.745,2.717c0.497,0.671,1.232,1.006,2.207,1.006s1.71-0.335,2.207-1.006s0.745-1.577,0.745-2.717V23.057z"/>
	<path fill="#FFFFFF" d="M97.492,31.965c-0.331,0.055-0.648,0.101-0.952,0.138c-0.303,0.037-0.611,0.055-0.924,0.055
		c-0.77,0-1.433-0.055-1.99-0.166c-0.557-0.11-1.009-0.321-1.355-0.634c-0.347-0.312-0.603-0.758-0.767-1.337
		s-0.246-1.328-0.246-2.248v-8.66l-2.592-0.386c-0.147-0.037-0.276-0.101-0.386-0.193c-0.11-0.092-0.166-0.211-0.166-0.359v-1.241
		c0-0.147,0.055-0.276,0.166-0.386s0.239-0.166,0.386-0.166h2.592v-2.262c0-0.147,0.055-0.266,0.164-0.358
		c0.109-0.092,0.237-0.156,0.383-0.193l2.546-0.441h0.109c0.292,0,0.438,0.138,0.438,0.414v2.841h2.482
		c0.147,0,0.276,0.055,0.386,0.166s0.166,0.239,0.166,0.386v1.627c0,0.147-0.055,0.276-0.166,0.386s-0.239,0.166-0.386,0.166h-2.482
		v8.66c0,0.35,0.009,0.625,0.027,0.828c0.018,0.203,0.064,0.358,0.138,0.469c0.073,0.11,0.179,0.179,0.317,0.207
		c0.138,0.027,0.335,0.042,0.593,0.042h1.461c0.386,0,0.579,0.138,0.579,0.414v1.737C98.016,31.744,97.841,31.91,97.492,31.965z"/>
	<path fill="#FFFFFF" d="M106.813,32.13c-0.855,0-2.151-0.11-3.227-0.303v4.992c0,0.275-0.221,0.524-0.524,0.524h-1.406
		c-0.276,0-0.497-0.221-0.497-0.524V17.844c0-0.358,0.083-0.524,0.579-0.634c1.462-0.358,3.393-0.634,5.075-0.634
		c4.109,0,6.012,2.675,6.012,6.812v1.986C112.826,29.703,110.84,32.13,106.813,32.13z M110.399,23.388
		c0-2.896-0.855-4.771-3.585-4.771c-1.158,0-2.455,0.138-3.227,0.275v10.921c0.91,0.166,2.344,0.276,3.227,0.276
		c2.703,0,3.585-1.765,3.585-4.716V23.388z"/>
	<path fill="#FFFFFF" d="M121.761,18.672c-1.269,0-2.427,0.331-3.806,1.158v11.556c0,0.276-0.248,0.551-0.551,0.551h-1.352
		c-0.276,0-0.524-0.248-0.524-0.551V17.32c0-0.303,0.221-0.552,0.524-0.552h1.296c0.303,0,0.524,0.249,0.524,0.552v0.579
		c1.379-0.965,2.647-1.324,3.889-1.324c0.386,0,0.579,0.166,0.579,0.497v1.131C122.34,18.506,122.147,18.672,121.761,18.672z"/>
	<path fill="#FFFFFF" d="M135.468,25.125h-9.239v0.386c0,3.282,1.296,4.496,3.833,4.496c1.6,0,3.64-0.11,4.909-0.304
		c0.055,0,0.083,0,0.138,0c0.221,0,0.441,0.11,0.441,0.386v0.938c0,0.359-0.11,0.552-0.552,0.635
		c-1.572,0.303-3.089,0.469-4.937,0.469c-3.171,0-6.26-1.489-6.26-6.619v-2.482c0-3.944,2.179-6.454,6.122-6.454
		c4.027,0,6.067,2.537,6.067,6.454v1.489C135.992,24.877,135.799,25.125,135.468,25.125z M133.538,23.029
		c0-3.117-1.186-4.33-3.613-4.33c-2.372,0-3.695,1.352-3.695,4.33v0.248h7.308V23.029z"/>
	<path fill="#FFFFFF" d="M143.742,32.13c-1.021,0-3.006-0.083-4.357-0.414c-0.359-0.083-0.579-0.249-0.579-0.552V30.2
		c0-0.248,0.22-0.414,0.496-0.414c0.055,0,0.083,0,0.11,0c1.324,0.166,3.337,0.303,4.33,0.303c1.792,0,2.73-0.469,2.73-1.958
		c0-0.828-0.496-1.352-2.068-2.289l-2.785-1.655c-1.683-1.021-2.813-2.207-2.813-3.944c0-2.868,2.151-3.668,4.992-3.668
		c1.544,0,3.006,0.138,4.302,0.358c0.358,0.055,0.524,0.249,0.524,0.552v0.91c0,0.331-0.193,0.469-0.469,0.469
		c-0.028,0-0.055,0-0.083,0c-0.965-0.083-2.73-0.221-4.274-0.221c-1.544,0-2.565,0.193-2.565,1.6c0,0.828,0.634,1.352,1.903,2.096
		l2.73,1.627c2.289,1.352,3.034,2.537,3.034,4.165C148.899,30.944,146.831,32.13,143.742,32.13z"/>
	<path fill="#FFFFFF" d="M156.594,32.13c-1.021,0-3.006-0.083-4.357-0.414c-0.359-0.083-0.579-0.249-0.579-0.552V30.2
		c0-0.248,0.22-0.414,0.496-0.414c0.055,0,0.083,0,0.11,0c1.324,0.166,3.337,0.303,4.33,0.303c1.792,0,2.73-0.469,2.73-1.958
		c0-0.828-0.496-1.352-2.068-2.289l-2.786-1.655c-1.683-1.021-2.813-2.207-2.813-3.944c0-2.868,2.151-3.668,4.992-3.668
		c1.544,0,3.006,0.138,4.302,0.358c0.358,0.055,0.524,0.249,0.524,0.552v0.91c0,0.331-0.193,0.469-0.469,0.469
		c-0.028,0-0.055,0-0.083,0c-0.966-0.083-2.73-0.221-4.275-0.221s-2.565,0.193-2.565,1.6c0,0.828,0.634,1.352,1.903,2.096
		l2.73,1.627c2.289,1.352,3.034,2.537,3.034,4.165C161.751,30.944,159.683,32.13,156.594,32.13z"/>
</g>
</svg>
