<svg xmlns="http://www.w3.org/2000/svg" width="120" height="120" viewBox="0 0 120 120" version="1.1"><path d="M 87.183 66.829 C 85.439 68.458, 83.872 71.163, 83.489 73.207 C 83.032 75.643, 83.337 77.750, 84.460 79.923 C 85.360 81.664, 87.538 83.992, 89.299 85.097 C 91.630 86.559, 93.587 86.972, 96.499 86.614 C 99.475 86.249, 101.361 85.182, 103.867 82.448 C 106.922 79.114, 107.186 78.347, 106.716 74.169 C 106.319 70.653, 105.460 68.907, 103.083 66.782 C 100.578 64.545, 99.013 64, 95.090 64 C 91.115 64, 89.650 64.524, 87.183 66.829" stroke="none" fill="#00d647" fill-rule="evenodd"/><path d="M 38.301 32.772 C 37.091 33.723, 30.904 42.792, 24.551 52.926 C 15.023 68.126, 13 72.024, 13 75.191 C 13 78.128, 13.764 79.863, 16.251 82.576 C 18.642 85.186, 20.558 86.253, 23.501 86.614 C 26.385 86.968, 28.367 86.561, 30.609 85.153 C 32.641 83.877, 37.438 77.266, 44.459 66.065 C 50.367 56.640, 55.672 47.681, 56.247 46.156 C 56.823 44.630, 56.988 41.748, 56.613 39.751 C 56.189 37.490, 54.784 35.155, 52.889 33.560 C 50.561 31.601, 48.749 31.005, 45.173 31.022 C 42.290 31.036, 39.658 31.706, 38.301 32.772" stroke="none" fill="#fc3c54" fill-rule="evenodd"/><path d="M 74.301 32.198 C 73.092 32.782, 66.807 41.639, 60.335 51.880 C 49.562 68.925, 48.564 70.909, 48.533 75.332 C 48.504 79.540, 48.919 80.538, 51.742 83.061 C 53.526 84.654, 56.113 86.241, 57.492 86.587 C 58.872 86.934, 61.128 86.934, 62.508 86.587 C 63.887 86.241, 66.307 84.730, 67.886 83.229 C 69.465 81.728, 75.537 72.794, 81.379 63.374 C 90.495 48.676, 92 45.650, 92 42.024 C 92 38.554, 91.394 37.194, 88.600 34.400 C 85.739 31.539, 84.510 31.011, 80.850 31.068 C 78.457 31.105, 75.511 31.613, 74.301 32.198" stroke="none" fill="#fccc04" fill-rule="evenodd"/></svg>