<svg width="128" height="128" viewBox="0 0 128 128" fill="none" xmlns="http://www.w3.org/2000/svg">
<g clip-path="url(#clip0_2_27)">
<path d="M92.1718 92.1718V124.867C92.1718 126.601 90.7726 128 89.0383 128H3.13349C1.39923 128 0 126.601 0 124.867V38.942C0 37.2077 1.39923 35.8085 3.13349 35.8085H35.8085V89.0383C35.8085 90.7726 37.2077 92.1718 38.942 92.1718H92.1718Z" fill="#4C00FF"/>
<path d="M128 46.0761C128 73.5877 111.978 92.1324 92.1718 92.1915V57.5458C92.1718 56.5407 91.7777 55.5948 91.0682 54.8853L73.095 36.9121C72.3855 36.2026 71.4396 35.8085 70.4345 35.8085H35.8085V3.13349C35.8085 1.39923 37.2077 0 38.942 0H87.4223C110.382 0 128 18.5053 128 46.0761Z" fill="#FF5252"/>
<path d="M91.0682 54.8853C91.7777 55.5948 92.1718 56.5407 92.1718 57.5458V92.1915H38.942C37.2077 92.1915 35.8085 90.7923 35.8085 89.0581V35.8085H70.4542C71.4593 35.8085 72.4052 36.2026 73.1147 36.9121L91.0682 54.8853Z" fill="white"/>
</g>
<defs>
<clipPath id="clip0_2_27">
<rect width="128" height="128" fill="white"/>
</clipPath>
</defs>
</svg>
