<svg width="241" height="241" viewBox="0 0 162 162" fill="none" xmlns="http://www.w3.org/2000/svg">
<g clip-path="url(#clip0_2551_519)">
<rect width="162" height="18" fill="#FFD700"/>
<rect y="36" width="162" height="18" fill="#FFAF00"/>
<rect y="72" width="162" height="18" fill="#FF8205"/>
<rect y="108" width="162" height="18" fill="#FA500F"/>
<rect y="144" width="162" height="18" fill="#E92700"/>
<rect y="18" width="162" height="18" fill="#FFAF00"/>
<rect y="54" width="162" height="18" fill="#FF8205"/>
<rect y="90" width="162" height="18" fill="#FF8205"/>
<rect y="126" width="162" height="18" fill="#FA500F"/>
<g clip-path="url(#clip1_2551_519)">
<rect x="36" y="36" width="18" height="18" fill="white"/>
<rect y="108" width="18" height="18" fill="#F1370A"/>
<rect y="126" width="18" height="18" fill="#E91E05"/>
<rect width="18" height="18" fill="#FFD700"/>
<rect y="144" width="18" height="18" fill="#E10500"/>
<rect y="18" width="18" height="18" fill="#FEBC03"/>
<rect x="18" y="126" width="18" height="18" fill="#E91E05"/>
<rect x="18" width="18" height="18" fill="#FFD700"/>
<rect x="18" y="144" width="18" height="18" fill="#E10500"/>
<rect x="18" y="18" width="18" height="18" fill="#FEBC03"/>
<rect x="36" y="126" width="18" height="18" fill="#E91E05"/>
<rect x="36" width="18" height="18" fill="#FFD700"/>
<rect x="36" y="144" width="18" height="18" fill="#E10500"/>
<rect x="36" y="18" width="18" height="18" fill="#FEBC03"/>
<rect x="54" y="126" width="18" height="18" fill="#E91E05"/>
<rect x="54" width="18" height="18" fill="#FFD700"/>
<rect x="54" y="144" width="18" height="18" fill="#E10500"/>
<rect x="54" y="18" width="18" height="18" fill="#FEBC03"/>
<rect x="72" y="126" width="18" height="18" fill="#E91E05"/>
<rect x="72" width="18" height="18" fill="#FFD700"/>
<rect x="72" y="144" width="18" height="18" fill="#E10500"/>
<rect x="72" y="18" width="18" height="18" fill="#FEBC03"/>
<rect x="90" y="126" width="18" height="18" fill="#E91E05"/>
<rect x="90" width="18" height="18" fill="#FFD700"/>
<rect x="90" y="144" width="18" height="18" fill="#E10500"/>
<rect x="90" y="18" width="18" height="18" fill="#FEBC03"/>
<rect x="108" y="126" width="18" height="18" fill="#E91E05"/>
<rect x="108" width="18" height="18" fill="#FFD700"/>
<rect x="108" y="144" width="18" height="18" fill="#E10500"/>
<rect x="108" y="18" width="18" height="18" fill="#FEBC03"/>
<rect x="126" y="126" width="18" height="18" fill="#E91E05"/>
<rect x="126" width="18" height="18" fill="#FFD700"/>
<rect x="126" y="144" width="18" height="18" fill="#E10500"/>
<rect x="126" y="18" width="18" height="18" fill="#FEBC03"/>
<rect x="144" y="126" width="18" height="18" fill="#E91E05"/>
<rect x="144" width="18" height="18" fill="#FFD700"/>
<rect x="144" y="144" width="18" height="18" fill="#E10500"/>
<rect x="144" y="18" width="18" height="18" fill="#FEBC03"/>
<rect y="90" width="18" height="18" fill="#FA500F"/>
<rect x="126" y="90" width="18" height="18" fill="#FA500F"/>
<rect y="72" width="18" height="18" fill="#FB6B0C"/>
<rect x="126" y="72" width="18" height="18" fill="#FB6B0C"/>
<rect y="54" width="18" height="18" fill="#FC8609"/>
<rect x="126" y="54" width="18" height="18" fill="#FC8609"/>
<rect y="36" width="18" height="18" fill="#FDA106"/>
<rect x="126" y="36" width="18" height="18" fill="#FDA106"/>
<rect x="18" y="90" width="18" height="18" fill="#FA500F"/>
<rect x="144" y="90" width="18" height="18" fill="#FA500F"/>
<rect x="144" y="108" width="18" height="18" fill="#F1370A"/>
<rect x="18" y="72" width="18" height="18" fill="#FB6B0C"/>
<rect x="144" y="72" width="18" height="18" fill="#FB6B0C"/>
<rect x="18" y="54" width="18" height="18" fill="#FC8609"/>
<rect x="144" y="54" width="18" height="18" fill="#FC8609"/>
<rect x="18" y="36" width="18" height="18" fill="#FDA106"/>
<rect x="144" y="36" width="18" height="18" fill="#FDA106"/>
<rect x="54" y="90" width="18" height="18" fill="#FA500F"/>
<rect x="72" y="108" width="18" height="18" fill="#F1370A"/>
<rect x="90" y="90" width="18" height="18" fill="#FA500F"/>
<rect x="72" y="54" width="18" height="18" fill="#FC8609"/>
<rect x="54" y="36" width="18" height="18" fill="#FDA106"/>
<rect x="72" y="36" width="18" height="18" fill="#FDA106"/>
<rect x="90" y="36" width="18" height="18" fill="#FDA106"/>
<rect x="108" y="36" width="18" height="18" fill="white"/>
<rect x="72" y="90" width="18" height="18" fill="white"/>
<rect x="36" y="90" width="18" height="18" fill="white"/>
<rect x="108" y="90" width="18" height="18" fill="white"/>
<rect x="36" y="54" width="36" height="18" fill="white"/>
<rect x="18" y="108" width="54" height="18" fill="white"/>
<rect x="90" y="108" width="54" height="18" fill="white"/>
<rect x="36" y="72" width="90" height="18" fill="white"/>
<rect x="90" y="54" width="36" height="18" fill="white"/>
</g>
</g>
<defs>
<clipPath id="clip0_2551_519">
<rect width="162" height="162" fill="white"/>
</clipPath>
<clipPath id="clip1_2551_519">
<rect width="162" height="162" fill="white"/>
</clipPath>
</defs>
</svg>
