<?xml version="1.0" encoding="UTF-8"?>
<svg version="1.1" xmlns="http://www.w3.org/2000/svg" width="225" height="225">
<path d="M0 0 C74.25 0 148.5 0 225 0 C225 74.25 225 148.5 225 225 C150.75 225 76.5 225 0 225 C0 150.75 0 76.5 0 0 Z " fill="#FEFEFE" transform="translate(0,0)"/>
<path d="M0 0 C0.66 0 1.32 0 2 0 C2.2995459 0.69931641 2.5990918 1.39863281 2.90771484 2.11914062 C11.64270455 22.47569213 20.67616418 42.68946082 29.79110718 62.87828064 C34.51999583 73.35879136 39.20927565 83.85801861 43.83105469 94.38623047 C44.60899957 96.12572042 45.41181763 97.85430253 46.23925781 99.57080078 C46.61663086 100.36341309 46.99400391 101.15602539 47.3828125 101.97265625 C47.88772217 102.99951538 47.88772217 102.99951538 48.40283203 104.04711914 C49.15095558 106.49366053 48.90776661 107.62211228 48 110 C46.4405365 111.0879364 46.4405365 111.0879364 44.39038086 111.9284668 C43.61714478 112.25431763 42.84390869 112.58016846 42.04724121 112.91589355 C41.19505005 113.25689087 40.34285889 113.59788818 39.46484375 113.94921875 C38.57567261 114.31930054 37.68650146 114.68938232 36.77038574 115.07067871 C33.83167439 116.29031302 30.8847608 117.48869099 27.9375 118.6875 C25.89589913 119.53069566 23.85497079 120.37552144 21.81469727 121.22192383 C17.61442598 122.96344246 13.41153225 124.69840812 9.20703125 126.4296875 C3.39183572 128.83039827 -2.40218945 131.27824517 -8.1875 133.75 C-9.07070419 134.12727737 -9.95390839 134.50455475 -10.86387634 134.89326477 C-14.23032596 136.33252738 -17.5960474 137.77348518 -20.9614563 139.21517944 C-58.23222944 155.16542963 -58.23222944 155.16542963 -67 155 C-65.07117677 148.8751195 -62.81255673 143.01212376 -60.18359375 137.15625 C-59.81528442 136.32656708 -59.4469751 135.49688416 -59.06750488 134.64205933 C-58.27483078 132.85763384 -57.48029229 131.07403557 -56.68405151 129.29119873 C-54.97308415 125.46010963 -53.27128966 121.62496657 -51.56874084 117.79013062 C-50.68554621 115.80116709 -49.8018646 113.81241974 -48.91770935 111.82388306 C-44.55989349 102.02118853 -40.2446309 92.20004628 -35.9375 82.375 C-34.8290951 79.84770476 -33.72057856 77.32045851 -32.61206055 74.79321289 C-31.87127086 73.10427745 -31.13054809 71.41531265 -30.38989258 69.72631836 C-27.6595391 63.50077807 -24.9243003 57.27739603 -22.1875 51.0546875 C-10.97945474 25.57690335 -10.97945474 25.57690335 0 0 Z " fill="#FF9013" transform="translate(125,58)"/>
<path d="M0 0 C-1.53117843 4.89103784 -3.45932704 9.50786104 -5.53515625 14.18359375 C-5.88537338 14.97850723 -6.23559052 15.77342072 -6.59642029 16.59242249 C-7.35316326 18.30935803 -8.11110376 20.02576617 -8.87011719 21.74169922 C-10.92002574 26.37623857 -12.96116518 31.01464198 -15.00390625 35.65234375 C-15.42310333 36.60333954 -15.84230042 37.55433533 -16.27420044 38.53414917 C-20.0275018 47.05196984 -23.75010995 55.5829632 -27.46368408 64.11816406 C-34.42379674 80.11506826 -41.42320957 96.09445046 -48.44091797 112.06616211 C-49.18067671 113.74983168 -49.9204229 115.43350677 -50.66015625 117.1171875 C-51.02183899 117.94039993 -51.38352173 118.76361237 -51.75616455 119.61177063 C-55.55419713 128.25832937 -59.34094328 136.90981741 -63.125 145.5625 C-63.42949066 146.25874481 -63.73398132 146.95498962 -64.04769897 147.67233276 C-65.69884579 151.44805586 -67.34961342 155.22394452 -69 159 C-71.72342521 156.27657479 -71.65536355 153.56551051 -72.078125 149.8984375 C-72.16991531 149.16691467 -72.26170563 148.43539185 -72.35627747 147.68170166 C-72.55589183 146.08732842 -72.75184329 144.49249339 -72.9446106 142.89727783 C-73.46857919 138.56970666 -74.02132416 134.24583147 -74.57421875 129.921875 C-74.74618019 128.57212082 -74.74618019 128.57212082 -74.9216156 127.19509888 C-76.15076573 117.64846775 -77.59963342 108.13809449 -79.0625 98.625 C-81.54292298 82.44340886 -83.70054586 66.24195628 -85.61450195 49.98388672 C-86.00333214 46.97420813 -86.49708707 43.99239792 -87 41 C-87.77098099 31.67409535 -86.37405191 24.47565279 -80.3125 17.1875 C-72.01623404 8.60772855 -62.35075736 7.66219518 -51 6 C-49.91348145 5.83999512 -48.82696289 5.67999023 -47.70751953 5.51513672 C-40.63712926 4.48061162 -33.56304134 3.47450499 -26.48535156 2.49121094 C-24.05894405 2.14924317 -21.63388867 1.7976001 -19.20996094 1.43847656 C-17.35999512 1.16535645 -17.35999512 1.16535645 -15.47265625 0.88671875 C-14.36027588 0.72002686 -13.24789551 0.55333496 -12.10180664 0.3815918 C-8.02055621 -0.12049356 -4.10577179 -0.14157834 0 0 Z " fill="#97D701" transform="translate(102,23)"/>
<path d="M0 0 C6.33200182 4.96329401 10.08173026 12.23432661 11.22111511 20.1199646 C11.31185806 20.90666534 11.40260101 21.69336609 11.49609375 22.50390625 C11.66574394 23.82063828 11.66574394 23.82063828 11.83882141 25.16397095 C13.57783386 39.60190813 14.4096306 54.15316266 15.37536621 68.65893555 C15.59423017 71.90908986 15.82269608 75.15854013 16.05124187 78.40802574 C16.27399385 81.58917715 16.4915187 84.77066978 16.70746803 87.95228958 C16.80935933 89.44717333 16.91257486 90.94196756 17.01727867 92.43665695 C17.53749342 99.91245253 17.95056124 107.38234375 18.02661133 114.87744141 C18.03872147 116.05279449 18.0508316 117.22814758 18.06330872 118.43911743 C17.75461496 123.2146278 16.51801644 127.70178597 13.8515625 131.71484375 C12.8615625 132.04484375 11.8715625 132.37484375 10.8515625 132.71484375 C-0.24908967 108.25121776 -11.2807362 83.75943644 -22.16162109 59.19726562 C-25.30801125 52.09633515 -28.46464548 44.999954 -31.62002563 37.90301514 C-32.60385082 35.69013104 -33.58749672 33.47716738 -34.57104492 31.26416016 C-34.87991135 30.5693454 -35.18877777 29.87453064 -35.50700378 29.15866089 C-36.11686219 27.78608867 -36.72625568 26.41330977 -37.3351593 25.04031372 C-39.01010641 21.26541911 -40.69628243 17.49592105 -42.39453125 13.73144531 C-42.7654187 12.90597198 -43.13630615 12.08049866 -43.51843262 11.23001099 C-44.23783103 9.62926759 -44.96013402 8.02982564 -45.68566895 6.43185425 C-48.1484375 0.93988653 -48.1484375 0.93988653 -48.1484375 -1.28515625 C-43.98334913 -1.96193811 -39.81615075 -2.62474773 -35.6484375 -3.28515625 C-34.47539062 -3.4759375 -33.30234375 -3.66671875 -32.09375 -3.86328125 C-20.47405278 -5.69109879 -10.52302456 -6.29468196 0 0 Z " fill="#71C5E8" transform="translate(192.1484375,17.28515625)"/>
<path d="M0 0 C0.33 0.66 0.66 1.32 1 2 C3.31 2 5.62 2 8 2 C6 4 6 4 2.375 4.125 C1.26125 4.08375 0.1475 4.0425 -1 4 C-0.67 2.68 -0.34 1.36 0 0 Z " fill="#FF9E34" transform="translate(59,209)"/>
</svg>
