<?xml version="1.0" encoding="UTF-8" standalone="no"?>
<svg id="svg1707" xmlns:rdf="http://www.w3.org/1999/02/22-rdf-syntax-ns#" xmlns="http://www.w3.org/2000/svg" xml:space="preserve" height="600" width="900" version="1.0" xmlns:cc="http://creativecommons.org/ns#" xmlns:dc="http://purl.org/dc/elements/1.1/" viewBox="-2002 0 4004 2004"><metadata id="metadata1863"><rdf:RDF><cc:Work rdf:about=""><dc:format>image/svg+xml</dc:format><dc:type rdf:resource="http://purl.org/dc/dcmitype/StillImage"/></cc:Work></rdf:RDF></metadata><g id="g13237" transform="translate(-2.7257 -5.6087)"><path id="21399192" d="m2004.7 2342.3v-2669.4l-4004 0.04v2669.4h4004z" class="fil0 str0" fill="#006233"/><g id="g13004" transform="matrix(1.1437 0 0 1.1446 -.39167 -145.67)"><g id="g9244" fill-rule="evenodd" transform="matrix(1.7598 0 0 1.6 -2175.2 -3398.1)" stroke="#fff" fill="#fff"><path id="path3159" d="m1071.9 2779.7c-25.9 38.9-7.2 64.2 19.5 66 17.6 1.3 54.2-24.9 54.1-55.7l-10-5.6c5.6 15.8-0.2 20.8-12.1 31.6-23.5 21.3-71.5 22.8-51.5-36.3z" stroke-width=".40080"/><path id="path3115" d="m1277.2 2881.7c145.8 4.1 192.2-137 102.2-257.8l-8.9 13.3c5.8 56.3 14.2 111.8 15 169.5-17.6 20.7-43.2 13-48.3-10 0.3-31.2-9.9-57.6-22.8-82.8l-7.2 13.3c8.4 20.7 17.5 44 19.4 69.5-41.6 49.9-87.6 60-70.5-5.6-32.9 57.5 16.9 98 73.3 9.5 12.1 60.4 58.9 22.9 61.7 9.9 5.1-39.6 2.5-103.4-7.8-153.8 40.6 70.3 42 121 20.4 154.9-24 37.7-76.2 55.3-126.5 70.1z" stroke-width="1px"/><path id="path3117" d="m1359.9 2722.2c-31.2 2.3-47.2-4.1-30.3-27.2 16.7-22.6 32.3-4.6 36.5 25.6 3.9 28.3-54.8 64.4-75.1 64.4-30.7 0-44.9-39.5-16.6-75-36.4 103.6 78.6 43.5 85.5 12.2zm-21.6-24c-3.8-0.2-6.6 6.5-4.7 7.8 5.5 3.8 14.2 1.5 15.1-0.4 1.9-4.2-5.1-7.2-10.4-7.4z" stroke-width="1px"/><path id="path3140" d="m1190.5 2771.1c-30 59-0.1 83.4 38.4 76.6 22.4-4.1 50.8-20 67.2-41.7 0.3-47.8-0.4-95.2-4.6-141.5 15-17.9-1.3-17.8-7-37-2.6 11.2-8.9 23.3-2.8 32 4.3 46.7 6.7 94 6.6 142.2-30.2 24.3-52.9 33.3-69.1 33.1-33.5-0.3-40.7-28.5-28.7-63.7z" stroke-width="1px"/><path id="path3150" d="m1251.8 2786.7c-0.5-44.5-1.2-95-5.2-126.1 15.6-17.3-0.8-17.7-5.9-37.1-3 11-9.6 23-3.8 31.9 2.6 47.6 5.1 95.2 5.6 142.8 3.6-2.3 7.7-3.2 9.3-11.5z" stroke-width="1px"/><path id="path3152" d="m1135.4 2784.6c-3.8-4.8-6.5-10.2-9.6-14.9-0.5-6.7 4-12.9 4.6-16.3 5.1 7.9 8.1 13.9 12.2 17.8m5.4 3.1c7.5 3 16.7 3 25.2 3.2 32.8 0.6 67.3-4.8 63.6 39.6-3.2 39.4-35.9 62.2-65.2 61.9-41.7-0.4-77.3-46.4-13-131.1 6.2-1 14.3 0.7 21 1.3 11.5 0.9 23.3-0.2 36.8-11-1.6-27.9-1.6-54.3-5-79.5-5.8-8.9 0.8-20.8 3.8-31.9 5.1 19.4 21.4 19.8 5.9 37.2 3.7 28 4.1 56.5 4.1 73.5-7.8 11.9-13.9 24.5-36.7 29.3-23.3-3.4-33.8-36-58.1-25.2 6.7-29.4 68.4-36.1 74.6-12.9-4.1 24.2-61.7 14.5-77 92.7-4.7 24.1 20.7 46.3 46.8 44.5 25.5-1.7 52.7-19.4 55.4-49.2 2.1-24.9-33-22-47.7-21.7-21.4 0.5-34.9-2.8-43-7.5m21.9-53.9c3.8-3.6 17.1-6.1 21.9-0.3-3.6 2.4-7.1 5-10 8.1-5-2.6-8.3-5.2-11.9-7.8z" stroke-width=".40080"/><path id="path3161" d="m1194 2650.9c3.6 8 5.1 13.3 5.3 21-2.2 10.4-11.1 20.1-20.3 20.4-5.7 0.2-12.1-1.4-16.6-10.3-0.5-1.1-2.9-3.7-5.2-2.5-10.1 16.6-17.6 23.6-26.7 23.5-18.2-0.3-12.8-16.5-29.6-21.5-7-0.2-18.5 6.9-24.4 20.8-22.4 63.5-42.8-0.2-34.1-29.8 1.3 28.3 8.1 45.1 15.1 44.6 5.1-0.5 9.6-12.3 16.1-24.7 5-9.5 17-26.6 29.7-26.6 11.6 0.3 4.3 21.6 27.5 21.3 11.2-0.2 21.5-8.8 31.9-26 2.3-0.4 2.9 3.7 3.4 5.1 1.6 5.9 11.8 22.1 25.6 7.3-0.7-3.2-0.4-8.5-3.9-9.6l6.2-13z" stroke-width="1px"/><path id="path3163" d="m1266.9 2598.3c-12.3 6.1-21.3 0.5-26.4-4.9 8.9-1.8 15.8-5 17.8-12-4-9-13.5-12.9-26.9-13-17.9 0.5-27.1 7.7-28.2 17.6 8.3 0.3 15.8-2 19 6-14.7 7.2-32 9.8-50.8 9.7-30.8 1.6-35.3-12.3-43.4-24.5-0.6-0.8-3.3-2.1-4.7-1.9-9.5 0-16.5 33.2-27.2 33.1-10.7-1.4-8.3-21.4-11.4-32.8-2.6 17.9 3.3 84.5 36.4 12.2 1-2.4 2.4-1.7 3.3 0.3 8.9 20.2 27 27.2 46.5 28.2 16.3 0.9 37.1-6.2 59.4-18.8 5.9 6.5 10.6 13.9 23 15.3 14.5 0.7 30-9.8 33.5-22.8 1.8-6.7 2.1-19.9-5-20.1-9.9-0.3-17.1 23.7-14.8 45.3 0.2-0.3 1.3-5.4 1.3-5.4m-43.8-28.8c6.5-3 12.8-4.4 17.8 2.2-3.9 1.4-6.3 2.3-8.4 4-2.8-2.2-6.6-3.3-9.4-6.2zm47.8 14.9c1.6-7.1 2.5-12.8 8.3-16.5 1.2 7.5 1.4 11.7-8.3 16.5z" stroke-width=".40080"/><path id="path3169" d="m1311.3 2606.9c-1.9-6.1-3.8-11.4-4.4-18-1.4-13.4 10.1-21 20.5-19.9 10.7 1.1 17.8 5.1 28 8.6 8 2.7 18.8 4.8 29.1 7.7 5.8 2.6 0 9.4-1.5 10.3-25.8 10.1-44.1 26.1-60.5 26.8-9.8 0.5-18.5-5.9-26.4-19-0.5-25.4-1.4-55.2-3.9-73.9 3.8-3.8 4.6-6.6 6.4-9.7 2 24.7 2.8 50.7 3.3 76.9 2.1 4.5 4.7 8.3 9.4 10.2zm16.5 2c-13.8 3.9-12.1-7.8-13.4-15-1.5-8.4-0.5-17.9 10.2-15.5 13.9 3.7 26.6 8.6 38.9 13.8l-35.7 16.7z" stroke-width=".40080"/><path id="path3173" d="m1314.3 2621.3l1.9 9.3h1.5l-0.6-8.7" stroke-width=".40080"/><path id="path5196" stroke-linejoin="round" d="m1094.2 2718.5l7-7.2 8.1 6.9-7.5 6.7-7.6-6.4z" stroke-linecap="round" stroke-width="4.008"/><path id="path6168" stroke-linejoin="round" d="m1112 2716.1l7.1-7.2 8.1 6.9-7.5 6.7-7.7-6.4z" stroke-linecap="round" stroke-width="4.008"/><path id="path6170" stroke-linejoin="round" d="m1062.5 2641.5l7.1-7.2 8.1 6.9-7.5 6.7-7.7-6.4z" stroke-linecap="round" stroke-width="4.008"/><path id="path6172" stroke-linejoin="round" d="m1065.7 2662.7l7.1-7.2 8 6.9-7.5 6.7-7.6-6.4z" stroke-linecap="round" stroke-width="4.008"/><path id="path6174" stroke-linejoin="round" d="m1194.2 2698.2l6.5-5.3 6 6.5-6.8 4.8-5.7-6z" stroke-linecap="round" stroke-width="4.008"/><path id="path6176" stroke-linejoin="round" d="m1108.4 2562.5l4.6-4.7 5.3 4.5-4.9 4.4-5-4.2z" stroke-linecap="round" stroke-width="4.008"/><path id="path6178" stroke-linejoin="round" d="m1120.1 2561l4.6-4.8 5.3 4.6-4.9 4.3-5-4.1z" stroke-linecap="round" stroke-width="4.008"/><path id="path6180" stroke-linejoin="round" d="m1365.7 2614.7l-4.4 3.7-4.2-4.3 4.6-3.4 4 4z" stroke-linecap="round" stroke-width="4.008"/><path id="path9240" d="m1158.7 2747.4l-0.5 7.9 12.6 1.2 10.1-7.6-22.2-1.5z" stroke-width=".40080"/><path id="path9242" d="m1265.2 2599.8l3.7-0.8-0.4 10.3-2.3 0.9-1-10.4z" stroke-width="1px"/></g><path id="path2722" d="m2.7256 1425c249.82 0 453.08-184.8 453.08-411.9 0-124.96-61.32-236.46-157.84-311.83 57.91 61.95 93.11 143.51 93.11 232.3 0 197.23-173.74 357.23-388.35 357.23-214.62 0-388.36-160-388.36-357.23 0-88.79 35.2-170.35 93.11-232.3-96.52 75.37-157.84 186.87-157.84 311.83 0 227.1 203.27 411.9 453.09 411.9z" fill="#fff" class="fil2"/><g id="g2908" transform="matrix(1.1355 0 0 1.0324 2.7256 -21.429)" stroke="#000" stroke-width="8.012" fill="#fff">
   <path id="path2910" d="m-54 1623c-88 44-198 32-291-28-4-2-6 1-2 12 10 29 18 52-12 95-13 19 2 22 24 20 112-11 222-36 275-57l6-42z" class="fil2 str2"/>
   <path id="path2912" d="m-56 1675c-35 14-95 31-162 43-27 4-26 21 22 27 49 5 112-30 150-61l-10-9z" class="fil2 str2"/>
   <path id="path2914" d="m0 1579c12 0 34-5 56-8 41-7 11 56-56 56v21c68 0 139-74 124-107-21-48-79-7-124-7s-103-41-124 7c-15 33 56 107 124 107v-21c-67 0-97-63-56-56 22 3 44 8 56 8z" class="fil2 str2"/>
   <path id="path2916" d="m54 1623c88 44 198 32 291-28 4-2 6 1 2 12-10 29-18 52 12 95 13 19-2 22-24 20-112-11-222-36-275-57l-6-42z" class="fil2 str2"/>
   <path id="path2918" d="m56 1675c35 14 94 31 162 43 27 4 26 21-22 27-49 5-112-30-150-61l10-9z" class="fil2 str2"/>
   <path id="path2920" d="m3 1665c2 17 5 54 28 38 31-21 38-37 38-67 0-19-23-47-69-47s-69 28-69 47c0 30 7 46 38 67 23 16 25-21 28-38 1-6 6-4 6 0z" class="fil2 str2"/>
  </g><g id="g2724" transform="matrix(1.1355 0 0 1.0324 2.7256 -21.429)" stroke="#000" stroke-width="8.012" fill="#fff">
   <path id="path2726" d="m-29 384c-13-74-122-79-139-91-20-13-17 0-10 20 20 52 88 73 119 79 25 4 33 6 30-8z" class="fil2 str2"/>
   <path id="path2728" d="m4 386c11-76-97-112-110-129-15-18-17-7-10 14 13 45 60 98 88 112 23 12 30 17 32 3z" class="fil2 str2"/>
   <path id="path2730" d="m93 430c10-91-78-105-101-134-15-18-16-8-11 13 10 46 54 100 81 117 21 13 30 18 31 4z" class="fil2 str2"/>
   <path id="path2732" d="m66 410c-91-59-155-26-181-29-25-3-33 13 10 37 53 29 127 25 156 14 30-12 21-18 15-22z" class="fil2 str2"/>
   <path id="path2734" d="m203 450c-28-98-93-82-112-94s-21-9-17 13c8 39 75 82 108 95 12 4 27 10 21-14z" class="fil2 str2"/>
   <path id="path2736" d="m190 467c-78-63-139-16-163-23-18-5-10 7-3 12 50 35 112 54 160 32 19-8 20-10 6-21z" class="fil2 str2"/>
   <path id="path2738" d="m359 531c1-62-127-88-154-126-16-23-30-11-22 26 12 48 100 101 148 111 29 6 28-4 28-11z" class="fil2 str2"/>
   <path id="path2740" d="m355 542c-81-73-149-49-174-56-25-6-35 9 4 39 48 36 122 43 153 36s23-14 17-19z" class="fil2 str2"/>
   <path id="path2742" d="m500 649c-23-106-96-128-114-148-17-20-35-14-20 34 18 57 77 107 108 119 30 13 28 3 26-5z" class="fil2 str2"/>
   <path id="path2744" d="m499 663c-59-95-136-92-160-105-23-14-39-2-8 39 36 50 110 78 144 80s28-7 24-14z" class="fil2 str2"/>
   <path id="path2746" d="m575 776c34-108-44-148-52-166-9-18-18-18-23 1-22 77 49 152 60 167 11 14 13 7 15-2z" class="fil2 str2"/>
   <path id="path2748" d="m559 806c-27-121-98-114-114-131-17-17-19-5-16 17 8 59 79 99 111 119 10 6 22 13 19-5z" class="fil2 str2"/>
   <path id="path2750" d="m627 948c49-114-9-191-27-208-18-16-29-23-23 0 8 35-20 125 23 191 14 22 16 43 27 17z" class="fil2 str2"/>
   <path id="path2752" d="m601 971c11-70-29-134-72-159-25-15-26-11-26 10 2 65 63 119 81 149 17 28 16 7 17 0z" class="fil2 str2"/>
   <path id="path2754" d="m590 1153c-36-132 39-208 62-223 22-16 36-22 26 3-15 37 1 140-56 205-18 22-25 45-32 15z" class="fil2 str2"/>
   <path id="path2756" d="m598 1124c30-115-35-180-55-193-19-13-31-18-22 3 12 32-1 122 49 178 16 19 22 38 28 12z" class="fil2 str2"/>
   <path id="path2758" d="m561 1070c-54 58-55 143-31 193 15 29 17 27 31 6 38-61 15-149 17-188 1-37-11-17-17-11z" class="fil2 str2"/>
   <path id="path2760" d="m650 1162c0 80-49 145-101 165-30 11-30 8-26-16 14-90 83-123 108-152 24-28 19-5 19 3z" class="fil2 str2"/>
   <path id="path2762" d="m464 1400c88-80 41-136 45-188 2-28-9-21-19-11-56 55-59 153-47 191 5 17 13 15 21 8z" class="fil2 str2"/>
   <path id="path2764" d="m582 1348c-29 88-106 142-171 145-38 2-37-1-24-27 49-94 136-105 175-129 36-22 23 2 20 11z" class="fil2 str2"/>
   <path id="path2766" d="m343 1513c114-57 91-152 112-176 15-17-3-15-12-9-67 39-121 101-122 167 0 25 2 28 22 18z" class="fil2 str2"/>
   <path id="path2768" d="m187 1619c144 23 211-86 253-96 22-5 6-14-5-15-96-11-218 34-255 84-15 20-15 24 7 27z" class="fil2 str2"/>
   <path id="path2770" d="m333 1448c-29 95-137 173-218 179-38 3-38-1-24-26 65-118 178-138 218-168 34-26 27 6 24 15z" class="fil2 str2"/>
   <path id="path2772" d="m29 384c13-74 122-79 139-91 20-13 17 0 10 20-20 52-88 73-119 79-25 4-33 6-30-8z" class="fil2 str2"/>
   <path id="path2774" d="m-4 386c-11-76 97-112 110-129 15-18 17-7 10 14-13 45-60 98-88 112-23 12-30 17-32 3z" class="fil2 str2"/>
   <path id="path2776" d="m-93 430c-10-91 78-105 101-134 15-18 16-8 11 13-10 46-54 100-81 117-21 13-30 18-31 4z" class="fil2 str2"/>
   <path id="path2778" d="m-66 410c91-59 155-26 181-29 25-3 33 13-10 37-53 29-127 25-156 14-30-12-21-18-15-22z" class="fil2 str2"/>
   <path id="path2780" d="m-203 450c28-98 93-82 112-94s21-9 17 13c-8 39-75 82-108 95-12 4-27 10-21-14z" class="fil2 str2"/>
   <path id="path2782" d="m-190 467c78-63 139-16 163-23 18-5 10 7 3 12-50 35-112 54-160 32-19-8-20-10-6-21z" class="fil2 str2"/>
   <path id="path2784" d="m-359 531c-1-62 127-88 154-126 16-23 30-11 22 26-12 48-100 101-148 111-29 6-28-4-28-11z" class="fil2 str2"/>
   <path id="path2786" d="m-355 542c81-73 149-49 174-56 25-6 35 9-4 39-48 36-122 43-153 36s-23-14-17-19z" class="fil2 str2"/>
   <path id="path2788" d="m-500 649c23-106 96-128 114-148 17-20 35-14 20 34-18 57-77 107-108 119-30 13-28 3-26-5z" class="fil2 str2"/>
   <path id="path2790" d="m-499 663c59-95 136-92 160-105 23-14 39-2 8 39-36 50-110 78-144 80s-28-7-24-14z" class="fil2 str2"/>
   <path id="path2792" d="m-575 776c-34-108 44-148 52-166 9-18 18-18 23 1 22 77-49 152-60 167-11 14-13 7-15-2z" class="fil2 str2"/>
   <path id="path2794" d="m-559 806c27-121 98-114 114-131 17-17 19-5 16 17-8 59-79 99-111 119-10 6-22 13-19-5z" class="fil2 str2"/>
   <path id="path2796" d="m-627 948c-49-114 9-191 27-208 18-16 29-23 23 0-8 35 20 125-23 191-14 22-16 43-27 17z" class="fil2 str2"/>
   <path id="path2798" d="m-601 971c-11-70 29-134 72-159 25-15 26-11 26 10-2 65-63 119-81 149-17 28-16 7-17 0z" class="fil2 str2"/>
   <path id="path2800" d="m-590 1153c36-132-39-208-62-223-22-16-36-22-26 3 15 37-1 140 56 205 18 22 24 45 32 15z" class="fil2 str2"/>
   <path id="path2802" d="m-598 1124c-30-115 35-180 55-193 19-13 31-18 22 3-12 32 1 122-49 178-16 19-22 38-28 12z" class="fil2 str2"/>
   <path id="path2804" d="m-561 1070c54 58 55 143 31 193-15 29-17 27-31 6-38-61-15-149-17-188-1-37 11-17 17-11z" class="fil2 str2"/>
   <path id="path2806" d="m-650 1162c0 80 49 145 101 165 30 11 30 8 26-16-14-90-83-123-108-152-24-28-19-5-19 3z" class="fil2 str2"/>
   <path id="path2808" d="m-464 1400c-88-80-41-136-45-188-2-28 9-21 19-11 56 55 59 153 47 191-5 17-13 15-21 8z" class="fil2 str2"/>
   <path id="path2810" d="m-582 1348c29 88 106 142 171 145 38 2 37-1 24-27-49-94-136-105-175-129-36-22-23 2-20 11z" class="fil2 str2"/>
   <path id="path2812" d="m-343 1513c-114-57-91-152-112-176-15-17 3-15 12-9 67 39 121 101 122 167 0 25-2 28-22 18z" class="fil2 str2"/>
   <path id="path2814" d="m-187 1619c-144 23-211-86-253-96-22-5-6-14 5-15 96-11 218 34 255 84 15 20 15 24-7 27z" class="fil2 str2"/>
   <path id="path2816" d="m-333 1448c29 95 137 173 218 179 38 3 38-1 24-26-65-118-178-138-218-168-34-26-27 6-24 15z" class="fil2 str2"/>
  </g><g id="g2818" fill="#006233" transform="matrix(1.1355 0 0 1.0324 2.7256 -21.429)">
   <path id="path2820" d="m169 476c-19-14-89-6-102-15 25 21 81 6 102 15z" class="fil0"/>
   <path id="path2822" d="m338 512c-15-27-104-45-117-69 23 46 92 40 117 69z" class="fil0"/>
   <path id="path2824" d="m325 543c-33-32-110-19-133-38 54 49 84 11 133 38z" class="fil0"/>
   <path id="path2826" d="m132 401c21 11 47 22 60 48-15-20-42-28-64-45 1 0 3-2 4-3z" class="fil0"/>
   <path id="path2828" d="m460 607c-13-30-59-63-63-74 13 39 51 48 63 74z" class="fil0"/>
   <path id="path2830" d="m472 660c-40-63-103-56-128-80 19 23 91 38 128 80z" class="fil0"/>
   <path id="path2832" d="m565 757c3-67-47-92-49-130-1 45 51 106 49 130z" class="fil0"/>
   <path id="path2834" d="m540 793c-10-58-78-62-90-96 0 32 80 65 90 96z" class="fil0"/>
   <path id="path2836" d="m596 760c36 44 11 111 26 160-18-36-9-126-26-160z" class="fil0"/>
   <path id="path2838" d="m537 948c54 58 32 123 54 151-27-39-23-115-54-151z" class="fil0"/>
   <path id="path2840" d="m649 956c-46 51-18 128-42 164 27-31 23-126 42-164z" class="fil0"/>
   <path id="path2842" d="m591 956c-6-59-61-90-66-122-6 32 53 82 66 122z" class="fil0"/>
   <path id="path2844" d="m563 1097c9 41-24 129-14 156-22-47 19-136 14-156z" class="fil0"/>
   <path id="path2846" d="m634 1191c-22 73-66 68-80 112 10-42 68-80 80-112z" class="fil0"/>
   <path id="path2848" d="m491 1225c-29 49-5 105-29 140 34-35 16-100 29-140z" class="fil0"/>
   <path id="path2850" d="m561 1359c-35 65-107 59-136 106 29-59 118-69 136-106z" class="fil0"/>
   <path id="path2852" d="m434 1351c-62 43-43 88-90 136 59-48 54-101 90-136z" class="fil0"/>
   <path id="path2854" d="m405 1525c-60-2-146 76-198 70 52 11 148-59 198-70z" class="fil0"/>
   <path id="path2856" d="m308 1455c-4 61-160 100-177 141 19-54 156-94 177-141z" class="fil0"/>
   <path id="path2858" d="m-45 330c-20-17-44-31-51-48 5 22 25 38 45 53 2-1 4-4 6-5z" class="fil0"/>
   <path id="path2860" d="m-79 348c-31-15-67-14-83-35 10 21 44 29 73 40 3-2 7-4 10-5z" class="fil0"/>
   <path id="path2862" d="m-169 476c19-14 89-6 102-15-25 21-81 6-102 15z" class="fil0"/>
   <path id="path2864" d="m-338 512c15-27 104-45 117-69-23 46-92 40-117 69z" class="fil0"/>
   <path id="path2866" d="m-325 543c33-32 110-19 133-38-54 49-84 11-133 38z" class="fil0"/>
   <path id="path2868" d="m-192 449c19-40 73-45 87-69-21 36-67 42-87 69z" class="fil0"/>
   <path id="path2870" d="m-38 414c55-26 109-4 135-16-32 17-108 9-135 16z" class="fil0"/>
   <path id="path2872" d="m-460 607c13-30 59-63 63-74-13 39-51 48-63 74z" class="fil0"/>
   <path id="path2874" d="m-472 660c40-63 103-56 128-80-19 23-91 38-128 80z" class="fil0"/>
   <path id="path2876" d="m-565 757c-3-67 47-92 49-130 1 45-51 106-49 130z" class="fil0"/>
   <path id="path2878" d="m-540 793c10-58 78-62 90-96 0 32-80 65-90 96z" class="fil0"/>
   <path id="path2880" d="m-596 760c-36 44-11 111-26 160 18-36 9-126 26-160z" class="fil0"/>
   <path id="path2882" d="m-537 948c-54 58-32 123-54 151 27-39 23-115 54-151z" class="fil0"/>
   <path id="path2884" d="m-649 956c46 51 18 128 42 164-27-31-23-126-42-164z" class="fil0"/>
   <path id="path2886" d="m-591 956c6-59 61-90 66-122 6 32-53 82-66 122z" class="fil0"/>
   <path id="path2888" d="m-563 1097c-9 41 24 129 14 156 22-47-19-136-14-156z" class="fil0"/>
   <path id="path2890" d="m-634 1191c22 73 66 68 80 112-10-42-68-80-80-112z" class="fil0"/>
   <path id="path2892" d="m-491 1225c29 49 5 105 29 140-34-35-16-100-29-140z" class="fil0"/>
   <path id="path2894" d="m-561 1359c35 65 107 59 136 106-29-59-118-69-136-106z" class="fil0"/>
   <path id="path2896" d="m-434 1351c62 43 43 88 90 136-59-48-54-101-90-136z" class="fil0"/>
   <path id="path2898" d="m-405 1525c60-2 146 76 198 70-52 11-148-59-198-70z" class="fil0"/>
   <path id="path2900" d="m-308 1455c4 61 160 100 177 141-19-54-156-94-177-141z" class="fil0"/>
   <path id="path2902" d="m-81 416c12-54 72-64 80-96-3 34-74 72-80 96z" class="fil0"/>
   <path id="path2904" d="m96 282c-9 41-74 64-83 95 3-42 70-66 83-95z" class="fil0"/>
   <path id="path2906" d="m45 379c31-50 95-37 117-66-16 34-95 35-117 66z" class="fil0"/>
  </g><path id="path12826" stroke-linejoin="round" d="m475.64 1011.9c0 263.22-213.38 476.6-476.6 476.6s-476.6-213.38-476.6-476.6 213.38-476.6 476.6-476.6 476.6 213.38 476.6 476.6z" transform="matrix(1.1203 0 0 1.0186 1.5554 -22.824)" stroke="#f7c608" stroke-linecap="round" stroke-width="8.1208" fill="none"/><g id="g12874" transform="matrix(1.089 .29066 -.31969 .99014 322.08 9.1715)"><path id="path12861" fill="#f7c608" d="m44.747 1486.1v6c0 4-3.002 7-7.004 8-10.005 0-23.011 1-35.017 1l-0.0003-38c13.006 0 26.013-1 35.017-2 4.002 0 7.004 3 7.004 7v5m-84.042 1v-6c0-4 3.001-7 7.003-7 10.005 1 22.011 2 35.018 2l-0.0003 38c-12.006 0-24.012 0-35.018-1-4.002-1-7.003-8-7.003-12"/><path id="path12865" fill="#006233" d="m37.554 1484.9v4.3c0 2.9-2.497 5-5.825 5.7-8.321 0-19.139 0.7-29.124 0.7l-0.0004-27.2c10.817 0 21.635-0.7 29.124-1.4 3.328 0 5.825 2.1 5.825 5v3.6m-69.898 0.7v-4.3c0-2.9 2.496-5 5.825-5 8.321 0.7 18.306 1.4 29.124 1.4l-0.0004 27.2c-9.9854 0-19.971 0-29.124-0.7-3.329-0.7-5.825-5.7-5.825-8.6"/></g><g id="g12878" transform="matrix(.95488 .55779 -.61350 .86818 618.66 131.41)"><path id="path12880" fill="#f7c608" d="m44.747 1486.1v6c0 4-3.002 7-7.004 8-10.005 0-23.011 1-35.017 1l-0.0003-38c13.006 0 26.013-1 35.017-2 4.002 0 7.004 3 7.004 7v5m-84.042 1v-6c0-4 3.001-7 7.003-7 10.005 1 22.011 2 35.018 2l-0.0003 38c-12.006 0-24.012 0-35.018-1-4.002-1-7.003-8-7.003-12"/><path id="path12882" fill="#006233" d="m37.554 1484.9v4.3c0 2.9-2.497 5-5.825 5.7-8.321 0-19.139 0.7-29.124 0.7l-0.0004-27.2c10.817 0 21.635-0.7 29.124-1.4 3.328 0 5.825 2.1 5.825 5v3.6m-69.898 0.7v-4.3c0-2.9 2.496-5 5.825-5 8.321 0.7 18.306 1.4 29.124 1.4l-0.0004 27.2c-9.9854 0-19.971 0-29.124-0.7-3.329-0.7-5.825-5.7-5.825-8.6"/></g><g id="g12884" transform="matrix(.74342 .77974 -.85762 .67591 865.37 324.65)"><path id="path12886" fill="#f7c608" d="m44.747 1486.1v6c0 4-3.002 7-7.004 8-10.005 0-23.011 1-35.017 1l-0.0003-38c13.006 0 26.013-1 35.017-2 4.002 0 7.004 3 7.004 7v5m-84.042 1v-6c0-4 3.001-7 7.003-7 10.005 1 22.011 2 35.018 2l-0.0003 38c-12.006 0-24.012 0-35.018-1-4.002-1-7.003-8-7.003-12"/><path id="path12888" fill="#006233" d="m37.554 1484.9v4.3c0 2.9-2.497 5-5.825 5.7-8.321 0-19.139 0.7-29.124 0.7l-0.0004-27.2c10.817 0 21.635-0.7 29.124-1.4 3.328 0 5.825 2.1 5.825 5v3.6m-69.898 0.7v-4.3c0-2.9 2.496-5 5.825-5 8.321 0.7 18.306 1.4 29.124 1.4l-0.0004 27.2c-9.9854 0-19.971 0-29.124-0.7-3.329-0.7-5.825-5.7-5.825-8.6"/></g><g id="g12890" transform="matrix(.47175 .93856 -1.0323 .42891 1042.2 573.25)"><path id="path12892" fill="#f7c608" d="m44.747 1486.1v6c0 4-3.002 7-7.004 8-10.005 0-23.011 1-35.017 1l-0.0003-38c13.006 0 26.013-1 35.017-2 4.002 0 7.004 3 7.004 7v5m-84.042 1v-6c0-4 3.001-7 7.003-7 10.005 1 22.011 2 35.018 2l-0.0003 38c-12.006 0-24.012 0-35.018-1-4.002-1-7.003-8-7.003-12"/><path id="path12894" fill="#006233" d="m37.554 1484.9v4.3c0 2.9-2.497 5-5.825 5.7-8.321 0-19.139 0.7-29.124 0.7l-0.0004-27.2c10.817 0 21.635-0.7 29.124-1.4 3.328 0 5.825 2.1 5.825 5v3.6m-69.898 0.7v-4.3c0-2.9 2.496-5 5.825-5 8.321 0.7 18.306 1.4 29.124 1.4l-0.0004 27.2c-9.9854 0-19.971 0-29.124-0.7-3.329-0.7-5.825-5.7-5.825-8.6"/></g><g id="g12896" transform="matrix(.16188 1.0214 -1.1234 .14718 1134.9 857.07)"><path id="path12898" fill="#f7c608" d="m44.747 1486.1v6c0 4-3.002 7-7.004 8-10.005 0-23.011 1-35.017 1l-0.0003-38c13.006 0 26.013-1 35.017-2 4.002 0 7.004 3 7.004 7v5m-84.042 1v-6c0-4 3.001-7 7.003-7 10.005 1 22.011 2 35.018 2l-0.0003 38c-12.006 0-24.012 0-35.018-1-4.002-1-7.003-8-7.003-12"/><path id="path12900" fill="#006233" d="m37.554 1484.9v4.3c0 2.9-2.497 5-5.825 5.7-8.321 0-19.139 0.7-29.124 0.7l-0.0004-27.2c10.817 0 21.635-0.7 29.124-1.4 3.328 0 5.825 2.1 5.825 5v3.6m-69.898 0.7v-4.3c0-2.9 2.496-5 5.825-5 8.321 0.7 18.306 1.4 29.124 1.4l-0.0004 27.2c-9.9854 0-19.971 0-29.124-0.7-3.329-0.7-5.825-5.7-5.825-8.6"/></g><g id="g12902" transform="matrix(-.16110 1.0215 -1.1235 -.14647 1135.9 1153.1)"><path id="path12904" fill="#f7c608" d="m44.747 1486.1v6c0 4-3.002 7-7.004 8-10.005 0-23.011 1-35.017 1l-0.0003-38c13.006 0 26.013-1 35.017-2 4.002 0 7.004 3 7.004 7v5m-84.042 1v-6c0-4 3.001-7 7.003-7 10.005 1 22.011 2 35.018 2l-0.0003 38c-12.006 0-24.012 0-35.018-1-4.002-1-7.003-8-7.003-12"/><path id="path12906" fill="#006233" d="m37.554 1484.9v4.3c0 2.9-2.497 5-5.825 5.7-8.321 0-19.139 0.7-29.124 0.7l-0.0004-27.2c10.817 0 21.635-0.7 29.124-1.4 3.328 0 5.825 2.1 5.825 5v3.6m-69.898 0.7v-4.3c0-2.9 2.496-5 5.825-5 8.321 0.7 18.306 1.4 29.124 1.4l-0.0004 27.2c-9.9854 0-19.971 0-29.124-0.7-3.329-0.7-5.825-5.7-5.825-8.6"/></g><g id="g12908" transform="matrix(-.47103 .93886 -1.0326 -.42826 1045.1 1437.5)"><path id="path12910" fill="#f7c608" d="m44.747 1486.1v6c0 4-3.002 7-7.004 8-10.005 0-23.011 1-35.017 1l-0.0003-38c13.006 0 26.013-1 35.017-2 4.002 0 7.004 3 7.004 7v5m-84.042 1v-6c0-4 3.001-7 7.003-7 10.005 1 22.011 2 35.018 2l-0.0003 38c-12.006 0-24.012 0-35.018-1-4.002-1-7.003-8-7.003-12"/><path id="path12912" fill="#006233" d="m37.554 1484.9v4.3c0 2.9-2.497 5-5.825 5.7-8.321 0-19.139 0.7-29.124 0.7l-0.0004-27.2c10.817 0 21.635-0.7 29.124-1.4 3.328 0 5.825 2.1 5.825 5v3.6m-69.898 0.7v-4.3c0-2.9 2.496-5 5.825-5 8.321 0.7 18.306 1.4 29.124 1.4l-0.0004 27.2c-9.9854 0-19.971 0-29.124-0.7-3.329-0.7-5.825-5.7-5.825-8.6"/></g><g id="g12914" transform="matrix(-.74282 .78021 -.85814 -.67537 869.95 1687)"><path id="path12916" fill="#f7c608" d="m44.747 1486.1v6c0 4-3.002 7-7.004 8-10.005 0-23.011 1-35.017 1l-0.0003-38c13.006 0 26.013-1 35.017-2 4.002 0 7.004 3 7.004 7v5m-84.042 1v-6c0-4 3.001-7 7.003-7 10.005 1 22.011 2 35.018 2l-0.0003 38c-12.006 0-24.012 0-35.018-1-4.002-1-7.003-8-7.003-12"/><path id="path12918" fill="#006233" d="m37.554 1484.9v4.3c0 2.9-2.497 5-5.825 5.7-8.321 0-19.139 0.7-29.124 0.7l-0.0004-27.2c10.817 0 21.635-0.7 29.124-1.4 3.328 0 5.825 2.1 5.825 5v3.6m-69.898 0.7v-4.3c0-2.9 2.496-5 5.825-5 8.321 0.7 18.306 1.4 29.124 1.4l-0.0004 27.2c-9.9854 0-19.971 0-29.124-0.7-3.329-0.7-5.825-5.7-5.825-8.6"/></g><g id="g12920" transform="matrix(-.95446 .55839 -.61416 -.86779 624.54 1881.6)"><path id="path12922" fill="#f7c608" d="m44.747 1486.1v6c0 4-3.002 7-7.004 8-10.005 0-23.011 1-35.017 1l-0.0003-38c13.006 0 26.013-1 35.017-2 4.002 0 7.004 3 7.004 7v5m-84.042 1v-6c0-4 3.001-7 7.003-7 10.005 1 22.011 2 35.018 2l-0.0003 38c-12.006 0-24.012 0-35.018-1-4.002-1-7.003-8-7.003-12"/><path id="path12924" fill="#006233" d="m37.554 1484.9v4.3c0 2.9-2.497 5-5.825 5.7-8.321 0-19.139 0.7-29.124 0.7l-0.0004-27.2c10.817 0 21.635-0.7 29.124-1.4 3.328 0 5.825 2.1 5.825 5v3.6m-69.898 0.7v-4.3c0-2.9 2.496-5 5.825-5 8.321 0.7 18.306 1.4 29.124 1.4l-0.0004 27.2c-9.9854 0-19.971 0-29.124-0.7-3.329-0.7-5.825-5.7-5.825-8.6"/></g><g id="g12926" transform="matrix(-1.0888 .29135 -.32045 -.98993 328.78 2005.5)"><path id="path12928" fill="#f7c608" d="m44.747 1486.1v6c0 4-3.002 7-7.004 8-10.005 0-23.011 1-35.017 1l-0.0003-38c13.006 0 26.013-1 35.017-2 4.002 0 7.004 3 7.004 7v5m-84.042 1v-6c0-4 3.001-7 7.003-7 10.005 1 22.011 2 35.018 2l-0.0003 38c-12.006 0-24.012 0-35.018-1-4.002-1-7.003-8-7.003-12"/><path id="path12930" fill="#006233" d="m37.554 1484.9v4.3c0 2.9-2.497 5-5.825 5.7-8.321 0-19.139 0.7-29.124 0.7l-0.0004-27.2c10.817 0 21.635-0.7 29.124-1.4 3.328 0 5.825 2.1 5.825 5v3.6m-69.898 0.7v-4.3c0-2.9 2.496-5 5.825-5 8.321 0.7 18.306 1.4 29.124 1.4l-0.0004 27.2c-9.9854 0-19.971 0-29.124-0.7-3.329-0.7-5.825-5.7-5.825-8.6"/></g><g id="g12932" transform="matrix(-1.135 .00072019 -.00079212 -1.0319 6.6183 2048.7)"><path id="path12934" fill="#f7c608" d="m44.747 1486.1v6c0 4-3.002 7-7.004 8-10.005 0-23.011 1-35.017 1l-0.0003-38c13.006 0 26.013-1 35.017-2 4.002 0 7.004 3 7.004 7v5m-84.042 1v-6c0-4 3.001-7 7.003-7 10.005 1 22.011 2 35.018 2l-0.0003 38c-12.006 0-24.012 0-35.018-1-4.002-1-7.003-8-7.003-12"/><path id="path12936" fill="#006233" d="m37.554 1484.9v4.3c0 2.9-2.497 5-5.825 5.7-8.321 0-19.139 0.7-29.124 0.7l-0.0004-27.2c10.817 0 21.635-0.7 29.124-1.4 3.328 0 5.825 2.1 5.825 5v3.6m-69.898 0.7v-4.3c0-2.9 2.496-5 5.825-5 8.321 0.7 18.306 1.4 29.124 1.4l-0.0004 27.2c-9.9854 0-19.971 0-29.124-0.7-3.329-0.7-5.825-5.7-5.825-8.6"/></g><g id="g12938" transform="matrix(-1.0918 -.28208 .31025 -.99262 -313.06 2009.9)"><path id="path12940" fill="#f7c608" d="m44.747 1486.1v6c0 4-3.002 7-7.004 8-10.005 0-23.011 1-35.017 1l-0.0003-38c13.006 0 26.013-1 35.017-2 4.002 0 7.004 3 7.004 7v5m-84.042 1v-6c0-4 3.001-7 7.003-7 10.005 1 22.011 2 35.018 2l-0.0003 38c-12.006 0-24.012 0-35.018-1-4.002-1-7.003-8-7.003-12"/><path id="path12942" fill="#006233" d="m37.554 1484.9v4.3c0 2.9-2.497 5-5.825 5.7-8.321 0-19.139 0.7-29.124 0.7l-0.0004-27.2c10.817 0 21.635-0.7 29.124-1.4 3.328 0 5.825 2.1 5.825 5v3.6m-69.898 0.7v-4.3c0-2.9 2.496-5 5.825-5 8.321 0.7 18.306 1.4 29.124 1.4l-0.0004 27.2c-9.9854 0-19.971 0-29.124-0.7-3.329-0.7-5.825-5.7-5.825-8.6"/></g><g id="g12944" transform="matrix(-.96016 -.55025 .60521 -.87297 -610.8 1890)"><path id="path12946" fill="#f7c608" d="m44.747 1486.1v6c0 4-3.002 7-7.004 8-10.005 0-23.011 1-35.017 1l-0.0003-38c13.006 0 26.013-1 35.017-2 4.002 0 7.004 3 7.004 7v5m-84.042 1v-6c0-4 3.001-7 7.003-7 10.005 1 22.011 2 35.018 2l-0.0003 38c-12.006 0-24.012 0-35.018-1-4.002-1-7.003-8-7.003-12"/><path id="path12948" fill="#006233" d="m37.554 1484.9v4.3c0 2.9-2.497 5-5.825 5.7-8.321 0-19.139 0.7-29.124 0.7l-0.0004-27.2c10.817 0 21.635-0.7 29.124-1.4 3.328 0 5.825 2.1 5.825 5v3.6m-69.898 0.7v-4.3c0-2.9 2.496-5 5.825-5 8.321 0.7 18.306 1.4 29.124 1.4l-0.0004 27.2c-9.9854 0-19.971 0-29.124-0.7-3.329-0.7-5.825-5.7-5.825-8.6"/></g><g id="g12950" transform="matrix(-.75081 -.77386 .85115 -.68264 -859.34 1698.7)"><path id="path12952" fill="#f7c608" d="m44.747 1486.1v6c0 4-3.002 7-7.004 8-10.005 0-23.011 1-35.017 1l-0.0003-38c13.006 0 26.013-1 35.017-2 4.002 0 7.004 3 7.004 7v5m-84.042 1v-6c0-4 3.001-7 7.003-7 10.005 1 22.011 2 35.018 2l-0.0003 38c-12.006 0-24.012 0-35.018-1-4.002-1-7.003-8-7.003-12"/><path id="path12954" fill="#006233" d="m37.554 1484.9v4.3c0 2.9-2.497 5-5.825 5.7-8.321 0-19.139 0.7-29.124 0.7l-0.0004-27.2c10.817 0 21.635-0.7 29.124-1.4 3.328 0 5.825 2.1 5.825 5v3.6m-69.898 0.7v-4.3c0-2.9 2.496-5 5.825-5 8.321 0.7 18.306 1.4 29.124 1.4l-0.0004 27.2c-9.9854 0-19.971 0-29.124-0.7-3.329-0.7-5.825-5.7-5.825-8.6"/></g><g id="g12956" transform="matrix(-.48067 -.93481 1.0282 -.43702 -1038.6 1451.5)"><path id="path12958" fill="#f7c608" d="m44.747 1486.1v6c0 4-3.002 7-7.004 8-10.005 0-23.011 1-35.017 1l-0.0003-38c13.006 0 26.013-1 35.017-2 4.002 0 7.004 3 7.004 7v5m-84.042 1v-6c0-4 3.001-7 7.003-7 10.005 1 22.011 2 35.018 2l-0.0003 38c-12.006 0-24.012 0-35.018-1-4.002-1-7.003-8-7.003-12"/><path id="path12960" fill="#006233" d="m37.554 1484.9v4.3c0 2.9-2.497 5-5.825 5.7-8.321 0-19.139 0.7-29.124 0.7l-0.0004-27.2c10.817 0 21.635-0.7 29.124-1.4 3.328 0 5.825 2.1 5.825 5v3.6m-69.898 0.7v-4.3c0-2.9 2.496-5 5.825-5 8.321 0.7 18.306 1.4 29.124 1.4l-0.0004 27.2c-9.9854 0-19.971 0-29.124-0.7-3.329-0.7-5.825-5.7-5.825-8.6"/></g><g id="g12962" transform="matrix(-.17160 -1.0201 1.1219 -.15602 -1133.9 1168.4)"><path id="path12964" fill="#f7c608" d="m44.747 1486.1v6c0 4-3.002 7-7.004 8-10.005 0-23.011 1-35.017 1l-0.0003-38c13.006 0 26.013-1 35.017-2 4.002 0 7.004 3 7.004 7v5m-84.042 1v-6c0-4 3.001-7 7.003-7 10.005 1 22.011 2 35.018 2l-0.0003 38c-12.006 0-24.012 0-35.018-1-4.002-1-7.003-8-7.003-12"/><path id="path12966" fill="#006233" d="m37.554 1484.9v4.3c0 2.9-2.497 5-5.825 5.7-8.321 0-19.139 0.7-29.124 0.7l-0.0004-27.2c10.817 0 21.635-0.7 29.124-1.4 3.328 0 5.825 2.1 5.825 5v3.6m-69.898 0.7v-4.3c0-2.9 2.496-5 5.825-5 8.321 0.7 18.306 1.4 29.124 1.4l-0.0004 27.2c-9.9854 0-19.971 0-29.124-0.7-3.329-0.7-5.825-5.7-5.825-8.6"/></g><g id="g12968" transform="matrix(.15136 -1.0227 1.1248 .13762 -1137.7 872.37)"><path id="path12970" fill="#f7c608" d="m44.747 1486.1v6c0 4-3.002 7-7.004 8-10.005 0-23.011 1-35.017 1l-0.0003-38c13.006 0 26.013-1 35.017-2 4.002 0 7.004 3 7.004 7v5m-84.042 1v-6c0-4 3.001-7 7.003-7 10.005 1 22.011 2 35.018 2l-0.0003 38c-12.006 0-24.012 0-35.018-1-4.002-1-7.003-8-7.003-12"/><path id="path12972" fill="#006233" d="m37.554 1484.9v4.3c0 2.9-2.497 5-5.825 5.7-8.321 0-19.139 0.7-29.124 0.7l-0.0004-27.2c10.817 0 21.635-0.7 29.124-1.4 3.328 0 5.825 2.1 5.825 5v3.6m-69.898 0.7v-4.3c0-2.9 2.496-5 5.825-5 8.321 0.7 18.306 1.4 29.124 1.4l-0.0004 27.2c-9.9854 0-19.971 0-29.124-0.7-3.329-0.7-5.825-5.7-5.825-8.6"/></g><g id="g12974" transform="matrix(.46207 -.94253 1.0367 .42011 -1049.7 587.33)"><path id="path12976" fill="#f7c608" d="m44.747 1486.1v6c0 4-3.002 7-7.004 8-10.005 0-23.011 1-35.017 1l-0.0003-38c13.006 0 26.013-1 35.017-2 4.002 0 7.004 3 7.004 7v5m-84.042 1v-6c0-4 3.001-7 7.003-7 10.005 1 22.011 2 35.018 2l-0.0003 38c-12.006 0-24.012 0-35.018-1-4.002-1-7.003-8-7.003-12"/><path id="path12978" fill="#006233" d="m37.554 1484.9v4.3c0 2.9-2.497 5-5.825 5.7-8.321 0-19.139 0.7-29.124 0.7l-0.0004-27.2c10.817 0 21.635-0.7 29.124-1.4 3.328 0 5.825 2.1 5.825 5v3.6m-69.898 0.7v-4.3c0-2.9 2.496-5 5.825-5 8.321 0.7 18.306 1.4 29.124 1.4l-0.0004 27.2c-9.9854 0-19.971 0-29.124-0.7-3.329-0.7-5.825-5.7-5.825-8.6"/></g><g id="g12980" transform="matrix(.73536 -.78603 .86454 .66859 -876.89 336.39)"><path id="path12982" fill="#f7c608" d="m44.747 1486.1v6c0 4-3.002 7-7.004 8-10.005 0-23.011 1-35.017 1l-0.0003-38c13.006 0 26.013-1 35.017-2 4.002 0 7.004 3 7.004 7v5m-84.042 1v-6c0-4 3.001-7 7.003-7 10.005 1 22.011 2 35.018 2l-0.0003 38c-12.006 0-24.012 0-35.018-1-4.002-1-7.003-8-7.003-12"/><path id="path12984" fill="#006233" d="m37.554 1484.9v4.3c0 2.9-2.497 5-5.825 5.7-8.321 0-19.139 0.7-29.124 0.7l-0.0004-27.2c10.817 0 21.635-0.7 29.124-1.4 3.328 0 5.825 2.1 5.825 5v3.6m-69.898 0.7v-4.3c0-2.9 2.496-5 5.825-5 8.321 0.7 18.306 1.4 29.124 1.4l-0.0004 27.2c-9.9854 0-19.971 0-29.124-0.7-3.329-0.7-5.825-5.7-5.825-8.6"/></g><g id="g12986" transform="matrix(.94910 -.56588 .62240 .86292 -633.34 139.86)"><path id="path12988" fill="#f7c608" d="m44.747 1486.1v6c0 4-3.002 7-7.004 8-10.005 0-23.011 1-35.017 1l-0.0003-38c13.006 0 26.013-1 35.017-2 4.002 0 7.004 3 7.004 7v5m-84.042 1v-6c0-4 3.001-7 7.003-7 10.005 1 22.011 2 35.018 2l-0.0003 38c-12.006 0-24.012 0-35.018-1-4.002-1-7.003-8-7.003-12"/><path id="path12990" fill="#006233" d="m37.554 1484.9v4.3c0 2.9-2.497 5-5.825 5.7-8.321 0-19.139 0.7-29.124 0.7l-0.0004-27.2c10.817 0 21.635-0.7 29.124-1.4 3.328 0 5.825 2.1 5.825 5v3.6m-69.898 0.7v-4.3c0-2.9 2.496-5 5.825-5 8.321 0.7 18.306 1.4 29.124 1.4l-0.0004 27.2c-9.9854 0-19.971 0-29.124-0.7-3.329-0.7-5.825-5.7-5.825-8.6"/></g><g id="g12992" transform="matrix(1.086 -.29991 .32987 .98737 -338.77 13.655)"><path id="path12994" fill="#f7c608" d="m44.747 1486.1v6c0 4-3.002 7-7.004 8-10.005 0-23.011 1-35.017 1l-0.0003-38c13.006 0 26.013-1 35.017-2 4.002 0 7.004 3 7.004 7v5m-84.042 1v-6c0-4 3.001-7 7.003-7 10.005 1 22.011 2 35.018 2l-0.0003 38c-12.006 0-24.012 0-35.018-1-4.002-1-7.003-8-7.003-12"/><path id="path12996" fill="#006233" d="m37.554 1484.9v4.3c0 2.9-2.497 5-5.825 5.7-8.321 0-19.139 0.7-29.124 0.7l-0.0004-27.2c10.817 0 21.635-0.7 29.124-1.4 3.328 0 5.825 2.1 5.825 5v3.6m-69.898 0.7v-4.3c0-2.9 2.496-5 5.825-5 8.321 0.7 18.306 1.4 29.124 1.4l-0.0004 27.2c-9.9854 0-19.971 0-29.124-0.7-3.329-0.7-5.825-5.7-5.825-8.6"/></g><g id="g12998" transform="matrix(1.1349 -.0096543 .010618 1.0319 -17.033 -32.001)"><path id="path13000" fill="#f7c608" d="m44.747 1486.1v6c0 4-3.002 7-7.004 8-10.005 0-23.011 1-35.017 1l-0.0003-38c13.006 0 26.013-1 35.017-2 4.002 0 7.004 3 7.004 7v5m-84.042 1v-6c0-4 3.001-7 7.003-7 10.005 1 22.011 2 35.018 2l-0.0003 38c-12.006 0-24.012 0-35.018-1-4.002-1-7.003-8-7.003-12"/><path id="path13002" fill="#006233" d="m37.554 1484.9v4.3c0 2.9-2.497 5-5.825 5.7-8.321 0-19.139 0.7-29.124 0.7l-0.0004-27.2c10.817 0 21.635-0.7 29.124-1.4 3.328 0 5.825 2.1 5.825 5v3.6m-69.898 0.7v-4.3c0-2.9 2.496-5 5.825-5 8.321 0.7 18.306 1.4 29.124 1.4l-0.0004 27.2c-9.9854 0-19.971 0-29.124-0.7-3.329-0.7-5.825-5.7-5.825-8.6"/></g></g></g></svg>
