<svg xmlns="http://www.w3.org/2000/svg" width="24" height="24" viewBox="0 0 24 24" fill="none">
<g clip-path="url(#clip0_1_44884)">
<path fill-rule="evenodd" clip-rule="evenodd" d="M14.5096 2.49624C14.5748 2.4912 14.6391 2.48954 14.7011 2.49102C14.8995 2.49574 15.3828 2.53821 15.7734 2.92895C15.827 2.9825 16.1701 3.3173 16.5121 3.65059L16.8304 3.96056L17.1314 3.96728C17.328 3.97163 17.5269 3.97596 17.6819 3.97921L17.8744 3.9831C17.9095 3.98377 17.93 3.9841 17.9396 3.98426C17.9455 3.98435 17.946 3.98438 17.946 3.98438C18.6564 3.98438 19.2187 4.5142 19.3274 5.16651C19.3336 5.20399 19.5261 6.50315 19.7986 8.34253C20.0084 9.75847 20.2657 11.4945 20.5219 13.2216C20.8175 15.2142 21.1131 17.2038 21.3358 18.6961C21.4472 19.4424 21.5402 20.0637 21.6059 20.4987C21.6388 20.7164 21.6647 20.8862 21.6825 21.0013C21.6915 21.0593 21.698 21.1009 21.7023 21.1271C21.7028 21.1301 21.7032 21.1327 21.7035 21.1349C21.7391 21.3162 21.7332 21.5063 21.682 21.6906C21.5654 22.1098 21.2321 22.4337 20.8098 22.5383L15.0539 23.9646C14.8917 24.0048 14.7229 24.0109 14.5582 23.9824L1.27263 21.6864C0.63518 21.5763 0.198055 20.9829 0.281743 20.3415L1.47809 20.4976C0.281743 20.3415 0.281743 20.3415 0.281743 20.3415L0.532523 18.4187C0.68332 17.2623 0.884923 15.7159 1.08815 14.156C1.49555 11.0289 1.90709 7.86559 1.9322 7.65625L1.93237 7.65482L1.93385 7.64264C1.94898 7.51757 1.9706 7.33892 2.01075 7.17513C2.05792 6.98274 2.15174 6.71298 2.37497 6.46245C2.58935 6.22187 2.83599 6.09802 2.99836 6.02906C3.13205 5.97228 3.28313 5.92326 3.41016 5.88317C3.43231 5.87465 3.45233 5.86745 3.46649 5.86243C3.50704 5.84805 3.55658 5.83146 3.60893 5.81429C3.71607 5.77916 3.86557 5.73161 4.04749 5.67461C4.26543 5.60632 4.53564 5.52267 4.84586 5.42743C5.08955 4.50656 5.51875 3.51419 6.0377 2.68922C6.97618 1.18444 8.32732 0.0556484 9.94137 0.0018329L9.94267 0.00178964C10.6511 -0.0210693 11.3273 0.1744 11.8859 0.625778C13.0479 0.74139 13.9489 1.47995 14.5096 2.49624Z" fill="black"/>
<path d="M9.99542 1.19856C10.5346 1.18116 10.9873 1.35503 11.3353 1.73762C11.3527 1.77241 11.3872 1.79072 11.4046 1.82551C11.474 1.80815 11.5263 1.80793 11.5784 1.80793C12.3786 1.80793 13.0577 2.27711 13.5101 3.1468C13.6492 3.42499 13.753 3.68635 13.8226 3.91242C13.9905 3.86132 14.1313 3.81984 14.2376 3.7884V22.7034L1.47101 20.4925C1.47101 20.4925 3.05407 8.22765 3.15851 7.79231C3.2281 7.2182 3.2459 7.20047 3.8548 7.0091C3.88128 6.98907 4.71392 6.72882 5.90753 6.36555C6.02933 5.44367 6.48124 4.26091 7.07257 3.3216C7.90758 1.9821 8.95165 1.23343 9.99542 1.19856ZM9.85675 7.93098C6.93426 8.12233 5.61137 10.158 5.75031 12.1585C5.90687 14.5592 8.30758 14.4728 8.39484 15.9339C8.41223 16.2818 8.18633 16.7868 7.57745 16.8216C6.63801 16.8912 5.47198 16.0042 5.47198 16.0042L5.01984 17.9173C5.01984 17.9173 6.18556 19.1697 8.30792 19.0306C10.065 18.9262 11.2832 17.5169 11.1614 15.4466C10.9872 12.8201 8.04766 12.5764 7.97784 11.4632C7.96045 11.2718 7.97757 10.4545 9.26495 10.3675C10.1522 10.2979 10.9007 10.6458 10.9007 10.6458L11.5618 8.13996C11.5618 8.13996 10.9873 7.86147 9.85675 7.93098ZM10.013 1.89485C8.39507 1.94706 6.98576 4.46966 6.62042 6.12239C7.19453 5.94841 7.82127 5.75711 8.44757 5.56574C8.65634 4.50452 9.1605 3.39036 9.82159 2.67707C10.0824 2.41627 10.3608 2.19025 10.639 2.0511C10.4651 1.94683 10.2564 1.89485 10.013 1.89485ZM11.0745 2.60774C10.7789 2.74684 10.5178 2.97307 10.3265 3.16438C9.8394 3.70364 9.42198 4.52159 9.2132 5.33918C9.96113 5.11306 10.7264 4.8692 11.4222 4.66047C11.4395 4.08637 11.3702 3.23392 11.0745 2.60774ZM11.805 2.55598C12.0485 3.18223 12.1185 3.93061 12.1185 4.45246C12.5009 4.33077 12.8485 4.22593 13.1614 4.13899C12.9875 3.5997 12.6052 2.71261 11.805 2.55598Z" fill="#63F44C"/>
<path d="M16.3451 5.14722C16.3451 5.14722 17.8755 5.18235 17.9633 5.18237C18.0502 5.18237 18.1373 5.25182 18.1547 5.3562C18.1727 5.46463 20.5209 21.3445 20.5209 21.3445L15.4437 22.6042V4.27026C15.8438 4.66042 16.3327 5.13526 16.3451 5.14722Z" fill="#63F44C"/>
</g>
<defs>
<clipPath id="clip0_1_44884">
<rect width="22" height="24" rx="3.75" fill="white"/>
</clipPath>
</defs>
</svg>
