<?xml version="1.0" encoding="UTF-8"?>
<svg version="1.1" xmlns="http://www.w3.org/2000/svg" width="477" height="477">
<path d="M0 0 C0.74378906 0.53109375 1.48757813 1.0621875 2.25390625 1.609375 C13.37262324 10.39990663 21.39962712 25.12204871 23.71875 38.9921875 C26.18225509 65.33800579 18.42950121 89.05195767 6 112 C5.61440918 112.72429199 5.22881836 113.44858398 4.83154297 114.19482422 C-12.61152252 146.90672879 -35.93884075 176.97499224 -66 199 C-66.9178125 199.70125 -67.835625 200.4025 -68.78125 201.125 C-94.25500682 220.30524043 -124.7968889 233.73109055 -157.20556641 229.72753906 C-161.22269903 229.09836142 -165.09560416 228.12002776 -169 227 C-169.83789062 226.80664062 -170.67578125 226.61328125 -171.5390625 226.4140625 C-202.38759394 218.67680869 -226.34325905 189.8337829 -242.1796875 163.875 C-251.37679119 148.35660881 -258.97180648 132.00405532 -265 115 C-265.26522461 114.25733887 -265.53044922 113.51467773 -265.80371094 112.74951172 C-273.09174756 92.18132362 -277.74213942 71.2296279 -281.23217773 49.71508789 C-281.56039188 47.70044007 -281.89633215 45.68717496 -282.23242188 43.67382812 C-285.04568501 26.585306 -285 10.62016131 -285 -7 C-266.85 -7 -248.7 -7 -230 -7 C-229.2575 -0.1525 -228.515 6.695 -227.75 13.75 C-226.94860159 20.94275672 -226.13237295 28.13367159 -225.30664062 35.32366943 C-225.04026268 37.64859107 -224.77749578 39.97388432 -224.515625 42.29931641 C-222.85021504 56.7386521 -220.07776296 70.72523376 -216.5625 84.8125 C-216.37522339 85.56395294 -216.18794678 86.31540588 -215.99499512 87.08963013 C-211.17885632 106.30421126 -211.17885632 106.30421126 -203.36328125 124.42578125 C-202.35220182 126.33495415 -201.40000875 128.27555981 -200.48046875 130.23046875 C-189.55755449 153.27858525 -173.1928697 170.88071819 -148.82519531 179.7956543 C-142.40828911 181.94033202 -136.61064679 182.42927612 -129.875 182.3125 C-128.46927734 182.31733398 -128.46927734 182.31733398 -127.03515625 182.32226562 C-101.60126173 182.12662028 -80.76540733 165.50666671 -63 149 C-62.27167969 148.34902344 -61.54335938 147.69804687 -60.79296875 147.02734375 C-43.37378682 130.7380547 -28.49172524 104.93742917 -22 82 C-21.72414063 81.21367187 -21.44828125 80.42734375 -21.1640625 79.6171875 C-18.14266574 70.33124332 -16.84139219 58.19215176 -20.5625 48.9375 C-24.41775638 41.98186261 -29.13596881 36.49793563 -36.6796875 33.62109375 C-43.76936501 31.72335179 -50.41802596 32.91431085 -57 36 C-63.15379312 40.14197614 -66.53385135 45.43935329 -69.3125 52.1875 C-72.80496411 71.55480097 -65.36847679 91.78902123 -54.74267578 107.90722656 C-53.02220735 110.27678397 -51.22453017 112.53845178 -49.30078125 114.74609375 C-48 117 -48 117 -48.1484375 119.96875 C-51.22927998 130.93541865 -58.8821249 139.33897501 -67 147 C-67.99 147.33 -68.98 147.66 -70 148 C-78.33115778 137.01583407 -86.28140554 126.04756273 -93 114 C-93.56992676 112.99936523 -93.56992676 112.99936523 -94.15136719 111.97851562 C-100.00532701 101.66048916 -104.42272144 91.30251825 -108 80 C-108.32871094 78.99582031 -108.65742187 77.99164063 -108.99609375 76.95703125 C-114.05294619 60.96382807 -115.20453245 39.40279351 -108 24 C-107.59910156 23.07960937 -107.19820312 22.15921875 -106.78515625 21.2109375 C-100.98705901 9.27862145 -91.61700206 0.19020253 -80 -6 C-79.13890625 -6.47050781 -78.2778125 -6.94101563 -77.390625 -7.42578125 C-52.53813382 -19.88879088 -22.08063761 -16.09320503 0 0 Z " fill="#02756A" transform="translate(285,131)"/>
<path d="M0 0 C12.87 0.66 25.74 1.32 39 2 C39 8.08003431 38.87592291 13.57185028 37.9375 19.5 C37.74885376 20.6919397 37.74885376 20.6919397 37.55639648 21.90795898 C36.32488128 29.07730792 34.51533228 36.05909619 32.5625 43.0625 C32.27431396 44.09632813 31.98612793 45.13015625 31.68920898 46.1953125 C29.83134401 52.63937563 27.63655349 58.83469706 25 65 C24.67668701 65.75845215 24.35337402 66.5169043 24.02026367 67.29833984 C7.70139675 104.75986416 -17.77902312 134.70548139 -56.0703125 150.24609375 C-66.62607151 154.25963443 -76.01170669 155.31972212 -87.3125 155.25 C-88.55451172 155.25773438 -89.79652344 155.26546875 -91.07617188 155.2734375 C-106.98172414 155.24007504 -121.29269569 152.02458534 -135.5625 145 C-136.24151367 144.66790527 -136.92052734 144.33581055 -137.62011719 143.99365234 C-141.34035596 142.09433325 -144.24044602 140.1457511 -147 137 C-146.58226318 136.61779297 -146.16452637 136.23558594 -145.73413086 135.84179688 C-133.38503727 124.80982964 -133.38503727 124.80982964 -123 112 C-119.07891308 112.63915153 -115.75921808 113.84693962 -112.125 115.4375 C-103.52873643 119.19696253 -96.37289678 120.31858487 -87.0625 120.25 C-86.01642578 120.25773437 -84.97035156 120.26546875 -83.89257812 120.2734375 C-68.30563234 120.2342497 -54.30062042 114.09433687 -43.09130859 103.26635742 C-15.53582139 75.49817778 -5.9407713 37.54567458 0 0 Z " fill="#02756A" transform="translate(438,188)"/></svg>
