<svg viewBox="0 0 24 24" xmlns="http://www.w3.org/2000/svg">
  <path fill="#0076b2" d="M21.75 0.5625H2.25C1.42031 0.5625 0.75 1.23281 0.75 2.0625V21.5625C0.75 22.3922 1.42031 23.0625 2.25 23.0625H21.75C22.5797 23.0625 23.25 22.3922 23.25 21.5625V2.0625C23.25 1.23281 22.5797 0.5625 21.75 0.5625"/>
  <path fill="#fff" d="M3.94219 9.14531H7.33594V20.0156H3.94219V9.14531ZM5.64063 3.70313C6.60469 3.70313 7.38281 4.48125 7.38281 5.44531C7.38281 6.40938 6.60469 7.1875 5.64063 7.1875C4.67656 7.1875 3.89844 6.40938 3.89844 5.44531C3.89844 4.48125 4.67656 3.70313 5.64063 3.70313ZM9.46875 9.14531H12.7219V10.6406H12.7688C13.2141 9.79219 14.3578 8.89688 16.0578 8.89688C19.5234 8.89688 20.0625 11.1328 20.0625 14.0625V20.0156H16.6734V14.7328C16.6734 13.4672 16.6500 11.8578 14.9266 11.8578C13.1797 11.8578 12.9047 13.2328 12.9047 14.625V20.0156H9.51563V9.14531H9.46875Z"/>
</svg>
