<?xml version="1.0" encoding="UTF-8"?>
<svg version="1.1" xmlns="http://www.w3.org/2000/svg" width="500" height="500">
<path d="M0 0 C1.3680629 0.00273422 1.3680629 0.00273422 2.76376343 0.00552368 C38.60347449 0.12555108 73.01477041 6.58765371 105.4375 22.3125 C106.29037598 22.7259668 107.14325195 23.13943359 108.02197266 23.56542969 C168.98395449 53.4947527 216.12107251 105.00289912 238.5390625 169.47265625 C243.9653774 185.8253726 247.49623329 202.20441923 249.4375 219.3125 C249.5317627 220.01294434 249.62602539 220.71338867 249.72314453 221.43505859 C255.31888307 267.21200378 248.2035222 316.0726656 227.45068359 357.296875 C226.72631898 358.73792422 226.01155919 360.18381757 225.30322266 361.6328125 C215.75165591 381.12549409 204.04728583 399.21992994 189.4375 415.3125 C188.50244772 416.35663076 187.56755473 417.40090417 186.6328125 418.4453125 C177.83983069 428.20600845 168.7636459 437.16754535 158.4375 445.3125 C157.47328125 446.09367187 156.5090625 446.87484375 155.515625 447.6796875 C119.90565356 475.96882725 76.6347367 494.36621606 31.4375 499.3125 C30.65052734 499.4067627 29.86355469 499.50102539 29.05273438 499.59814453 C-38.79295832 506.89717113 -104.87809257 487.55032678 -158.125 444.9375 C-164.48848933 439.63303025 -170.55713388 434.01582108 -176.5625 428.3125 C-177.80386719 427.13494141 -177.80386719 427.13494141 -179.0703125 425.93359375 C-184.72072652 420.43083863 -189.64975379 414.47334931 -194.5625 408.3125 C-195.18511719 407.5803125 -195.80773437 406.848125 -196.44921875 406.09375 C-232.82098732 362.7831325 -250.11546985 306.57359261 -249.875 250.6875 C-249.87176727 249.32118942 -249.87176727 249.32118942 -249.86846924 247.92727661 C-249.74743094 215.87486521 -244.47390745 186.16350183 -232.5625 156.3125 C-232.28857422 155.60899414 -232.01464844 154.90548828 -231.73242188 154.18066406 C-224.33123921 135.32527014 -213.58700027 117.56301818 -201.5625 101.3125 C-200.91015381 100.42691406 -200.91015381 100.42691406 -200.24462891 99.5234375 C-180.006076 72.30891541 -154.56097444 50.67056667 -125.5625 33.3125 C-124.85706055 32.88952637 -124.15162109 32.46655273 -123.42480469 32.03076172 C-86.02004329 9.8133631 -43.26137587 -0.18086067 0 0 Z " fill="#6D00CC" transform="translate(249.5625,-0.31250000000000006)"/>
<path d="M0 0 C1.6318927 -0.00922989 1.6318927 -0.00922989 3.29675293 -0.01864624 C5.05154968 0.00291031 5.05154968 0.00291031 6.84179688 0.02490234 C8.65025085 0.02627701 8.65025085 0.02627701 10.49523926 0.02767944 C13.04390399 0.03372059 15.59256144 0.04948177 18.14111328 0.07421875 C22.04551311 0.11069938 25.94896327 0.11523828 29.85351562 0.11474609 C32.32878425 0.12457812 34.80404645 0.13623549 37.27929688 0.14990234 C39.03409363 0.15324081 39.03409363 0.15324081 40.82434082 0.15664673 C42.45623352 0.17578629 42.45623352 0.17578629 44.12109375 0.1953125 C45.55527649 0.20674789 45.55527649 0.20674789 47.01843262 0.21841431 C49.71260184 0.50183573 51.30246704 1.00661456 53.56054688 2.48583984 C56.00103806 6.14657662 55.84580871 8.86977476 55.82797241 13.10202026 C55.83250353 13.88509776 55.83703464 14.66817526 55.84170306 15.47498238 C55.85439592 18.10740446 55.85272356 20.73962095 55.85107422 23.37207031 C55.85705643 25.25600451 55.86386126 27.13993625 55.87142944 29.02386475 C55.88912804 34.1478394 55.89378645 39.2717473 55.89506102 44.39574957 C55.89695798 48.6702006 55.90431318 52.94463601 55.91140521 57.21908104 C55.92770145 67.30231205 55.93257303 77.38550734 55.93115234 87.46875 C55.9299506 97.87694588 55.95105624 108.2849345 55.98263967 118.69307792 C56.00877405 127.62308889 56.01952083 136.55303205 56.01824152 145.48308098 C56.01773105 150.81921742 56.0234612 156.15516974 56.04459763 161.49126816 C56.0639322 166.50966294 56.06413727 171.52769708 56.04956436 176.54610443 C56.04746921 178.38877767 56.05221904 180.2314732 56.06428528 182.07410812 C56.07968429 184.58839595 56.0704658 187.10143196 56.05502319 189.61569214 C56.06531032 190.34614365 56.07559745 191.07659515 56.0861963 191.82918155 C56.03755586 195.40898228 55.62537166 197.38318241 53.69606304 200.43846226 C50.95659602 203.064864 49.58538837 203.11337577 45.82983398 203.11694336 C44.67861557 203.12947647 43.52739716 203.14200958 42.34129333 203.15492249 C40.48335899 203.13503517 40.48335899 203.13503517 38.58789062 203.11474609 C37.31329483 203.11715805 36.03869904 203.11957001 34.72547913 203.12205505 C32.03056469 203.12107529 29.33786729 203.11024379 26.64331055 203.08276367 C23.19056093 203.04864459 19.73929637 203.05471177 16.28647518 203.07342625 C12.99102694 203.08653568 9.69580669 203.06828431 6.40039062 203.05224609 C5.1597435 203.05720596 3.91909637 203.06216583 2.64085388 203.067276 C1.49278763 203.05143967 0.34472137 203.03560333 -0.83813477 203.01928711 C-2.35559044 203.00998924 -2.35559044 203.00998924 -3.90370178 203.00050354 C-6.43945312 202.48583984 -6.43945312 202.48583984 -8.07370758 200.9423666 C-9.95669361 197.55549444 -9.85776892 194.44120601 -9.82713318 190.66674805 C-9.83251872 189.87394345 -9.83790425 189.08113886 -9.84345299 188.26430988 C-9.85777279 185.60492288 -9.85061906 182.94603082 -9.84350586 180.28662109 C-9.84920729 178.38121133 -9.85617066 176.47580499 -9.86430359 174.57040405 C-9.8822741 169.39280242 -9.88105944 164.2153699 -9.8753612 159.03774643 C-9.87227534 154.71840978 -9.878355 150.3991059 -9.88439995 146.0797739 C-9.89845601 135.89251045 -9.89687455 125.70533085 -9.88549805 115.51806641 C-9.87401207 105.00018901 -9.88809816 94.48256645 -9.91489452 83.96472263 C-9.9370269 74.94043204 -9.94369457 65.9162216 -9.93781811 56.89190578 C-9.93444187 51.49937781 -9.93690792 46.10701327 -9.95406914 40.71450806 C-9.96949725 35.64519979 -9.96562878 30.57627016 -9.94676399 25.50697708 C-9.9430668 23.64453836 -9.9462193 21.78207184 -9.95664978 19.91965866 C-9.96978435 17.38097537 -9.95838018 14.84355961 -9.94065857 12.30493164 C-9.95026358 11.56446752 -9.95986858 10.82400339 -9.96976465 10.06110096 C-9.92024925 6.62390254 -9.67707214 4.79774104 -7.56700993 2.02805138 C-4.86932076 0.07256547 -3.31457562 -0.00988019 0 0 Z " fill="#FDFCFE" transform="translate(320.439453125,148.51416015625)"/>
<path d="M0 0 C4.28652186 0.27879817 6.56556524 1.23958976 10.34375 3.25 C11.72129287 3.97147121 13.09890391 4.69281228 14.4765625 5.4140625 C15.28512695 5.84364258 16.09369141 6.27322266 16.92675781 6.71582031 C20.50634932 8.5984913 24.10784163 10.43626677 27.7109375 12.2734375 C29.83451494 13.35881606 31.95774876 14.44486316 34.08081055 15.53125 C35.5054497 16.26008218 36.93041713 16.98827302 38.35571289 17.71582031 C40.38242312 18.75191965 42.40637517 19.79322151 44.4296875 20.8359375 C45.04673553 21.15025726 45.66378357 21.46457703 46.29953003 21.78842163 C48.82599954 23.09565075 50.81813244 24.22438244 52.84375 26.25 C53.2781894 31.28399531 52.60796215 34.59069552 50.34033203 39.06738281 C49.79200714 40.16673157 49.24368225 41.26608032 48.67874146 42.39874268 C48.0757724 43.57168884 47.47280334 44.74463501 46.8515625 45.953125 C46.22415591 47.19738555 45.59794775 48.44225105 44.97286987 49.68768311 C43.32214277 52.96813099 41.6544907 56.23968726 39.9833374 59.50976562 C38.32171802 62.76923051 36.67753289 66.03745837 35.03125 69.3046875 C29.19331485 80.87246093 23.27219833 92.39262598 17.19865417 103.83877563 C13.55776829 110.72883897 10.15685406 117.72476975 6.79598999 124.75473022 C0.06977383 138.80896378 -6.91624337 152.71167878 -14.09814453 166.5378418 C-14.79209382 167.87413342 -15.48594277 169.21047717 -16.1796875 170.546875 C-16.51602203 171.19469437 -16.85235657 171.84251373 -17.19888306 172.50996399 C-21.0932461 180.02996421 -24.85517393 187.61580159 -28.5793457 195.22143555 C-29.02624756 196.12676025 -29.47314941 197.03208496 -29.93359375 197.96484375 C-30.31765381 198.74980225 -30.70171387 199.53476074 -31.09741211 200.34350586 C-32.15625 202.25 -32.15625 202.25 -34.15625 204.25 C-40.11170119 204.77937344 -44.14570704 203.83198509 -49.4453125 201.03125 C-50.11106293 200.69508667 -50.77681335 200.35892334 -51.46273804 200.01257324 C-53.57687285 198.93988643 -55.67867632 197.84514094 -57.78125 196.75 C-59.16726045 196.04547983 -60.55397556 195.34234413 -61.94140625 194.640625 C-86.0164213 182.3898287 -86.0164213 182.3898287 -90.15625 178.25 C-90.61334346 173.14521689 -89.91465359 169.93692768 -87.48046875 165.46875 C-86.90522461 164.39117432 -86.32998047 163.31359863 -85.73730469 162.20336914 C-84.79999512 160.49395142 -84.79999512 160.49395142 -83.84375 158.75 C-82.54374158 156.32534638 -81.25449388 153.89501901 -79.96484375 151.46484375 C-79.63980865 150.8554747 -79.31477356 150.24610565 -78.97988892 149.61827087 C-75.95454273 143.92665384 -73.15216439 138.1428113 -70.40625 132.3125 C-64.00035414 118.76927145 -57.36447263 105.36069619 -50.34375 92.125 C-42.34790842 77.04512334 -34.69586582 61.77569625 -27.46875 46.3125 C-23.39114974 37.59564143 -18.95371285 29.09339097 -14.41455078 20.609375 C-13.11992507 18.181889 -11.83763978 15.74822758 -10.55859375 13.3125 C-10.14416016 12.52439941 -9.72972656 11.73629883 -9.30273438 10.92431641 C-8.51274697 9.42187267 -7.72364591 7.91896247 -6.93554688 6.41552734 C-3.70482164 0.29345122 -3.70482164 0.29345122 0 0 Z " fill="#FEFDFE" transform="translate(174.15625,147.75)"/>
<path d="M0 0 C2.1747163 0.42558049 4.32217373 0.92249201 6.4765625 1.44140625 C9.14413214 2.03190541 11.79457194 2.43170919 14.5 2.8125 C21.34156238 3.84564913 28.14050204 5.08198651 34.9375 6.375 C36.02804687 6.57198486 37.11859375 6.76896973 38.2421875 6.97192383 C49.4934351 9.15802455 49.4934351 9.15802455 53 13 C54.7383676 20.75030155 51.9283707 29.49008633 50.3125 37.0625 C50.03323545 38.40790927 49.75501464 39.75353556 49.4777832 41.09936523 C48.91827556 43.81066651 48.35422723 46.52095396 47.78613281 49.23046875 C46.72159162 54.33497682 45.70260227 59.44798038 44.6875 64.5625 C44.28669895 66.56515234 43.88563985 68.56775304 43.484375 70.5703125 C42.45531425 75.71414195 41.43147038 80.85899005 40.4094696 86.00422668 C39.61900191 89.98204335 38.82686157 93.95952618 38.03457642 97.9369812 C37.64304774 99.90455035 37.25221517 101.87225818 36.8621521 103.84011841 C34.98336049 113.31695086 33.07326819 122.77503854 30.91015625 132.19140625 C29.35771255 138.99030216 28.182085 145.79915555 27.14198303 152.69340515 C25.83924103 161.25861897 24.21236655 169.75260048 22.52050781 178.24853516 C21.99100202 180.92040351 21.47599063 183.59484385 20.9609375 186.26953125 C20.62066824 187.98975696 20.27955511 189.70981601 19.9375 191.4296875 C19.78740479 192.21922821 19.63730957 193.00876892 19.48266602 193.82223511 C18.54512956 198.43407243 17.4483638 202.5516362 14 206 C1.66349948 206.60671314 -10.58761334 203.38996717 -22.63916016 201.02319336 C-24.22652049 200.71343649 -25.81476303 200.40817001 -27.40380859 200.10717773 C-29.72965145 199.66629908 -32.05242582 199.21165352 -34.375 198.75390625 C-35.08229248 198.62254776 -35.78958496 198.49118927 -36.51831055 198.35585022 C-40.40579096 197.57174523 -43.13175049 196.76927693 -46 194 C-48.32107851 184.11446924 -44.28478456 172.06831052 -42.23828125 162.34375 C-41.84556502 160.43280836 -41.45400216 158.52162937 -41.06352234 156.61022949 C-40.03490888 151.5883858 -38.99291706 146.56941934 -37.94732666 141.55108643 C-36.29308843 133.60053215 -34.65826515 125.64594479 -33.02375603 117.6913147 C-32.62460522 115.74883363 -32.22507448 113.80643059 -31.8251667 111.86410522 C-29.07362561 98.48823068 -26.50109357 85.10194845 -24.1652832 71.64648438 C-22.27326242 60.75765734 -20.20212887 49.90158333 -18.10343456 39.05095673 C-17.44458696 35.64417329 -16.79233543 32.23638561 -16.15405273 28.82568359 C-15.39996045 24.79700704 -14.62087328 20.77354199 -13.83984375 16.75 C-13.61368881 15.52418213 -13.38753387 14.29836426 -13.15452576 13.03540039 C-12.93071732 11.90481201 -12.70690887 10.77422363 -12.47631836 9.609375 C-12.28710312 8.61905273 -12.09788788 7.62873047 -11.90293884 6.60839844 C-9.72487978 0.31644864 -6.25906044 -0.61564529 0 0 Z " fill="#FDFCFE" transform="translate(250,147)"/>
</svg>
