<?xml version="1.0" standalone="no"?>
<!DOCTYPE svg PUBLIC "-//W3C//DTD SVG 20010904//EN"
 "http://www.w3.org/TR/2001/REC-SVG-20010904/DTD/svg10.dtd">
<svg version="1.0" xmlns="http://www.w3.org/2000/svg"
 width="1200.000000pt" height="1200.000000pt" viewBox="0 0 1200.000000 1200.000000"
 preserveAspectRatio="xMidYMid meet">
<metadata>
Created by potrace 1.16, written by Peter Selinger 2001-2019
</metadata>
<rect width="1200" height="1200" rx="150" ry="150" fill="white"/>
<g transform="translate(0.000000,1200.000000) scale(0.100000,-0.100000)"
fill="#6043D0" stroke="none">
<path d="M815 11983 c-201 -43 -364 -132 -515 -283 -118 -119 -183 -216 -236
-358 -70 -188 -64 309 -64 -5342 0 -5651 -6 -5154 64 -5342 53 -142 118 -239
236 -358 119 -118 216 -183 358 -236 188 -70 -309 -64 5342 -64 5651 0 5154
-6 5342 64 142 53 239 118 358 236 118 119 183 216 236 358 70 188 64 -309 64
5342 0 5651 6 5154 -64 5342 -53 142 -118 239 -236 358 -119 118 -216 183
-358 236 -188 70 310 64 -5349 63 -4495 -1 -5116 -2 -5178 -16z m9115 -2191
c19 -9 45 -33 58 -52 51 -75 121 35 -1089 -1712 -765 -1104 -1118 -1622 -1151
-1688 -26 -52 -57 -131 -68 -175 -82 -321 -25 -608 180 -900 35 -49 124 -178
198 -285 75 -107 151 -217 171 -245 19 -27 167 -241 330 -475 280 -404 402
-579 656 -945 61 -88 132 -189 156 -225 25 -36 124 -177 219 -315 96 -137 236
-339 311 -448 76 -109 141 -212 144 -228 9 -40 -9 -90 -46 -125 l-30 -29 -867
0 -867 0 -115 23 c-356 72 -626 217 -880 471 -121 121 -155 163 -305 381 -93
135 -199 288 -235 340 -37 52 -254 365 -482 695 -943 1365 -860 1250 -932
1287 -123 63 -280 14 -354 -110 l-27 -47 -5 -1350 -5 -1350 -22 -55 c-51 -124
-154 -228 -265 -267 -50 -17 -101 -18 -793 -18 l-740 0 -78 37 c-130 62 -218
174 -247 314 -8 36 -10 373 -7 1106 4 1130 2 1072 56 1285 145 566 596 1028
1164 1192 185 54 259 63 564 68 244 5 285 8 310 23 16 10 109 133 214 286 103
148 352 508 554 799 202 292 612 884 912 1316 300 433 576 822 616 866 290
326 685 524 1127 566 19 2 395 5 835 5 744 2 802 1 835 -16z"/>
</g>
</svg>
