<svg width="150" height="150" viewBox="0 0 150 150" fill="none" xmlns="http://www.w3.org/2000/svg">
<rect width="150" height="150" rx="75" fill="#6772E5"/>
<path d="M68.4886 56.3742C68.4886 52.28 71.9014 50.7029 77.373 50.7029C85.341 50.7029 95.453 53.1435 103.421 57.4403V32.7902C94.7394 29.3216 86.0753 28 77.3906 28C56.1533 28 42 39.0871 42 57.6253C42 86.6104 81.7961 81.9112 81.7961 94.411C81.7961 99.257 77.5933 100.817 71.7545 100.817C63.0905 100.817 51.8917 97.2364 43.1014 92.4638V116.051C52.145 119.953 61.8874 121.976 71.7369 121.998C93.5088 121.998 108.505 112.635 108.505 93.803C108.505 62.5624 68.4886 68.1603 68.4886 56.3742V56.3742Z" fill="white"/>
</svg>
