<?xml version="1.0" encoding="utf-8"?><!-- Uploaded to: SVG Repo, www.svgrepo.com, Generator: SVG Repo Mixer Tools -->
<svg width="800px" height="800px" viewBox="7.086 -169.483 1277.149 1277.149" shape-rendering="geometricPrecision" text-rendering="geometricPrecision" image-rendering="optimizeQuality" xmlns="http://www.w3.org/2000/svg"><path fill="none" d="M1138.734 931.095h.283M1139.017 931.095h-.283"/><path d="M1179.439 7.087c57.543 0 104.627 47.083 104.627 104.626v30.331l-145.36 103.833-494.873 340.894L148.96 242.419v688.676h-37.247c-57.543 0-104.627-47.082-104.627-104.625V111.742C7.086 54.198 54.17 7.115 111.713 7.115l532.12 394.525L1179.41 7.115l.029-.028z" fill="#e75a4d"/><linearGradient id="a" gradientUnits="userSpaceOnUse" x1="1959.712" y1="737.107" x2="26066.213" y2="737.107" gradientTransform="matrix(.0283 0 0 -.0283 248.36 225.244)"><stop offset="0" stop-color="#f8f6ef"/><stop offset="1" stop-color="#e7e4d6"/></linearGradient><path fill="url(#a)" d="M111.713 7.087l532.12 394.525L1179.439 7.087z"/><path fill="#e7e4d7" d="M148.96 242.419v688.676h989.774V245.877L643.833 586.771z"/><path fill="#b8b7ae" d="M148.96 931.095l494.873-344.324-2.24-1.586L148.96 923.527z"/><path fill="#b7b6ad" d="M1138.734 245.877l.283 685.218-495.184-344.324z"/><path d="M1284.066 142.044l.17 684.51c-2.494 76.082-35.461 103.238-145.219 104.514l-.283-685.219 145.36-103.833-.028.028z" fill="#b2392f"/><linearGradient id="b" gradientUnits="userSpaceOnUse" x1="1959.712" y1="737.107" x2="26066.213" y2="737.107" gradientTransform="matrix(.0283 0 0 -.0283 248.36 225.244)"><stop offset="0" stop-color="#f8f6ef"/><stop offset="1" stop-color="#e7e4d6"/></linearGradient><path fill="url(#b)" d="M111.713 7.087l532.12 394.525L1179.439 7.087z"/><linearGradient id="c" gradientUnits="userSpaceOnUse" x1="1959.712" y1="737.107" x2="26066.213" y2="737.107" gradientTransform="matrix(.0283 0 0 -.0283 248.36 225.244)"><stop offset="0" stop-color="#f8f6ef"/><stop offset="1" stop-color="#e7e4d6"/></linearGradient><path fill="url(#c)" d="M111.713 7.087l532.12 394.525L1179.439 7.087z"/><linearGradient id="d" gradientUnits="userSpaceOnUse" x1="1959.712" y1="737.107" x2="26066.213" y2="737.107" gradientTransform="matrix(.0283 0 0 -.0283 248.36 225.244)"><stop offset="0" stop-color="#f8f6ef"/><stop offset="1" stop-color="#e7e4d6"/></linearGradient><path fill="url(#d)" d="M111.713 7.087l532.12 394.525L1179.439 7.087z"/><linearGradient id="e" gradientUnits="userSpaceOnUse" x1="1959.712" y1="737.107" x2="26066.213" y2="737.107" gradientTransform="matrix(.0283 0 0 -.0283 248.36 225.244)"><stop offset="0" stop-color="#f8f6ef"/><stop offset="1" stop-color="#e7e4d6"/></linearGradient><path fill="url(#e)" d="M111.713 7.087l532.12 394.525L1179.439 7.087z"/><linearGradient id="f" gradientUnits="userSpaceOnUse" x1="1959.712" y1="737.107" x2="26066.213" y2="737.107" gradientTransform="matrix(.0283 0 0 -.0283 248.36 225.244)"><stop offset="0" stop-color="#f8f6ef"/><stop offset="1" stop-color="#e7e4d6"/></linearGradient><path fill="url(#f)" d="M111.713 7.087l532.12 394.525L1179.439 7.087z"/><linearGradient id="g" gradientUnits="userSpaceOnUse" x1="1959.712" y1="737.107" x2="26066.213" y2="737.107" gradientTransform="matrix(.0283 0 0 -.0283 248.36 225.244)"><stop offset="0" stop-color="#f8f6ef"/><stop offset="1" stop-color="#e7e4d6"/></linearGradient><path fill="url(#g)" d="M111.713 7.087l532.12 394.525L1179.439 7.087z"/><linearGradient id="h" gradientUnits="userSpaceOnUse" x1="1959.712" y1="737.107" x2="26066.213" y2="737.107" gradientTransform="matrix(.0283 0 0 -.0283 248.36 225.244)"><stop offset="0" stop-color="#f8f6ef"/><stop offset="1" stop-color="#e7e4d6"/></linearGradient><path fill="url(#h)" d="M111.713 7.087l532.12 394.525L1179.439 7.087z"/><path fill="#f7f5ed" d="M111.713 7.087l532.12 394.525L1179.439 7.087z"/></svg>