<svg xmlns="http://www.w3.org/2000/svg" xmlns:xlink="http://www.w3.org/1999/xlink" version="1.1" x="0px" y="0px" viewBox="0 0 88 110" enable-background="new 0 0 88 88" xml:space="preserve"><g><path d="M43.85,83.723c-22.444,0-40.704-18.26-40.704-40.704S21.406,2.315,43.85,2.315s40.704,18.26,40.704,40.704   S66.294,83.723,43.85,83.723z M43.85,10.315c-18.033,0-32.704,14.671-32.704,32.704S25.817,75.723,43.85,75.723   s32.704-14.671,32.704-32.704S61.883,10.315,43.85,10.315z"/></g><g><g><path d="M45.534,69.37h-4.423c-0.878,0-1.59-0.712-1.59-1.59v-5.874c0-0.878,0.712-1.59,1.59-1.59h4.423    c0.878,0,1.59,0.712,1.59,1.59v5.874C47.124,68.658,46.412,69.37,45.534,69.37z M44.989,57.222h-3.514    c-0.868,0-1.575-0.695-1.59-1.563c-0.042-2.531,0.118-4.876,0.477-6.969c0.39-2.28,1.481-4.471,3.242-6.511    c0.903-1.041,1.865-2.077,2.861-3.083c0.92-0.928,1.781-1.887,2.559-2.851c0.735-0.912,1.358-1.863,1.851-2.828    c0.434-0.849,0.645-1.748,0.645-2.748c0-0.989-0.176-1.921-0.521-2.772c-0.344-0.844-0.829-1.561-1.483-2.189    c-0.651-0.625-1.473-1.129-2.44-1.496c-0.991-0.375-2.152-0.564-3.447-0.564c-1.246,0-2.36,0.237-3.31,0.705    c-0.964,0.475-1.747,1.112-2.392,1.948c-0.667,0.864-1.181,1.891-1.528,3.055c-0.355,1.191-0.518,2.518-0.481,3.943    c0.011,0.428-0.152,0.843-0.451,1.15c-0.299,0.307-0.71,0.48-1.139,0.48H30.69c-0.833,0-1.525-0.644-1.585-1.475    c-0.176-2.423,0.074-4.674,0.743-6.69c0.673-2.028,1.692-3.802,3.028-5.273c1.34-1.476,2.962-2.63,4.821-3.429    c1.849-0.794,3.895-1.197,6.081-1.197c2.238,0,4.288,0.336,6.092,0.998c1.836,0.674,3.419,1.645,4.706,2.885    c1.292,1.247,2.296,2.773,2.983,4.539c0.676,1.738,1.018,3.661,1.018,5.717c0,2.224-0.466,4.181-1.385,5.818    c-0.847,1.505-1.892,2.924-3.106,4.215c-1.142,1.212-2.322,2.435-3.544,3.667c-1.114,1.126-2.093,2.402-2.908,3.791    c-0.564,0.951-0.869,1.971-0.936,3.124c-0.078,1.359-0.118,2.71-0.118,4.014C46.579,56.51,45.867,57.222,44.989,57.222z"/></g></g><text x="0" y="103" fill="#000000" font-size="5px" font-weight="bold" font-family="'Helvetica Neue', Helvetica, Arial-Unicode, Arial, Sans-serif">Created by Bradley Wilton</text><text x="0" y="108" fill="#000000" font-size="5px" font-weight="bold" font-family="'Helvetica Neue', Helvetica, Arial-Unicode, Arial, Sans-serif">from the Noun Project</text></svg>