<svg xmlns="http://www.w3.org/2000/svg" xmlns:xlink="http://www.w3.org/1999/xlink" width="1040" height="667.88"><rect width="1040" height="667.88" rx="5" ry="5" class="a"/><svg y="0%" x="0%"><circle cx="20" cy="20" r="6" fill="#ff5f58"/><circle cx="40" cy="20" r="6" fill="#ffbd2e"/><circle cx="60" cy="20" r="6" fill="#18c132"/></svg><svg height="607.88" viewBox="0 0 100 60.788" width="1000" x="15" xmlns="http://www.w3.org/2000/svg" xmlns:xlink="http://www.w3.org/1999/xlink" y="50"><style>@keyframes m{0%{transform:translateX(0)}7.5%{transform:translateX(-100px)}29.3%{transform:translateX(-300px)}30.5%{transform:translateX(-500px)}52.3%{transform:translateX(-600px)}56.4%{transform:translateX(-700px)}56.5%{transform:translateX(-800px)}to{transform:translateX(-900px)}}.a{fill:#282d35}.f,.g,.h{fill:#b9c0cb;white-space:pre}.g,.h{fill:#a8cc8c}.h{fill:#b9bfca}</style><g font-family="Monaco,Consolas,Menlo,'Bitstream Vera Sans Mono','Powerline Symbols',monospace" font-size="1.67"><defs><symbol id="1"><text y="1.67" class="f">Launching</text><text x="10.02" y="1.67" class="f">12_worker_fs</text></symbol><symbol id="2"><text y="1.67" class="g">🤖</text><text x="3.006" y="1.67" class="g">LLM</text><text x="7.014" y="1.67" class="g">Call:</text><text x="13.026" y="1.67" class="f">openai:gpt-5.6-luna</text></symbol><symbol id="3"><text x="4.008" y="1.67" class="h">const</text><text x="10.02" y="1.67" class="h">files</text><text x="16.032" y="1.67" class="h">=</text><text x="18.036" y="1.67" class="h">await</text><text x="24.048" y="1.67" class="h">fs.listFiles(&apos;/notes&apos;);</text><text x="48.096" y="1.67" class="h">return</text><text x="55.11" y="1.67" class="h">inspect(files);</text></symbol><symbol id="4"><text x="4.008" y="1.67" class="h">Input:</text><text x="11.022" y="1.67" class="h">&quot;/notes&quot;</text></symbol><symbol id="5"><text x="4.008" y="1.67" class="h">Output:</text><text x="12.024" y="1.67" class="h">[</text></symbol><symbol id="6"><text x="6.012" y="1.67" class="h">{</text></symbol><symbol id="7"><text x="8.016" y="1.67" class="h">&quot;folder&quot;:</text><text x="18.036" y="1.67" class="h">&quot;/notes&quot;,</text></symbol><symbol id="8"><text x="8.016" y="1.67" class="h">&quot;file&quot;:</text><text x="16.032" y="1.67" class="h">&quot;2026-09-21.txt&quot;,</text></symbol><symbol id="9"><text x="8.016" y="1.67" class="h">&quot;createdAt&quot;:</text><text x="21.042" y="1.67" class="h">&quot;2026-09-21T16:59:51.859Z&quot;,</text></symbol><symbol id="10"><text x="8.016" y="1.67" class="h">&quot;updatedAt&quot;:</text><text x="21.042" y="1.67" class="h">&quot;2026-09-21T16:59:51.859Z&quot;,</text></symbol><symbol id="11"><text x="8.016" y="1.67" class="h">&quot;size&quot;:</text><text x="16.032" y="1.67" class="h">13,</text></symbol><symbol id="12"><text x="8.016" y="1.67" class="h">&quot;url&quot;:</text><text x="15.03" y="1.67" class="h">&quot;https://files.bpcontent.cloud/2026/09/21/16/20260921165951-DRRS4ANI.txt&quot;,</text></symbol><symbol id="13"><text x="8.016" y="1.67" class="h">&quot;contentType&quot;:</text><text x="23.046" y="1.67" class="h">&quot;text/plain;</text><text x="36.072" y="1.67" class="h">charset=utf-8&quot;</text></symbol><symbol id="14"><text x="6.012" y="1.67" class="h">}</text></symbol><symbol id="15"><text x="4.008" y="1.67" class="h">]</text></symbol><symbol id="16"><text x="4.008" y="1.67" class="h">const</text><text x="10.02" y="1.67" class="h">content</text><text x="18.036" y="1.67" class="h">=</text><text x="20.04" y="1.67" class="h">await</text><text x="26.052" y="1.67" class="h">fs.readFile(&apos;/notes/2026-09-21.txt&apos;);</text><text x="64.128" y="1.67" class="h">return</text><text x="71.142" y="1.67" class="h">exit(&quot;exit&quot;,</text><text x="84.168" y="1.67" class="h">{message:</text><text x="94.188" y="1.67" class="h">conten</text></symbol><symbol id="17"><text y="1.67" class="h">t});</text></symbol><symbol id="18"><text y="1.67" class="g">🔨</text><text x="3.006" y="1.67" class="g">Tool</text><text x="8.016" y="1.67" class="g">Call:</text><text x="14.028" y="1.67" style="white-space:pre" fill="#b9c0cb" font-weight="700">readFile</text><text x="23.046" y="1.67" class="h">&quot;/notes/2026-09-21.txt&quot;</text><text x="47.094" y="1.67" style="white-space:pre" fill="#6f7783">=&gt;</text><text x="50.1" y="1.67" class="h">&quot;Hello,</text><text x="58.116" y="1.67" class="h">world!&quot;</text></symbol><symbol id="19"><text y="1.67" class="f">Message:</text><text x="9.018" y="1.67" class="f">Hello,</text><text x="16.032" y="1.67" class="f">world!</text></symbol><symbol id="a"><path fill="transparent" d="M0 0h100v28H0z"/></symbol><symbol id="b"><path fill="#6f7683" d="M0 0h1.102v2.171H0z"/></symbol></defs><path class="a" d="M0 0h100v60.788H0z"/><g style="animation-duration:9.188317999999999s;animation-iteration-count:infinite;animation-name:m;animation-timing-function:steps(1,end)"><svg width="1000"><svg><use xlink:href="#a"/><use xlink:href="#b" x="-.004"/></svg><svg x="100"><use xlink:href="#a"/><use xlink:href="#b" x="-.004" y="2.146"/><use xlink:href="#1"/></svg><svg x="200"><use xlink:href="#a"/><use xlink:href="#b" x="-.004" y="4.317"/><use xlink:href="#1"/><use xlink:href="#2" y="2.171"/></svg><svg x="300"><use xlink:href="#a"/><use xlink:href="#b" x="-.004" y="6.488"/><use xlink:href="#1"/><use xlink:href="#2" y="2.171"/><use xlink:href="#3" y="4.342"/></svg><svg x="400"><use xlink:href="#a"/><use xlink:href="#b" x="-.004" y="8.659"/><use xlink:href="#1"/><use xlink:href="#2" y="2.171"/><use xlink:href="#3" y="4.342"/><use xlink:href="#4" y="6.513"/></svg><svg x="500"><use xlink:href="#a"/><use xlink:href="#b" x="-.004" y="32.54"/><use xlink:href="#1"/><use xlink:href="#2" y="2.171"/><use xlink:href="#3" y="4.342"/><use xlink:href="#4" y="6.513"/><use xlink:href="#5" y="8.684"/><use xlink:href="#6" y="10.855"/><use xlink:href="#7" y="13.026"/><use xlink:href="#8" y="15.197"/><use xlink:href="#9" y="17.368"/><use xlink:href="#10" y="19.539"/><use xlink:href="#11" y="21.71"/><use xlink:href="#12" y="23.881"/><use xlink:href="#13" y="26.052"/><use xlink:href="#14" y="28.223"/><use xlink:href="#15" y="30.394"/></svg><svg x="600"><use xlink:href="#a"/><use xlink:href="#b" x="-.004" y="39.053"/><use xlink:href="#1"/><use xlink:href="#2" y="2.171"/><use xlink:href="#3" y="4.342"/><use xlink:href="#4" y="6.513"/><use xlink:href="#5" y="8.684"/><use xlink:href="#6" y="10.855"/><use xlink:href="#7" y="13.026"/><use xlink:href="#8" y="15.197"/><use xlink:href="#9" y="17.368"/><use xlink:href="#10" y="19.539"/><use xlink:href="#11" y="21.71"/><use xlink:href="#12" y="23.881"/><use xlink:href="#13" y="26.052"/><use xlink:href="#14" y="28.223"/><use xlink:href="#15" y="30.394"/><use xlink:href="#2" y="32.565"/><use xlink:href="#16" y="34.736"/><use xlink:href="#17" y="36.907"/></svg><svg x="700"><use xlink:href="#a"/><use xlink:href="#b" x="-.004" y="41.224"/><use xlink:href="#1"/><use xlink:href="#2" y="2.171"/><use xlink:href="#3" y="4.342"/><use xlink:href="#4" y="6.513"/><use xlink:href="#5" y="8.684"/><use xlink:href="#6" y="10.855"/><use xlink:href="#7" y="13.026"/><use xlink:href="#8" y="15.197"/><use xlink:href="#9" y="17.368"/><use xlink:href="#10" y="19.539"/><use xlink:href="#11" y="21.71"/><use xlink:href="#12" y="23.881"/><use xlink:href="#13" y="26.052"/><use xlink:href="#14" y="28.223"/><use xlink:href="#15" y="30.394"/><use xlink:href="#2" y="32.565"/><use xlink:href="#16" y="34.736"/><use xlink:href="#17" y="36.907"/><use xlink:href="#18" y="39.078"/></svg><svg x="800"><use xlink:href="#a"/><use xlink:href="#b" x="-.004" y="43.395"/><use xlink:href="#1"/><use xlink:href="#2" y="2.171"/><use xlink:href="#3" y="4.342"/><use xlink:href="#4" y="6.513"/><use xlink:href="#5" y="8.684"/><use xlink:href="#6" y="10.855"/><use xlink:href="#7" y="13.026"/><use xlink:href="#8" y="15.197"/><use xlink:href="#9" y="17.368"/><use xlink:href="#10" y="19.539"/><use xlink:href="#11" y="21.71"/><use xlink:href="#12" y="23.881"/><use xlink:href="#13" y="26.052"/><use xlink:href="#14" y="28.223"/><use xlink:href="#15" y="30.394"/><use xlink:href="#2" y="32.565"/><use xlink:href="#16" y="34.736"/><use xlink:href="#17" y="36.907"/><use xlink:href="#18" y="39.078"/><use xlink:href="#19" y="41.249"/></svg><svg x="900"><use xlink:href="#a"/><use xlink:href="#b" x="-.004" y="43.395"/><use xlink:href="#1"/><use xlink:href="#2" y="2.171"/><use xlink:href="#3" y="4.342"/><use xlink:href="#4" y="6.513"/><use xlink:href="#5" y="8.684"/><use xlink:href="#6" y="10.855"/><use xlink:href="#7" y="13.026"/><use xlink:href="#8" y="15.197"/><use xlink:href="#9" y="17.368"/><use xlink:href="#10" y="19.539"/><use xlink:href="#11" y="21.71"/><use xlink:href="#12" y="23.881"/><use xlink:href="#13" y="26.052"/><use xlink:href="#14" y="28.223"/><use xlink:href="#15" y="30.394"/><use xlink:href="#2" y="32.565"/><use xlink:href="#16" y="34.736"/><use xlink:href="#17" y="36.907"/><use xlink:href="#18" y="39.078"/><use xlink:href="#19" y="41.249"/></svg></svg></g></g></svg></svg>