<svg class="h-8 -mt-2" data-v-235bc6c6="" viewBox="0 0 200 51" version="1.1" xmlns="http://www.w3.org/2000/svg" xmlns:xlink="http://www.w3.org/1999/xlink"><g data-v-235bc6c6="" id="mailerlite-light" stroke="none" stroke-width="1" fill="none" fill-rule="evenodd"><g data-v-235bc6c6="" fill-rule="nonzero"><g data-v-235bc6c6="" id="mailer" transform="translate(0.000000, 18.000000)" fill="#000000"><path data-v-235bc6c6="" id="Shape" d="M26.0798481,9.13105704 C22.7688413,9.13105704 20.1381784,10.4354938 18.2785718,12.9993866 C17.1900216,11.0202413 15.0129213,9.13105704 11.7019145,9.13105704 C8.30019514,9.13105704 6.3045198,10.6154161 4.89847582,12.1897363 L4.89847582,11.7399305 C4.89847582,10.4354938 3.80992564,9.35595993 2.49459417,9.35595993 C1.1792627,9.35595993 0.136068773,10.4354938 0.136068773,11.7399305 L0.136068773,29.8671028 C0.136068773,31.1715396 1.1792627,32.2060928 2.49459417,32.2060928 C3.80992564,32.2060928 4.89847582,31.1715396 4.89847582,29.8671028 L4.89847582,17.317522 C5.987026,15.5632795 7.61985127,13.5841341 10.568008,13.5841341 C13.380096,13.5841341 14.4686462,14.9335514 14.4686462,18.4420364 L14.4686462,29.8671028 C14.4686462,31.1715396 15.5118401,32.2060928 16.8271716,32.2060928 C18.142503,32.2060928 19.2310532,31.1715396 19.2310532,29.8671028 L19.2310532,17.317522 C20.3196034,15.5632795 21.9524287,13.5841341 24.9005854,13.5841341 C27.7126734,13.5841341 28.8012236,14.9335514 28.8012236,18.4420364 L28.8012236,29.8671028 C28.8012236,31.1715396 29.8444175,32.2060928 31.159749,32.2060928 C32.4750804,32.2060928 33.5636306,31.1715396 33.5636306,29.8671028 L33.5636306,17.6773666 C33.6543431,13.5391535 31.2958177,9.13105704 26.0798481,9.13105704 Z M48.9394019,9.13105704 C46.308739,9.13105704 43.9048573,9.62584339 41.4102632,10.7053772 C40.5484943,11.0652218 40.0042192,11.7849111 40.0042192,12.7295032 C40.0042192,13.8989982 40.9113443,14.7986097 42.0452508,14.7986097 C42.2266758,14.7986097 42.4534571,14.7536291 42.7255946,14.7086485 C44.4037762,14.1688816 45.9912452,13.7190759 48.2590581,13.7190759 C51.9329149,13.7190759 53.4750277,15.0684932 53.5203839,18.3970558 L48.8033332,18.3970558 C42.3627446,18.3970558 38.5528189,21.140871 38.5528189,25.6839092 C38.5528189,30.1369863 42.2720321,32.4759763 45.9458889,32.4759763 C48.8940457,32.4759763 51.4339961,31.5763648 53.5203839,29.8671028 L53.5203839,29.9120834 C53.5203839,31.2165201 54.5635779,32.2510734 55.8789093,32.2510734 C57.1942408,32.2510734 58.282791,31.2165201 58.282791,29.9120834 L58.282791,17.9472501 C58.282791,13.5391535 55.3799905,9.13105704 48.9394019,9.13105704 Z M47.3972892,28.1128604 C44.72127,28.1128604 43.315226,27.1232877 43.315226,25.1891229 C43.315226,24.4694337 43.315226,22.310366 49.302252,22.310366 L53.4750277,22.310366 L53.4750277,25.2341035 C52.2504087,26.5835208 49.9372396,28.1128604 47.3972892,28.1128604 Z M67.6261801,0.674708649 C69.0775803,0.674708649 70.256843,1.84420364 70.256843,3.28358209 L70.256843,3.4635044 C70.256843,4.90288285 69.0775803,6.07237784 67.6261801,6.07237784 L67.3540425,6.07237784 C65.9026423,6.07237784 64.7233796,4.90288285 64.7233796,3.4635044 L64.7233796,3.28358209 C64.7233796,1.84420364 65.9026423,0.674708649 67.3540425,0.674708649 L67.6261801,0.674708649 Z M67.4901113,9.31097935 C68.850799,9.31097935 69.8939929,10.3905132 69.8939929,11.6949499 L69.8939929,29.8221223 C69.8939929,31.126559 68.850799,32.1611122 67.4901113,32.1611122 C66.1747798,32.1611122 65.1315859,31.126559 65.1315859,29.8221223 L65.1315859,11.6949499 C65.1315859,10.3455326 66.1747798,9.31097935 67.4901113,9.31097935 Z M79.6002321,1.77635684e-15 C80.9609198,1.77635684e-15 82.0041137,1.07953384 82.0041137,2.38397056 L82.0041137,29.8221223 C82.0041137,31.126559 80.9609198,32.1611122 79.6002321,32.1611122 C78.2849006,32.1611122 77.2417067,31.126559 77.2417067,29.8221223 L77.2417067,2.38397056 C77.2417067,1.03455326 78.2849006,1.77635684e-15 79.6002321,1.77635684e-15 Z M98.5137915,9.13105704 C95.1120721,9.13105704 92.2999842,10.3905132 90.3950214,12.7744837 C88.7621961,14.8435903 87.8550709,17.6773666 87.8550709,20.7810264 C87.8550709,28.0678798 92.1639154,32.4309957 99.3302041,32.4309957 C103.276199,32.4309957 105.226518,31.5313842 106.995412,30.4968309 C107.857181,30.0020446 108.310743,29.2823553 108.310743,28.5626661 C108.310743,27.3931711 107.358262,26.448579 106.133643,26.448579 C105.770793,26.448579 105.453299,26.4935596 105.181161,26.6734819 C103.911186,27.3481906 102.323717,27.932938 99.6476979,27.932938 C95.6563472,27.932938 93.2978218,26.0887344 92.7081905,22.5802494 L106.632562,22.5802494 C108.038606,22.5802494 109.036443,21.5906768 109.036443,20.2412595 C109.127156,12.5945614 103.639049,9.13105704 98.5137915,9.13105704 Z M98.5137915,13.2692701 C100.509467,13.2692701 103.86583,14.3937845 104.319392,18.5319975 L92.7081905,18.5319975 C93.1617531,14.8885708 95.8831285,13.2692701 98.5137915,13.2692701 Z M125.68219,9.13105704 C126.997521,9.13105704 127.995359,10.1206297 127.995359,11.4250664 C127.995359,12.7295032 126.997521,13.6740953 125.591477,13.6740953 L125.364696,13.6740953 C122.915458,13.6740953 120.738358,14.8885708 119.196245,17.0926191 L119.196245,29.8221223 C119.196245,31.126559 118.107695,32.1611122 116.792363,32.1611122 C115.477032,32.1611122 114.433838,31.126559 114.433838,29.8221223 L114.433838,11.6949499 C114.433838,10.3905132 115.477032,9.31097935 116.792363,9.31097935 C118.107695,9.31097935 119.196245,10.3905132 119.196245,11.6949499 L119.196245,12.2796974 C121.101208,10.2105909 123.187596,9.13105704 125.455408,9.13105704 L125.68219,9.13105704 Z"></path></g> <g data-v-235bc6c6="" id="lite" transform="translate(137.000000, 0.000000)"><path data-v-235bc6c6="" id="Shape-path" d="M55.9642336,0.364285714 L7.03576642,0.364285714 C3.2649635,0.364285714 0.137956204,3.46071429 0.137956204,7.19464286 L0.137956204,29.9625 L0.137956204,34.425 L0.137956204,50.5901786 L9.65693431,41.2553571 L56.010219,41.2553571 C59.7810219,41.2553571 62.9080292,38.1589286 62.9080292,34.425 L62.9080292,7.19464286 C62.8620438,3.41517857 59.7810219,0.364285714 55.9642336,0.364285714 Z" fill="#09C269"></path> <path data-v-235bc6c6="" id="Shape-path-3" d="M46.9510949,16.2107143 C52.1934307,16.2107143 54.5846715,20.3544643 54.5846715,24.1794643 C54.5846715,25.2267857 53.8029197,25.9553571 52.7452555,25.9553571 L43.0883212,25.9553571 C43.5481752,28.2776786 45.2036496,29.5071429 47.8248175,29.5071429 C49.710219,29.5071429 50.7678832,29.0973214 51.6875912,28.6419643 C51.9175182,28.5053571 52.1474453,28.4598214 52.4233577,28.4598214 C53.3430657,28.4598214 54.0788321,29.1883929 54.0788321,30.0991071 C54.0788321,30.6910714 53.7109489,31.2375 53.0671533,31.6017857 C51.779562,32.3303571 50.4,32.9678571 47.5489051,32.9678571 C42.3985401,32.9678571 39.2715328,29.8258929 39.2715328,24.5892857 C39.2715328,18.4419643 43.410219,16.2107143 46.9510949,16.2107143 Z M31.5919708,13.5241071 C32.189781,13.5241071 32.6036496,13.9794643 32.6036496,14.5714286 L32.6036496,16.4839286 L35.5467153,16.4839286 C36.4664234,16.4839286 37.2021898,17.2125 37.2021898,18.1232143 C37.2021898,19.0339286 36.4664234,19.7625 35.5467153,19.7625 L32.649635,19.7625 L32.649635,28.3232143 C32.649635,29.5526786 33.2934307,29.64375 34.1671533,29.64375 C34.6729927,29.64375 34.9489051,29.5526786 35.2248175,29.5071429 C35.4547445,29.4616071 35.6846715,29.3705357 35.9605839,29.3705357 C36.6963504,29.3705357 37.5240876,29.9625 37.5240876,30.91875 C37.4781022,31.5107143 37.1562044,32.0571429 36.5583942,32.3303571 C35.6846715,32.7401786 34.8109489,32.9223214 33.8452555,32.9223214 C30.6722628,32.9223214 28.9708029,31.4196429 28.9708029,28.5508929 L28.9708029,19.7625 L27.3153285,19.7625 C26.7175182,19.7625 26.3036496,19.3071429 26.3036496,18.7607143 C26.3036496,18.4419643 26.4416058,18.1232143 26.7175182,17.8955357 L30.7642336,13.9339286 C30.8562044,13.8428571 31.1781022,13.5241071 31.5919708,13.5241071 Z M12.9678832,9.79017857 C13.979562,9.79017857 14.8072993,10.6098214 14.8072993,11.6116071 L14.8072993,30.9642857 C14.8072993,31.9660714 13.979562,32.7401786 12.9678832,32.7401786 C11.9562044,32.7401786 11.1744526,31.9205357 11.1744526,30.9642857 L11.1744526,11.6116071 C11.1744526,10.6098214 11.9562044,9.79017857 12.9678832,9.79017857 Z M21.5211679,16.3473214 C22.5328467,16.3473214 23.3605839,17.1669643 23.3605839,18.16875 L23.3605839,30.9642857 C23.3605839,31.9660714 22.5328467,32.7401786 21.5211679,32.7401786 C20.5094891,32.7401786 19.7277372,31.9205357 19.7277372,30.9642857 L19.7277372,18.16875 C19.7277372,17.1669643 20.5094891,16.3473214 21.5211679,16.3473214 Z M46.9970803,19.44375 C45.249635,19.44375 43.410219,20.4910714 43.0883212,22.9044643 L50.9518248,22.9044643 C50.5839416,20.4910714 48.7445255,19.44375 46.9970803,19.44375 Z M21.6131387,10.2455357 C22.7167883,10.2455357 23.5905109,11.1107143 23.5905109,12.2035714 L23.5905109,12.3401786 C23.5905109,13.4330357 22.7167883,14.2982143 21.6131387,14.2982143 L21.4291971,14.2982143 C20.3255474,14.2982143 19.4518248,13.4330357 19.4518248,12.3401786 L19.4518248,12.2035714 C19.4518248,11.1107143 20.3255474,10.2455357 21.4291971,10.2455357 L21.6131387,10.2455357 Z" fill="#FFFFFF"></path></g></g></g></svg>