<?xml version="1.0" encoding="UTF-8"?>
<svg version="1.1" xmlns="http://www.w3.org/2000/svg" width="800" height="801">
<path d="M0 0 C0.82881683 0.00093658 1.65763367 0.00187317 2.51156616 0.00283813 C94.71861479 0.22704645 185.07064229 32.37279227 273.625 107.1875 C274.20040527 107.7124707 274.77581055 108.23744141 275.36865234 108.77832031 C282.38754726 115.19073347 289.27966991 121.59543831 295.52734375 128.77734375 C297.79672369 131.38480636 300.14581615 133.90647605 302.5 136.4375 C322.16519209 158.07832963 338.11082873 182.91188965 352.625 208.1875 C353.00897949 208.85185059 353.39295898 209.51620117 353.78857422 210.20068359 C383.36008174 261.7986467 400.60235855 325.62279377 400.828125 385.0625 C400.83382507 386.26648438 400.83952515 387.47046875 400.84539795 388.7109375 C400.85479176 391.25226989 400.86135939 393.79361414 400.86523438 396.33496094 C400.87483391 400.12197752 400.90586847 403.90842524 400.9375 407.6953125 C401.03225017 429.4578927 399.3591145 451.033354 395.3125 472.4375 C394.99067749 474.16709961 394.99067749 474.16709961 394.66235352 475.93164062 C388.7071729 507.13790215 379.20674151 537.99860883 365.73486328 566.80615234 C364.69196866 569.04381053 363.68291488 571.29340003 362.68359375 573.55078125 C346.35982442 609.97026138 322.44569581 642.83398975 295.625 672.1875 C294.71726883 673.18863974 293.80972519 674.18994953 292.90234375 675.19140625 C285.84556695 682.96055827 278.70575715 690.51182089 270.734375 697.35546875 C268.44870454 699.34061587 266.22798622 701.3878983 264 703.4375 C203.77290448 757.68786085 126.29363697 788.72923575 46.625 799.1875 C45.62500977 799.32027344 44.62501953 799.45304688 43.59472656 799.58984375 C-29.03240116 808.69060315 -105.51832485 794.39798238 -171.375 763.1875 C-172.32552246 762.73906738 -173.27604492 762.29063477 -174.25537109 761.82861328 C-192.10174717 753.3380554 -209.15376424 743.48443205 -225.375 732.1875 C-225.91253906 731.81447754 -226.45007813 731.44145508 -227.00390625 731.05712891 C-251.15922133 714.24057271 -275.58985308 694.82988118 -294.75 672.375 C-296.58909932 670.2348092 -298.43705209 668.12080621 -300.359375 666.0546875 C-307.02905872 658.87382365 -312.9095003 651.15912133 -318.77587891 643.32177734 C-320.25294914 641.35039597 -321.74071326 639.38757984 -323.23046875 637.42578125 C-334.21433398 622.84222795 -343.60272966 607.29189848 -352.26074219 591.23535156 C-353.26924302 589.38186669 -354.30866244 587.5452874 -355.3515625 585.7109375 C-375.49363493 549.65414118 -387.76104018 508.46253763 -394.625 467.9375 C-394.75042175 467.20112305 -394.87584351 466.46474609 -395.00506592 465.70605469 C-398.60133071 444.34707299 -399.75104433 423.41043469 -399.6875 401.75 C-399.68567719 400.46414001 -399.68385437 399.17828003 -399.68197632 397.85345459 C-399.63797338 379.4407324 -399.28800132 361.39949253 -396.375 343.1875 C-396.20871094 342.07632812 -396.04242188 340.96515625 -395.87109375 339.8203125 C-389.42995062 297.35648 -376.20949023 256.19204597 -356.359375 218.08691406 C-355.35908513 216.15679125 -354.38190796 214.21611077 -353.40625 212.2734375 C-344.19748964 194.16418725 -333.27132963 176.89919455 -320.72753906 160.92089844 C-319.42029938 159.24555516 -318.13974584 157.5533448 -316.8671875 155.8515625 C-312.34298135 149.82381365 -307.61119985 144.01693275 -302.6875 138.3125 C-302.16486572 137.70591553 -301.64223145 137.09933105 -301.10375977 136.47436523 C-297.86850869 132.7681438 -294.49955556 129.25093844 -290.97729492 125.81616211 C-289.34325863 124.1552363 -287.85644304 122.4223674 -286.375 120.625 C-280.5962527 113.94332343 -273.91293703 108.10852896 -267.375 102.1875 C-266.46935303 101.36475586 -266.46935303 101.36475586 -265.54541016 100.52539062 C-243.39738118 80.52700537 -218.50360117 63.53961472 -192.375 49.1875 C-191.50182129 48.70571289 -190.62864258 48.22392578 -189.72900391 47.72753906 C-131.70616328 15.95091122 -66.07159213 -0.09762178 0 0 Z M-64.375 211.1875 C-64.42029536 245.02272011 -64.45606372 278.85792882 -64.47713066 312.69317251 C-64.47963181 316.69567625 -64.48222048 320.69817994 -64.48486328 324.70068359 C-64.4853879 325.49744676 -64.48591252 326.29420994 -64.48645304 327.11511745 C-64.4951349 339.98428753 -64.51089254 352.85343959 -64.52930559 365.72259901 C-64.54806659 378.94608992 -64.55912978 392.16957144 -64.56317699 405.39307511 C-64.56590924 413.54026622 -64.57451111 421.68740635 -64.59083293 429.83458175 C-64.60147651 435.4357198 -64.60458411 441.03683184 -64.60200275 446.63797925 C-64.60073282 449.86042254 -64.60368196 453.08275974 -64.61341095 456.30519104 C-64.74267127 481.77361846 -64.74267127 481.77361846 -60.1875 506.75 C-59.86604004 507.91740723 -59.86604004 507.91740723 -59.53808594 509.10839844 C-53.82567508 529.05739758 -44.34781656 545.9072854 -30.375 561.1875 C-29.65828125 561.98671875 -28.9415625 562.7859375 -28.203125 563.609375 C-5.02097458 588.18594048 29.39596233 600.70447461 62.625 602.1875 C63.53894531 602.22875 64.45289063 602.27 65.39453125 602.3125 C98.58708603 603.03901283 132.33755001 591.7900141 157.625 570.1875 C158.58921875 569.37410156 159.5534375 568.56070312 160.546875 567.72265625 C166.99197584 562.08764405 172.44905211 555.99639512 177.625 549.1875 C178.49705078 548.07375 178.49705078 548.07375 179.38671875 546.9375 C195.56686289 525.21311066 204.43914324 498.12868333 205.625 471.1875 C205.66625 470.26066406 205.7075 469.33382813 205.75 468.37890625 C206.21390806 447.0101411 201.1502795 426.24282642 191.625 407.1875 C191.30047852 406.53185059 190.97595703 405.87620117 190.64160156 405.20068359 C174.67920349 373.53085315 145.83102666 348.96105258 112.25 337.6875 C79.72444391 327.46599108 41.19777957 328.49597265 10.45849609 344.20751953 C-2.71502203 351.24859833 -13.84781647 360.66031647 -24.375 371.1875 C-24.375 318.3875 -24.375 265.5875 -24.375 211.1875 C-37.575 211.1875 -50.775 211.1875 -64.375 211.1875 Z M-189.375 214.1875 C-186.35839416 218.38103918 -183.25125355 222.38592972 -179.75 226.1875 C-169.79915864 237.23977036 -161.38533433 249.68683275 -153.375 262.1875 C-152.88950684 262.94063477 -152.40401367 263.69376953 -151.90380859 264.46972656 C-134.4163076 291.72397757 -119.94266811 320.81748903 -106.375 350.1875 C-110.20346473 346.37634341 -113.99431234 342.52919627 -117.78218079 338.67771912 C-121.31076699 335.09519032 -124.85028517 331.52354447 -128.39038086 327.95239258 C-130.23912363 326.08364072 -132.08424753 324.21130103 -133.92553711 322.33520508 C-149.07352829 306.90914405 -164.33381816 293.55520857 -183.375 283.1875 C-184.18807617 282.74470703 -185.00115234 282.30191406 -185.83886719 281.84570312 C-214.696558 266.36005233 -249.31402012 250.62353269 -282.375 248.1875 C-283.86 248.6825 -283.86 248.6825 -285.375 249.1875 C-276.44998947 257.58604294 -276.44998947 257.58604294 -267.3125 265.75 C-250.96310937 279.94003715 -234.53662404 294.95269968 -221.375 312.1875 C-215.02216343 320.15467712 -208.38567424 327.79576241 -201.375 335.1875 C-200.56820801 336.04529053 -200.56820801 336.04529053 -199.74511719 336.92041016 C-186.94855884 350.44513777 -173.70528972 360.23540683 -156.375 367.1875 C-155.47313965 367.55230469 -154.5712793 367.91710937 -153.64208984 368.29296875 C-133.04204282 376.39065619 -107.70133545 383.1875 -85.375 383.1875 C-86.70619557 375.6638772 -88.67436295 368.4563853 -90.9375 361.1640625 C-91.28493256 360.0324469 -91.63236511 358.9008313 -91.99032593 357.73492432 C-93.11184194 354.09200171 -94.24212494 350.45190524 -95.375 346.8125 C-95.760047 345.57340881 -96.14509399 344.33431763 -96.54180908 343.05767822 C-110.15125618 296.77706252 -110.15125618 296.77706252 -135.375 256.1875 C-136.33373957 255.00659321 -137.29070644 253.8242455 -138.24609375 252.640625 C-151.31873129 236.65295433 -168.9479118 223.56557167 -187.375 214.1875 C-188.035 214.1875 -188.695 214.1875 -189.375 214.1875 Z " fill="#73C41D" transform="translate(399.375,-0.1875)"/>
<path d="M0 0 C17.48970665 18.21966102 27.14355042 42.35272419 28.33984375 67.4375 C28.38109375 68.27152344 28.42234375 69.10554688 28.46484375 69.96484375 C29.10156115 96.42841059 20.95128588 121.54799298 3.33984375 141.4375 C-13.08471994 158.66742862 -36.44975013 169.02277173 -60.28515625 169.640625 C-91.25142385 170.02379285 -115.47423403 161.86031105 -138.22265625 140.3125 C-157.75565871 120.2835962 -164.25689531 94.34944359 -163.9375 67.02734375 C-163.24600245 43.29968901 -154.31544478 21.27450482 -138.66015625 3.4375 C-138.00660156 2.68855469 -137.35304688 1.93960937 -136.6796875 1.16796875 C-120.57208196 -16.08802142 -97.23894856 -25.24150319 -73.89453125 -26.53125 C-45.51163836 -26.80548085 -21.20316797 -19.79420543 0 0 Z " fill="#73C41D" transform="translate(535.66015625,395.5625)"/>
<path d="M0 0 C7 0 7 0 9.171875 1.546875 C11.48246768 4.6474139 13.39160548 7.86359221 15.25 11.25 C15.61351562 11.8996875 15.97703125 12.549375 16.3515625 13.21875 C17.24033459 14.80918426 18.12099936 16.40414448 19 18 C19.62648438 16.86820313 20.25296875 15.73640625 20.8984375 14.5703125 C21.72378222 13.08844357 22.54931272 11.60667809 23.375 10.125 C23.7875 9.37863281 24.2 8.63226562 24.625 7.86328125 C25.22441406 6.79013672 25.22441406 6.79013672 25.8359375 5.6953125 C26.20251465 5.03547363 26.5690918 4.37563477 26.94677734 3.69580078 C28 2 28 2 30 0 C32.31 0 34.62 0 37 0 C37 10.89 37 21.78 37 33 C35.02 33 33.04 33 31 33 C30.505 23.595 30.505 23.595 30 14 C27.36 18.95 24.72 23.9 22 29 C20.02 29 18.04 29 16 29 C12.04 22.07 12.04 22.07 8 15 C7.67 20.94 7.34 26.88 7 33 C4.69 33 2.38 33 0 33 C0 22.11 0 11.22 0 0 Z " fill="#73C41D" transform="translate(732,703)"/>
<path d="M0 0 C8.91 0 17.82 0 27 0 C27 2.31 27 4.62 27 7 C23.7 7 20.4 7 17 7 C17 15.58 17 24.16 17 33 C14.36 33 11.72 33 9 33 C9 24.42 9 15.84 9 7 C6.03 7 3.06 7 0 7 C0 4.69 0 2.38 0 0 Z " fill="#73C41D" transform="translate(701,703)"/>
</svg>
