<?xml version="1.0" encoding="UTF-8" standalone="no"?>
<!-- Generator: Adobe Illustrator 15.0.0, SVG Export Plug-In . SVG Version: 6.00 Build 0)  -->

<svg
   xmlns:dc="http://purl.org/dc/elements/1.1/"
   xmlns:cc="http://creativecommons.org/ns#"
   xmlns:rdf="http://www.w3.org/1999/02/22-rdf-syntax-ns#"
   xmlns:svg="http://www.w3.org/2000/svg"
   xmlns="http://www.w3.org/2000/svg"
   xmlns:sodipodi="http://sodipodi.sourceforge.net/DTD/sodipodi-0.dtd"
   xmlns:inkscape="http://www.inkscape.org/namespaces/inkscape"
   version="1.1"
   id="Layer_1"
   x="0px"
   y="0px"
   width="103.17322"
   height="104.31332"
   viewBox="0 0 103.17322 104.31332"
   enable-background="new 0 0 190 50"
   xml:space="preserve"
   inkscape:version="0.48.2 r9819"
   sodipodi:docname="Outlook_logo.svg"><metadata
   id="metadata45"><rdf:RDF><cc:Work
       rdf:about=""><dc:format>image/svg+xml</dc:format><dc:type
         rdf:resource="http://purl.org/dc/dcmitype/StillImage" /><dc:title></dc:title></cc:Work></rdf:RDF></metadata><defs
   id="defs43" /><sodipodi:namedview
   pagecolor="#ffffff"
   bordercolor="#666666"
   borderopacity="1"
   objecttolerance="10"
   gridtolerance="10"
   guidetolerance="10"
   inkscape:pageopacity="0"
   inkscape:pageshadow="2"
   inkscape:window-width="1600"
   inkscape:window-height="837"
   id="namedview41"
   showgrid="false"
   fit-margin-top="0"
   fit-margin-left="0"
   fit-margin-right="0"
   fit-margin-bottom="0"
   inkscape:zoom="1"
   inkscape:cx="91.558992"
   inkscape:cy="89.87632"
   inkscape:window-x="-8"
   inkscape:window-y="-8"
   inkscape:window-maximized="1"
   inkscape:current-layer="Layer_1" />
<path
   d="m 64.566509,22.116383 v 20.404273 l 7.130526,4.489881 c 0.188058,0.05485 0.595516,0.05877 0.783574,0 L 103.16929,26.320259 c 0,-2.44867 -2.28412,-4.203876 -3.573094,-4.203876 H 64.566509 z"
   id="path3"
   inkscape:connector-curvature="0"
   style="fill:#0072c6" />
<path
   d="m 64.566509,50.13308 6.507584,4.470291 c 0.916782,0.673874 2.021622,0 2.021622,0 -1.100922,0.673874 30.077495,-20.035993 30.077495,-20.035993 v 37.501863 c 0,4.082422 -2.61322,5.794531 -5.551621,5.794531 H 64.562591 V 50.13308 z"
   id="path5"
   inkscape:connector-curvature="0"
   style="fill:#0072c6" />


<g
   id="g23"
   transform="matrix(3.9178712,0,0,3.9178712,-13.481403,-41.384473)">
	<path
   d="m 11.321,20.958 c -0.566,0 -1.017,0.266 -1.35,0.797 -0.333,0.531 -0.5,1.234 -0.5,2.109 0,0.888 0.167,1.59 0.5,2.106 0.333,0.517 0.77,0.774 1.31,0.774 0.557,0 0.999,-0.251 1.325,-0.753 0.326,-0.502 0.49,-1.199 0.49,-2.09 0,-0.929 -0.158,-1.652 -0.475,-2.169 -0.317,-0.516 -0.75,-0.774 -1.3,-0.774 z"
   id="path25"
   inkscape:connector-curvature="0"
   style="fill:#0072c6" />
	<path
   d="m 3.441,13.563 v 20.375 l 15.5,3.25 V 10.563 l -15.5,3 z m 10.372,13.632 c -0.655,0.862 -1.509,1.294 -2.563,1.294 -1.027,0 -1.863,-0.418 -2.51,-1.253 C 8.094,26.4 7.77,25.312 7.77,23.97 c 0,-1.417 0.328,-2.563 0.985,-3.438 0.657,-0.875 1.527,-1.313 2.61,-1.313 1.023,0 1.851,0.418 2.482,1.256 0.632,0.838 0.948,1.942 0.948,3.313 10e-4,1.409 -0.327,2.545 -0.982,3.407 z"
   id="path27"
   inkscape:connector-curvature="0"
   style="fill:#0072c6" />
</g>

</svg>