<svg width="150" height="150" viewBox="0 0 150 150" fill="none" xmlns="http://www.w3.org/2000/svg">
<path fill-rule="evenodd" clip-rule="evenodd" d="M62.4164 34.8735C67.2558 29.8357 73.9913 26.716 81.4324 26.716C91.3537 26.716 99.9522 32.2278 104.582 40.4405C108.692 38.6033 113.144 37.6547 117.645 37.657C135.504 37.657 150 52.2635 150 70.2873C150 88.3111 135.504 102.918 117.645 102.918C115.463 102.918 113.335 102.698 111.252 102.284C107.2 109.504 99.4562 114.41 90.6372 114.41C87.0467 114.417 83.5021 113.602 80.2749 112.029C76.1685 121.674 66.6054 128.454 55.4715 128.454C43.8414 128.454 33.9752 121.123 30.172 110.816C28.4793 111.173 26.7539 111.353 25.0239 111.352C11.1891 111.352 0 99.9974 0 86.0523C0 76.6822 5.03785 68.5246 12.5119 64.1151C10.9263 60.4624 10.1101 56.5222 10.1143 52.5402C10.1143 36.4455 23.1774 23.4375 39.2721 23.4375C48.6974 23.4375 57.1305 27.9297 62.4219 34.9022" fill="#00B7FF"/>
<path fill-rule="evenodd" clip-rule="evenodd" d="M21.8487 77.8664C21.7544 78.1122 21.8823 78.1635 21.9126 78.2071C22.1943 78.411 22.4803 78.5587 22.7669 78.7246C24.2992 79.5349 25.7434 79.7719 27.2536 79.7719C30.3292 79.7719 32.2418 78.1348 32.2418 75.5002V75.4484C32.2418 73.0121 30.0812 72.1247 28.0638 71.4908L27.7998 71.4054C26.273 70.9104 24.9557 70.4794 24.9557 69.4763V69.425C24.9557 68.5651 25.7274 67.9313 26.9179 67.9313C28.2408 67.9313 29.8172 68.3717 30.8258 68.9289C30.8258 68.9289 31.1246 69.1218 31.2332 68.8336C31.2921 68.6776 31.8064 67.3013 31.8615 67.1469C31.92 66.9854 31.8174 66.8636 31.7122 66.8008C30.5547 66.0953 28.9562 65.6157 27.3027 65.6157L26.9956 65.6168C24.1791 65.6168 22.2113 67.32 22.2113 69.7563V69.8086C22.2113 72.3771 24.383 73.215 26.4114 73.7937L26.7377 73.8951C28.2149 74.3493 29.4936 74.7439 29.4936 75.7802V75.832C29.4936 76.7855 28.6613 77.4966 27.3275 77.4966C26.8088 77.4966 25.1558 77.4878 23.3644 76.3556C23.1478 76.2294 23.0243 76.1384 22.8573 76.0365C22.7691 75.983 22.5487 75.8866 22.4528 76.1754L21.8465 77.862M66.8784 77.862C66.7842 78.1078 66.912 78.1591 66.9435 78.2026C67.224 78.4066 67.5112 78.5543 67.7978 78.7202C69.3301 79.5305 70.7742 79.7675 72.2845 79.7675C75.3601 79.7675 77.2727 78.1304 77.2727 75.4958V75.444C77.2727 73.0077 75.1176 72.1203 73.0947 71.4864L72.8307 71.401C71.3039 70.906 69.9866 70.475 69.9866 69.4718V69.4206C69.9866 68.5607 70.7582 67.9269 71.9488 67.9269C73.2716 67.9269 74.8425 68.3673 75.8567 68.9245C75.8567 68.9245 76.1555 69.1174 76.2646 68.8292C76.323 68.6732 76.8378 67.2969 76.8874 67.1425C76.9464 66.981 76.8433 66.8592 76.7386 66.7964C75.5811 66.0909 73.9827 65.6113 72.3291 65.6113L72.0216 65.6124C69.205 65.6124 67.2373 67.3156 67.2373 69.7518V69.8042C67.2373 72.3727 69.4089 73.2105 71.4373 73.7893L71.763 73.8907C73.2457 74.3449 74.519 74.7395 74.519 75.7758V75.8276C74.519 76.7811 73.6867 77.4922 72.3528 77.4922C71.833 77.4922 70.1756 77.4833 68.3898 76.3512C68.1732 76.225 68.0464 76.1379 67.8821 76.0321C67.8265 75.9968 67.5669 75.8954 67.4781 76.171L66.8718 77.8576M97.628 72.6985C97.628 74.1867 97.3502 75.3607 96.8068 76.193C96.2644 77.0143 95.4454 77.4167 94.3044 77.4167C93.1634 77.4167 92.3477 77.0176 91.813 76.1985C91.2745 75.3717 91.0028 74.1922 91.0028 72.704C91.0028 71.2158 91.2762 70.0473 91.813 69.226C92.3466 68.4103 93.1579 68.0189 94.3044 68.0189C95.4509 68.0189 96.2666 68.4141 96.8068 69.226C97.3536 70.0473 97.628 71.2158 97.628 72.704M100.197 69.9426C99.9436 69.0882 99.5517 68.3386 99.0281 67.7102C98.5039 67.0819 97.843 66.5748 97.0548 66.211C96.2721 65.8445 95.3461 65.6598 94.2989 65.6598C93.2516 65.6598 92.3311 65.8456 91.5429 66.211C90.7603 66.577 90.0933 67.0819 89.5697 67.7102C89.0472 68.3386 88.6547 69.0882 88.4012 69.9426C88.1504 70.7914 88.0231 71.7174 88.0231 72.704C88.0231 73.6906 88.1504 74.6166 88.4012 75.4654C88.6531 76.3198 89.0461 77.0694 89.5697 77.6978C90.0939 78.3261 90.7603 78.8277 91.5429 79.186C92.3311 79.5431 93.2571 79.725 94.2989 79.725C95.3406 79.725 96.2666 79.5431 97.0493 79.186C97.832 78.8288 98.4989 78.3261 99.0226 77.6978C99.5456 77.0694 99.9375 76.3198 100.191 75.4654C100.441 74.6166 100.569 73.6906 100.569 72.704C100.569 71.7229 100.441 70.7914 100.191 69.9426M121.302 76.9977C121.217 76.7481 120.974 76.8423 120.974 76.8423C120.6 76.9851 120.202 77.1174 119.777 77.1835C119.35 77.2507 118.874 77.2844 118.372 77.2844C117.132 77.2844 116.14 76.9145 115.434 76.182C114.723 75.4489 114.326 74.2694 114.332 72.6709C114.336 71.2158 114.687 70.1244 115.318 69.2866C115.941 68.4599 116.9 68.0299 118.168 68.0299C119.226 68.0299 120.037 68.1528 120.885 68.4185C120.885 68.4185 121.087 68.5062 121.183 68.241C121.408 67.6182 121.575 67.1717 121.817 66.4883C121.885 66.2926 121.718 66.2099 121.656 66.1862C121.324 66.0561 120.538 65.8428 119.942 65.753C119.386 65.6681 118.741 65.624 118.013 65.624C116.933 65.624 115.974 65.8087 115.152 66.1746C114.331 66.5401 113.637 67.0455 113.086 67.6739C112.534 68.3022 112.115 69.0518 111.834 69.9062C111.556 70.755 111.415 71.6865 111.415 72.6731C111.415 74.8007 111.989 76.5259 113.124 77.7881C114.26 79.0559 115.968 79.6953 118.195 79.6953C119.512 79.6953 120.863 79.429 121.833 79.0449C121.833 79.0449 122.018 78.9556 121.938 78.7395L121.304 76.9977M125.796 71.2654C125.919 70.4386 126.145 69.7496 126.501 69.215C127.034 68.3992 127.846 67.9528 128.987 67.9528C130.128 67.9528 130.883 68.4014 131.424 69.215C131.782 69.7524 131.938 70.4662 131.997 71.2654L125.768 71.2643L125.796 71.2654ZM134.45 69.4465C134.231 68.6252 133.689 67.7929 133.336 67.4126C132.774 66.8118 132.228 66.3874 131.683 66.1559C130.895 65.8209 130.047 65.649 129.191 65.6505C128.105 65.6505 127.119 65.834 126.32 66.2072C125.52 66.5831 124.848 67.0946 124.319 67.7339C123.79 68.3733 123.393 69.1285 123.139 69.9938C122.886 70.8482 122.758 71.7852 122.758 72.7663C122.758 73.7694 122.891 74.701 123.152 75.5443C123.416 76.3931 123.841 77.1372 124.414 77.7545C124.987 78.3774 125.72 78.8624 126.602 79.2041C127.479 79.5431 128.542 79.719 129.761 79.7151C132.274 79.7068 133.597 79.1474 134.137 78.8442C134.233 78.7902 134.324 78.6971 134.211 78.4286L133.643 76.8357C133.556 76.5981 133.316 76.6841 133.316 76.6841C132.693 76.9167 131.811 77.3345 129.744 77.329C128.394 77.3268 127.396 76.9283 126.768 76.3038C126.128 75.6644 125.809 74.7329 125.759 73.4101L134.468 73.4167C134.468 73.4167 134.697 73.4145 134.721 73.1907C134.73 73.0981 135.019 71.4049 134.461 69.4481L134.45 69.4465ZM56.181 71.2654C56.3039 70.4386 56.531 69.7496 56.8865 69.215C57.4201 68.3992 58.2314 67.9528 59.3724 67.9528C60.5133 67.9528 61.2684 68.4014 61.8086 69.215C62.1663 69.7524 62.3229 70.4662 62.3818 71.2654L56.1534 71.2643L56.181 71.2654ZM64.8346 69.4465C64.6164 68.6252 64.074 67.7929 63.7212 67.4126C63.159 66.8118 62.6133 66.3874 62.0677 66.1559C61.2799 65.8209 60.4324 65.649 59.5763 65.6505C58.4905 65.6505 57.5038 65.834 56.7046 66.2072C55.9054 66.5831 55.233 67.0946 54.7038 67.7339C54.1763 68.3733 53.7778 69.1285 53.5243 69.9938C53.2713 70.8482 53.144 71.7852 53.144 72.7663C53.144 73.7694 53.2757 74.701 53.5386 75.5443C53.8021 76.3931 54.2276 77.1372 54.7953 77.7545C55.3685 78.3774 56.1016 78.8624 56.9835 79.2041C57.8599 79.5431 58.9182 79.719 60.1418 79.7151C62.6552 79.7068 63.9781 79.1474 64.5182 78.8442C64.6142 78.7902 64.7056 78.6971 64.5916 78.4286L64.0238 76.8357C63.9362 76.5981 63.6959 76.6841 63.6959 76.6841C63.073 76.9167 62.1911 77.3345 60.1242 77.329C58.7793 77.3268 57.7761 76.9283 57.1478 76.3038C56.5084 75.6644 56.1887 74.7329 56.1391 73.4101L64.8479 73.4167C64.8479 73.4167 65.0772 73.4145 65.1009 73.1907C65.1102 73.0981 65.399 71.4049 64.8407 69.4481L64.8346 69.4465ZM37.3855 76.9426C37.0443 76.6703 36.9969 76.6037 36.8839 76.4267C36.7114 76.1605 36.6232 75.7818 36.6232 75.2968C36.6232 74.5361 36.8768 73.985 37.4004 73.6157C37.3949 73.6168 38.15 72.9653 39.9248 72.9873C40.7148 73.0015 41.503 73.0687 42.2839 73.1885V77.1405H42.285C42.285 77.1405 41.1826 77.3781 39.937 77.453C38.1677 77.5594 37.385 76.9437 37.3905 76.9454L37.3855 76.9426ZM40.847 70.8245C40.4942 70.7985 40.0367 70.7859 39.4911 70.7859C38.747 70.7859 38.0249 70.8785 37.3524 71.0604C36.6745 71.2434 36.0627 71.5267 35.539 71.9037C35.014 72.2783 34.5821 72.7686 34.2768 73.3368C33.9687 73.91 33.8116 74.5824 33.8116 75.3431C33.8116 76.1147 33.9456 76.7817 34.2101 77.3274C34.4694 77.8686 34.8597 78.3366 35.3456 78.6888C35.829 79.0404 36.4259 79.3006 37.1149 79.4549C37.7984 79.6109 38.57 79.6897 39.4188 79.6897C40.3118 79.6897 41.1992 79.6148 42.059 79.4698C42.7914 79.3435 43.5209 79.2016 44.2472 79.0443C44.5372 78.9776 44.8591 78.89 44.8591 78.89C45.074 78.8354 45.0575 78.6056 45.0575 78.6056L45.0525 70.6685C45.0525 68.9267 44.5873 67.6314 43.6691 66.8322C42.7541 66.033 41.4147 65.6306 39.6785 65.6306C39.0281 65.6306 37.9753 65.7188 37.3469 65.845C37.3469 65.845 35.4509 66.2132 34.6682 66.8261C34.6682 66.8261 34.4962 66.932 34.5899 67.1717L35.2072 68.8253C35.2838 69.0397 35.4927 68.9664 35.4927 68.9664C35.4927 68.9664 35.5583 68.9405 35.6355 68.8947C37.3056 67.9853 39.4222 68.0128 39.4222 68.0128C40.3592 68.0128 41.0867 68.203 41.5718 68.5751C42.0464 68.9394 42.2883 69.49 42.2883 70.6475V71.0152C41.5442 70.9071 40.8552 70.8448 40.8552 70.8448L40.847 70.8245ZM110.848 66.3433C110.86 66.3142 110.867 66.2829 110.867 66.2513C110.867 66.2196 110.861 66.1883 110.849 66.1591C110.837 66.1298 110.819 66.1034 110.796 66.0813C110.773 66.0591 110.747 66.0418 110.717 66.0302C110.569 65.974 109.83 65.818 109.262 65.7827C108.171 65.7144 107.564 65.8985 107.019 66.1432C106.48 66.3863 105.883 66.7771 105.552 67.2291L105.551 66.1708C105.551 66.0253 105.448 65.9079 105.302 65.9079H103.075C102.93 65.9079 102.826 66.0253 102.826 66.1708V79.1237C102.826 79.1937 102.854 79.2607 102.903 79.3102C102.953 79.3597 103.02 79.3875 103.09 79.3877H105.372C105.442 79.3875 105.509 79.3597 105.558 79.3102C105.607 79.2607 105.635 79.1936 105.635 79.1237V72.6197C105.635 71.7488 105.731 70.8834 105.922 70.3378C106.111 69.7981 106.367 69.3677 106.683 69.059C106.984 68.7609 107.353 68.5397 107.758 68.4141C108.138 68.3051 108.531 68.2498 108.926 68.2499C109.381 68.2499 109.88 68.3667 109.88 68.3667C110.047 68.3855 110.141 68.2829 110.197 68.1319C110.347 67.7345 110.771 66.5445 110.853 66.3075" fill="#FFFFFE"/>
<path fill-rule="evenodd" clip-rule="evenodd" d="M89.5357 60.3642C89.2537 60.2789 88.9667 60.2108 88.6764 60.1603C88.286 60.0951 87.8905 60.0645 87.4947 60.0688C85.9222 60.0688 84.6825 60.513 83.8122 61.3905C82.948 62.2614 82.3598 63.5881 82.065 65.3337L81.9586 65.9229H79.9848C79.9848 65.9229 79.7439 65.913 79.6932 66.1759L79.3691 67.9838C79.3465 68.1569 79.4209 68.2649 79.6524 68.2638H81.5738L79.6243 79.1459C79.4716 80.0223 79.2969 80.7432 79.1034 81.2895C78.9127 81.8285 78.7264 82.2325 78.4971 82.5258C78.275 82.8096 78.0644 83.0185 77.7012 83.1403C77.4014 83.2412 77.0563 83.2875 76.6782 83.2875C76.4677 83.2875 76.1876 83.2522 75.981 83.2109C75.7743 83.1701 75.6668 83.1238 75.5119 83.0588C75.5119 83.0588 75.2865 82.9728 75.1977 83.1988C75.1255 83.3834 74.6135 84.7917 74.5528 84.9659C74.4911 85.1378 74.5776 85.2734 74.6868 85.3126C74.9425 85.4041 75.1327 85.4625 75.481 85.5446C75.965 85.6587 76.3729 85.6659 76.7548 85.6659C77.5551 85.6659 78.2844 85.5534 78.889 85.3352C79.4975 85.1152 80.0272 84.7322 80.4957 84.2135C81.0023 83.654 81.3209 83.0681 81.6257 82.2689C81.9272 81.4769 82.184 80.4935 82.3896 79.3476L84.3485 68.2638H87.2125C87.2125 68.2638 87.4539 68.2726 87.5041 68.0108L87.8282 66.2029C87.8508 66.0298 87.7769 65.9218 87.5443 65.9229H84.7647C84.7784 65.8601 84.9047 64.8823 85.2238 63.9618C85.36 63.5688 85.6163 63.2519 85.8334 63.0341C86.0362 62.8268 86.2859 62.6714 86.5615 62.5811C86.8636 62.4877 87.1785 62.4423 87.4947 62.4466C87.7565 62.4466 88.0134 62.478 88.209 62.5188C88.4786 62.5761 88.5833 62.6064 88.6538 62.6274C88.9372 62.7139 88.9752 62.6301 89.0309 62.4929L89.6956 60.6673C89.7639 60.4711 89.5975 60.3884 89.5357 60.3642M50.6914 79.169C50.6914 79.3146 50.5878 79.4331 50.4423 79.4331H48.1367C47.9906 79.4331 47.887 79.3146 47.887 79.169V60.6117C47.887 60.4667 47.9906 60.3493 48.1367 60.3493H50.4423C50.5878 60.3493 50.6914 60.4667 50.6914 60.6117V79.169" fill="#FFFFFE"/>
</svg>
