<?xml version="1.0" encoding="UTF-8"?>
<svg version="1.1" xmlns="http://www.w3.org/2000/svg" width="1280" height="896">
<path d="M0 0 C1.26070313 0.32242676 1.26070313 0.32242676 2.546875 0.65136719 C37.86420646 9.93882581 70.75979412 27.74650098 98 52 C98.60803467 52.52335937 99.21606934 53.04671875 99.8425293 53.5859375 C104.90548138 57.95129974 109.71266326 62.52193628 114.4375 67.25 C115.54847046 68.35782837 115.54847046 68.35782837 116.68188477 69.48803711 C121.6343903 74.48076714 126.17800139 79.58668285 130.43359375 85.19140625 C130.95050781 85.78824219 131.46742188 86.38507813 132 87 C134.05449333 87.22390157 134.05449333 87.22390157 135.33984375 85.78515625 C135.86707031 85.21667969 136.39429688 84.64820312 136.9375 84.0625 C140.74993078 80.13956398 144.86890331 76.7328716 149.1328125 73.3125 C150.96097801 71.83801228 152.77066583 70.34010265 154.5546875 68.8125 C198.32871413 31.55800925 257.8440416 16.44724926 314.375 20.30859375 C318.94340593 20.70361514 323.46998168 21.29347457 328 22 C329.24305908 22.19335938 329.24305908 22.19335938 330.51123047 22.390625 C384.83649537 31.17210842 435.97468788 60.50677494 470 104 C470.81339844 105.01964844 471.62679687 106.03929688 472.46484375 107.08984375 C476.91751875 112.72033418 481.09895449 118.47234288 485 124.5 C485.37382813 125.07532471 485.74765625 125.65064941 486.1328125 126.2434082 C488.138835 129.40614414 489.65927139 132.51233374 491 136 C491.60134766 135.764021 492.20269531 135.52804199 492.82226562 135.28491211 C564.17852068 107.46109648 641.13544241 104.30127867 712.24609375 135.40234375 C779.10939619 165.34163628 833.54186878 220.45073965 859.85839844 289.27368164 C866.60727341 307.47274063 871.60658428 325.8917239 875 345 C875.16516113 345.88510254 875.33032227 346.77020508 875.50048828 347.68212891 C880.71287617 376.59012919 880.17925738 409.11136657 875 438 C874.75056641 439.44898682 874.75056641 439.44898682 874.49609375 440.92724609 C869.26328306 470.60406598 859.067701 498.42315833 845 525 C844.66033203 525.64743164 844.32066406 526.29486328 843.97070312 526.96191406 C832.68058992 548.31221193 817.76021526 567.66547696 801 585 C800.36868164 585.65323242 799.73736328 586.30646484 799.08691406 586.97949219 C791.11828118 595.1796592 783.10593541 603.05269233 774 610 C772.83567008 610.91632697 771.67162636 611.83301768 770.5078125 612.75 C759.86912485 621.02832695 748.6099003 628.1663543 737 635 C736.33677734 635.39171387 735.67355469 635.78342773 734.99023438 636.18701172 C683.31353865 666.28549535 611.45551748 679.70745876 552.76171875 665.45654297 C551.16515997 665.00261155 549.58048458 664.50707214 548 664 C547.77441406 664.83144531 547.54882812 665.66289063 547.31640625 666.51953125 C545.72530387 670.72627374 543.51932613 674.03108547 540.9375 677.6875 C540.44507813 678.39229492 539.95265625 679.09708984 539.4453125 679.82324219 C532.08278209 690.25349361 523.73540681 699.71696066 515 709 C514.38382813 709.65871094 513.76765625 710.31742188 513.1328125 710.99609375 C483.39408368 741.80200184 441.60606007 759.34164082 400 766 C399.30495361 766.11126221 398.60990723 766.22252441 397.89379883 766.3371582 C361.47108794 771.2294992 323.51130388 765.00427532 290.0703125 750.28515625 C287.24725474 748.87129505 287.24725474 748.87129505 285 749 C284.72961914 749.5669458 284.45923828 750.1338916 284.18066406 750.71801758 C274.49859213 770.88359028 263.63680383 789.04718369 249 806 C248.23171875 806.89847656 247.4634375 807.79695312 246.671875 808.72265625 C244.49665343 811.19999193 242.27002088 813.60915542 240 816 C239.49919922 816.52803223 238.99839844 817.05606445 238.48242188 817.60009766 C230.70851756 825.73883397 222.63482689 833.08784504 213.60351562 839.80664062 C212.12722091 840.90532037 210.66448343 842.02215514 209.203125 843.140625 C201.81667172 848.69139166 194.01502308 853.42722662 186 858 C185.34257813 858.37801758 184.68515625 858.75603516 184.0078125 859.14550781 C169.30949769 867.51697019 153.77284378 873.36672317 137.625 878.3125 C136.87822998 878.54283936 136.13145996 878.77317871 135.36206055 879.01049805 C121.80983828 882.99902874 109.07715467 884.47607658 95.02734375 884.46875 C93.33028422 884.4758818 91.63322701 884.48358497 89.93617249 884.49182129 C86.39886766 884.50516521 82.8617856 884.50688221 79.32446289 884.50097656 C75.74534437 884.49627253 72.16711284 884.5100794 68.58813477 884.54199219 C30.66315984 884.87624148 30.66315984 884.87624148 12 879 C10.81623779 878.66484375 9.63247559 878.3296875 8.4128418 877.984375 C5.53527086 877.14535659 2.70743631 876.22938503 -0.125 875.25 C-1.61362549 874.7408606 -1.61362549 874.7408606 -3.13232422 874.22143555 C-27.50247079 865.69363693 -49.94228069 853.28005643 -70 837 C-70.8957373 836.27562744 -70.8957373 836.27562744 -71.80957031 835.53662109 C-84.77775644 824.95359181 -96.81663241 813.31111621 -107 800 C-107.4021875 799.49017578 -107.804375 798.98035156 -108.21875 798.45507812 C-122.6667258 780.10879178 -133.31431707 759.60144582 -142 738 C-142.56879883 738.09087891 -143.13759766 738.18175781 -143.72363281 738.27539062 C-170.32411638 742.36132548 -198.50772588 743.3338403 -225 738 C-225.86544434 737.82839355 -226.73088867 737.65678711 -227.62255859 737.47998047 C-255.84430702 731.70559091 -282.44758239 720.65110044 -306 704 C-307.0621875 703.25105469 -308.124375 702.50210938 -309.21875 701.73046875 C-356.99284939 666.84280407 -385.80456035 616.96289627 -396.51678467 559.21405029 C-396.97975183 556.13467831 -397.1526581 553.22699482 -397.19287109 550.1159668 C-397.20893402 548.97584641 -397.22499695 547.83572601 -397.24154663 546.66105652 C-397.286803 541.39358378 -397.32758401 536.12625517 -397.35009766 530.85864258 C-397.36325011 528.11154476 -397.39074875 525.36522322 -397.43212891 522.6184082 C-397.69881202 504.49433509 -396.47953262 487.60885199 -392 470 C-391.79021515 469.16979843 -391.5804303 468.33959686 -391.36428833 467.48423767 C-377.24461063 412.45587685 -339.81672467 368.46802717 -293 338 C-293.35191406 337.18402344 -293.70382812 336.36804688 -294.06640625 335.52734375 C-305.88751107 307.16286509 -311.83440177 277.64075859 -313 247 C-313.06380859 245.36417969 -313.06380859 245.36417969 -313.12890625 243.6953125 C-314.26300649 181.84904581 -291.41077056 119.76032835 -249.25 74.4375 C-247.34868921 72.37774664 -245.54364491 70.2773739 -243.75 68.125 C-203.7944264 22.50131014 -140.86239401 -3.36509238 -81.46630859 -7.78613281 C-53.92485755 -9.48540814 -26.70759921 -6.84333279 0 0 Z " fill="#00A1E0" transform="translate(397,10)"/>
<path d="M0 0 C14.82786575 -0.44499681 26.23338861 2.87868888 38.5625 11.33984375 C50.95870014 23.73604389 56.58921598 38.65731208 56.69726562 55.95507812 C56.69243164 57.69241211 56.69243164 57.69241211 56.6875 59.46484375 C56.70361328 60.61146484 56.71972656 61.75808594 56.73632812 62.93945312 C56.74514818 78.5244957 51.95755062 94.50845445 41.25 106.21484375 C29.63497422 116.6703661 14.39198091 120.79791634 -0.94921875 120.4375 C-15.34290352 119.32088046 -26.74958544 113.60866505 -36.625 103.15234375 C-46.7398411 90.56305654 -50.2067555 75.74316115 -50.0625 59.83984375 C-50.05420166 58.65575928 -50.04590332 57.4716748 -50.03735352 56.25170898 C-49.76452419 42.09274076 -46.67547032 30.98910833 -38.625 19.15234375 C-38.22539063 18.5490625 -37.82578125 17.94578125 -37.4140625 17.32421875 C-30.65859521 8.2211068 -18.67275879 2.67935815 -7.875 0.33984375 C-5.25329106 0.15960126 -2.62598006 0.11035908 0 0 Z " fill="#FCFDFD" transform="translate(797.625,361.84765625)"/>
<path d="M0 0 C5.04940052 4.09257228 8.03884888 8.65012355 10.76953125 14.5 C11.18203125 15.345625 11.59453125 16.19125 12.01953125 17.0625 C13.85259358 23.01995258 13.91523219 29.29033999 13.88305664 35.4765625 C13.88320267 36.22875565 13.88334869 36.98094879 13.88349915 37.75593567 C13.8828092 40.21232103 13.87506034 42.66862808 13.8671875 45.125 C13.86532005 46.83992471 13.86389769 48.55484996 13.86289978 50.26977539 C13.85910033 54.76106261 13.84929228 59.25231698 13.8381958 63.74359131 C13.82792611 68.33556677 13.8233903 72.92754759 13.81835938 77.51953125 C13.80766747 86.51303519 13.79062229 95.50651485 13.76953125 104.5 C-1.24613596 109.62262462 -15.9645003 111.86336911 -31.85546875 111.875 C-33.00378174 111.87653076 -34.15209473 111.87806152 -35.33520508 111.87963867 C-49.22505833 111.69961668 -62.38425447 109.92162152 -73.16796875 100.375 C-81.17658149 91.28679485 -82.21503287 80.79473661 -81.7109375 69.1640625 C-81.2563 63.40379392 -79.72147311 59.12201852 -76.23046875 54.5 C-75.74578125 53.80003906 -75.26109375 53.10007812 -74.76171875 52.37890625 C-67.47563572 42.93199958 -56.70600422 38.46630191 -45.23046875 36.5 C-40.44915725 36.15461779 -35.70905176 36.16788181 -30.91796875 36.25 C-29.69529297 36.25515625 -28.47261719 36.2603125 -27.21289062 36.265625 C-21.46324817 36.31559473 -15.89141749 36.46313494 -10.23046875 37.5 C-10.25668714 27.11015591 -10.25668714 27.11015591 -15.23046875 18.5 C-22.78299468 12.62581316 -32.15484964 13.15266149 -41.23046875 13.5 C-42.02710938 13.52964844 -42.82375 13.55929687 -43.64453125 13.58984375 C-50.70083124 14.11585884 -58.16876796 16.20163499 -64.3359375 19.69140625 C-66.23046875 20.5 -66.23046875 20.5 -68.3046875 20.515625 C-71.38912096 18.8889461 -71.85792558 16.44353023 -73.04296875 13.25 C-73.48253906 12.11046875 -73.92210937 10.9709375 -74.375 9.796875 C-75.25340205 6.41161777 -75.55782066 4.72276545 -74.23046875 1.5 C-56.13440822 -11.9355057 -18.55996991 -12.48166103 0 0 Z " fill="#FCFEFD" transform="translate(368.23046875,369.5)"/>
<path d="M0 0 C9.32335796 8.45808111 14.430432 21.01227172 15.375 33.375 C15.50485454 37.02226364 15.51517355 40.66326077 15.5 44.3125 C15.50386719 45.26962891 15.50773438 46.22675781 15.51171875 47.21289062 C15.51042969 48.12103516 15.50914062 49.02917969 15.5078125 49.96484375 C15.50668457 50.78847412 15.50555664 51.61210449 15.50439453 52.46069336 C15.375 54.375 15.375 54.375 14.375 55.375 C12.03246218 55.46992722 9.71953896 55.50059791 7.37670898 55.48852539 C6.27921326 55.48874443 6.27921326 55.48874443 5.1595459 55.4889679 C2.73003216 55.48826867 0.30059417 55.48047585 -2.12890625 55.47265625 C-3.80899514 55.4707921 -5.48908457 55.46936819 -7.16917419 55.46836853 C-11.59973643 55.46454307 -16.0302661 55.45471256 -20.46081543 55.44366455 C-24.97842976 55.43345103 -29.49604934 55.42887104 -34.01367188 55.42382812 C-42.88412893 55.41309031 -51.75456176 55.39601356 -60.625 55.375 C-60.1768557 57.94684409 -59.71991993 60.5165979 -59.2578125 63.0859375 C-59.13253174 63.81031006 -59.00725098 64.53468262 -58.87817383 65.28100586 C-57.42979274 73.24937201 -54.88829184 78.02002929 -48.1875 82.75 C-41.02779828 87.33528303 -34.42705846 87.76030272 -26.125 87.75 C-24.52338013 87.75193359 -24.52338013 87.75193359 -22.8894043 87.75390625 C-15.49849539 87.65532346 -9.30710326 86.77681854 -2.33203125 84.25 C0.40918853 83.36394916 2.5162588 83.20776103 5.375 83.375 C8.25611842 89.29108298 10.15990988 94.91364094 11.375 101.375 C8.87899697 102.36552547 6.37895203 103.34244057 3.875 104.3125 C3.17890625 104.59029297 2.4828125 104.86808594 1.765625 105.15429688 C-7.62467549 108.76260679 -16.9202757 108.58432697 -26.875 108.625 C-28.12152344 108.645625 -29.36804688 108.66625 -30.65234375 108.6875 C-46.50285154 108.75375082 -60.26616056 104.68798446 -72.0625 93.6875 C-85.27862265 79.54882334 -87.1625174 61.17020108 -86.90234375 42.71875 C-86.37250447 27.85161797 -80.55010791 13.46164624 -70.23828125 2.69921875 C-50.63656553 -14.73429523 -20.90798677 -16.08663284 0 0 Z " fill="#FCFEFD" transform="translate(537.625,372.625)"/>
<path d="M0 0 C10.23767163 8.26011247 16.40380863 18.43239263 19.0625 31.375 C19.15469 33.38769911 19.1931725 35.40316054 19.1953125 37.41796875 C19.19660156 38.57361328 19.19789062 39.72925781 19.19921875 40.91992188 C19.19535156 42.12197266 19.19148438 43.32402344 19.1875 44.5625 C19.19136719 45.77615234 19.19523437 46.98980469 19.19921875 48.24023438 C19.19792969 49.39201172 19.19664063 50.54378906 19.1953125 51.73046875 C19.19418457 52.78903076 19.19305664 53.84759277 19.19189453 54.93823242 C19.0625 57.375 19.0625 57.375 18.0625 58.375 C15.71996218 58.46992722 13.40703896 58.50059791 11.06420898 58.48852539 C9.96671326 58.48874443 9.96671326 58.48874443 8.8470459 58.4889679 C6.41753216 58.48826867 3.98809417 58.48047585 1.55859375 58.47265625 C-0.12149514 58.4707921 -1.80158457 58.46936819 -3.48167419 58.46836853 C-7.91223643 58.46454307 -12.3427661 58.45471256 -16.77331543 58.44366455 C-21.29092976 58.43345103 -25.80854934 58.42887104 -30.32617188 58.42382812 C-39.19662893 58.41309031 -48.06706176 58.39601356 -56.9375 58.375 C-56.64808972 60.27308531 -56.35101069 62.17000217 -56.05078125 64.06640625 C-55.88618408 65.12287354 -55.72158691 66.17934082 -55.55200195 67.26782227 C-53.83717477 75.9387025 -50.06190551 81.16712905 -43.125 86.5625 C-35.96527254 90.63371758 -28.66489674 90.71392964 -20.625 90.6875 C-19.65626953 90.70361328 -18.68753906 90.71972656 -17.68945312 90.73632812 C-11.54150803 90.74042949 -6.21800811 89.90160065 -0.34179688 88.08740234 C2.78681245 87.16038346 5.82486743 86.73473695 9.0625 86.375 C15.0625 97.85072816 15.0625 97.85072816 15.0625 104.375 C2.39984189 110.817405 -10.06974899 111.67225609 -24.0625 111.8125 C-25.32473389 111.83473633 -26.58696777 111.85697266 -27.88745117 111.87988281 C-42.77071202 111.84495697 -56.91691687 107.44609537 -67.8125 97 C-80.73064239 83.2514056 -83.84447653 65.43019619 -83.28515625 47.125 C-82.37571569 31.16578496 -77.03585766 15.29600071 -64.9375 4.375 C-47.05981344 -9.69997422 -19.5436513 -13.31663965 0 0 Z " fill="#FCFEFD" transform="translate(1125.9375,369.625)"/>
<path d="M0 0 C1.484375 1.5625 1.484375 1.5625 2 4 C1.34387701 6.87524941 0.25384602 9.53116236 -0.875 12.25 C-1.17019531 12.99507813 -1.46539063 13.74015625 -1.76953125 14.5078125 C-2.49931694 16.34404747 -3.24787427 18.17280189 -4 20 C-5.93552734 19.94779297 -5.93552734 19.94779297 -7.91015625 19.89453125 C-9.62759106 19.86637658 -11.34504007 19.83907823 -13.0625 19.8125 C-13.91005859 19.78736328 -14.75761719 19.76222656 -15.63085938 19.73632812 C-22.16838408 19.6606039 -27.18363158 20.42503459 -32.1875 25 C-36.47251855 32.0924445 -38.31093637 39.96973428 -40 48 C-39.2479126 47.99476318 -38.4958252 47.98952637 -37.72094727 47.98413086 C-34.33480658 47.96342773 -30.94867916 47.95036123 -27.5625 47.9375 C-26.37849609 47.92912109 -25.19449219 47.92074219 -23.97460938 47.91210938 C-22.84990234 47.90888672 -21.72519531 47.90566406 -20.56640625 47.90234375 C-19.52427979 47.89710693 -18.48215332 47.89187012 -17.40844727 47.88647461 C-15 48 -15 48 -14 49 C-14.015625 50.96875 -14.015625 50.96875 -14.25 53.5 C-14.35054687 54.72203125 -14.35054687 54.72203125 -14.453125 55.96875 C-15.19545561 60.08338251 -16.67783301 64.03349904 -18 68 C-26.58 68 -35.16 68 -44 68 C-44.33 70.97 -44.66 73.94 -45 77 C-45.23290507 78.60159643 -45.47993811 80.2013363 -45.75268555 81.79663086 C-45.89363144 82.62840851 -46.03457733 83.46018616 -46.17979431 84.31716919 C-46.33057938 85.19090179 -46.48136444 86.0646344 -46.63671875 86.96484375 C-46.87661278 88.37308914 -46.87661278 88.37308914 -47.12135315 89.80978394 C-47.64060405 92.8528423 -48.16380048 95.89520431 -48.6875 98.9375 C-49.04987837 101.05101276 -49.4121824 103.16453826 -49.77441406 105.27807617 C-50.67775632 110.5424409 -51.58526669 115.80607744 -52.49432373 121.06945801 C-52.96385764 123.79054442 -53.43174749 126.51190676 -53.89892578 129.23339844 C-65.65352284 197.64587207 -65.65352284 197.64587207 -81 209 C-90.44591005 214.67526748 -98.58493603 216.1810401 -109.4375 216.25 C-110.64889648 216.2809375 -110.64889648 216.2809375 -111.88476562 216.3125 C-117.59570419 216.34931508 -121.76276428 215.28490192 -127 213 C-126.52877252 206.0886636 -123.79363994 200.27795839 -121 194 C-120.12085938 194.15984375 -119.24171875 194.3196875 -118.3359375 194.484375 C-110.95326276 195.625491 -102.4846538 196.34783424 -96 192 C-85.76497928 181.31632084 -84.37881036 162.45244209 -82.125 148.5625 C-81.78572161 146.53271431 -81.44496005 144.50317603 -81.1027832 142.47387695 C-80.57947884 139.36920736 -80.05709016 136.2644167 -79.53944397 133.15879822 C-77.84300017 122.98569853 -76.02608033 112.83571277 -74.1875 102.6875 C-73.63877773 99.64983786 -73.09083893 96.61203467 -72.54296875 93.57421875 C-72.41565369 92.86912674 -72.28833862 92.16403473 -72.15716553 91.43757629 C-70.74898263 83.62899638 -69.37466637 75.81454488 -68 68 C-73.61 68 -79.22 68 -85 68 C-86.00236299 62.98818505 -85.73504404 60.61789955 -84.625 55.75 C-84.34914063 54.50734375 -84.07328125 53.2646875 -83.7890625 51.984375 C-83 49 -83 49 -82 48 C-80.65732587 47.91368126 -79.31025678 47.89293527 -77.96484375 47.90234375 C-77.15595703 47.90556641 -76.34707031 47.90878906 -75.51367188 47.91210938 C-74.66353516 47.92048828 -73.81339844 47.92886719 -72.9375 47.9375 C-72.08349609 47.94201172 -71.22949219 47.94652344 -70.34960938 47.95117188 C-68.23304337 47.96299627 -66.11651315 47.98093231 -64 48 C-63.9175 46.783125 -63.835 45.56625 -63.75 44.3125 C-62.24774763 31.3403478 -56.98484832 16.42860768 -47.0703125 7.4921875 C-34.16298728 -1.81082804 -15.30928378 -5.8164304 0 0 Z " fill="#FBFDFD" transform="translate(760,316)"/>
<path d="M0 0 C1.05960938 -0.00322266 2.11921875 -0.00644531 3.2109375 -0.00976562 C13.08741153 0.05680375 22.08623697 1.24098512 31.125 5.3125 C32.87296875 6.0859375 32.87296875 6.0859375 34.65625 6.875 C37.625 8.3125 37.625 8.3125 40.625 10.3125 C39.46305848 16.77962188 37.5001252 22.40872349 34.625 28.3125 C30.38449352 27.5922613 26.42505821 26.28293822 22.375 24.875 C5.85185361 19.24043355 5.85185361 19.24043355 -10.9375 22 C-14.17368989 23.91749297 -16.00698176 25.72145211 -17.375 29.3125 C-18.05118433 33.28508294 -17.62530655 34.88956824 -15.5625 38.375 C-9.33196951 45.10576024 1.6728622 47.46734196 10.125 50.25 C22.74133886 54.54322792 35.28554505 58.87264477 42.0625 71.25 C45.48700838 79.97505179 44.82068788 90.34034851 41.4375 98.9375 C37.25892977 107.52678325 32.15904587 112.00921341 23.625 116.3125 C22.79742188 116.73015625 21.96984375 117.1478125 21.1171875 117.578125 C6.49224041 123.63276782 -12.78108802 121.6687762 -27.375 116.3125 C-33.30047447 113.78906518 -39.01125998 110.88832668 -44.375 107.3125 C-43.9214821 100.28297248 -42.25440913 94.7275557 -39.375 88.3125 C-33.80722043 89.01659664 -29.31888543 91.7606267 -24.43359375 94.34179688 C-16.38238608 98.50542141 -9.31634129 99.67545473 -0.3125 99.6875 C1.13866211 99.72423828 1.13866211 99.72423828 2.61914062 99.76171875 C8.61476959 99.78634146 12.08336695 99.33654726 16.625 95.3125 C19.25806114 91.27513958 20.34065726 88.11762733 19.625 83.3125 C13.9975725 74.91080333 3.61640891 72.4736735 -5.6875 69.9375 C-18.2334877 66.47722419 -31.06366547 61.46488844 -38.66796875 50.4375 C-42.92947265 42.75806634 -42.53516482 32.76527464 -40.75 24.375 C-37.44234446 14.9245556 -30.21170745 7.74185211 -21.375 3.3125 C-14.28092817 0.17861953 -7.67697315 -0.11589633 0 0 Z " fill="#FBFDFD" transform="translate(612.375,361.6875)"/>
<path d="M0 0 C-1.16194152 6.46712188 -3.1248748 12.09622349 -6 18 C-10.11110236 17.31353075 -13.79255465 16.03237299 -17.6875 14.5625 C-28.0730795 10.8232591 -40.92489329 6.79228972 -51.5625 11.75 C-54.42135637 13.45580412 -56.58331351 14.9009983 -58 18 C-58.63495277 22.28593116 -58.37100122 24.36034273 -56.1875 28.125 C-49.90853227 34.78617531 -38.94253163 37.15682209 -30.5 39.9375 C-16.49253941 44.72083566 -6.11254477 49.25813177 2 62.1875 C4.78272754 72.79664874 3.59692129 83.56093764 -1.625 93.125 C-7.16904974 101.82755885 -15.34231363 105.87215577 -25 109 C-44.37523947 112.64144572 -65.80590034 109.84471614 -82.40625 98.80859375 C-83.69015625 97.91333984 -83.69015625 97.91333984 -85 97 C-84.5464821 89.97047248 -82.87940913 84.4150557 -80 78 C-74.43222043 78.70409664 -69.94388543 81.4481267 -65.05859375 84.02929688 C-57.16526096 88.11127754 -50.26695008 89.34356773 -41.4375 89.3125 C-40.51775391 89.32861328 -39.59800781 89.34472656 -38.65039062 89.36132812 C-32.47306061 89.36576905 -27.95994369 88.65374262 -23.1875 84.375 C-21.39331707 80.78663414 -20.52037886 77.00584979 -21 73 C-23.68925793 69.01560985 -25.9688918 67.18420295 -30.4296875 65.4609375 C-31.49155273 65.04811523 -32.55341797 64.63529297 -33.64746094 64.20996094 C-40.20271522 61.84411181 -46.81953183 59.66883205 -53.46484375 57.5703125 C-64.90808138 53.76947438 -75.05593353 47.80321286 -80.6328125 36.76953125 C-83.69706576 29.30762583 -83.15981074 19.10454113 -80.5 11.5625 C-75.33076671 0.84579684 -66.98930183 -4.49866441 -56.40625 -9.13671875 C-37.52332661 -13.92241378 -16.57222149 -9.41603494 0 0 Z " fill="#FBFDFD" transform="translate(270,372)"/>
<path d="M0 0 C0.99 0.66 1.98 1.32 3 2 C1.83805848 8.46712188 -0.1248748 14.09622349 -3 20 C-4.72945653 19.85764543 -6.45855654 19.71095618 -8.1875 19.5625 C-9.15042969 19.48128906 -10.11335937 19.40007812 -11.10546875 19.31640625 C-14 19 -14 19 -16.41015625 18.48046875 C-26.94657677 16.5257482 -36.78583561 17.71014827 -46.1875 22.6875 C-53.73447508 28.89279062 -58.21061661 37.35899734 -59.3671875 47.08911133 C-59.49818057 50.27735373 -59.49765494 53.4348475 -59.4375 56.625 C-59.44458984 57.69234375 -59.45167969 58.7596875 -59.45898438 59.859375 C-59.38102072 69.62282351 -57.25489562 78.29916747 -51 86 C-43.03779099 93.70086736 -34.68009516 95.39566379 -23.88500977 95.29223633 C-19.39887568 95.16675376 -15.2312189 94.6844507 -10.90625 93.51171875 C-7.97082603 92.72372584 -5.01167979 92.38446976 -2 92 C-1.00137441 94.22509293 -0.00814139 96.45229664 0.9765625 98.68359375 C1.72462856 100.37673563 2.48403608 102.06487937 3.25 103.75 C4.09505879 106.28517638 4.05275518 108.34465608 4 111 C-14.72934244 117.6214847 -37.38916585 119.65669532 -56.10546875 111.67578125 C-70.46730504 104.2913553 -77.56740796 93.55596123 -82.8359375 78.63671875 C-88.50123342 60.93742177 -86.48911833 39.55018586 -78.1875 23.125 C-70.3792249 9.84509072 -58.89857501 1.86853536 -44.17822266 -2.54638672 C-30.57107612 -5.38006507 -13.31210463 -3.93763746 0 0 Z " fill="#FBFDFD" transform="translate(1032,365)"/>
<path d="M0 0 C0.98484375 -0.00128906 1.9696875 -0.00257813 2.984375 -0.00390625 C4.02078125 -0.00003906 5.0571875 0.00382812 6.125 0.0078125 C7.67960937 0.00201172 7.67960937 0.00201172 9.265625 -0.00390625 C10.25046875 -0.00261719 11.2353125 -0.00132812 12.25 0 C13.16007812 0.00112793 14.07015625 0.00225586 15.0078125 0.00341797 C17.125 0.1328125 17.125 0.1328125 18.125 1.1328125 C18.22401097 3.19345085 18.25132318 5.25754109 18.25198364 7.32055664 C18.25354363 7.97407388 18.25510362 8.62759111 18.25671089 9.3009119 C18.26072261 11.50661997 18.2575306 13.71226008 18.25439453 15.91796875 C18.2557485 17.49282878 18.2575284 19.0676885 18.25970459 20.64254761 C18.26427949 24.93168279 18.26248913 29.22079403 18.2593255 33.50992966 C18.25680219 37.98847266 18.25913936 42.46701356 18.26071167 46.94555664 C18.26253345 54.46793996 18.26012683 61.99031348 18.25537109 69.51269531 C18.24992846 78.22241915 18.25169111 86.93211958 18.2571975 95.64184284 C18.26172839 103.10593778 18.2623793 110.57002565 18.25975883 118.03412151 C18.25819592 122.49818493 18.25800267 126.96223733 18.26129532 131.42630005 C18.26417368 135.62213365 18.26219899 139.81793693 18.25640106 144.01376724 C18.25507328 145.55817743 18.25546789 147.10259016 18.25766373 148.64699936 C18.26037452 150.74639072 18.25699502 152.84568338 18.25198364 154.94506836 C18.25160662 156.12274277 18.25122959 157.30041718 18.25084114 158.51377869 C18.125 161.1328125 18.125 161.1328125 17.125 162.1328125 C15.50242456 162.2319782 13.87560169 162.26361027 12.25 162.265625 C11.26515625 162.26691406 10.2803125 162.26820313 9.265625 162.26953125 C8.22921875 162.26566406 7.1928125 162.26179687 6.125 162.2578125 C5.08859375 162.26167969 4.0521875 162.26554688 2.984375 162.26953125 C1.99953125 162.26824219 1.0146875 162.26695312 0 162.265625 C-0.91007812 162.26449707 -1.82015625 162.26336914 -2.7578125 162.26220703 C-4.875 162.1328125 -4.875 162.1328125 -5.875 161.1328125 C-5.97401097 159.07217415 -6.00132318 157.00808391 -6.00198364 154.94506836 C-6.00354363 154.29155112 -6.00510362 153.63803389 -6.00671089 152.9647131 C-6.01072261 150.75900503 -6.0075306 148.55336492 -6.00439453 146.34765625 C-6.0057485 144.77279622 -6.0075284 143.1979365 -6.00970459 141.62307739 C-6.01427949 137.33394221 -6.01248913 133.04483097 -6.0093255 128.75569534 C-6.00680219 124.27715234 -6.00913936 119.79861144 -6.01071167 115.32006836 C-6.01253345 107.79768504 -6.01012683 100.27531152 -6.00537109 92.75292969 C-5.99992846 84.04320585 -6.00169111 75.33350542 -6.0071975 66.62378216 C-6.01172839 59.15968722 -6.0123793 51.69559935 -6.00975883 44.23150349 C-6.00819592 39.76744007 -6.00800267 35.30338767 -6.01129532 30.83932495 C-6.01417368 26.64349135 -6.01219899 22.44768807 -6.00640106 18.25185776 C-6.00507328 16.70744757 -6.00546789 15.16303484 -6.00766373 13.61862564 C-6.01037452 11.51923428 -6.00699502 9.41994162 -6.00198364 7.32055664 C-6.00160662 6.14288223 -6.00122959 4.96520782 -6.00084114 3.75184631 C-5.78550961 -0.72968132 -4.01316343 0.00497382 0 0 Z " fill="#FCFEFD" transform="translate(411.875,316.8671875)"/>
<path d="M0 0 C7.58823797 5.51617299 11.21219424 13.48230658 13.1171875 22.5390625 C13.343453 26.59853178 13.30234448 30.66141806 13.3046875 34.7265625 C13.31693359 35.82548828 13.32917969 36.92441406 13.34179688 38.05664062 C13.36328194 50.06679196 11.37161049 61.9445479 2.85546875 71.03125 C-3.4315415 76.48470158 -10.31076778 77.25236712 -18.44140625 76.98046875 C-25.43430405 76.08353634 -30.74955273 73.36434669 -35.2578125 67.9140625 C-43.99302053 54.87311454 -44.72831627 37.45474091 -42.56640625 22.32470703 C-40.87775641 14.3220643 -37.37936095 6.94359652 -31.5078125 1.2265625 C-21.75217546 -5.04491845 -10.28211998 -6.03442451 0 0 Z " fill="#02A1E0" transform="translate(815.8828125,385.4609375)"/>
<path d="M0 0 C1.4146816 4.24404479 -0.3036704 7.15128203 -1.875 11.125 C-2.29845703 12.23681641 -2.29845703 12.23681641 -2.73046875 13.37109375 C-4.84007626 18.84007626 -4.84007626 18.84007626 -6 20 C-7.87567955 19.95770734 -9.7514219 19.91002597 -11.62597656 19.83251953 C-19.80702671 19.54046261 -26.22241076 19.86917441 -33 25 C-40.69507704 32.19322419 -42.74092351 42.02740512 -43.1182251 52.18182373 C-43.18103932 55.34379574 -43.22880552 58.50537809 -43.26036072 61.66781425 C-43.28160804 63.7817153 -43.30860161 65.89547674 -43.33703613 68.0092926 C-43.40641183 73.2493479 -43.46648128 78.48950082 -43.52606201 83.72967529 C-43.57692117 88.17884419 -43.63165994 92.6279301 -43.69187927 97.0769825 C-43.71848299 99.16266061 -43.73926448 101.24834661 -43.7598877 103.33409119 C-43.77660522 104.58952225 -43.79332275 105.84495331 -43.81054688 107.13842773 C-43.82933899 108.80433205 -43.82933899 108.80433205 -43.84851074 110.50389099 C-44 113 -44 113 -45 114 C-46.54955559 114.09899523 -48.10353673 114.13079524 -49.65625 114.1328125 C-51.06583984 114.13474609 -51.06583984 114.13474609 -52.50390625 114.13671875 C-53.98697266 114.13091797 -53.98697266 114.13091797 -55.5 114.125 C-56.48871094 114.12886719 -57.47742188 114.13273437 -58.49609375 114.13671875 C-59.43582031 114.13542969 -60.37554688 114.13414062 -61.34375 114.1328125 C-62.21193359 114.13168457 -63.08011719 114.13055664 -63.97460938 114.12939453 C-66 114 -66 114 -67 113 C-67.09568576 111.51983606 -67.12188268 110.03511727 -67.12025452 108.55186462 C-67.12162918 107.5912764 -67.12300385 106.63068817 -67.12442017 105.64099121 C-67.12082489 104.57860229 -67.11722961 103.51621338 -67.11352539 102.42163086 C-67.11367142 101.30957779 -67.11381744 100.19752472 -67.1139679 99.05177307 C-67.11326821 95.35611049 -67.1054732 91.66049759 -67.09765625 87.96484375 C-67.09579227 85.41036507 -67.09436827 82.85588603 -67.09336853 80.30140686 C-67.08993344 74.2523829 -67.08204264 68.20338045 -67.07201904 62.15436512 C-67.06085683 55.26934846 -67.05534718 48.38433096 -67.05032361 41.49930751 C-67.03986 27.3328617 -67.02226123 13.16643183 -67 -1 C-63.35418313 -1.02887512 -59.70839537 -1.04675585 -56.0625 -1.0625 C-54.50112305 -1.07506836 -54.50112305 -1.07506836 -52.90820312 -1.08789062 C-51.42416992 -1.09272461 -51.42416992 -1.09272461 -49.91015625 -1.09765625 C-48.53549194 -1.10551147 -48.53549194 -1.10551147 -47.13305664 -1.11352539 C-45 -1 -45 -1 -44 0 C-43.54540142 2.65463121 -43.29756762 5.32189138 -43 8 C-42.3709375 7.52949219 -41.741875 7.05898438 -41.09375 6.57421875 C-28.54223231 -2.5558762 -15.12889975 -5.04296658 0 0 Z " fill="#FDFEFD" transform="translate(941,365)"/>
<path d="M0 0 C0 11.22 0 22.44 0 34 C-16.53685504 36.36240786 -16.53685504 36.36240786 -24.3125 36.375 C-25.12783203 36.39949219 -25.94316406 36.42398438 -26.78320312 36.44921875 C-32.87025727 36.4782739 -37.75128729 35.13458133 -43 32 C-48.38177317 26.34913817 -48.35511378 22.04262655 -48.26953125 14.42578125 C-47.92796231 10.08439047 -47.12897513 8.05075076 -44 5 C-31.36722864 -5.12332694 -14.89114508 -2.70748092 0 0 Z " fill="#04A2E0" transform="translate(359,426)"/>
<path d="M0 0 C7.58539432 4.5828424 11.94379127 9.43335532 14.25 17.9375 C15 21.8125 15 21.8125 15 26.8125 C-2.49 26.8125 -19.98 26.8125 -38 26.8125 C-36.01219043 15.87954738 -34.23454611 9.01810406 -25.94140625 2.00390625 C-18.78969504 -2.38497085 -7.81957876 -3.0788498 0 0 Z " fill="#06A3E0" transform="translate(1107,383.1875)"/>
<path d="M0 0 C5.87594918 3.16310674 9.54973641 8.66629772 12.375 14.5625 C12.9375 17.5625 12.9375 17.5625 12.9375 26.5625 C-4.2225 26.5625 -21.3825 26.5625 -39.0625 26.5625 C-37.83569204 15.5212284 -35.61894077 9.01493438 -27.02734375 1.9375 C-19.73509816 -3.16562217 -8.30548062 -3.14688625 0 0 Z " fill="#06A3E0" transform="translate(516.0625,383.4375)"/>
</svg>
