<svg xmlns="http://www.w3.org/2000/svg" xml:space="preserve" width="241" height="241" fill="none"><path fill="purple" d="M34 0A34 34 0 0 0 0 34v173a34 34 0 0 0 34 34h173a34 34 0 0 0 34-34V34a34 34 0 0 0-34-34Zm51.8 33.6h62a8.8 8.7 0 0 1 3.2.6 8.8 8.7 0 0 1 .2.1 8.8 8.7 0 0 1 2.8 1.9l44.2 43.4a8.8 8.7 0 0 1 1.9 2.8 8.8 8.7 0 0 1 0 .2 8.8 8.7 0 0 1 .7 3.2v95.7c0 14.3-12 26.1-26.5 26.1h-48.7a8.8 8.7 0 0 1-8.8-8.7 8.8 8.7 0 0 1 8.8-8.7h48.7c5 0 8.8-3.8 8.8-8.7v-87h-26.5c-9.7 0-17.7-7.9-17.7-17.4v-26H85.8c-5 0-8.9 3.7-8.9 8.6v69.6a8.8 8.7 0 0 1-8.8 8.7 8.8 8.7 0 0 1-8.9-8.7V59.7c0-14.3 12-26.1 26.6-26.1zm70.8 29.7v13.8h14zm-79.7 83.4a8.8 8.7 0 0 1 6.3 2.6l26.5 26a8.8 8.7 0 0 1 2.6 6.2 8.8 8.7 0 0 1-2.6 6.2l-26.5 26a8.8 8.7 0 0 1-12.5 0 8.8 8.7 0 0 1 0-12.2L82 190.2H41.6a8.8 8.7 0 0 1-8.9-8.7 8.8 8.7 0 0 1 8.9-8.7H82l-11.4-11.2a8.8 8.7 0 0 1 0-12.3 8.8 8.7 0 0 1 6.2-2.6z"/></svg>