<svg width="106" height="113" viewBox="0 0 106 113" fill="none" xmlns="http://www.w3.org/2000/svg">
<path d="M79.7552 53.1691C80.5307 53.0691 81.3063 53.0691 82.0819 53.1691C82.5072 52.2184 82.5823 50.5421 82.207 48.7658C81.6566 46.0888 80.881 44.4625 79.3298 44.7127C77.7787 44.9629 77.7036 46.9144 78.279 49.5914C78.5542 51.0675 79.1297 52.3685 79.7552 53.1691ZM66.32 55.2957C67.4458 55.7961 68.1214 56.1214 68.3966 55.8211C68.8719 55.3458 67.5209 53.4694 65.3693 52.5437C62.8173 51.4929 59.9151 51.8431 57.6885 53.4694C56.9379 54.0198 56.2374 54.7703 56.3374 55.2457C56.5626 56.1714 58.8393 54.5702 62.0167 54.37C63.743 54.2449 65.1941 54.7954 66.32 55.2957ZM64.0683 56.5717C61.7916 56.922 60.3155 58.1979 60.6907 59.0986C60.9159 59.1737 60.991 59.2988 61.9917 58.8985C63.4929 58.323 65.0941 58.1729 66.6953 58.3981C67.4208 58.4731 67.7711 58.5232 67.9462 58.273C68.2715 57.7476 66.4951 56.2965 64.0683 56.5717ZM77.6285 60.875C78.4792 59.1487 74.9015 57.3723 74.0508 59.1236C73.2002 60.8499 76.8029 62.6013 77.6285 60.875ZM81.5565 55.7461C79.6301 55.7211 79.555 59.6991 81.4815 59.7491C83.4329 59.7491 83.508 55.7711 81.5565 55.7461ZM26.715 75.511C26.3898 75.5861 25.2139 75.8863 24.5884 74.9106C23.2874 72.9091 27.3655 69.8067 25.339 65.9288C23.0623 61.5505 18.3587 62.5262 16.5574 64.5277C14.3807 66.9295 14.3807 70.4322 15.3064 70.5573C16.3822 70.7074 16.3322 68.9311 17.1578 67.6301C18.1335 66.1289 20.11 65.7036 21.6112 66.6794C21.6112 66.6794 21.6362 66.6794 21.6362 66.7044C24.5384 68.6058 21.9865 71.1577 22.2116 73.8848C22.5619 78.063 26.8401 77.9879 27.6157 76.1365C27.7158 75.9614 27.6908 75.7112 27.5657 75.5611C27.5657 75.8363 27.7158 75.2859 26.715 75.511ZM101.872 71.2328C101.021 68.2806 101.221 68.9311 100.171 66.0789C100.796 65.1532 103.998 60.0493 99.395 55.2457C96.793 52.5186 90.8886 51.0926 89.0872 50.5922C88.7119 47.74 90.2631 35.8811 83.6831 29.7764C88.8871 24.3724 92.1395 18.4178 92.1395 13.314C92.1145 3.50657 80.0554 0.52932 65.1941 6.68398L62.0418 8.00998C62.0167 7.98496 56.3374 2.43076 56.2624 2.3557C39.3496 -12.4055 -13.6405 46.4641 3.29732 60.7749L7.00012 63.9023C5.99936 66.5793 5.6491 69.4565 5.97435 72.3086C6.82499 80.69 15.0062 87.4701 22.9122 87.4451C37.3981 120.82 90.088 120.87 103.723 88.1956C104.149 87.0698 106 82.016 106 77.5626C106 73.1092 103.473 71.2328 101.872 71.2328ZM22.6119 83.3169C16.8826 83.1668 10.7029 78.0129 10.1025 71.9083C8.55129 56.5467 28.7165 53.044 31.1684 68.806C32.3193 76.2366 29.9925 83.4671 22.6119 83.3169ZM17.9834 54.6703C14.1806 55.4208 10.828 57.5725 8.77646 60.5497C7.55054 59.5239 5.27381 57.5474 4.87351 56.7969C1.62105 50.5672 8.45122 38.483 13.2298 31.6779C25.0388 14.8151 43.5277 2.05547 52.1092 4.35722C53.5103 4.75752 58.1138 10.0865 58.1138 10.0865C58.1138 10.0865 49.5573 14.8401 41.6263 21.4702C30.8932 29.7264 22.8121 41.6854 17.9834 54.6703ZM77.8787 80.0395C77.8787 80.0395 68.922 81.3655 60.4405 78.2631C61.9917 73.2093 67.2207 79.7893 84.6088 74.8105C88.4367 73.7097 93.4655 71.558 97.3935 68.4557C98.2441 70.4072 98.8446 72.4587 99.1698 74.5353C100.096 74.3602 102.748 74.4102 102.047 79.0637C101.221 84.0425 99.0948 88.0956 95.5421 91.8234C93.3154 94.2252 90.6634 96.2267 87.7362 97.6778C86.11 98.5284 84.3837 99.254 82.6323 99.8294C69.2222 104.208 55.4868 99.4041 51.0334 89.0463C50.6832 88.2457 50.3829 87.4451 50.1327 86.5944C48.2563 79.7643 49.8575 71.5831 54.8613 66.4292C55.1615 66.1039 55.4868 65.7036 55.4868 65.2283C55.4368 64.8029 55.2866 64.4026 55.0114 64.0774C53.2601 61.5255 47.1805 57.1972 48.4064 48.8158C49.2821 42.7863 54.5361 38.5581 59.4648 38.8083L60.7157 38.8833C62.8424 39.0084 64.6938 39.2836 66.4451 39.3587C69.3723 39.4838 72.0243 39.0585 75.1267 36.4565C76.1774 35.5808 77.0281 34.8052 78.4542 34.5801C79.6301 34.2798 80.856 34.505 81.8567 35.1305C84.3586 36.8068 84.7089 40.8348 84.834 43.787C84.9091 45.4633 85.1092 49.5664 85.1843 50.7173C85.3344 53.3943 86.0349 53.7696 87.461 54.2199C88.2616 54.4951 89.0122 54.6703 90.088 54.9955C93.3905 55.9212 95.3419 56.8719 96.6179 58.0728C97.2684 58.6983 97.6687 59.5239 97.8188 60.3996C98.2191 63.2518 95.6172 66.7794 88.7119 69.9568C77.0031 75.3859 65.2192 73.5846 63.5179 73.3844C58.464 72.7089 55.5869 79.2389 58.6142 83.6922C64.2935 92.0736 89.3124 88.696 96.5679 78.3382C96.743 78.088 96.5929 77.9379 96.3927 78.088C85.9098 85.2434 72.0493 87.6702 64.1684 84.6179C62.9675 84.1426 60.4656 82.9917 60.1653 80.4398C71.0986 83.8173 77.9788 80.6149 77.9788 80.6149C77.9788 80.6149 78.5292 79.9644 77.8787 80.0395ZM39.7999 31.6028C44.0031 26.7492 49.157 22.521 53.8105 20.1692C53.8856 20.1191 54.0107 20.1442 54.0607 20.2442C54.0857 20.2943 54.0857 20.3693 54.0607 20.4194C53.6854 21.0949 52.9849 22.521 52.7597 23.5968C52.7347 23.6968 52.8098 23.7969 52.9098 23.8219C52.9599 23.847 53.0099 23.8219 53.06 23.7969C55.9371 21.8454 60.9659 19.7188 65.3442 19.4686C65.4443 19.4686 65.5444 19.5437 65.5444 19.6438C65.5444 19.7188 65.5194 19.7689 65.4693 19.8189C64.7438 20.3693 64.0933 21.0198 63.5429 21.7704C63.4929 21.8454 63.4928 21.9705 63.5929 22.0206C63.6179 22.0456 63.668 22.0456 63.693 22.0456C66.7703 22.0706 71.1236 23.1464 73.9758 24.7476C74.1759 24.8477 74.0258 25.223 73.8257 25.173C56.3875 21.1699 42.9523 29.8265 40.1002 31.9031C40.0001 31.9531 39.9 31.9281 39.825 31.853C39.7499 31.7529 39.7499 31.6529 39.7999 31.6028Z" fill="black"/>
</svg>
