<svg fill="none" viewBox="0 0 18 18" class="msportalfx-svg-placeholder" xmlns="http://www.w3.org/2000/svg"><title>Microsoft Foundry</title><desc></desc><g clip-path="url(#pHSBdRAzk__a)"><path fill="url(#pHSBdRAzk__b)" d="M11.958 11.683c.037 0 .074-.1.074-.238V7.577c0-.853.66-1.76 1.585-2.034-.057-.188-.645-2.112-.81-2.646C12.631 2.335 12.131 1 11.52 1l-.014.001q-.07.013-.135.129c-.32.583-.463 3.015-.463 4.837V8.23c.275.97.912 3.217.961 3.353 0 0 .05.1.088.1" /><path fill="url(#pHSBdRAzk__c)" d="M11.958 11.683c.037 0 .074-.1.074-.238V7.577c0-.853.66-1.76 1.585-2.034-.057-.188-.645-2.112-.81-2.646C12.631 2.335 12.131 1 11.52 1l-.014.001q-.07.013-.135.129c-.32.583-.463 3.015-.463 4.837V8.23c.275.97.912 3.217.961 3.353 0 0 .05.1.088.1" /><path fill="url(#pHSBdRAzk__d)" d="M16.015 5.456h-1.807c-1.214 0-2.175 1.085-2.175 2.109v3.867c0 .139-.037.239-.074.239-.038 0-.088-.1-.088-.1s.075.212.175.212h1.98c.616 0 2.475-.611 2.475-2.52V6.006c0-.414-.237-.551-.486-.551" /><path fill="url(#pHSBdRAzk__e)" d="M2.336 17h5.38c2.346 0 3.194-2.034 3.194-3.807V5.967c0-2.084.188-4.967.612-4.967H8.296c-.768 0-1.43.824-2.178 2.484-.75 1.66-4.357 11.872-4.518 12.355-.262.787-.025 1.161.736 1.161" /></g><defs><linearGradient id="pHSBdRAzk__b" x1="10.909" x2="13.617" y1="6.342" y2="6.342" gradientUnits="userSpaceOnUse"><stop stop-color="#302EC9" /><stop offset=".12" stop-color="#151698" /><stop offset=".25" stop-color="#0A0B7E" /><stop offset=".43" stop-color="#090C7F" /><stop offset=".51" stop-color="#141698" /><stop offset=".61" stop-color="#282AC4" /><stop offset=".77" stop-color="#8E8FF4" /><stop offset=".85" stop-color="#A7A6F7" /><stop offset=".91" stop-color="#CACAFB" /><stop offset="1" stop-color="#fff" /></linearGradient><linearGradient id="pHSBdRAzk__c" x1="12.263" x2="12.263" y1="11.683" y2="1.766" gradientUnits="userSpaceOnUse"><stop offset=".02" stop-color="#201BA6" /><stop offset=".64" stop-color="#2D29C7" /><stop offset="1" stop-color="#201BA6" /></linearGradient><linearGradient id="pHSBdRAzk__d" x1="14.186" x2="14.186" y1="11.73" y2="5.526" gradientUnits="userSpaceOnUse"><stop stop-color="#3530C3" /><stop offset=".5" stop-color="#6D71D1" /><stop offset=".967" stop-color="#C0BFF5" /><stop offset="1" stop-color="#E3E4FF" /></linearGradient><linearGradient id="pHSBdRAzk__e" x1="5.642" x2="5.642" y1="16.984" y2=".83" gradientUnits="userSpaceOnUse"><stop stop-color="#302EC9" /><stop offset=".446" stop-color="#302EC9" /><stop offset=".949" stop-color="#CACAFB" /><stop offset="1" stop-color="#7F7EAF" /></linearGradient><clipPath id="pHSBdRAzk__a"><path fill="#fff" d="M1.497 1h15.004v16H1.497z" /></clipPath></defs><style>.msportalfx-svg-c01{fill:#fff}.msportalfx-svg-c02{fill:#e5e5e5}.msportalfx-svg-c03{fill:#a0a1a2}.msportalfx-svg-c04{fill:#7a7a7a}.msportalfx-svg-c05{fill:#3e3e3e}.msportalfx-svg-c06{fill:#1e1e1e}.msportalfx-svg-c07{fill:#0f0f0f}.msportalfx-svg-c08{fill:#ba141a}.msportalfx-svg-c09{fill:#dd5900}.msportalfx-svg-c10{fill:#ff8c00}.msportalfx-svg-c11{fill:#fcd116}.msportalfx-svg-c12{fill:#fee087}.msportalfx-svg-c13{fill:#b8d432}.msportalfx-svg-c14,.msportalfx-svg-c32{fill:#57a300}.msportalfx-svg-c15{fill:#59b4d9}.msportalfx-svg-c16{fill:#3999c6}.msportalfx-svg-c17{fill:#804998}.msportalfx-svg-c18{fill:#ec008c}.msportalfx-svg-c19{fill:#0072c6}.msportalfx-svg-c20{fill:#68217a}.msportalfx-svg-c21{fill:#00188f}.msportalfx-svg-c22{fill:#e81123}.fxs-mode-light .msportalfx-svg-c22{fill:#a4262c}.msportalfx-svg-c23{fill:#cae3f3}.msportalfx-svg-c24{fill:#59aed3}.msportalfx-svg-c25{fill:#4c3b12}.msportalfx-svg-c26{fill:#be9555}.msportalfx-svg-c27{fill:#4f4d52}.msportalfx-svg-c28{fill:#ef6f59}.msportalfx-svg-c29{fill:#f7cb64}.msportalfx-svg-c30{fill:#fdd8db}.msportalfx-svg-c31{fill:#f6ffec}.msportalfx-svg-c33{fill:#8a2da5}.msportalfx-svg-c34{fill:#e00b1c}.msportalfx-svg-c35{fill:#015cda}.msportalfx-svg-c36{fill:#5db300}.msportalfx-svg-c97{fill:#ffb900}.msportalfx-svg-c98{fill:#00a4ef}.msportalfx-svg-c99{fill:#f25022}.msportalfx-inverted-theme .msportalfx-svg-c05,.fxs-theme-dark .msportalfx-svg-c05{fill:#777}.msportalfx-inverted-theme .msportalfx-svg-c07,.fxs-theme-dark .msportalfx-svg-c07{fill:#f2f2f2}.msportalfx-svg-palette-white{fill:#fff}.msportalfx-svg-palette-blue{fill:#015cda}.msportalfx-svg-palette-black{fill:#1e1e1e}.msportalfx-svg-palette-green{fill:#57a300}.msportalfx-svg-palette-gray{fill:#a0a1a2}.msportalfx-svg-palette-inherit{fill:inherit}.msportalfx-svg-badge{position:absolute;left:0;bottom:0;min-height:10px;min-width:10px}.fxc-menu-icon&gt;.msportalfx-svg-badge{left:-2px;bottom:-2px;min-height:8px;min-width:8px}.msportalfx-svg-disabled{filter:grayscale(100%)}.msportalfx-svg-loading-square{animation:ProgressFlagAnimation 1.45s infinite ease-in-out;transform-origin:50%}.msportalfx-svg-loading-square:nth-child(1){animation-delay:0s}.msportalfx-svg-loading-square:nth-child(2){animation-delay:.2s}.msportalfx-svg-loading-square:nth-child(3){animation-delay:.4s}@keyframes ProgressFlagAnimation{0%{transform:scale(1);opacity:.3}36.1%{transform:scale(1.06);opacity:1}50%{transform:scale(1.06);opacity:1}86.1%{transform:scale(1);opacity:.3}}.msportalfx-svg-flip-horizontal&gt;svg,svg.msportalfx-svg-flip-horizontal{transform:scaleX(-1)}.msportalfx-svg-fabric-rotate360{animation:ImageRotation 1.3s cubic-bezier(.53,.21,.29,.67) infinite}@keyframes ImageRotation{0%{transform:rotate(-45deg)}100%{transform:rotate(315deg)}}.fxs-svg-number .msportalfx-font-bold{font-size:10px;fill:#0065ad}.fxs-svg-number .fxs-svg-circle{stroke-width:0%;fill:#0078d4}.fxs-svg-number .fxs-svg-text{fill:#fff;font-size:10px}.fxs-svg-number.msportalfx-svg-disabled{filter:grayscale(0%)}.fxs-svg-number.msportalfx-svg-disabled .fxs-svg-circle{fill:#fff;stroke-width:1px;stroke:#949494}.fxs-svg-number.msportalfx-svg-disabled .fxs-svg-text{fill:#949494}.fxs-theme-dark .fxs-svg-number .fxs-svg-text{fill:#0f0f0f}.fxs-theme-dark .fxs-svg-number .fxs-svg-circle{stroke-width:0%;fill:#0078d4}.fxs-theme-dark .fxs-svg-number.msportalfx-svg-disabled .fxs-svg-circle{fill:#0f0f0f;stroke-width:1px;stroke:#949494}.fxs-theme-dark .fxs-svg-number.msportalfx-svg-disabled .fxs-svg-text{fill:#949494}</style></svg>