<?xml version="1.0" encoding="UTF-8"?>
<svg id="logotipos" xmlns="http://www.w3.org/2000/svg" viewBox="0 0 1363 822">
  <defs>
    <style>
      .cls-1 {
        fill: #f26522;
      }

      .cls-2 {
        fill: #f2efe8;
      }
    </style>
  </defs>
  <rect class="cls-1" width="1363" height="822"/>
  <path class="cls-2" d="m340.32,335.11l-60.36-24.61c-48.05-19.34-67.98-38.09-67.98-66.22,0-31.06,22.27-50.98,60.94-50.98,45.71,0,70.32,25.78,70.32,70.91h67.39c0-77.35-53.91-128.33-135.37-128.33s-131.26,45.71-131.26,112.51c0,52.15,26.96,89.07,78.52,109l66.8,26.96c46.29,18.75,60.94,34.57,60.94,65.63,0,36.92-24.61,57.43-69.15,57.43-50.98,0-81.45-32.23-81.45-85.56h-67.39c0,92,54.5,144.16,149.43,144.16,81.45,0,135.95-47.47,135.95-117.79,0-55.67-25.78-92-77.35-113.1Zm211.27,113.68v-112.51h65.69v-53.33h-65.69v-82.63h-63.87v82.63h-46.29v53.33h46.29v127.16c0,92,57.43,96.1,88.49,96.1,18.75,0,37.5-1.76,47.47-3.52v-56.26c-6.45,1.17-22.27,2.34-32.23,2.34-25.2,0-39.85-5.86-39.85-53.33Zm318.64-128.92c-16.99-27.54-49.81-43.95-86.14-43.95-84.97,0-135.95,63.29-135.95,143.57s46.29,143.57,134.19,143.57c33.4,0,70.91-16.41,87.9-43.95v36.92h63.29v-273.08h-63.29v36.92Zm-78.52,186.35c-49.81,0-79.7-36.92-79.7-86.73s29.89-86.73,79.7-86.73c54.5,0,80.87,39.85,80.87,86.73s-26.37,86.73-80.87,86.73Zm375.12-223.27v141.23c0,46.88-21.1,82.63-65.63,82.63s-59.19-30.47-59.19-70.91v-152.95h-63.87v166.42c0,65.63,33.4,113.68,100.79,113.68,40.43,0,70.91-15.82,87.9-45.12v34.57c0,58.01-27.54,80.87-65.63,80.87-41.02,0-55.67-16.41-58.6-46.29h-64.46c.59,29.89,11.13,53.91,30.47,70.91,21.68,18.17,53.33,28.13,93.76,28.13s70.32-11.13,92.59-31.65c22.85-22.27,35.75-54.5,35.75-97.28v-274.25h-63.87Z"/>
</svg>