<svg xmlns="http://www.w3.org/2000/svg" fill="none" height="1799" width="2500" viewBox="0 -0.224 1457.67 1048.5639999999999"><path clip-rule="evenodd" d="M1075.77 1048.34s-2.8-3.36-7.6-9.13c-13.19-15.87-41.43-50.035-67.67-83.016a2945.986 2945.986 0 0 1-7.096-8.951c163.496-46.179 225.886-148.511 225.886-148.511-44.77 29.486-87.63 51.33-126.91 67.189a623.587 623.587 0 0 1-16.61 6.435c-62.39 26.217-122.3 43.68-180.953 53.67-119.813 22.463-229.635 16.227-323.232-1.245-71.142-13.735-132.294-33.699-183.456-53.662-28.707-11.236-59.906-24.962-91.114-42.434-1.754-1.174-3.511-2.071-5.268-2.952l-.348-.174-.005-.002-.004-.002c-1.866-.934-3.734-1.869-5.602-3.115-2.491-1.246-3.745-2.491-4.99-3.737-16.848-9.361-28.08-16.615-32.643-19.657-1.521-1.014-2.301-1.56-2.301-1.56s3.744 6.24 11.836 16.341c24.278 30.303 87.693 95.354 206.564 130.917-37.436 47.434-83.615 103.586-83.615 103.586C104.823 1039.59 0 858.638 0 858.638 0 456.782 179.711 131.05 179.711 131.05 314.494 29.961 444.363 6.796 500.874 1.531 519.71-.224 530.396.011 530.396.011l12.482 14.98c-224.637 64.88-328.223 163.484-328.223 163.484s24.129-13.159 65.189-32.286c2.737-1.275 5.55-2.577 8.435-3.903C388.434 98.29 473.146 78.169 527.67 69.278c18.175-2.964 32.995-4.68 43.915-5.616.895-.15 1.771-.3 2.635-.448l.056-.009h.003c6.334-1.083 11.949-2.043 18.523-2.043a1055.98 1055.98 0 0 1 252.099-2.491c118.55 13.727 245.849 48.671 375.639 119.804 0 0-86.65-82.262-272.297-146.018a1190.34 1190.34 0 0 0-38.453-12.475L927.261.02s.668-.015 1.964-.01c18.146.076 159.435 4.088 315.165 107.365a704.317 704.317 0 0 1 33.56 23.685s157.95 286.28 177.7 653.184c1.31 24.46 2.02 49.279 2.02 74.395 0 0-106.09 180.952-381.9 189.692zM495.452 465.518c-66.687 0-120.208 54.842-126.638 124.421a153.113 153.113 0 0 0-.648 14.101c0 76.133 57.398 138.53 127.286 138.53 71.142 0 127.295-62.397 127.295-138.53 1.254-76.125-56.153-138.522-127.286-138.522zm455.527 0c-66.696 0-120.225 54.842-126.656 124.421a153.113 153.113 0 0 0-.648 14.101c0 76.133 57.415 138.53 127.304 138.53 71.131 0 127.281-62.397 127.281-138.53 0-76.125-56.15-138.522-127.281-138.522z" fill="#7289da" fill-rule="evenodd"/></svg>
